<?xml version="1.0" encoding="utf-8" standalone="no"?>
<!DOCTYPE svg PUBLIC "-//W3C//DTD SVG 1.1//EN"
  "http://www.w3.org/Graphics/SVG/1.1/DTD/svg11.dtd">
<svg xmlns:xlink="http://www.w3.org/1999/xlink" width="720pt" height="360pt" viewBox="0 0 720 360" xmlns="http://www.w3.org/2000/svg" version="1.1">
 <metadata>
  <rdf:RDF xmlns:dc="http://purl.org/dc/elements/1.1/" xmlns:cc="http://creativecommons.org/ns#" xmlns:rdf="http://www.w3.org/1999/02/22-rdf-syntax-ns#">
   <cc:Work>
    <dc:type rdf:resource="http://purl.org/dc/dcmitype/StillImage"/>
    <dc:date>2022-02-22T23:08:25.705530</dc:date>
    <dc:format>image/svg+xml</dc:format>
    <dc:creator>
     <cc:Agent>
      <dc:title>Matplotlib v3.5.1, https://matplotlib.org/</dc:title>
     </cc:Agent>
    </dc:creator>
   </cc:Work>
  </rdf:RDF>
 </metadata>
 <defs>
  <style type="text/css">*{stroke-linejoin: round; stroke-linecap: butt}</style>
 </defs>
 <g id="figure_1">
  <g id="patch_1">
   <path d="M 0 360 
L 720 360 
L 720 0 
L 0 0 
L 0 360 
z
" style="fill: none"/>
  </g>
  <g id="axes_1">
   <g id="patch_2">
    <path d="M 50.46 327.04 
L 707.04 327.04 
L 707.04 12.96 
L 50.46 12.96 
z
" style="fill: #ffffff"/>
   </g>
   <g id="matplotlib.axis_1">
    <g id="xtick_1">
     <g id="line2d_1">
      <defs>
       <path id="m2e71b0edc5" d="M 0 0 
L 0 3.5 
" style="stroke: #000000; stroke-width: 0.8"/>
      </defs>
      <g>
       <use xlink:href="#m2e71b0edc5" x="80.304545" y="327.04" style="stroke: #000000; stroke-width: 0.8"/>
      </g>
     </g>
     <g id="text_1">
      <!-- Dec 05 -->
      <g transform="translate(59.151733 343.158125)scale(0.12 -0.12)">
       <defs>
        <path id="DejaVuSans-44" d="M 1259 4147 
L 1259 519 
L 2022 519 
Q 2988 519 3436 956 
Q 3884 1394 3884 2338 
Q 3884 3275 3436 3711 
Q 2988 4147 2022 4147 
L 1259 4147 
z
M 628 4666 
L 1925 4666 
Q 3281 4666 3915 4102 
Q 4550 3538 4550 2338 
Q 4550 1131 3912 565 
Q 3275 0 1925 0 
L 628 0 
L 628 4666 
z
" transform="scale(0.015625)"/>
        <path id="DejaVuSans-65" d="M 3597 1894 
L 3597 1613 
L 953 1613 
Q 991 1019 1311 708 
Q 1631 397 2203 397 
Q 2534 397 2845 478 
Q 3156 559 3463 722 
L 3463 178 
Q 3153 47 2828 -22 
Q 2503 -91 2169 -91 
Q 1331 -91 842 396 
Q 353 884 353 1716 
Q 353 2575 817 3079 
Q 1281 3584 2069 3584 
Q 2775 3584 3186 3129 
Q 3597 2675 3597 1894 
z
M 3022 2063 
Q 3016 2534 2758 2815 
Q 2500 3097 2075 3097 
Q 1594 3097 1305 2825 
Q 1016 2553 972 2059 
L 3022 2063 
z
" transform="scale(0.015625)"/>
        <path id="DejaVuSans-63" d="M 3122 3366 
L 3122 2828 
Q 2878 2963 2633 3030 
Q 2388 3097 2138 3097 
Q 1578 3097 1268 2742 
Q 959 2388 959 1747 
Q 959 1106 1268 751 
Q 1578 397 2138 397 
Q 2388 397 2633 464 
Q 2878 531 3122 666 
L 3122 134 
Q 2881 22 2623 -34 
Q 2366 -91 2075 -91 
Q 1284 -91 818 406 
Q 353 903 353 1747 
Q 353 2603 823 3093 
Q 1294 3584 2113 3584 
Q 2378 3584 2631 3529 
Q 2884 3475 3122 3366 
z
" transform="scale(0.015625)"/>
        <path id="DejaVuSans-20" transform="scale(0.015625)"/>
        <path id="DejaVuSans-30" d="M 2034 4250 
Q 1547 4250 1301 3770 
Q 1056 3291 1056 2328 
Q 1056 1369 1301 889 
Q 1547 409 2034 409 
Q 2525 409 2770 889 
Q 3016 1369 3016 2328 
Q 3016 3291 2770 3770 
Q 2525 4250 2034 4250 
z
M 2034 4750 
Q 2819 4750 3233 4129 
Q 3647 3509 3647 2328 
Q 3647 1150 3233 529 
Q 2819 -91 2034 -91 
Q 1250 -91 836 529 
Q 422 1150 422 2328 
Q 422 3509 836 4129 
Q 1250 4750 2034 4750 
z
" transform="scale(0.015625)"/>
        <path id="DejaVuSans-35" d="M 691 4666 
L 3169 4666 
L 3169 4134 
L 1269 4134 
L 1269 2991 
Q 1406 3038 1543 3061 
Q 1681 3084 1819 3084 
Q 2600 3084 3056 2656 
Q 3513 2228 3513 1497 
Q 3513 744 3044 326 
Q 2575 -91 1722 -91 
Q 1428 -91 1123 -41 
Q 819 9 494 109 
L 494 744 
Q 775 591 1075 516 
Q 1375 441 1709 441 
Q 2250 441 2565 725 
Q 2881 1009 2881 1497 
Q 2881 1984 2565 2268 
Q 2250 2553 1709 2553 
Q 1456 2553 1204 2497 
Q 953 2441 691 2322 
L 691 4666 
z
" transform="scale(0.015625)"/>
       </defs>
       <use xlink:href="#DejaVuSans-44"/>
       <use xlink:href="#DejaVuSans-65" x="77.001953"/>
       <use xlink:href="#DejaVuSans-63" x="138.525391"/>
       <use xlink:href="#DejaVuSans-20" x="193.505859"/>
       <use xlink:href="#DejaVuSans-30" x="225.292969"/>
       <use xlink:href="#DejaVuSans-35" x="288.916016"/>
      </g>
     </g>
    </g>
    <g id="xtick_2">
     <g id="line2d_2">
      <g>
       <use xlink:href="#m2e71b0edc5" x="152.899386" y="327.04" style="stroke: #000000; stroke-width: 0.8"/>
      </g>
     </g>
     <g id="text_2">
      <!-- Dec 15 -->
      <g transform="translate(131.746573 343.158125)scale(0.12 -0.12)">
       <defs>
        <path id="DejaVuSans-31" d="M 794 531 
L 1825 531 
L 1825 4091 
L 703 3866 
L 703 4441 
L 1819 4666 
L 2450 4666 
L 2450 531 
L 3481 531 
L 3481 0 
L 794 0 
L 794 531 
z
" transform="scale(0.015625)"/>
       </defs>
       <use xlink:href="#DejaVuSans-44"/>
       <use xlink:href="#DejaVuSans-65" x="77.001953"/>
       <use xlink:href="#DejaVuSans-63" x="138.525391"/>
       <use xlink:href="#DejaVuSans-20" x="193.505859"/>
       <use xlink:href="#DejaVuSans-31" x="225.292969"/>
       <use xlink:href="#DejaVuSans-35" x="288.916016"/>
      </g>
     </g>
    </g>
    <g id="xtick_3">
     <g id="line2d_3">
      <g>
       <use xlink:href="#m2e71b0edc5" x="225.494226" y="327.04" style="stroke: #000000; stroke-width: 0.8"/>
      </g>
     </g>
     <g id="text_3">
      <!-- Dec 25 -->
      <g transform="translate(204.341414 343.158125)scale(0.12 -0.12)">
       <defs>
        <path id="DejaVuSans-32" d="M 1228 531 
L 3431 531 
L 3431 0 
L 469 0 
L 469 531 
Q 828 903 1448 1529 
Q 2069 2156 2228 2338 
Q 2531 2678 2651 2914 
Q 2772 3150 2772 3378 
Q 2772 3750 2511 3984 
Q 2250 4219 1831 4219 
Q 1534 4219 1204 4116 
Q 875 4013 500 3803 
L 500 4441 
Q 881 4594 1212 4672 
Q 1544 4750 1819 4750 
Q 2544 4750 2975 4387 
Q 3406 4025 3406 3419 
Q 3406 3131 3298 2873 
Q 3191 2616 2906 2266 
Q 2828 2175 2409 1742 
Q 1991 1309 1228 531 
z
" transform="scale(0.015625)"/>
       </defs>
       <use xlink:href="#DejaVuSans-44"/>
       <use xlink:href="#DejaVuSans-65" x="77.001953"/>
       <use xlink:href="#DejaVuSans-63" x="138.525391"/>
       <use xlink:href="#DejaVuSans-20" x="193.505859"/>
       <use xlink:href="#DejaVuSans-32" x="225.292969"/>
       <use xlink:href="#DejaVuSans-35" x="288.916016"/>
      </g>
     </g>
    </g>
    <g id="xtick_4">
     <g id="line2d_4">
      <g>
       <use xlink:href="#m2e71b0edc5" x="298.089066" y="327.04" style="stroke: #000000; stroke-width: 0.8"/>
      </g>
     </g>
     <g id="text_4">
      <!-- Jan 03 -->
      <g transform="translate(279.297816 343.158125)scale(0.12 -0.12)">
       <defs>
        <path id="DejaVuSans-4a" d="M 628 4666 
L 1259 4666 
L 1259 325 
Q 1259 -519 939 -900 
Q 619 -1281 -91 -1281 
L -331 -1281 
L -331 -750 
L -134 -750 
Q 284 -750 456 -515 
Q 628 -281 628 325 
L 628 4666 
z
" transform="scale(0.015625)"/>
        <path id="DejaVuSans-61" d="M 2194 1759 
Q 1497 1759 1228 1600 
Q 959 1441 959 1056 
Q 959 750 1161 570 
Q 1363 391 1709 391 
Q 2188 391 2477 730 
Q 2766 1069 2766 1631 
L 2766 1759 
L 2194 1759 
z
M 3341 1997 
L 3341 0 
L 2766 0 
L 2766 531 
Q 2569 213 2275 61 
Q 1981 -91 1556 -91 
Q 1019 -91 701 211 
Q 384 513 384 1019 
Q 384 1609 779 1909 
Q 1175 2209 1959 2209 
L 2766 2209 
L 2766 2266 
Q 2766 2663 2505 2880 
Q 2244 3097 1772 3097 
Q 1472 3097 1187 3025 
Q 903 2953 641 2809 
L 641 3341 
Q 956 3463 1253 3523 
Q 1550 3584 1831 3584 
Q 2591 3584 2966 3190 
Q 3341 2797 3341 1997 
z
" transform="scale(0.015625)"/>
        <path id="DejaVuSans-6e" d="M 3513 2113 
L 3513 0 
L 2938 0 
L 2938 2094 
Q 2938 2591 2744 2837 
Q 2550 3084 2163 3084 
Q 1697 3084 1428 2787 
Q 1159 2491 1159 1978 
L 1159 0 
L 581 0 
L 581 3500 
L 1159 3500 
L 1159 2956 
Q 1366 3272 1645 3428 
Q 1925 3584 2291 3584 
Q 2894 3584 3203 3211 
Q 3513 2838 3513 2113 
z
" transform="scale(0.015625)"/>
        <path id="DejaVuSans-33" d="M 2597 2516 
Q 3050 2419 3304 2112 
Q 3559 1806 3559 1356 
Q 3559 666 3084 287 
Q 2609 -91 1734 -91 
Q 1441 -91 1130 -33 
Q 819 25 488 141 
L 488 750 
Q 750 597 1062 519 
Q 1375 441 1716 441 
Q 2309 441 2620 675 
Q 2931 909 2931 1356 
Q 2931 1769 2642 2001 
Q 2353 2234 1838 2234 
L 1294 2234 
L 1294 2753 
L 1863 2753 
Q 2328 2753 2575 2939 
Q 2822 3125 2822 3475 
Q 2822 3834 2567 4026 
Q 2313 4219 1838 4219 
Q 1578 4219 1281 4162 
Q 984 4106 628 3988 
L 628 4550 
Q 988 4650 1302 4700 
Q 1616 4750 1894 4750 
Q 2613 4750 3031 4423 
Q 3450 4097 3450 3541 
Q 3450 3153 3228 2886 
Q 3006 2619 2597 2516 
z
" transform="scale(0.015625)"/>
       </defs>
       <use xlink:href="#DejaVuSans-4a"/>
       <use xlink:href="#DejaVuSans-61" x="29.492188"/>
       <use xlink:href="#DejaVuSans-6e" x="90.771484"/>
       <use xlink:href="#DejaVuSans-20" x="154.150391"/>
       <use xlink:href="#DejaVuSans-30" x="185.9375"/>
       <use xlink:href="#DejaVuSans-33" x="249.560547"/>
      </g>
     </g>
    </g>
    <g id="xtick_5">
     <g id="line2d_5">
      <g>
       <use xlink:href="#m2e71b0edc5" x="370.683907" y="327.04" style="stroke: #000000; stroke-width: 0.8"/>
      </g>
     </g>
     <g id="text_5">
      <!-- Jan 12 -->
      <g transform="translate(351.892657 343.158125)scale(0.12 -0.12)">
       <use xlink:href="#DejaVuSans-4a"/>
       <use xlink:href="#DejaVuSans-61" x="29.492188"/>
       <use xlink:href="#DejaVuSans-6e" x="90.771484"/>
       <use xlink:href="#DejaVuSans-20" x="154.150391"/>
       <use xlink:href="#DejaVuSans-31" x="185.9375"/>
       <use xlink:href="#DejaVuSans-32" x="249.560547"/>
      </g>
     </g>
    </g>
    <g id="xtick_6">
     <g id="line2d_6">
      <g>
       <use xlink:href="#m2e71b0edc5" x="443.278747" y="327.04" style="stroke: #000000; stroke-width: 0.8"/>
      </g>
     </g>
     <g id="text_6">
      <!-- Jan 21 -->
      <g transform="translate(424.487497 343.158125)scale(0.12 -0.12)">
       <use xlink:href="#DejaVuSans-4a"/>
       <use xlink:href="#DejaVuSans-61" x="29.492188"/>
       <use xlink:href="#DejaVuSans-6e" x="90.771484"/>
       <use xlink:href="#DejaVuSans-20" x="154.150391"/>
       <use xlink:href="#DejaVuSans-32" x="185.9375"/>
       <use xlink:href="#DejaVuSans-31" x="249.560547"/>
      </g>
     </g>
    </g>
    <g id="xtick_7">
     <g id="line2d_7">
      <g>
       <use xlink:href="#m2e71b0edc5" x="515.873587" y="327.04" style="stroke: #000000; stroke-width: 0.8"/>
      </g>
     </g>
     <g id="text_7">
      <!-- Feb 01 -->
      <g transform="translate(495.709837 343.158125)scale(0.12 -0.12)">
       <defs>
        <path id="DejaVuSans-46" d="M 628 4666 
L 3309 4666 
L 3309 4134 
L 1259 4134 
L 1259 2759 
L 3109 2759 
L 3109 2228 
L 1259 2228 
L 1259 0 
L 628 0 
L 628 4666 
z
" transform="scale(0.015625)"/>
        <path id="DejaVuSans-62" d="M 3116 1747 
Q 3116 2381 2855 2742 
Q 2594 3103 2138 3103 
Q 1681 3103 1420 2742 
Q 1159 2381 1159 1747 
Q 1159 1113 1420 752 
Q 1681 391 2138 391 
Q 2594 391 2855 752 
Q 3116 1113 3116 1747 
z
M 1159 2969 
Q 1341 3281 1617 3432 
Q 1894 3584 2278 3584 
Q 2916 3584 3314 3078 
Q 3713 2572 3713 1747 
Q 3713 922 3314 415 
Q 2916 -91 2278 -91 
Q 1894 -91 1617 61 
Q 1341 213 1159 525 
L 1159 0 
L 581 0 
L 581 4863 
L 1159 4863 
L 1159 2969 
z
" transform="scale(0.015625)"/>
       </defs>
       <use xlink:href="#DejaVuSans-46"/>
       <use xlink:href="#DejaVuSans-65" x="52.019531"/>
       <use xlink:href="#DejaVuSans-62" x="113.542969"/>
       <use xlink:href="#DejaVuSans-20" x="177.019531"/>
       <use xlink:href="#DejaVuSans-30" x="208.806641"/>
       <use xlink:href="#DejaVuSans-31" x="272.429688"/>
      </g>
     </g>
    </g>
    <g id="xtick_8">
     <g id="line2d_8">
      <g>
       <use xlink:href="#m2e71b0edc5" x="588.468428" y="327.04" style="stroke: #000000; stroke-width: 0.8"/>
      </g>
     </g>
     <g id="text_8">
      <!-- Feb 10 -->
      <g transform="translate(568.304678 343.158125)scale(0.12 -0.12)">
       <use xlink:href="#DejaVuSans-46"/>
       <use xlink:href="#DejaVuSans-65" x="52.019531"/>
       <use xlink:href="#DejaVuSans-62" x="113.542969"/>
       <use xlink:href="#DejaVuSans-20" x="177.019531"/>
       <use xlink:href="#DejaVuSans-31" x="208.806641"/>
       <use xlink:href="#DejaVuSans-30" x="272.429688"/>
      </g>
     </g>
    </g>
    <g id="xtick_9">
     <g id="line2d_9">
      <g>
       <use xlink:href="#m2e71b0edc5" x="661.063268" y="327.04" style="stroke: #000000; stroke-width: 0.8"/>
      </g>
     </g>
     <g id="text_9">
      <!-- Feb 19 -->
      <g transform="translate(640.899518 343.158125)scale(0.12 -0.12)">
       <defs>
        <path id="DejaVuSans-39" d="M 703 97 
L 703 672 
Q 941 559 1184 500 
Q 1428 441 1663 441 
Q 2288 441 2617 861 
Q 2947 1281 2994 2138 
Q 2813 1869 2534 1725 
Q 2256 1581 1919 1581 
Q 1219 1581 811 2004 
Q 403 2428 403 3163 
Q 403 3881 828 4315 
Q 1253 4750 1959 4750 
Q 2769 4750 3195 4129 
Q 3622 3509 3622 2328 
Q 3622 1225 3098 567 
Q 2575 -91 1691 -91 
Q 1453 -91 1209 -44 
Q 966 3 703 97 
z
M 1959 2075 
Q 2384 2075 2632 2365 
Q 2881 2656 2881 3163 
Q 2881 3666 2632 3958 
Q 2384 4250 1959 4250 
Q 1534 4250 1286 3958 
Q 1038 3666 1038 3163 
Q 1038 2656 1286 2365 
Q 1534 2075 1959 2075 
z
" transform="scale(0.015625)"/>
       </defs>
       <use xlink:href="#DejaVuSans-46"/>
       <use xlink:href="#DejaVuSans-65" x="52.019531"/>
       <use xlink:href="#DejaVuSans-62" x="113.542969"/>
       <use xlink:href="#DejaVuSans-20" x="177.019531"/>
       <use xlink:href="#DejaVuSans-31" x="208.806641"/>
       <use xlink:href="#DejaVuSans-39" x="272.429688"/>
      </g>
     </g>
    </g>
   </g>
   <g id="matplotlib.axis_2">
    <g id="ytick_1">
     <g id="line2d_10">
      <defs>
       <path id="md37194cc13" d="M 0 0 
L -3.5 0 
" style="stroke: #000000; stroke-width: 0.8"/>
      </defs>
      <g>
       <use xlink:href="#md37194cc13" x="50.46" y="327.04" style="stroke: #000000; stroke-width: 0.8"/>
      </g>
     </g>
     <g id="text_10">
      <!-- 0 -->
      <g transform="translate(35.825 331.599063)scale(0.12 -0.12)">
       <use xlink:href="#DejaVuSans-30"/>
      </g>
     </g>
    </g>
    <g id="ytick_2">
     <g id="line2d_11">
      <g>
       <use xlink:href="#md37194cc13" x="50.46" y="292.065278" style="stroke: #000000; stroke-width: 0.8"/>
      </g>
     </g>
     <g id="text_11">
      <!-- 500 -->
      <g transform="translate(20.555 296.62434)scale(0.12 -0.12)">
       <use xlink:href="#DejaVuSans-35"/>
       <use xlink:href="#DejaVuSans-30" x="63.623047"/>
       <use xlink:href="#DejaVuSans-30" x="127.246094"/>
      </g>
     </g>
    </g>
    <g id="ytick_3">
     <g id="line2d_12">
      <g>
       <use xlink:href="#md37194cc13" x="50.46" y="257.090556" style="stroke: #000000; stroke-width: 0.8"/>
      </g>
     </g>
     <g id="text_12">
      <!-- 1000 -->
      <g transform="translate(12.92 261.649618)scale(0.12 -0.12)">
       <use xlink:href="#DejaVuSans-31"/>
       <use xlink:href="#DejaVuSans-30" x="63.623047"/>
       <use xlink:href="#DejaVuSans-30" x="127.246094"/>
       <use xlink:href="#DejaVuSans-30" x="190.869141"/>
      </g>
     </g>
    </g>
    <g id="ytick_4">
     <g id="line2d_13">
      <g>
       <use xlink:href="#md37194cc13" x="50.46" y="222.115834" style="stroke: #000000; stroke-width: 0.8"/>
      </g>
     </g>
     <g id="text_13">
      <!-- 1500 -->
      <g transform="translate(12.92 226.674896)scale(0.12 -0.12)">
       <use xlink:href="#DejaVuSans-31"/>
       <use xlink:href="#DejaVuSans-35" x="63.623047"/>
       <use xlink:href="#DejaVuSans-30" x="127.246094"/>
       <use xlink:href="#DejaVuSans-30" x="190.869141"/>
      </g>
     </g>
    </g>
    <g id="ytick_5">
     <g id="line2d_14">
      <g>
       <use xlink:href="#md37194cc13" x="50.46" y="187.141111" style="stroke: #000000; stroke-width: 0.8"/>
      </g>
     </g>
     <g id="text_14">
      <!-- 2000 -->
      <g transform="translate(12.92 191.700174)scale(0.12 -0.12)">
       <use xlink:href="#DejaVuSans-32"/>
       <use xlink:href="#DejaVuSans-30" x="63.623047"/>
       <use xlink:href="#DejaVuSans-30" x="127.246094"/>
       <use xlink:href="#DejaVuSans-30" x="190.869141"/>
      </g>
     </g>
    </g>
    <g id="ytick_6">
     <g id="line2d_15">
      <g>
       <use xlink:href="#md37194cc13" x="50.46" y="152.166389" style="stroke: #000000; stroke-width: 0.8"/>
      </g>
     </g>
     <g id="text_15">
      <!-- 2500 -->
      <g transform="translate(12.92 156.725452)scale(0.12 -0.12)">
       <use xlink:href="#DejaVuSans-32"/>
       <use xlink:href="#DejaVuSans-35" x="63.623047"/>
       <use xlink:href="#DejaVuSans-30" x="127.246094"/>
       <use xlink:href="#DejaVuSans-30" x="190.869141"/>
      </g>
     </g>
    </g>
    <g id="ytick_7">
     <g id="line2d_16">
      <g>
       <use xlink:href="#md37194cc13" x="50.46" y="117.191667" style="stroke: #000000; stroke-width: 0.8"/>
      </g>
     </g>
     <g id="text_16">
      <!-- 3000 -->
      <g transform="translate(12.92 121.75073)scale(0.12 -0.12)">
       <use xlink:href="#DejaVuSans-33"/>
       <use xlink:href="#DejaVuSans-30" x="63.623047"/>
       <use xlink:href="#DejaVuSans-30" x="127.246094"/>
       <use xlink:href="#DejaVuSans-30" x="190.869141"/>
      </g>
     </g>
    </g>
    <g id="ytick_8">
     <g id="line2d_17">
      <g>
       <use xlink:href="#md37194cc13" x="50.46" y="82.216945" style="stroke: #000000; stroke-width: 0.8"/>
      </g>
     </g>
     <g id="text_17">
      <!-- 3500 -->
      <g transform="translate(12.92 86.776007)scale(0.12 -0.12)">
       <use xlink:href="#DejaVuSans-33"/>
       <use xlink:href="#DejaVuSans-35" x="63.623047"/>
       <use xlink:href="#DejaVuSans-30" x="127.246094"/>
       <use xlink:href="#DejaVuSans-30" x="190.869141"/>
      </g>
     </g>
    </g>
    <g id="ytick_9">
     <g id="line2d_18">
      <g>
       <use xlink:href="#md37194cc13" x="50.46" y="47.242223" style="stroke: #000000; stroke-width: 0.8"/>
      </g>
     </g>
     <g id="text_18">
      <!-- 4000 -->
      <g transform="translate(12.92 51.801285)scale(0.12 -0.12)">
       <defs>
        <path id="DejaVuSans-34" d="M 2419 4116 
L 825 1625 
L 2419 1625 
L 2419 4116 
z
M 2253 4666 
L 3047 4666 
L 3047 1625 
L 3713 1625 
L 3713 1100 
L 3047 1100 
L 3047 0 
L 2419 0 
L 2419 1100 
L 313 1100 
L 313 1709 
L 2253 4666 
z
" transform="scale(0.015625)"/>
       </defs>
       <use xlink:href="#DejaVuSans-34"/>
       <use xlink:href="#DejaVuSans-30" x="63.623047"/>
       <use xlink:href="#DejaVuSans-30" x="127.246094"/>
       <use xlink:href="#DejaVuSans-30" x="190.869141"/>
      </g>
     </g>
    </g>
   </g>
   <g id="line2d_19">
    <path d="M 80.304545 323.472578 
L 88.370639 324.102123 
L 96.436732 324.52182 
L 104.502826 323.472578 
L 112.568919 322.283438 
L 120.635012 321.653893 
L 128.701106 323.332679 
L 136.767199 322.912983 
L 144.833292 322.493286 
L 152.899386 322.353387 
L 160.965479 320.674601 
L 169.031572 319.695308 
L 177.097666 319.835207 
L 185.163759 318.995814 
L 193.229853 316.96728 
L 201.295946 315.568291 
L 209.362039 312.630414 
L 217.428133 310.182184 
L 225.494226 310.811729 
L 233.560319 312.700364 
L 241.626413 311.441274 
L 249.692506 312.350617 
L 257.7586 309.972336 
L 265.824693 289.966795 
L 273.890786 259.11909 
L 281.95688 260.098382 
L 290.022973 258.629443 
L 298.089066 254.922123 
L 306.15516 242.261273 
L 314.221253 214.631243 
L 322.287346 195.465095 
L 330.35344 209.035287 
L 338.419533 190.778482 
L 346.485627 199.94186 
L 354.55172 247.087785 
L 362.617813 202.180242 
L 370.683907 179.656521 
L 378.75 159.021435 
L 386.816093 200.081759 
L 394.882187 152.236339 
L 402.94828 189.099696 
L 411.014373 204.068877 
L 419.080467 215.610535 
L 427.14656 191.477977 
L 435.212654 200.571405 
L 443.278747 179.446672 
L 451.34484 257.580202 
L 459.410934 240.862285 
L 467.477027 240.442588 
L 475.54312 255.621617 
L 483.609214 291.295834 
L 491.675307 274.787765 
L 499.7414 273.528675 
L 507.807494 291.575632 
L 515.873587 289.2673 
L 523.939681 293.394317 
L 532.005774 291.155935 
L 540.071867 301.158706 
L 548.137961 311.721072 
L 556.204054 312.560465 
L 564.270147 304.166532 
L 572.336241 304.236481 
L 580.402334 287.448615 
L 588.468428 291.925379 
L 596.534521 302.837492 
L 604.600614 302.487745 
L 612.666708 313.679656 
L 620.732801 316.757432 
L 628.798894 317.386977 
L 636.864988 307.803903 
L 644.931081 184.483032 
L 652.997174 212.043114 
L 661.063268 247.437532 
L 669.129361 251.144853 
L 677.195455 185.882021 
" clip-path="url(#p484e9c3dee)" style="fill: none; stroke: #1f77b4; stroke-width: 1.5; stroke-linecap: square"/>
    <defs>
     <path id="mb5e8076dc9" d="M 0 3 
C 0.795609 3 1.55874 2.683901 2.12132 2.12132 
C 2.683901 1.55874 3 0.795609 3 0 
C 3 -0.795609 2.683901 -1.55874 2.12132 -2.12132 
C 1.55874 -2.683901 0.795609 -3 0 -3 
C -0.795609 -3 -1.55874 -2.683901 -2.12132 -2.12132 
C -2.683901 -1.55874 -3 -0.795609 -3 0 
C -3 0.795609 -2.683901 1.55874 -2.12132 2.12132 
C -1.55874 2.683901 -0.795609 3 0 3 
z
" style="stroke: #1f77b4"/>
    </defs>
    <g clip-path="url(#p484e9c3dee)">
     <use xlink:href="#mb5e8076dc9" x="80.304545" y="323.472578" style="fill: #1f77b4; stroke: #1f77b4"/>
     <use xlink:href="#mb5e8076dc9" x="88.370639" y="324.102123" style="fill: #1f77b4; stroke: #1f77b4"/>
     <use xlink:href="#mb5e8076dc9" x="96.436732" y="324.52182" style="fill: #1f77b4; stroke: #1f77b4"/>
     <use xlink:href="#mb5e8076dc9" x="104.502826" y="323.472578" style="fill: #1f77b4; stroke: #1f77b4"/>
     <use xlink:href="#mb5e8076dc9" x="112.568919" y="322.283438" style="fill: #1f77b4; stroke: #1f77b4"/>
     <use xlink:href="#mb5e8076dc9" x="120.635012" y="321.653893" style="fill: #1f77b4; stroke: #1f77b4"/>
     <use xlink:href="#mb5e8076dc9" x="128.701106" y="323.332679" style="fill: #1f77b4; stroke: #1f77b4"/>
     <use xlink:href="#mb5e8076dc9" x="136.767199" y="322.912983" style="fill: #1f77b4; stroke: #1f77b4"/>
     <use xlink:href="#mb5e8076dc9" x="144.833292" y="322.493286" style="fill: #1f77b4; stroke: #1f77b4"/>
     <use xlink:href="#mb5e8076dc9" x="152.899386" y="322.353387" style="fill: #1f77b4; stroke: #1f77b4"/>
     <use xlink:href="#mb5e8076dc9" x="160.965479" y="320.674601" style="fill: #1f77b4; stroke: #1f77b4"/>
     <use xlink:href="#mb5e8076dc9" x="169.031572" y="319.695308" style="fill: #1f77b4; stroke: #1f77b4"/>
     <use xlink:href="#mb5e8076dc9" x="177.097666" y="319.835207" style="fill: #1f77b4; stroke: #1f77b4"/>
     <use xlink:href="#mb5e8076dc9" x="185.163759" y="318.995814" style="fill: #1f77b4; stroke: #1f77b4"/>
     <use xlink:href="#mb5e8076dc9" x="193.229853" y="316.96728" style="fill: #1f77b4; stroke: #1f77b4"/>
     <use xlink:href="#mb5e8076dc9" x="201.295946" y="315.568291" style="fill: #1f77b4; stroke: #1f77b4"/>
     <use xlink:href="#mb5e8076dc9" x="209.362039" y="312.630414" style="fill: #1f77b4; stroke: #1f77b4"/>
     <use xlink:href="#mb5e8076dc9" x="217.428133" y="310.182184" style="fill: #1f77b4; stroke: #1f77b4"/>
     <use xlink:href="#mb5e8076dc9" x="225.494226" y="310.811729" style="fill: #1f77b4; stroke: #1f77b4"/>
     <use xlink:href="#mb5e8076dc9" x="233.560319" y="312.700364" style="fill: #1f77b4; stroke: #1f77b4"/>
     <use xlink:href="#mb5e8076dc9" x="241.626413" y="311.441274" style="fill: #1f77b4; stroke: #1f77b4"/>
     <use xlink:href="#mb5e8076dc9" x="249.692506" y="312.350617" style="fill: #1f77b4; stroke: #1f77b4"/>
     <use xlink:href="#mb5e8076dc9" x="257.7586" y="309.972336" style="fill: #1f77b4; stroke: #1f77b4"/>
     <use xlink:href="#mb5e8076dc9" x="265.824693" y="289.966795" style="fill: #1f77b4; stroke: #1f77b4"/>
     <use xlink:href="#mb5e8076dc9" x="273.890786" y="259.11909" style="fill: #1f77b4; stroke: #1f77b4"/>
     <use xlink:href="#mb5e8076dc9" x="281.95688" y="260.098382" style="fill: #1f77b4; stroke: #1f77b4"/>
     <use xlink:href="#mb5e8076dc9" x="290.022973" y="258.629443" style="fill: #1f77b4; stroke: #1f77b4"/>
     <use xlink:href="#mb5e8076dc9" x="298.089066" y="254.922123" style="fill: #1f77b4; stroke: #1f77b4"/>
     <use xlink:href="#mb5e8076dc9" x="306.15516" y="242.261273" style="fill: #1f77b4; stroke: #1f77b4"/>
     <use xlink:href="#mb5e8076dc9" x="314.221253" y="214.631243" style="fill: #1f77b4; stroke: #1f77b4"/>
     <use xlink:href="#mb5e8076dc9" x="322.287346" y="195.465095" style="fill: #1f77b4; stroke: #1f77b4"/>
     <use xlink:href="#mb5e8076dc9" x="330.35344" y="209.035287" style="fill: #1f77b4; stroke: #1f77b4"/>
     <use xlink:href="#mb5e8076dc9" x="338.419533" y="190.778482" style="fill: #1f77b4; stroke: #1f77b4"/>
     <use xlink:href="#mb5e8076dc9" x="346.485627" y="199.94186" style="fill: #1f77b4; stroke: #1f77b4"/>
     <use xlink:href="#mb5e8076dc9" x="354.55172" y="247.087785" style="fill: #1f77b4; stroke: #1f77b4"/>
     <use xlink:href="#mb5e8076dc9" x="362.617813" y="202.180242" style="fill: #1f77b4; stroke: #1f77b4"/>
     <use xlink:href="#mb5e8076dc9" x="370.683907" y="179.656521" style="fill: #1f77b4; stroke: #1f77b4"/>
     <use xlink:href="#mb5e8076dc9" x="378.75" y="159.021435" style="fill: #1f77b4; stroke: #1f77b4"/>
     <use xlink:href="#mb5e8076dc9" x="386.816093" y="200.081759" style="fill: #1f77b4; stroke: #1f77b4"/>
     <use xlink:href="#mb5e8076dc9" x="394.882187" y="152.236339" style="fill: #1f77b4; stroke: #1f77b4"/>
     <use xlink:href="#mb5e8076dc9" x="402.94828" y="189.099696" style="fill: #1f77b4; stroke: #1f77b4"/>
     <use xlink:href="#mb5e8076dc9" x="411.014373" y="204.068877" style="fill: #1f77b4; stroke: #1f77b4"/>
     <use xlink:href="#mb5e8076dc9" x="419.080467" y="215.610535" style="fill: #1f77b4; stroke: #1f77b4"/>
     <use xlink:href="#mb5e8076dc9" x="427.14656" y="191.477977" style="fill: #1f77b4; stroke: #1f77b4"/>
     <use xlink:href="#mb5e8076dc9" x="435.212654" y="200.571405" style="fill: #1f77b4; stroke: #1f77b4"/>
     <use xlink:href="#mb5e8076dc9" x="443.278747" y="179.446672" style="fill: #1f77b4; stroke: #1f77b4"/>
     <use xlink:href="#mb5e8076dc9" x="451.34484" y="257.580202" style="fill: #1f77b4; stroke: #1f77b4"/>
     <use xlink:href="#mb5e8076dc9" x="459.410934" y="240.862285" style="fill: #1f77b4; stroke: #1f77b4"/>
     <use xlink:href="#mb5e8076dc9" x="467.477027" y="240.442588" style="fill: #1f77b4; stroke: #1f77b4"/>
     <use xlink:href="#mb5e8076dc9" x="475.54312" y="255.621617" style="fill: #1f77b4; stroke: #1f77b4"/>
     <use xlink:href="#mb5e8076dc9" x="483.609214" y="291.295834" style="fill: #1f77b4; stroke: #1f77b4"/>
     <use xlink:href="#mb5e8076dc9" x="491.675307" y="274.787765" style="fill: #1f77b4; stroke: #1f77b4"/>
     <use xlink:href="#mb5e8076dc9" x="499.7414" y="273.528675" style="fill: #1f77b4; stroke: #1f77b4"/>
     <use xlink:href="#mb5e8076dc9" x="507.807494" y="291.575632" style="fill: #1f77b4; stroke: #1f77b4"/>
     <use xlink:href="#mb5e8076dc9" x="515.873587" y="289.2673" style="fill: #1f77b4; stroke: #1f77b4"/>
     <use xlink:href="#mb5e8076dc9" x="523.939681" y="293.394317" style="fill: #1f77b4; stroke: #1f77b4"/>
     <use xlink:href="#mb5e8076dc9" x="532.005774" y="291.155935" style="fill: #1f77b4; stroke: #1f77b4"/>
     <use xlink:href="#mb5e8076dc9" x="540.071867" y="301.158706" style="fill: #1f77b4; stroke: #1f77b4"/>
     <use xlink:href="#mb5e8076dc9" x="548.137961" y="311.721072" style="fill: #1f77b4; stroke: #1f77b4"/>
     <use xlink:href="#mb5e8076dc9" x="556.204054" y="312.560465" style="fill: #1f77b4; stroke: #1f77b4"/>
     <use xlink:href="#mb5e8076dc9" x="564.270147" y="304.166532" style="fill: #1f77b4; stroke: #1f77b4"/>
     <use xlink:href="#mb5e8076dc9" x="572.336241" y="304.236481" style="fill: #1f77b4; stroke: #1f77b4"/>
     <use xlink:href="#mb5e8076dc9" x="580.402334" y="287.448615" style="fill: #1f77b4; stroke: #1f77b4"/>
     <use xlink:href="#mb5e8076dc9" x="588.468428" y="291.925379" style="fill: #1f77b4; stroke: #1f77b4"/>
     <use xlink:href="#mb5e8076dc9" x="596.534521" y="302.837492" style="fill: #1f77b4; stroke: #1f77b4"/>
     <use xlink:href="#mb5e8076dc9" x="604.600614" y="302.487745" style="fill: #1f77b4; stroke: #1f77b4"/>
     <use xlink:href="#mb5e8076dc9" x="612.666708" y="313.679656" style="fill: #1f77b4; stroke: #1f77b4"/>
     <use xlink:href="#mb5e8076dc9" x="620.732801" y="316.757432" style="fill: #1f77b4; stroke: #1f77b4"/>
     <use xlink:href="#mb5e8076dc9" x="628.798894" y="317.386977" style="fill: #1f77b4; stroke: #1f77b4"/>
     <use xlink:href="#mb5e8076dc9" x="636.864988" y="307.803903" style="fill: #1f77b4; stroke: #1f77b4"/>
     <use xlink:href="#mb5e8076dc9" x="644.931081" y="184.483032" style="fill: #1f77b4; stroke: #1f77b4"/>
     <use xlink:href="#mb5e8076dc9" x="652.997174" y="212.043114" style="fill: #1f77b4; stroke: #1f77b4"/>
     <use xlink:href="#mb5e8076dc9" x="661.063268" y="247.437532" style="fill: #1f77b4; stroke: #1f77b4"/>
     <use xlink:href="#mb5e8076dc9" x="669.129361" y="251.144853" style="fill: #1f77b4; stroke: #1f77b4"/>
     <use xlink:href="#mb5e8076dc9" x="677.195455" y="185.882021" style="fill: #1f77b4; stroke: #1f77b4"/>
    </g>
   </g>
   <g id="line2d_20">
    <path d="M 80.304545 322.563236 
L 88.370639 323.122831 
L 96.436732 324.102123 
L 104.502826 321.234196 
L 112.568919 323.26273 
L 120.635012 322.143539 
L 128.701106 321.863741 
L 136.767199 321.863741 
L 144.833292 321.793792 
L 152.899386 318.646067 
L 160.965479 309.972336 
L 169.031572 313.749606 
L 177.097666 303.467037 
L 185.163759 304.236481 
L 193.229853 304.026633 
L 201.295946 290.316542 
L 209.362039 285.979676 
L 217.428133 276.6764 
L 225.494226 283.601395 
L 233.560319 278.215288 
L 241.626413 283.951142 
L 249.692506 285.070333 
L 257.7586 282.901901 
L 265.824693 243.520363 
L 273.890786 196.304489 
L 281.95688 195.465095 
L 290.022973 207.566349 
L 298.089066 200.991101 
L 306.15516 197.35373 
L 314.221253 106.7692 
L 322.287346 53.467723 
L 330.35344 62.70105 
L 338.419533 27.796277 
L 346.485627 103.551525 
L 354.55172 198.542871 
L 362.617813 135.518421 
L 370.683907 115.442931 
L 378.75 117.121718 
L 386.816093 157.202749 
L 394.882187 115.023234 
L 402.94828 170.633042 
L 411.014373 195.674944 
L 419.080467 206.517107 
L 427.14656 181.335307 
L 435.212654 199.522163 
L 443.278747 162.239109 
L 451.34484 264.924893 
L 459.410934 257.79005 
L 467.477027 244.289807 
L 475.54312 264.505197 
L 483.609214 294.373609 
L 491.675307 278.704934 
L 499.7414 275.277411 
L 507.807494 287.728412 
L 515.873587 295.282952 
L 523.939681 292.694823 
L 532.005774 295.982447 
L 540.071867 300.948857 
L 548.137961 314.728898 
L 556.204054 313.120061 
L 564.270147 308.013751 
L 572.336241 307.873852 
L 580.402334 293.324368 
L 588.468428 294.583458 
L 596.534521 303.886734 
L 604.600614 303.536987 
L 612.666708 312.910212 
L 620.732801 316.547583 
L 628.798894 317.456926 
L 636.864988 308.363498 
L 644.931081 168.744407 
L 652.997174 196.09464 
L 661.063268 245.828695 
L 669.129361 246.947886 
L 677.195455 167.974964 
" clip-path="url(#p484e9c3dee)" style="fill: none; stroke: #ff7f0e; stroke-width: 1.5; stroke-linecap: square"/>
    <defs>
     <path id="m6e6393f878" d="M 0 3 
C 0.795609 3 1.55874 2.683901 2.12132 2.12132 
C 2.683901 1.55874 3 0.795609 3 0 
C 3 -0.795609 2.683901 -1.55874 2.12132 -2.12132 
C 1.55874 -2.683901 0.795609 -3 0 -3 
C -0.795609 -3 -1.55874 -2.683901 -2.12132 -2.12132 
C -2.683901 -1.55874 -3 -0.795609 -3 0 
C -3 0.795609 -2.683901 1.55874 -2.12132 2.12132 
C -1.55874 2.683901 -0.795609 3 0 3 
z
" style="stroke: #ff7f0e"/>
    </defs>
    <g clip-path="url(#p484e9c3dee)">
     <use xlink:href="#m6e6393f878" x="80.304545" y="322.563236" style="fill: #ff7f0e; stroke: #ff7f0e"/>
     <use xlink:href="#m6e6393f878" x="88.370639" y="323.122831" style="fill: #ff7f0e; stroke: #ff7f0e"/>
     <use xlink:href="#m6e6393f878" x="96.436732" y="324.102123" style="fill: #ff7f0e; stroke: #ff7f0e"/>
     <use xlink:href="#m6e6393f878" x="104.502826" y="321.234196" style="fill: #ff7f0e; stroke: #ff7f0e"/>
     <use xlink:href="#m6e6393f878" x="112.568919" y="323.26273" style="fill: #ff7f0e; stroke: #ff7f0e"/>
     <use xlink:href="#m6e6393f878" x="120.635012" y="322.143539" style="fill: #ff7f0e; stroke: #ff7f0e"/>
     <use xlink:href="#m6e6393f878" x="128.701106" y="321.863741" style="fill: #ff7f0e; stroke: #ff7f0e"/>
     <use xlink:href="#m6e6393f878" x="136.767199" y="321.863741" style="fill: #ff7f0e; stroke: #ff7f0e"/>
     <use xlink:href="#m6e6393f878" x="144.833292" y="321.793792" style="fill: #ff7f0e; stroke: #ff7f0e"/>
     <use xlink:href="#m6e6393f878" x="152.899386" y="318.646067" style="fill: #ff7f0e; stroke: #ff7f0e"/>
     <use xlink:href="#m6e6393f878" x="160.965479" y="309.972336" style="fill: #ff7f0e; stroke: #ff7f0e"/>
     <use xlink:href="#m6e6393f878" x="169.031572" y="313.749606" style="fill: #ff7f0e; stroke: #ff7f0e"/>
     <use xlink:href="#m6e6393f878" x="177.097666" y="303.467037" style="fill: #ff7f0e; stroke: #ff7f0e"/>
     <use xlink:href="#m6e6393f878" x="185.163759" y="304.236481" style="fill: #ff7f0e; stroke: #ff7f0e"/>
     <use xlink:href="#m6e6393f878" x="193.229853" y="304.026633" style="fill: #ff7f0e; stroke: #ff7f0e"/>
     <use xlink:href="#m6e6393f878" x="201.295946" y="290.316542" style="fill: #ff7f0e; stroke: #ff7f0e"/>
     <use xlink:href="#m6e6393f878" x="209.362039" y="285.979676" style="fill: #ff7f0e; stroke: #ff7f0e"/>
     <use xlink:href="#m6e6393f878" x="217.428133" y="276.6764" style="fill: #ff7f0e; stroke: #ff7f0e"/>
     <use xlink:href="#m6e6393f878" x="225.494226" y="283.601395" style="fill: #ff7f0e; stroke: #ff7f0e"/>
     <use xlink:href="#m6e6393f878" x="233.560319" y="278.215288" style="fill: #ff7f0e; stroke: #ff7f0e"/>
     <use xlink:href="#m6e6393f878" x="241.626413" y="283.951142" style="fill: #ff7f0e; stroke: #ff7f0e"/>
     <use xlink:href="#m6e6393f878" x="249.692506" y="285.070333" style="fill: #ff7f0e; stroke: #ff7f0e"/>
     <use xlink:href="#m6e6393f878" x="257.7586" y="282.901901" style="fill: #ff7f0e; stroke: #ff7f0e"/>
     <use xlink:href="#m6e6393f878" x="265.824693" y="243.520363" style="fill: #ff7f0e; stroke: #ff7f0e"/>
     <use xlink:href="#m6e6393f878" x="273.890786" y="196.304489" style="fill: #ff7f0e; stroke: #ff7f0e"/>
     <use xlink:href="#m6e6393f878" x="281.95688" y="195.465095" style="fill: #ff7f0e; stroke: #ff7f0e"/>
     <use xlink:href="#m6e6393f878" x="290.022973" y="207.566349" style="fill: #ff7f0e; stroke: #ff7f0e"/>
     <use xlink:href="#m6e6393f878" x="298.089066" y="200.991101" style="fill: #ff7f0e; stroke: #ff7f0e"/>
     <use xlink:href="#m6e6393f878" x="306.15516" y="197.35373" style="fill: #ff7f0e; stroke: #ff7f0e"/>
     <use xlink:href="#m6e6393f878" x="314.221253" y="106.7692" style="fill: #ff7f0e; stroke: #ff7f0e"/>
     <use xlink:href="#m6e6393f878" x="322.287346" y="53.467723" style="fill: #ff7f0e; stroke: #ff7f0e"/>
     <use xlink:href="#m6e6393f878" x="330.35344" y="62.70105" style="fill: #ff7f0e; stroke: #ff7f0e"/>
     <use xlink:href="#m6e6393f878" x="338.419533" y="27.796277" style="fill: #ff7f0e; stroke: #ff7f0e"/>
     <use xlink:href="#m6e6393f878" x="346.485627" y="103.551525" style="fill: #ff7f0e; stroke: #ff7f0e"/>
     <use xlink:href="#m6e6393f878" x="354.55172" y="198.542871" style="fill: #ff7f0e; stroke: #ff7f0e"/>
     <use xlink:href="#m6e6393f878" x="362.617813" y="135.518421" style="fill: #ff7f0e; stroke: #ff7f0e"/>
     <use xlink:href="#m6e6393f878" x="370.683907" y="115.442931" style="fill: #ff7f0e; stroke: #ff7f0e"/>
     <use xlink:href="#m6e6393f878" x="378.75" y="117.121718" style="fill: #ff7f0e; stroke: #ff7f0e"/>
     <use xlink:href="#m6e6393f878" x="386.816093" y="157.202749" style="fill: #ff7f0e; stroke: #ff7f0e"/>
     <use xlink:href="#m6e6393f878" x="394.882187" y="115.023234" style="fill: #ff7f0e; stroke: #ff7f0e"/>
     <use xlink:href="#m6e6393f878" x="402.94828" y="170.633042" style="fill: #ff7f0e; stroke: #ff7f0e"/>
     <use xlink:href="#m6e6393f878" x="411.014373" y="195.674944" style="fill: #ff7f0e; stroke: #ff7f0e"/>
     <use xlink:href="#m6e6393f878" x="419.080467" y="206.517107" style="fill: #ff7f0e; stroke: #ff7f0e"/>
     <use xlink:href="#m6e6393f878" x="427.14656" y="181.335307" style="fill: #ff7f0e; stroke: #ff7f0e"/>
     <use xlink:href="#m6e6393f878" x="435.212654" y="199.522163" style="fill: #ff7f0e; stroke: #ff7f0e"/>
     <use xlink:href="#m6e6393f878" x="443.278747" y="162.239109" style="fill: #ff7f0e; stroke: #ff7f0e"/>
     <use xlink:href="#m6e6393f878" x="451.34484" y="264.924893" style="fill: #ff7f0e; stroke: #ff7f0e"/>
     <use xlink:href="#m6e6393f878" x="459.410934" y="257.79005" style="fill: #ff7f0e; stroke: #ff7f0e"/>
     <use xlink:href="#m6e6393f878" x="467.477027" y="244.289807" style="fill: #ff7f0e; stroke: #ff7f0e"/>
     <use xlink:href="#m6e6393f878" x="475.54312" y="264.505197" style="fill: #ff7f0e; stroke: #ff7f0e"/>
     <use xlink:href="#m6e6393f878" x="483.609214" y="294.373609" style="fill: #ff7f0e; stroke: #ff7f0e"/>
     <use xlink:href="#m6e6393f878" x="491.675307" y="278.704934" style="fill: #ff7f0e; stroke: #ff7f0e"/>
     <use xlink:href="#m6e6393f878" x="499.7414" y="275.277411" style="fill: #ff7f0e; stroke: #ff7f0e"/>
     <use xlink:href="#m6e6393f878" x="507.807494" y="287.728412" style="fill: #ff7f0e; stroke: #ff7f0e"/>
     <use xlink:href="#m6e6393f878" x="515.873587" y="295.282952" style="fill: #ff7f0e; stroke: #ff7f0e"/>
     <use xlink:href="#m6e6393f878" x="523.939681" y="292.694823" style="fill: #ff7f0e; stroke: #ff7f0e"/>
     <use xlink:href="#m6e6393f878" x="532.005774" y="295.982447" style="fill: #ff7f0e; stroke: #ff7f0e"/>
     <use xlink:href="#m6e6393f878" x="540.071867" y="300.948857" style="fill: #ff7f0e; stroke: #ff7f0e"/>
     <use xlink:href="#m6e6393f878" x="548.137961" y="314.728898" style="fill: #ff7f0e; stroke: #ff7f0e"/>
     <use xlink:href="#m6e6393f878" x="556.204054" y="313.120061" style="fill: #ff7f0e; stroke: #ff7f0e"/>
     <use xlink:href="#m6e6393f878" x="564.270147" y="308.013751" style="fill: #ff7f0e; stroke: #ff7f0e"/>
     <use xlink:href="#m6e6393f878" x="572.336241" y="307.873852" style="fill: #ff7f0e; stroke: #ff7f0e"/>
     <use xlink:href="#m6e6393f878" x="580.402334" y="293.324368" style="fill: #ff7f0e; stroke: #ff7f0e"/>
     <use xlink:href="#m6e6393f878" x="588.468428" y="294.583458" style="fill: #ff7f0e; stroke: #ff7f0e"/>
     <use xlink:href="#m6e6393f878" x="596.534521" y="303.886734" style="fill: #ff7f0e; stroke: #ff7f0e"/>
     <use xlink:href="#m6e6393f878" x="604.600614" y="303.536987" style="fill: #ff7f0e; stroke: #ff7f0e"/>
     <use xlink:href="#m6e6393f878" x="612.666708" y="312.910212" style="fill: #ff7f0e; stroke: #ff7f0e"/>
     <use xlink:href="#m6e6393f878" x="620.732801" y="316.547583" style="fill: #ff7f0e; stroke: #ff7f0e"/>
     <use xlink:href="#m6e6393f878" x="628.798894" y="317.456926" style="fill: #ff7f0e; stroke: #ff7f0e"/>
     <use xlink:href="#m6e6393f878" x="636.864988" y="308.363498" style="fill: #ff7f0e; stroke: #ff7f0e"/>
     <use xlink:href="#m6e6393f878" x="644.931081" y="168.744407" style="fill: #ff7f0e; stroke: #ff7f0e"/>
     <use xlink:href="#m6e6393f878" x="652.997174" y="196.09464" style="fill: #ff7f0e; stroke: #ff7f0e"/>
     <use xlink:href="#m6e6393f878" x="661.063268" y="245.828695" style="fill: #ff7f0e; stroke: #ff7f0e"/>
     <use xlink:href="#m6e6393f878" x="669.129361" y="246.947886" style="fill: #ff7f0e; stroke: #ff7f0e"/>
     <use xlink:href="#m6e6393f878" x="677.195455" y="167.974964" style="fill: #ff7f0e; stroke: #ff7f0e"/>
    </g>
   </g>
   <g id="patch_3">
    <path d="M 50.46 327.04 
L 50.46 12.96 
" style="fill: none; stroke: #000000; stroke-width: 0.8; stroke-linejoin: miter; stroke-linecap: square"/>
   </g>
   <g id="patch_4">
    <path d="M 50.46 327.04 
L 707.04 327.04 
" style="fill: none; stroke: #000000; stroke-width: 0.8; stroke-linejoin: miter; stroke-linecap: square"/>
   </g>
   <g id="legend_1">
    <g id="patch_5">
     <path d="M 58.86 57.7875 
L 197.86125 57.7875 
Q 200.26125 57.7875 200.26125 55.3875 
L 200.26125 21.36 
Q 200.26125 18.96 197.86125 18.96 
L 58.86 18.96 
Q 56.46 18.96 56.46 21.36 
L 56.46 55.3875 
Q 56.46 57.7875 58.86 57.7875 
z
" style="fill: #ffffff; opacity: 0.8; stroke: #cccccc; stroke-linejoin: miter"/>
    </g>
    <g id="line2d_21">
     <path d="M 61.26 28.678125 
L 73.26 28.678125 
L 85.26 28.678125 
" style="fill: none; stroke: #1f77b4; stroke-width: 1.5; stroke-linecap: square"/>
     <g>
      <use xlink:href="#mb5e8076dc9" x="73.26" y="28.678125" style="fill: #1f77b4; stroke: #1f77b4"/>
     </g>
    </g>
    <g id="text_19">
     <!-- Age range 0-9 -->
     <g transform="translate(94.86 32.878125)scale(0.12 -0.12)">
      <defs>
       <path id="DejaVuSans-41" d="M 2188 4044 
L 1331 1722 
L 3047 1722 
L 2188 4044 
z
M 1831 4666 
L 2547 4666 
L 4325 0 
L 3669 0 
L 3244 1197 
L 1141 1197 
L 716 0 
L 50 0 
L 1831 4666 
z
" transform="scale(0.015625)"/>
       <path id="DejaVuSans-67" d="M 2906 1791 
Q 2906 2416 2648 2759 
Q 2391 3103 1925 3103 
Q 1463 3103 1205 2759 
Q 947 2416 947 1791 
Q 947 1169 1205 825 
Q 1463 481 1925 481 
Q 2391 481 2648 825 
Q 2906 1169 2906 1791 
z
M 3481 434 
Q 3481 -459 3084 -895 
Q 2688 -1331 1869 -1331 
Q 1566 -1331 1297 -1286 
Q 1028 -1241 775 -1147 
L 775 -588 
Q 1028 -725 1275 -790 
Q 1522 -856 1778 -856 
Q 2344 -856 2625 -561 
Q 2906 -266 2906 331 
L 2906 616 
Q 2728 306 2450 153 
Q 2172 0 1784 0 
Q 1141 0 747 490 
Q 353 981 353 1791 
Q 353 2603 747 3093 
Q 1141 3584 1784 3584 
Q 2172 3584 2450 3431 
Q 2728 3278 2906 2969 
L 2906 3500 
L 3481 3500 
L 3481 434 
z
" transform="scale(0.015625)"/>
       <path id="DejaVuSans-72" d="M 2631 2963 
Q 2534 3019 2420 3045 
Q 2306 3072 2169 3072 
Q 1681 3072 1420 2755 
Q 1159 2438 1159 1844 
L 1159 0 
L 581 0 
L 581 3500 
L 1159 3500 
L 1159 2956 
Q 1341 3275 1631 3429 
Q 1922 3584 2338 3584 
Q 2397 3584 2469 3576 
Q 2541 3569 2628 3553 
L 2631 2963 
z
" transform="scale(0.015625)"/>
       <path id="DejaVuSans-2d" d="M 313 2009 
L 1997 2009 
L 1997 1497 
L 313 1497 
L 313 2009 
z
" transform="scale(0.015625)"/>
      </defs>
      <use xlink:href="#DejaVuSans-41"/>
      <use xlink:href="#DejaVuSans-67" x="68.408203"/>
      <use xlink:href="#DejaVuSans-65" x="131.884766"/>
      <use xlink:href="#DejaVuSans-20" x="193.408203"/>
      <use xlink:href="#DejaVuSans-72" x="225.195312"/>
      <use xlink:href="#DejaVuSans-61" x="266.308594"/>
      <use xlink:href="#DejaVuSans-6e" x="327.587891"/>
      <use xlink:href="#DejaVuSans-67" x="390.966797"/>
      <use xlink:href="#DejaVuSans-65" x="454.443359"/>
      <use xlink:href="#DejaVuSans-20" x="515.966797"/>
      <use xlink:href="#DejaVuSans-30" x="547.753906"/>
      <use xlink:href="#DejaVuSans-2d" x="611.376953"/>
      <use xlink:href="#DejaVuSans-39" x="647.460938"/>
     </g>
    </g>
    <g id="line2d_22">
     <path d="M 61.26 46.291875 
L 73.26 46.291875 
L 85.26 46.291875 
" style="fill: none; stroke: #ff7f0e; stroke-width: 1.5; stroke-linecap: square"/>
     <g>
      <use xlink:href="#m6e6393f878" x="73.26" y="46.291875" style="fill: #ff7f0e; stroke: #ff7f0e"/>
     </g>
    </g>
    <g id="text_20">
     <!-- Age range 10-19 -->
     <g transform="translate(94.86 50.491875)scale(0.12 -0.12)">
      <use xlink:href="#DejaVuSans-41"/>
      <use xlink:href="#DejaVuSans-67" x="68.408203"/>
      <use xlink:href="#DejaVuSans-65" x="131.884766"/>
      <use xlink:href="#DejaVuSans-20" x="193.408203"/>
      <use xlink:href="#DejaVuSans-72" x="225.195312"/>
      <use xlink:href="#DejaVuSans-61" x="266.308594"/>
      <use xlink:href="#DejaVuSans-6e" x="327.587891"/>
      <use xlink:href="#DejaVuSans-67" x="390.966797"/>
      <use xlink:href="#DejaVuSans-65" x="454.443359"/>
      <use xlink:href="#DejaVuSans-20" x="515.966797"/>
      <use xlink:href="#DejaVuSans-31" x="547.753906"/>
      <use xlink:href="#DejaVuSans-30" x="611.376953"/>
      <use xlink:href="#DejaVuSans-2d" x="675"/>
      <use xlink:href="#DejaVuSans-31" x="711.083984"/>
      <use xlink:href="#DejaVuSans-39" x="774.707031"/>
     </g>
    </g>
   </g>
  </g>
 </g>
 <defs>
  <clipPath id="p484e9c3dee">
   <rect x="50.46" y="12.96" width="656.58" height="314.08"/>
  </clipPath>
 </defs>
</svg>
