<?xml version="1.0" encoding="utf-8" standalone="no"?>
<!DOCTYPE svg PUBLIC "-//W3C//DTD SVG 1.1//EN"
  "http://www.w3.org/Graphics/SVG/1.1/DTD/svg11.dtd">
<svg xmlns:xlink="http://www.w3.org/1999/xlink" width="720pt" height="360pt" viewBox="0 0 720 360" xmlns="http://www.w3.org/2000/svg" version="1.1">
 <metadata>
  <rdf:RDF xmlns:dc="http://purl.org/dc/elements/1.1/" xmlns:cc="http://creativecommons.org/ns#" xmlns:rdf="http://www.w3.org/1999/02/22-rdf-syntax-ns#">
   <cc:Work>
    <dc:type rdf:resource="http://purl.org/dc/dcmitype/StillImage"/>
    <dc:date>2022-06-06T23:26:23.966244</dc:date>
    <dc:format>image/svg+xml</dc:format>
    <dc:creator>
     <cc:Agent>
      <dc:title>Matplotlib v3.5.1, https://matplotlib.org/</dc:title>
     </cc:Agent>
    </dc:creator>
   </cc:Work>
  </rdf:RDF>
 </metadata>
 <defs>
  <style type="text/css">*{stroke-linejoin: round; stroke-linecap: butt}</style>
 </defs>
 <g id="figure_1">
  <g id="patch_1">
   <path d="M 0 360 
L 720 360 
L 720 0 
L 0 0 
L 0 360 
z
" style="fill: none"/>
  </g>
  <g id="axes_1">
   <g id="patch_2">
    <path d="M 50.46 327.04 
L 707.04 327.04 
L 707.04 12.96 
L 50.46 12.96 
z
" style="fill: #ffffff"/>
   </g>
   <g id="matplotlib.axis_1">
    <g id="xtick_1">
     <g id="line2d_1">
      <defs>
       <path id="m3c86d97e9e" d="M 0 0 
L 0 3.5 
" style="stroke: #000000; stroke-width: 0.8"/>
      </defs>
      <g>
       <use xlink:href="#m3c86d97e9e" x="80.304545" y="327.04" style="stroke: #000000; stroke-width: 0.8"/>
      </g>
     </g>
     <g id="text_1">
      <!-- Dec 05 -->
      <g transform="translate(59.151733 343.158125)scale(0.12 -0.12)">
       <defs>
        <path id="DejaVuSans-44" d="M 1259 4147 
L 1259 519 
L 2022 519 
Q 2988 519 3436 956 
Q 3884 1394 3884 2338 
Q 3884 3275 3436 3711 
Q 2988 4147 2022 4147 
L 1259 4147 
z
M 628 4666 
L 1925 4666 
Q 3281 4666 3915 4102 
Q 4550 3538 4550 2338 
Q 4550 1131 3912 565 
Q 3275 0 1925 0 
L 628 0 
L 628 4666 
z
" transform="scale(0.015625)"/>
        <path id="DejaVuSans-65" d="M 3597 1894 
L 3597 1613 
L 953 1613 
Q 991 1019 1311 708 
Q 1631 397 2203 397 
Q 2534 397 2845 478 
Q 3156 559 3463 722 
L 3463 178 
Q 3153 47 2828 -22 
Q 2503 -91 2169 -91 
Q 1331 -91 842 396 
Q 353 884 353 1716 
Q 353 2575 817 3079 
Q 1281 3584 2069 3584 
Q 2775 3584 3186 3129 
Q 3597 2675 3597 1894 
z
M 3022 2063 
Q 3016 2534 2758 2815 
Q 2500 3097 2075 3097 
Q 1594 3097 1305 2825 
Q 1016 2553 972 2059 
L 3022 2063 
z
" transform="scale(0.015625)"/>
        <path id="DejaVuSans-63" d="M 3122 3366 
L 3122 2828 
Q 2878 2963 2633 3030 
Q 2388 3097 2138 3097 
Q 1578 3097 1268 2742 
Q 959 2388 959 1747 
Q 959 1106 1268 751 
Q 1578 397 2138 397 
Q 2388 397 2633 464 
Q 2878 531 3122 666 
L 3122 134 
Q 2881 22 2623 -34 
Q 2366 -91 2075 -91 
Q 1284 -91 818 406 
Q 353 903 353 1747 
Q 353 2603 823 3093 
Q 1294 3584 2113 3584 
Q 2378 3584 2631 3529 
Q 2884 3475 3122 3366 
z
" transform="scale(0.015625)"/>
        <path id="DejaVuSans-20" transform="scale(0.015625)"/>
        <path id="DejaVuSans-30" d="M 2034 4250 
Q 1547 4250 1301 3770 
Q 1056 3291 1056 2328 
Q 1056 1369 1301 889 
Q 1547 409 2034 409 
Q 2525 409 2770 889 
Q 3016 1369 3016 2328 
Q 3016 3291 2770 3770 
Q 2525 4250 2034 4250 
z
M 2034 4750 
Q 2819 4750 3233 4129 
Q 3647 3509 3647 2328 
Q 3647 1150 3233 529 
Q 2819 -91 2034 -91 
Q 1250 -91 836 529 
Q 422 1150 422 2328 
Q 422 3509 836 4129 
Q 1250 4750 2034 4750 
z
" transform="scale(0.015625)"/>
        <path id="DejaVuSans-35" d="M 691 4666 
L 3169 4666 
L 3169 4134 
L 1269 4134 
L 1269 2991 
Q 1406 3038 1543 3061 
Q 1681 3084 1819 3084 
Q 2600 3084 3056 2656 
Q 3513 2228 3513 1497 
Q 3513 744 3044 326 
Q 2575 -91 1722 -91 
Q 1428 -91 1123 -41 
Q 819 9 494 109 
L 494 744 
Q 775 591 1075 516 
Q 1375 441 1709 441 
Q 2250 441 2565 725 
Q 2881 1009 2881 1497 
Q 2881 1984 2565 2268 
Q 2250 2553 1709 2553 
Q 1456 2553 1204 2497 
Q 953 2441 691 2322 
L 691 4666 
z
" transform="scale(0.015625)"/>
       </defs>
       <use xlink:href="#DejaVuSans-44"/>
       <use xlink:href="#DejaVuSans-65" x="77.001953"/>
       <use xlink:href="#DejaVuSans-63" x="138.525391"/>
       <use xlink:href="#DejaVuSans-20" x="193.505859"/>
       <use xlink:href="#DejaVuSans-30" x="225.292969"/>
       <use xlink:href="#DejaVuSans-35" x="288.916016"/>
      </g>
     </g>
    </g>
    <g id="xtick_2">
     <g id="line2d_2">
      <g>
       <use xlink:href="#m3c86d97e9e" x="152.759511" y="327.04" style="stroke: #000000; stroke-width: 0.8"/>
      </g>
     </g>
     <g id="text_2">
      <!-- Dec 28 -->
      <g transform="translate(131.606699 343.158125)scale(0.12 -0.12)">
       <defs>
        <path id="DejaVuSans-32" d="M 1228 531 
L 3431 531 
L 3431 0 
L 469 0 
L 469 531 
Q 828 903 1448 1529 
Q 2069 2156 2228 2338 
Q 2531 2678 2651 2914 
Q 2772 3150 2772 3378 
Q 2772 3750 2511 3984 
Q 2250 4219 1831 4219 
Q 1534 4219 1204 4116 
Q 875 4013 500 3803 
L 500 4441 
Q 881 4594 1212 4672 
Q 1544 4750 1819 4750 
Q 2544 4750 2975 4387 
Q 3406 4025 3406 3419 
Q 3406 3131 3298 2873 
Q 3191 2616 2906 2266 
Q 2828 2175 2409 1742 
Q 1991 1309 1228 531 
z
" transform="scale(0.015625)"/>
        <path id="DejaVuSans-38" d="M 2034 2216 
Q 1584 2216 1326 1975 
Q 1069 1734 1069 1313 
Q 1069 891 1326 650 
Q 1584 409 2034 409 
Q 2484 409 2743 651 
Q 3003 894 3003 1313 
Q 3003 1734 2745 1975 
Q 2488 2216 2034 2216 
z
M 1403 2484 
Q 997 2584 770 2862 
Q 544 3141 544 3541 
Q 544 4100 942 4425 
Q 1341 4750 2034 4750 
Q 2731 4750 3128 4425 
Q 3525 4100 3525 3541 
Q 3525 3141 3298 2862 
Q 3072 2584 2669 2484 
Q 3125 2378 3379 2068 
Q 3634 1759 3634 1313 
Q 3634 634 3220 271 
Q 2806 -91 2034 -91 
Q 1263 -91 848 271 
Q 434 634 434 1313 
Q 434 1759 690 2068 
Q 947 2378 1403 2484 
z
M 1172 3481 
Q 1172 3119 1398 2916 
Q 1625 2713 2034 2713 
Q 2441 2713 2670 2916 
Q 2900 3119 2900 3481 
Q 2900 3844 2670 4047 
Q 2441 4250 2034 4250 
Q 1625 4250 1398 4047 
Q 1172 3844 1172 3481 
z
" transform="scale(0.015625)"/>
       </defs>
       <use xlink:href="#DejaVuSans-44"/>
       <use xlink:href="#DejaVuSans-65" x="77.001953"/>
       <use xlink:href="#DejaVuSans-63" x="138.525391"/>
       <use xlink:href="#DejaVuSans-20" x="193.505859"/>
       <use xlink:href="#DejaVuSans-32" x="225.292969"/>
       <use xlink:href="#DejaVuSans-38" x="288.916016"/>
      </g>
     </g>
    </g>
    <g id="xtick_3">
     <g id="line2d_3">
      <g>
       <use xlink:href="#m3c86d97e9e" x="225.214477" y="327.04" style="stroke: #000000; stroke-width: 0.8"/>
      </g>
     </g>
     <g id="text_3">
      <!-- Jan 18 -->
      <g transform="translate(206.423227 343.158125)scale(0.12 -0.12)">
       <defs>
        <path id="DejaVuSans-4a" d="M 628 4666 
L 1259 4666 
L 1259 325 
Q 1259 -519 939 -900 
Q 619 -1281 -91 -1281 
L -331 -1281 
L -331 -750 
L -134 -750 
Q 284 -750 456 -515 
Q 628 -281 628 325 
L 628 4666 
z
" transform="scale(0.015625)"/>
        <path id="DejaVuSans-61" d="M 2194 1759 
Q 1497 1759 1228 1600 
Q 959 1441 959 1056 
Q 959 750 1161 570 
Q 1363 391 1709 391 
Q 2188 391 2477 730 
Q 2766 1069 2766 1631 
L 2766 1759 
L 2194 1759 
z
M 3341 1997 
L 3341 0 
L 2766 0 
L 2766 531 
Q 2569 213 2275 61 
Q 1981 -91 1556 -91 
Q 1019 -91 701 211 
Q 384 513 384 1019 
Q 384 1609 779 1909 
Q 1175 2209 1959 2209 
L 2766 2209 
L 2766 2266 
Q 2766 2663 2505 2880 
Q 2244 3097 1772 3097 
Q 1472 3097 1187 3025 
Q 903 2953 641 2809 
L 641 3341 
Q 956 3463 1253 3523 
Q 1550 3584 1831 3584 
Q 2591 3584 2966 3190 
Q 3341 2797 3341 1997 
z
" transform="scale(0.015625)"/>
        <path id="DejaVuSans-6e" d="M 3513 2113 
L 3513 0 
L 2938 0 
L 2938 2094 
Q 2938 2591 2744 2837 
Q 2550 3084 2163 3084 
Q 1697 3084 1428 2787 
Q 1159 2491 1159 1978 
L 1159 0 
L 581 0 
L 581 3500 
L 1159 3500 
L 1159 2956 
Q 1366 3272 1645 3428 
Q 1925 3584 2291 3584 
Q 2894 3584 3203 3211 
Q 3513 2838 3513 2113 
z
" transform="scale(0.015625)"/>
        <path id="DejaVuSans-31" d="M 794 531 
L 1825 531 
L 1825 4091 
L 703 3866 
L 703 4441 
L 1819 4666 
L 2450 4666 
L 2450 531 
L 3481 531 
L 3481 0 
L 794 0 
L 794 531 
z
" transform="scale(0.015625)"/>
       </defs>
       <use xlink:href="#DejaVuSans-4a"/>
       <use xlink:href="#DejaVuSans-61" x="29.492188"/>
       <use xlink:href="#DejaVuSans-6e" x="90.771484"/>
       <use xlink:href="#DejaVuSans-20" x="154.150391"/>
       <use xlink:href="#DejaVuSans-31" x="185.9375"/>
       <use xlink:href="#DejaVuSans-38" x="249.560547"/>
      </g>
     </g>
    </g>
    <g id="xtick_4">
     <g id="line2d_4">
      <g>
       <use xlink:href="#m3c86d97e9e" x="297.669443" y="327.04" style="stroke: #000000; stroke-width: 0.8"/>
      </g>
     </g>
     <g id="text_4">
      <!-- Feb 10 -->
      <g transform="translate(277.505693 343.158125)scale(0.12 -0.12)">
       <defs>
        <path id="DejaVuSans-46" d="M 628 4666 
L 3309 4666 
L 3309 4134 
L 1259 4134 
L 1259 2759 
L 3109 2759 
L 3109 2228 
L 1259 2228 
L 1259 0 
L 628 0 
L 628 4666 
z
" transform="scale(0.015625)"/>
        <path id="DejaVuSans-62" d="M 3116 1747 
Q 3116 2381 2855 2742 
Q 2594 3103 2138 3103 
Q 1681 3103 1420 2742 
Q 1159 2381 1159 1747 
Q 1159 1113 1420 752 
Q 1681 391 2138 391 
Q 2594 391 2855 752 
Q 3116 1113 3116 1747 
z
M 1159 2969 
Q 1341 3281 1617 3432 
Q 1894 3584 2278 3584 
Q 2916 3584 3314 3078 
Q 3713 2572 3713 1747 
Q 3713 922 3314 415 
Q 2916 -91 2278 -91 
Q 1894 -91 1617 61 
Q 1341 213 1159 525 
L 1159 0 
L 581 0 
L 581 4863 
L 1159 4863 
L 1159 2969 
z
" transform="scale(0.015625)"/>
       </defs>
       <use xlink:href="#DejaVuSans-46"/>
       <use xlink:href="#DejaVuSans-65" x="52.019531"/>
       <use xlink:href="#DejaVuSans-62" x="113.542969"/>
       <use xlink:href="#DejaVuSans-20" x="177.019531"/>
       <use xlink:href="#DejaVuSans-31" x="208.806641"/>
       <use xlink:href="#DejaVuSans-30" x="272.429688"/>
      </g>
     </g>
    </g>
    <g id="xtick_5">
     <g id="line2d_5">
      <g>
       <use xlink:href="#m3c86d97e9e" x="370.124409" y="327.04" style="stroke: #000000; stroke-width: 0.8"/>
      </g>
     </g>
     <g id="text_5">
      <!-- Mar 05 -->
      <g transform="translate(349.262221 343.158125)scale(0.12 -0.12)">
       <defs>
        <path id="DejaVuSans-4d" d="M 628 4666 
L 1569 4666 
L 2759 1491 
L 3956 4666 
L 4897 4666 
L 4897 0 
L 4281 0 
L 4281 4097 
L 3078 897 
L 2444 897 
L 1241 4097 
L 1241 0 
L 628 0 
L 628 4666 
z
" transform="scale(0.015625)"/>
        <path id="DejaVuSans-72" d="M 2631 2963 
Q 2534 3019 2420 3045 
Q 2306 3072 2169 3072 
Q 1681 3072 1420 2755 
Q 1159 2438 1159 1844 
L 1159 0 
L 581 0 
L 581 3500 
L 1159 3500 
L 1159 2956 
Q 1341 3275 1631 3429 
Q 1922 3584 2338 3584 
Q 2397 3584 2469 3576 
Q 2541 3569 2628 3553 
L 2631 2963 
z
" transform="scale(0.015625)"/>
       </defs>
       <use xlink:href="#DejaVuSans-4d"/>
       <use xlink:href="#DejaVuSans-61" x="86.279297"/>
       <use xlink:href="#DejaVuSans-72" x="147.558594"/>
       <use xlink:href="#DejaVuSans-20" x="188.671875"/>
       <use xlink:href="#DejaVuSans-30" x="220.458984"/>
       <use xlink:href="#DejaVuSans-35" x="284.082031"/>
      </g>
     </g>
    </g>
    <g id="xtick_6">
     <g id="line2d_6">
      <g>
       <use xlink:href="#m3c86d97e9e" x="442.579375" y="327.04" style="stroke: #000000; stroke-width: 0.8"/>
      </g>
     </g>
     <g id="text_6">
      <!-- Mar 27 -->
      <g transform="translate(421.717187 343.158125)scale(0.12 -0.12)">
       <defs>
        <path id="DejaVuSans-37" d="M 525 4666 
L 3525 4666 
L 3525 4397 
L 1831 0 
L 1172 0 
L 2766 4134 
L 525 4134 
L 525 4666 
z
" transform="scale(0.015625)"/>
       </defs>
       <use xlink:href="#DejaVuSans-4d"/>
       <use xlink:href="#DejaVuSans-61" x="86.279297"/>
       <use xlink:href="#DejaVuSans-72" x="147.558594"/>
       <use xlink:href="#DejaVuSans-20" x="188.671875"/>
       <use xlink:href="#DejaVuSans-32" x="220.458984"/>
       <use xlink:href="#DejaVuSans-37" x="284.082031"/>
      </g>
     </g>
    </g>
    <g id="xtick_7">
     <g id="line2d_7">
      <g>
       <use xlink:href="#m3c86d97e9e" x="515.034341" y="327.04" style="stroke: #000000; stroke-width: 0.8"/>
      </g>
     </g>
     <g id="text_7">
      <!-- Apr 18 -->
      <g transform="translate(495.112466 343.158125)scale(0.12 -0.12)">
       <defs>
        <path id="DejaVuSans-41" d="M 2188 4044 
L 1331 1722 
L 3047 1722 
L 2188 4044 
z
M 1831 4666 
L 2547 4666 
L 4325 0 
L 3669 0 
L 3244 1197 
L 1141 1197 
L 716 0 
L 50 0 
L 1831 4666 
z
" transform="scale(0.015625)"/>
        <path id="DejaVuSans-70" d="M 1159 525 
L 1159 -1331 
L 581 -1331 
L 581 3500 
L 1159 3500 
L 1159 2969 
Q 1341 3281 1617 3432 
Q 1894 3584 2278 3584 
Q 2916 3584 3314 3078 
Q 3713 2572 3713 1747 
Q 3713 922 3314 415 
Q 2916 -91 2278 -91 
Q 1894 -91 1617 61 
Q 1341 213 1159 525 
z
M 3116 1747 
Q 3116 2381 2855 2742 
Q 2594 3103 2138 3103 
Q 1681 3103 1420 2742 
Q 1159 2381 1159 1747 
Q 1159 1113 1420 752 
Q 1681 391 2138 391 
Q 2594 391 2855 752 
Q 3116 1113 3116 1747 
z
" transform="scale(0.015625)"/>
       </defs>
       <use xlink:href="#DejaVuSans-41"/>
       <use xlink:href="#DejaVuSans-70" x="68.408203"/>
       <use xlink:href="#DejaVuSans-72" x="131.884766"/>
       <use xlink:href="#DejaVuSans-20" x="172.998047"/>
       <use xlink:href="#DejaVuSans-31" x="204.785156"/>
       <use xlink:href="#DejaVuSans-38" x="268.408203"/>
      </g>
     </g>
    </g>
    <g id="xtick_8">
     <g id="line2d_8">
      <g>
       <use xlink:href="#m3c86d97e9e" x="587.489306" y="327.04" style="stroke: #000000; stroke-width: 0.8"/>
      </g>
     </g>
     <g id="text_8">
      <!-- May 10 -->
      <g transform="translate(565.542431 343.158125)scale(0.12 -0.12)">
       <defs>
        <path id="DejaVuSans-79" d="M 2059 -325 
Q 1816 -950 1584 -1140 
Q 1353 -1331 966 -1331 
L 506 -1331 
L 506 -850 
L 844 -850 
Q 1081 -850 1212 -737 
Q 1344 -625 1503 -206 
L 1606 56 
L 191 3500 
L 800 3500 
L 1894 763 
L 2988 3500 
L 3597 3500 
L 2059 -325 
z
" transform="scale(0.015625)"/>
       </defs>
       <use xlink:href="#DejaVuSans-4d"/>
       <use xlink:href="#DejaVuSans-61" x="86.279297"/>
       <use xlink:href="#DejaVuSans-79" x="147.558594"/>
       <use xlink:href="#DejaVuSans-20" x="206.738281"/>
       <use xlink:href="#DejaVuSans-31" x="238.525391"/>
       <use xlink:href="#DejaVuSans-30" x="302.148438"/>
      </g>
     </g>
    </g>
    <g id="xtick_9">
     <g id="line2d_9">
      <g>
       <use xlink:href="#m3c86d97e9e" x="659.944272" y="327.04" style="stroke: #000000; stroke-width: 0.8"/>
      </g>
     </g>
     <g id="text_9">
      <!-- Jun 01 -->
      <g transform="translate(641.027397 343.158125)scale(0.12 -0.12)">
       <defs>
        <path id="DejaVuSans-75" d="M 544 1381 
L 544 3500 
L 1119 3500 
L 1119 1403 
Q 1119 906 1312 657 
Q 1506 409 1894 409 
Q 2359 409 2629 706 
Q 2900 1003 2900 1516 
L 2900 3500 
L 3475 3500 
L 3475 0 
L 2900 0 
L 2900 538 
Q 2691 219 2414 64 
Q 2138 -91 1772 -91 
Q 1169 -91 856 284 
Q 544 659 544 1381 
z
M 1991 3584 
L 1991 3584 
z
" transform="scale(0.015625)"/>
       </defs>
       <use xlink:href="#DejaVuSans-4a"/>
       <use xlink:href="#DejaVuSans-75" x="29.492188"/>
       <use xlink:href="#DejaVuSans-6e" x="92.871094"/>
       <use xlink:href="#DejaVuSans-20" x="156.25"/>
       <use xlink:href="#DejaVuSans-30" x="188.037109"/>
       <use xlink:href="#DejaVuSans-31" x="251.660156"/>
      </g>
     </g>
    </g>
   </g>
   <g id="matplotlib.axis_2">
    <g id="ytick_1">
     <g id="line2d_10">
      <defs>
       <path id="m2b33fda182" d="M 0 0 
L -3.5 0 
" style="stroke: #000000; stroke-width: 0.8"/>
      </defs>
      <g>
       <use xlink:href="#m2b33fda182" x="50.46" y="327.04" style="stroke: #000000; stroke-width: 0.8"/>
      </g>
     </g>
     <g id="text_10">
      <!-- 0 -->
      <g transform="translate(35.825 331.599063)scale(0.12 -0.12)">
       <use xlink:href="#DejaVuSans-30"/>
      </g>
     </g>
    </g>
    <g id="ytick_2">
     <g id="line2d_11">
      <g>
       <use xlink:href="#m2b33fda182" x="50.46" y="292.117194" style="stroke: #000000; stroke-width: 0.8"/>
      </g>
     </g>
     <g id="text_11">
      <!-- 1000 -->
      <g transform="translate(12.92 296.676257)scale(0.12 -0.12)">
       <use xlink:href="#DejaVuSans-31"/>
       <use xlink:href="#DejaVuSans-30" x="63.623047"/>
       <use xlink:href="#DejaVuSans-30" x="127.246094"/>
       <use xlink:href="#DejaVuSans-30" x="190.869141"/>
      </g>
     </g>
    </g>
    <g id="ytick_3">
     <g id="line2d_12">
      <g>
       <use xlink:href="#m2b33fda182" x="50.46" y="257.194388" style="stroke: #000000; stroke-width: 0.8"/>
      </g>
     </g>
     <g id="text_12">
      <!-- 2000 -->
      <g transform="translate(12.92 261.753451)scale(0.12 -0.12)">
       <use xlink:href="#DejaVuSans-32"/>
       <use xlink:href="#DejaVuSans-30" x="63.623047"/>
       <use xlink:href="#DejaVuSans-30" x="127.246094"/>
       <use xlink:href="#DejaVuSans-30" x="190.869141"/>
      </g>
     </g>
    </g>
    <g id="ytick_4">
     <g id="line2d_13">
      <g>
       <use xlink:href="#m2b33fda182" x="50.46" y="222.271583" style="stroke: #000000; stroke-width: 0.8"/>
      </g>
     </g>
     <g id="text_13">
      <!-- 3000 -->
      <g transform="translate(12.92 226.830645)scale(0.12 -0.12)">
       <defs>
        <path id="DejaVuSans-33" d="M 2597 2516 
Q 3050 2419 3304 2112 
Q 3559 1806 3559 1356 
Q 3559 666 3084 287 
Q 2609 -91 1734 -91 
Q 1441 -91 1130 -33 
Q 819 25 488 141 
L 488 750 
Q 750 597 1062 519 
Q 1375 441 1716 441 
Q 2309 441 2620 675 
Q 2931 909 2931 1356 
Q 2931 1769 2642 2001 
Q 2353 2234 1838 2234 
L 1294 2234 
L 1294 2753 
L 1863 2753 
Q 2328 2753 2575 2939 
Q 2822 3125 2822 3475 
Q 2822 3834 2567 4026 
Q 2313 4219 1838 4219 
Q 1578 4219 1281 4162 
Q 984 4106 628 3988 
L 628 4550 
Q 988 4650 1302 4700 
Q 1616 4750 1894 4750 
Q 2613 4750 3031 4423 
Q 3450 4097 3450 3541 
Q 3450 3153 3228 2886 
Q 3006 2619 2597 2516 
z
" transform="scale(0.015625)"/>
       </defs>
       <use xlink:href="#DejaVuSans-33"/>
       <use xlink:href="#DejaVuSans-30" x="63.623047"/>
       <use xlink:href="#DejaVuSans-30" x="127.246094"/>
       <use xlink:href="#DejaVuSans-30" x="190.869141"/>
      </g>
     </g>
    </g>
    <g id="ytick_5">
     <g id="line2d_14">
      <g>
       <use xlink:href="#m2b33fda182" x="50.46" y="187.348777" style="stroke: #000000; stroke-width: 0.8"/>
      </g>
     </g>
     <g id="text_14">
      <!-- 4000 -->
      <g transform="translate(12.92 191.907839)scale(0.12 -0.12)">
       <defs>
        <path id="DejaVuSans-34" d="M 2419 4116 
L 825 1625 
L 2419 1625 
L 2419 4116 
z
M 2253 4666 
L 3047 4666 
L 3047 1625 
L 3713 1625 
L 3713 1100 
L 3047 1100 
L 3047 0 
L 2419 0 
L 2419 1100 
L 313 1100 
L 313 1709 
L 2253 4666 
z
" transform="scale(0.015625)"/>
       </defs>
       <use xlink:href="#DejaVuSans-34"/>
       <use xlink:href="#DejaVuSans-30" x="63.623047"/>
       <use xlink:href="#DejaVuSans-30" x="127.246094"/>
       <use xlink:href="#DejaVuSans-30" x="190.869141"/>
      </g>
     </g>
    </g>
    <g id="ytick_6">
     <g id="line2d_15">
      <g>
       <use xlink:href="#m2b33fda182" x="50.46" y="152.425971" style="stroke: #000000; stroke-width: 0.8"/>
      </g>
     </g>
     <g id="text_15">
      <!-- 5000 -->
      <g transform="translate(12.92 156.985034)scale(0.12 -0.12)">
       <use xlink:href="#DejaVuSans-35"/>
       <use xlink:href="#DejaVuSans-30" x="63.623047"/>
       <use xlink:href="#DejaVuSans-30" x="127.246094"/>
       <use xlink:href="#DejaVuSans-30" x="190.869141"/>
      </g>
     </g>
    </g>
    <g id="ytick_7">
     <g id="line2d_16">
      <g>
       <use xlink:href="#m2b33fda182" x="50.46" y="117.503165" style="stroke: #000000; stroke-width: 0.8"/>
      </g>
     </g>
     <g id="text_16">
      <!-- 6000 -->
      <g transform="translate(12.92 122.062228)scale(0.12 -0.12)">
       <defs>
        <path id="DejaVuSans-36" d="M 2113 2584 
Q 1688 2584 1439 2293 
Q 1191 2003 1191 1497 
Q 1191 994 1439 701 
Q 1688 409 2113 409 
Q 2538 409 2786 701 
Q 3034 994 3034 1497 
Q 3034 2003 2786 2293 
Q 2538 2584 2113 2584 
z
M 3366 4563 
L 3366 3988 
Q 3128 4100 2886 4159 
Q 2644 4219 2406 4219 
Q 1781 4219 1451 3797 
Q 1122 3375 1075 2522 
Q 1259 2794 1537 2939 
Q 1816 3084 2150 3084 
Q 2853 3084 3261 2657 
Q 3669 2231 3669 1497 
Q 3669 778 3244 343 
Q 2819 -91 2113 -91 
Q 1303 -91 875 529 
Q 447 1150 447 2328 
Q 447 3434 972 4092 
Q 1497 4750 2381 4750 
Q 2619 4750 2861 4703 
Q 3103 4656 3366 4563 
z
" transform="scale(0.015625)"/>
       </defs>
       <use xlink:href="#DejaVuSans-36"/>
       <use xlink:href="#DejaVuSans-30" x="63.623047"/>
       <use xlink:href="#DejaVuSans-30" x="127.246094"/>
       <use xlink:href="#DejaVuSans-30" x="190.869141"/>
      </g>
     </g>
    </g>
    <g id="ytick_8">
     <g id="line2d_17">
      <g>
       <use xlink:href="#m2b33fda182" x="50.46" y="82.580359" style="stroke: #000000; stroke-width: 0.8"/>
      </g>
     </g>
     <g id="text_17">
      <!-- 7000 -->
      <g transform="translate(12.92 87.139422)scale(0.12 -0.12)">
       <use xlink:href="#DejaVuSans-37"/>
       <use xlink:href="#DejaVuSans-30" x="63.623047"/>
       <use xlink:href="#DejaVuSans-30" x="127.246094"/>
       <use xlink:href="#DejaVuSans-30" x="190.869141"/>
      </g>
     </g>
    </g>
    <g id="ytick_9">
     <g id="line2d_18">
      <g>
       <use xlink:href="#m2b33fda182" x="50.46" y="47.657554" style="stroke: #000000; stroke-width: 0.8"/>
      </g>
     </g>
     <g id="text_18">
      <!-- 8000 -->
      <g transform="translate(12.92 52.216616)scale(0.12 -0.12)">
       <use xlink:href="#DejaVuSans-38"/>
       <use xlink:href="#DejaVuSans-30" x="63.623047"/>
       <use xlink:href="#DejaVuSans-30" x="127.246094"/>
       <use xlink:href="#DejaVuSans-30" x="190.869141"/>
      </g>
     </g>
    </g>
   </g>
   <g id="line2d_19">
    <path d="M 80.304545 325.258937 
L 87.205018 325.782779 
L 94.105491 324.665249 
L 97.555728 324.350944 
L 101.005964 325.189091 
L 107.906437 324.770018 
L 111.356674 324.700172 
L 114.80691 323.862025 
L 118.257147 323.373105 
L 121.707383 323.442951 
L 125.15762 323.023877 
L 128.607856 322.011116 
L 132.058092 321.31266 
L 135.508329 319.845902 
L 138.958565 318.623604 
L 142.408802 318.937909 
L 145.859038 319.880825 
L 149.309275 319.252214 
L 152.759511 319.706211 
L 156.209748 318.518835 
L 159.659984 308.530913 
L 163.110221 293.129956 
L 166.560457 293.618875 
L 170.010694 292.885496 
L 173.46093 291.034587 
L 176.911167 284.713559 
L 180.361403 270.919051 
L 183.81164 261.350202 
L 187.261876 268.125227 
L 190.712112 259.010374 
L 194.162349 263.585262 
L 197.612585 287.123233 
L 201.062822 264.702792 
L 204.513058 253.457648 
L 207.963295 243.15542 
L 211.413531 263.655107 
L 214.863768 239.767908 
L 218.314004 258.172227 
L 221.764241 265.645707 
L 225.214477 271.40797 
L 228.664714 259.359602 
L 232.11495 263.899567 
L 235.565187 253.35288 
L 239.015423 292.361654 
L 242.465659 284.015103 
L 245.915896 283.805566 
L 249.366132 291.383815 
L 252.816369 309.194446 
L 256.266605 300.952664 
L 259.716842 300.324054 
L 263.167078 309.334137 
L 266.617315 308.181685 
L 270.067551 310.24213 
L 273.517788 309.124601 
L 276.968024 314.118562 
L 280.418261 319.391906 
L 283.868497 319.810979 
L 287.318734 315.620243 
L 290.76897 315.655165 
L 294.219207 307.273692 
L 297.669443 309.508751 
L 301.119679 314.956709 
L 304.569916 314.782095 
L 308.020152 320.369744 
L 311.470389 321.906348 
L 314.920625 322.220653 
L 318.370862 317.436228 
L 321.821098 255.867322 
L 325.271335 269.626907 
L 328.721571 287.297847 
L 332.171808 289.148756 
L 335.622044 256.565778 
L 339.072281 260.966051 
L 342.522517 272.874728 
L 345.972754 284.084949 
L 349.42299 286.21524 
L 352.873226 288.939219 
L 356.323463 261.350202 
L 359.773699 259.778676 
L 363.223936 267.880767 
L 366.674172 281.570507 
L 370.124409 273.852567 
L 373.574645 278.113149 
L 377.024882 245.600017 
L 380.475118 253.702108 
L 383.925355 249.441526 
L 387.375591 267.636307 
L 390.825828 268.998297 
L 394.276064 259.464371 
L 397.726301 280.24344 
L 401.176537 267.531539 
L 404.626774 158.712076 
L 408.07701 235.716863 
L 411.527246 241.968045 
L 414.977483 241.793431 
L 418.427719 249.546294 
L 421.877956 253.632262 
L 425.328192 220.141291 
L 428.778429 210.53752 
L 432.228665 222.166814 
L 435.678902 230.932438 
L 439.129138 237.497926 
L 442.579375 247.206466 
L 446.029611 222.166814 
L 449.479848 218.325306 
L 452.930084 241.793431 
L 456.380321 227.789386 
L 459.830557 249.685985 
L 463.280793 257.438848 
L 466.73103 260.581901 
L 470.181266 238.859915 
L 473.631503 224.960639 
L 477.081739 243.050652 
L 480.531976 256.635624 
L 483.982212 261.07082 
L 487.432449 270.150749 
L 490.882685 276.681314 
L 494.332922 269.871367 
L 497.783158 264.877406 
L 501.233395 268.928451 
L 504.683631 277.37977 
L 508.133868 281.745121 
L 511.584104 291.593352 
L 515.034341 287.402615 
L 518.484577 292.291808 
L 521.934813 279.544984 
L 525.38505 275.808244 
L 528.835286 293.06011 
L 532.285523 296.79685 
L 535.735759 303.536952 
L 539.185996 297.285769 
L 542.636232 288.031226 
L 546.086469 287.297847 
L 549.536705 294.282408 
L 552.986942 293.723643 
L 556.437178 298.996987 
L 559.887415 302.384499 
L 563.337651 291.209201 
L 566.787888 289.777366 
L 570.238124 266.029858 
L 573.68836 288.83445 
L 577.138597 287.472461 
L 580.588833 293.68872 
L 584.03907 299.241447 
L 587.489306 283.037265 
L 590.939543 280.662514 
L 594.389779 282.164195 
L 597.840016 285.551707 
L 601.290252 289.637675 
L 604.740489 295.574552 
L 608.190725 297.600075 
L 611.640962 283.840489 
L 615.091198 283.386493 
L 618.541435 290.161517 
L 621.991671 293.444261 
L 625.441908 297.66992 
L 628.892144 302.419422 
L 632.34238 305.667243 
L 635.792617 296.16824 
L 639.242853 297.460383 
L 642.69309 292.396577 
L 646.143326 301.476506 
L 649.593563 303.257569 
L 653.043799 308.880141 
L 656.494036 301.686043 
L 659.944272 301.371738 
L 663.394509 304.479867 
L 666.844745 305.108478 
L 670.294982 306.680004 
L 673.745218 310.067516 
L 677.195455 313.210569 
L 677.195455 313.210569 
" clip-path="url(#p1cf94625c0)" style="fill: none; stroke: #1f77b4; stroke-width: 1.5; stroke-linecap: square"/>
    <defs>
     <path id="mcb381b9243" d="M 0 3 
C 0.795609 3 1.55874 2.683901 2.12132 2.12132 
C 2.683901 1.55874 3 0.795609 3 0 
C 3 -0.795609 2.683901 -1.55874 2.12132 -2.12132 
C 1.55874 -2.683901 0.795609 -3 0 -3 
C -0.795609 -3 -1.55874 -2.683901 -2.12132 -2.12132 
C -2.683901 -1.55874 -3 -0.795609 -3 0 
C -3 0.795609 -2.683901 1.55874 -2.12132 2.12132 
C -1.55874 2.683901 -0.795609 3 0 3 
z
" style="stroke: #1f77b4"/>
    </defs>
    <g clip-path="url(#p1cf94625c0)">
     <use xlink:href="#mcb381b9243" x="80.304545" y="325.258937" style="fill: #1f77b4; stroke: #1f77b4"/>
     <use xlink:href="#mcb381b9243" x="83.754782" y="325.573242" style="fill: #1f77b4; stroke: #1f77b4"/>
     <use xlink:href="#mcb381b9243" x="87.205018" y="325.782779" style="fill: #1f77b4; stroke: #1f77b4"/>
     <use xlink:href="#mcb381b9243" x="90.655255" y="325.258937" style="fill: #1f77b4; stroke: #1f77b4"/>
     <use xlink:href="#mcb381b9243" x="94.105491" y="324.665249" style="fill: #1f77b4; stroke: #1f77b4"/>
     <use xlink:href="#mcb381b9243" x="97.555728" y="324.350944" style="fill: #1f77b4; stroke: #1f77b4"/>
     <use xlink:href="#mcb381b9243" x="101.005964" y="325.189091" style="fill: #1f77b4; stroke: #1f77b4"/>
     <use xlink:href="#mcb381b9243" x="104.456201" y="324.979554" style="fill: #1f77b4; stroke: #1f77b4"/>
     <use xlink:href="#mcb381b9243" x="107.906437" y="324.770018" style="fill: #1f77b4; stroke: #1f77b4"/>
     <use xlink:href="#mcb381b9243" x="111.356674" y="324.700172" style="fill: #1f77b4; stroke: #1f77b4"/>
     <use xlink:href="#mcb381b9243" x="114.80691" y="323.862025" style="fill: #1f77b4; stroke: #1f77b4"/>
     <use xlink:href="#mcb381b9243" x="118.257147" y="323.373105" style="fill: #1f77b4; stroke: #1f77b4"/>
     <use xlink:href="#mcb381b9243" x="121.707383" y="323.442951" style="fill: #1f77b4; stroke: #1f77b4"/>
     <use xlink:href="#mcb381b9243" x="125.15762" y="323.023877" style="fill: #1f77b4; stroke: #1f77b4"/>
     <use xlink:href="#mcb381b9243" x="128.607856" y="322.011116" style="fill: #1f77b4; stroke: #1f77b4"/>
     <use xlink:href="#mcb381b9243" x="132.058092" y="321.31266" style="fill: #1f77b4; stroke: #1f77b4"/>
     <use xlink:href="#mcb381b9243" x="135.508329" y="319.845902" style="fill: #1f77b4; stroke: #1f77b4"/>
     <use xlink:href="#mcb381b9243" x="138.958565" y="318.623604" style="fill: #1f77b4; stroke: #1f77b4"/>
     <use xlink:href="#mcb381b9243" x="142.408802" y="318.937909" style="fill: #1f77b4; stroke: #1f77b4"/>
     <use xlink:href="#mcb381b9243" x="145.859038" y="319.880825" style="fill: #1f77b4; stroke: #1f77b4"/>
     <use xlink:href="#mcb381b9243" x="149.309275" y="319.252214" style="fill: #1f77b4; stroke: #1f77b4"/>
     <use xlink:href="#mcb381b9243" x="152.759511" y="319.706211" style="fill: #1f77b4; stroke: #1f77b4"/>
     <use xlink:href="#mcb381b9243" x="156.209748" y="318.518835" style="fill: #1f77b4; stroke: #1f77b4"/>
     <use xlink:href="#mcb381b9243" x="159.659984" y="308.530913" style="fill: #1f77b4; stroke: #1f77b4"/>
     <use xlink:href="#mcb381b9243" x="163.110221" y="293.129956" style="fill: #1f77b4; stroke: #1f77b4"/>
     <use xlink:href="#mcb381b9243" x="166.560457" y="293.618875" style="fill: #1f77b4; stroke: #1f77b4"/>
     <use xlink:href="#mcb381b9243" x="170.010694" y="292.885496" style="fill: #1f77b4; stroke: #1f77b4"/>
     <use xlink:href="#mcb381b9243" x="173.46093" y="291.034587" style="fill: #1f77b4; stroke: #1f77b4"/>
     <use xlink:href="#mcb381b9243" x="176.911167" y="284.713559" style="fill: #1f77b4; stroke: #1f77b4"/>
     <use xlink:href="#mcb381b9243" x="180.361403" y="270.919051" style="fill: #1f77b4; stroke: #1f77b4"/>
     <use xlink:href="#mcb381b9243" x="183.81164" y="261.350202" style="fill: #1f77b4; stroke: #1f77b4"/>
     <use xlink:href="#mcb381b9243" x="187.261876" y="268.125227" style="fill: #1f77b4; stroke: #1f77b4"/>
     <use xlink:href="#mcb381b9243" x="190.712112" y="259.010374" style="fill: #1f77b4; stroke: #1f77b4"/>
     <use xlink:href="#mcb381b9243" x="194.162349" y="263.585262" style="fill: #1f77b4; stroke: #1f77b4"/>
     <use xlink:href="#mcb381b9243" x="197.612585" y="287.123233" style="fill: #1f77b4; stroke: #1f77b4"/>
     <use xlink:href="#mcb381b9243" x="201.062822" y="264.702792" style="fill: #1f77b4; stroke: #1f77b4"/>
     <use xlink:href="#mcb381b9243" x="204.513058" y="253.457648" style="fill: #1f77b4; stroke: #1f77b4"/>
     <use xlink:href="#mcb381b9243" x="207.963295" y="243.15542" style="fill: #1f77b4; stroke: #1f77b4"/>
     <use xlink:href="#mcb381b9243" x="211.413531" y="263.655107" style="fill: #1f77b4; stroke: #1f77b4"/>
     <use xlink:href="#mcb381b9243" x="214.863768" y="239.767908" style="fill: #1f77b4; stroke: #1f77b4"/>
     <use xlink:href="#mcb381b9243" x="218.314004" y="258.172227" style="fill: #1f77b4; stroke: #1f77b4"/>
     <use xlink:href="#mcb381b9243" x="221.764241" y="265.645707" style="fill: #1f77b4; stroke: #1f77b4"/>
     <use xlink:href="#mcb381b9243" x="225.214477" y="271.40797" style="fill: #1f77b4; stroke: #1f77b4"/>
     <use xlink:href="#mcb381b9243" x="228.664714" y="259.359602" style="fill: #1f77b4; stroke: #1f77b4"/>
     <use xlink:href="#mcb381b9243" x="232.11495" y="263.899567" style="fill: #1f77b4; stroke: #1f77b4"/>
     <use xlink:href="#mcb381b9243" x="235.565187" y="253.35288" style="fill: #1f77b4; stroke: #1f77b4"/>
     <use xlink:href="#mcb381b9243" x="239.015423" y="292.361654" style="fill: #1f77b4; stroke: #1f77b4"/>
     <use xlink:href="#mcb381b9243" x="242.465659" y="284.015103" style="fill: #1f77b4; stroke: #1f77b4"/>
     <use xlink:href="#mcb381b9243" x="245.915896" y="283.805566" style="fill: #1f77b4; stroke: #1f77b4"/>
     <use xlink:href="#mcb381b9243" x="249.366132" y="291.383815" style="fill: #1f77b4; stroke: #1f77b4"/>
     <use xlink:href="#mcb381b9243" x="252.816369" y="309.194446" style="fill: #1f77b4; stroke: #1f77b4"/>
     <use xlink:href="#mcb381b9243" x="256.266605" y="300.952664" style="fill: #1f77b4; stroke: #1f77b4"/>
     <use xlink:href="#mcb381b9243" x="259.716842" y="300.324054" style="fill: #1f77b4; stroke: #1f77b4"/>
     <use xlink:href="#mcb381b9243" x="263.167078" y="309.334137" style="fill: #1f77b4; stroke: #1f77b4"/>
     <use xlink:href="#mcb381b9243" x="266.617315" y="308.181685" style="fill: #1f77b4; stroke: #1f77b4"/>
     <use xlink:href="#mcb381b9243" x="270.067551" y="310.24213" style="fill: #1f77b4; stroke: #1f77b4"/>
     <use xlink:href="#mcb381b9243" x="273.517788" y="309.124601" style="fill: #1f77b4; stroke: #1f77b4"/>
     <use xlink:href="#mcb381b9243" x="276.968024" y="314.118562" style="fill: #1f77b4; stroke: #1f77b4"/>
     <use xlink:href="#mcb381b9243" x="280.418261" y="319.391906" style="fill: #1f77b4; stroke: #1f77b4"/>
     <use xlink:href="#mcb381b9243" x="283.868497" y="319.810979" style="fill: #1f77b4; stroke: #1f77b4"/>
     <use xlink:href="#mcb381b9243" x="287.318734" y="315.620243" style="fill: #1f77b4; stroke: #1f77b4"/>
     <use xlink:href="#mcb381b9243" x="290.76897" y="315.655165" style="fill: #1f77b4; stroke: #1f77b4"/>
     <use xlink:href="#mcb381b9243" x="294.219207" y="307.273692" style="fill: #1f77b4; stroke: #1f77b4"/>
     <use xlink:href="#mcb381b9243" x="297.669443" y="309.508751" style="fill: #1f77b4; stroke: #1f77b4"/>
     <use xlink:href="#mcb381b9243" x="301.119679" y="314.956709" style="fill: #1f77b4; stroke: #1f77b4"/>
     <use xlink:href="#mcb381b9243" x="304.569916" y="314.782095" style="fill: #1f77b4; stroke: #1f77b4"/>
     <use xlink:href="#mcb381b9243" x="308.020152" y="320.369744" style="fill: #1f77b4; stroke: #1f77b4"/>
     <use xlink:href="#mcb381b9243" x="311.470389" y="321.906348" style="fill: #1f77b4; stroke: #1f77b4"/>
     <use xlink:href="#mcb381b9243" x="314.920625" y="322.220653" style="fill: #1f77b4; stroke: #1f77b4"/>
     <use xlink:href="#mcb381b9243" x="318.370862" y="317.436228" style="fill: #1f77b4; stroke: #1f77b4"/>
     <use xlink:href="#mcb381b9243" x="321.821098" y="255.867322" style="fill: #1f77b4; stroke: #1f77b4"/>
     <use xlink:href="#mcb381b9243" x="325.271335" y="269.626907" style="fill: #1f77b4; stroke: #1f77b4"/>
     <use xlink:href="#mcb381b9243" x="328.721571" y="287.297847" style="fill: #1f77b4; stroke: #1f77b4"/>
     <use xlink:href="#mcb381b9243" x="332.171808" y="289.148756" style="fill: #1f77b4; stroke: #1f77b4"/>
     <use xlink:href="#mcb381b9243" x="335.622044" y="256.565778" style="fill: #1f77b4; stroke: #1f77b4"/>
     <use xlink:href="#mcb381b9243" x="339.072281" y="260.966051" style="fill: #1f77b4; stroke: #1f77b4"/>
     <use xlink:href="#mcb381b9243" x="342.522517" y="272.874728" style="fill: #1f77b4; stroke: #1f77b4"/>
     <use xlink:href="#mcb381b9243" x="345.972754" y="284.084949" style="fill: #1f77b4; stroke: #1f77b4"/>
     <use xlink:href="#mcb381b9243" x="349.42299" y="286.21524" style="fill: #1f77b4; stroke: #1f77b4"/>
     <use xlink:href="#mcb381b9243" x="352.873226" y="288.939219" style="fill: #1f77b4; stroke: #1f77b4"/>
     <use xlink:href="#mcb381b9243" x="356.323463" y="261.350202" style="fill: #1f77b4; stroke: #1f77b4"/>
     <use xlink:href="#mcb381b9243" x="359.773699" y="259.778676" style="fill: #1f77b4; stroke: #1f77b4"/>
     <use xlink:href="#mcb381b9243" x="363.223936" y="267.880767" style="fill: #1f77b4; stroke: #1f77b4"/>
     <use xlink:href="#mcb381b9243" x="366.674172" y="281.570507" style="fill: #1f77b4; stroke: #1f77b4"/>
     <use xlink:href="#mcb381b9243" x="370.124409" y="273.852567" style="fill: #1f77b4; stroke: #1f77b4"/>
     <use xlink:href="#mcb381b9243" x="373.574645" y="278.113149" style="fill: #1f77b4; stroke: #1f77b4"/>
     <use xlink:href="#mcb381b9243" x="377.024882" y="245.600017" style="fill: #1f77b4; stroke: #1f77b4"/>
     <use xlink:href="#mcb381b9243" x="380.475118" y="253.702108" style="fill: #1f77b4; stroke: #1f77b4"/>
     <use xlink:href="#mcb381b9243" x="383.925355" y="249.441526" style="fill: #1f77b4; stroke: #1f77b4"/>
     <use xlink:href="#mcb381b9243" x="387.375591" y="267.636307" style="fill: #1f77b4; stroke: #1f77b4"/>
     <use xlink:href="#mcb381b9243" x="390.825828" y="268.998297" style="fill: #1f77b4; stroke: #1f77b4"/>
     <use xlink:href="#mcb381b9243" x="394.276064" y="259.464371" style="fill: #1f77b4; stroke: #1f77b4"/>
     <use xlink:href="#mcb381b9243" x="397.726301" y="280.24344" style="fill: #1f77b4; stroke: #1f77b4"/>
     <use xlink:href="#mcb381b9243" x="401.176537" y="267.531539" style="fill: #1f77b4; stroke: #1f77b4"/>
     <use xlink:href="#mcb381b9243" x="404.626774" y="158.712076" style="fill: #1f77b4; stroke: #1f77b4"/>
     <use xlink:href="#mcb381b9243" x="408.07701" y="235.716863" style="fill: #1f77b4; stroke: #1f77b4"/>
     <use xlink:href="#mcb381b9243" x="411.527246" y="241.968045" style="fill: #1f77b4; stroke: #1f77b4"/>
     <use xlink:href="#mcb381b9243" x="414.977483" y="241.793431" style="fill: #1f77b4; stroke: #1f77b4"/>
     <use xlink:href="#mcb381b9243" x="418.427719" y="249.546294" style="fill: #1f77b4; stroke: #1f77b4"/>
     <use xlink:href="#mcb381b9243" x="421.877956" y="253.632262" style="fill: #1f77b4; stroke: #1f77b4"/>
     <use xlink:href="#mcb381b9243" x="425.328192" y="220.141291" style="fill: #1f77b4; stroke: #1f77b4"/>
     <use xlink:href="#mcb381b9243" x="428.778429" y="210.53752" style="fill: #1f77b4; stroke: #1f77b4"/>
     <use xlink:href="#mcb381b9243" x="432.228665" y="222.166814" style="fill: #1f77b4; stroke: #1f77b4"/>
     <use xlink:href="#mcb381b9243" x="435.678902" y="230.932438" style="fill: #1f77b4; stroke: #1f77b4"/>
     <use xlink:href="#mcb381b9243" x="439.129138" y="237.497926" style="fill: #1f77b4; stroke: #1f77b4"/>
     <use xlink:href="#mcb381b9243" x="442.579375" y="247.206466" style="fill: #1f77b4; stroke: #1f77b4"/>
     <use xlink:href="#mcb381b9243" x="446.029611" y="222.166814" style="fill: #1f77b4; stroke: #1f77b4"/>
     <use xlink:href="#mcb381b9243" x="449.479848" y="218.325306" style="fill: #1f77b4; stroke: #1f77b4"/>
     <use xlink:href="#mcb381b9243" x="452.930084" y="241.793431" style="fill: #1f77b4; stroke: #1f77b4"/>
     <use xlink:href="#mcb381b9243" x="456.380321" y="227.789386" style="fill: #1f77b4; stroke: #1f77b4"/>
     <use xlink:href="#mcb381b9243" x="459.830557" y="249.685985" style="fill: #1f77b4; stroke: #1f77b4"/>
     <use xlink:href="#mcb381b9243" x="463.280793" y="257.438848" style="fill: #1f77b4; stroke: #1f77b4"/>
     <use xlink:href="#mcb381b9243" x="466.73103" y="260.581901" style="fill: #1f77b4; stroke: #1f77b4"/>
     <use xlink:href="#mcb381b9243" x="470.181266" y="238.859915" style="fill: #1f77b4; stroke: #1f77b4"/>
     <use xlink:href="#mcb381b9243" x="473.631503" y="224.960639" style="fill: #1f77b4; stroke: #1f77b4"/>
     <use xlink:href="#mcb381b9243" x="477.081739" y="243.050652" style="fill: #1f77b4; stroke: #1f77b4"/>
     <use xlink:href="#mcb381b9243" x="480.531976" y="256.635624" style="fill: #1f77b4; stroke: #1f77b4"/>
     <use xlink:href="#mcb381b9243" x="483.982212" y="261.07082" style="fill: #1f77b4; stroke: #1f77b4"/>
     <use xlink:href="#mcb381b9243" x="487.432449" y="270.150749" style="fill: #1f77b4; stroke: #1f77b4"/>
     <use xlink:href="#mcb381b9243" x="490.882685" y="276.681314" style="fill: #1f77b4; stroke: #1f77b4"/>
     <use xlink:href="#mcb381b9243" x="494.332922" y="269.871367" style="fill: #1f77b4; stroke: #1f77b4"/>
     <use xlink:href="#mcb381b9243" x="497.783158" y="264.877406" style="fill: #1f77b4; stroke: #1f77b4"/>
     <use xlink:href="#mcb381b9243" x="501.233395" y="268.928451" style="fill: #1f77b4; stroke: #1f77b4"/>
     <use xlink:href="#mcb381b9243" x="504.683631" y="277.37977" style="fill: #1f77b4; stroke: #1f77b4"/>
     <use xlink:href="#mcb381b9243" x="508.133868" y="281.745121" style="fill: #1f77b4; stroke: #1f77b4"/>
     <use xlink:href="#mcb381b9243" x="511.584104" y="291.593352" style="fill: #1f77b4; stroke: #1f77b4"/>
     <use xlink:href="#mcb381b9243" x="515.034341" y="287.402615" style="fill: #1f77b4; stroke: #1f77b4"/>
     <use xlink:href="#mcb381b9243" x="518.484577" y="292.291808" style="fill: #1f77b4; stroke: #1f77b4"/>
     <use xlink:href="#mcb381b9243" x="521.934813" y="279.544984" style="fill: #1f77b4; stroke: #1f77b4"/>
     <use xlink:href="#mcb381b9243" x="525.38505" y="275.808244" style="fill: #1f77b4; stroke: #1f77b4"/>
     <use xlink:href="#mcb381b9243" x="528.835286" y="293.06011" style="fill: #1f77b4; stroke: #1f77b4"/>
     <use xlink:href="#mcb381b9243" x="532.285523" y="296.79685" style="fill: #1f77b4; stroke: #1f77b4"/>
     <use xlink:href="#mcb381b9243" x="535.735759" y="303.536952" style="fill: #1f77b4; stroke: #1f77b4"/>
     <use xlink:href="#mcb381b9243" x="539.185996" y="297.285769" style="fill: #1f77b4; stroke: #1f77b4"/>
     <use xlink:href="#mcb381b9243" x="542.636232" y="288.031226" style="fill: #1f77b4; stroke: #1f77b4"/>
     <use xlink:href="#mcb381b9243" x="546.086469" y="287.297847" style="fill: #1f77b4; stroke: #1f77b4"/>
     <use xlink:href="#mcb381b9243" x="549.536705" y="294.282408" style="fill: #1f77b4; stroke: #1f77b4"/>
     <use xlink:href="#mcb381b9243" x="552.986942" y="293.723643" style="fill: #1f77b4; stroke: #1f77b4"/>
     <use xlink:href="#mcb381b9243" x="556.437178" y="298.996987" style="fill: #1f77b4; stroke: #1f77b4"/>
     <use xlink:href="#mcb381b9243" x="559.887415" y="302.384499" style="fill: #1f77b4; stroke: #1f77b4"/>
     <use xlink:href="#mcb381b9243" x="563.337651" y="291.209201" style="fill: #1f77b4; stroke: #1f77b4"/>
     <use xlink:href="#mcb381b9243" x="566.787888" y="289.777366" style="fill: #1f77b4; stroke: #1f77b4"/>
     <use xlink:href="#mcb381b9243" x="570.238124" y="266.029858" style="fill: #1f77b4; stroke: #1f77b4"/>
     <use xlink:href="#mcb381b9243" x="573.68836" y="288.83445" style="fill: #1f77b4; stroke: #1f77b4"/>
     <use xlink:href="#mcb381b9243" x="577.138597" y="287.472461" style="fill: #1f77b4; stroke: #1f77b4"/>
     <use xlink:href="#mcb381b9243" x="580.588833" y="293.68872" style="fill: #1f77b4; stroke: #1f77b4"/>
     <use xlink:href="#mcb381b9243" x="584.03907" y="299.241447" style="fill: #1f77b4; stroke: #1f77b4"/>
     <use xlink:href="#mcb381b9243" x="587.489306" y="283.037265" style="fill: #1f77b4; stroke: #1f77b4"/>
     <use xlink:href="#mcb381b9243" x="590.939543" y="280.662514" style="fill: #1f77b4; stroke: #1f77b4"/>
     <use xlink:href="#mcb381b9243" x="594.389779" y="282.164195" style="fill: #1f77b4; stroke: #1f77b4"/>
     <use xlink:href="#mcb381b9243" x="597.840016" y="285.551707" style="fill: #1f77b4; stroke: #1f77b4"/>
     <use xlink:href="#mcb381b9243" x="601.290252" y="289.637675" style="fill: #1f77b4; stroke: #1f77b4"/>
     <use xlink:href="#mcb381b9243" x="604.740489" y="295.574552" style="fill: #1f77b4; stroke: #1f77b4"/>
     <use xlink:href="#mcb381b9243" x="608.190725" y="297.600075" style="fill: #1f77b4; stroke: #1f77b4"/>
     <use xlink:href="#mcb381b9243" x="611.640962" y="283.840489" style="fill: #1f77b4; stroke: #1f77b4"/>
     <use xlink:href="#mcb381b9243" x="615.091198" y="283.386493" style="fill: #1f77b4; stroke: #1f77b4"/>
     <use xlink:href="#mcb381b9243" x="618.541435" y="290.161517" style="fill: #1f77b4; stroke: #1f77b4"/>
     <use xlink:href="#mcb381b9243" x="621.991671" y="293.444261" style="fill: #1f77b4; stroke: #1f77b4"/>
     <use xlink:href="#mcb381b9243" x="625.441908" y="297.66992" style="fill: #1f77b4; stroke: #1f77b4"/>
     <use xlink:href="#mcb381b9243" x="628.892144" y="302.419422" style="fill: #1f77b4; stroke: #1f77b4"/>
     <use xlink:href="#mcb381b9243" x="632.34238" y="305.667243" style="fill: #1f77b4; stroke: #1f77b4"/>
     <use xlink:href="#mcb381b9243" x="635.792617" y="296.16824" style="fill: #1f77b4; stroke: #1f77b4"/>
     <use xlink:href="#mcb381b9243" x="639.242853" y="297.460383" style="fill: #1f77b4; stroke: #1f77b4"/>
     <use xlink:href="#mcb381b9243" x="642.69309" y="292.396577" style="fill: #1f77b4; stroke: #1f77b4"/>
     <use xlink:href="#mcb381b9243" x="646.143326" y="301.476506" style="fill: #1f77b4; stroke: #1f77b4"/>
     <use xlink:href="#mcb381b9243" x="649.593563" y="303.257569" style="fill: #1f77b4; stroke: #1f77b4"/>
     <use xlink:href="#mcb381b9243" x="653.043799" y="308.880141" style="fill: #1f77b4; stroke: #1f77b4"/>
     <use xlink:href="#mcb381b9243" x="656.494036" y="301.686043" style="fill: #1f77b4; stroke: #1f77b4"/>
     <use xlink:href="#mcb381b9243" x="659.944272" y="301.371738" style="fill: #1f77b4; stroke: #1f77b4"/>
     <use xlink:href="#mcb381b9243" x="663.394509" y="304.479867" style="fill: #1f77b4; stroke: #1f77b4"/>
     <use xlink:href="#mcb381b9243" x="666.844745" y="305.108478" style="fill: #1f77b4; stroke: #1f77b4"/>
     <use xlink:href="#mcb381b9243" x="670.294982" y="306.680004" style="fill: #1f77b4; stroke: #1f77b4"/>
     <use xlink:href="#mcb381b9243" x="673.745218" y="310.067516" style="fill: #1f77b4; stroke: #1f77b4"/>
     <use xlink:href="#mcb381b9243" x="677.195455" y="313.210569" style="fill: #1f77b4; stroke: #1f77b4"/>
    </g>
   </g>
   <g id="line2d_20">
    <path d="M 80.304545 324.80494 
L 83.754782 325.084323 
L 87.205018 325.573242 
L 90.655255 324.141407 
L 94.105491 325.154168 
L 97.555728 324.595404 
L 101.005964 324.455712 
L 107.906437 324.42079 
L 111.356674 322.849263 
L 114.80691 318.518835 
L 118.257147 320.404667 
L 121.707383 315.271014 
L 125.15762 315.655165 
L 128.607856 315.550397 
L 132.058092 308.705527 
L 135.508329 306.540313 
L 138.958565 301.89558 
L 142.408802 305.352938 
L 145.859038 302.663882 
L 149.309275 305.527552 
L 152.759511 306.086317 
L 156.209748 305.00371 
L 159.659984 285.34217 
L 163.110221 261.769276 
L 166.560457 261.350202 
L 170.010694 267.391848 
L 173.46093 264.109104 
L 176.911167 262.293118 
L 180.361403 217.068085 
L 183.81164 190.456907 
L 187.261876 195.066717 
L 190.712112 177.640237 
L 194.162349 215.461636 
L 197.612585 262.886806 
L 201.062822 231.421358 
L 204.513058 221.398512 
L 207.963295 222.23666 
L 211.413531 242.247428 
L 214.863768 221.188976 
L 218.314004 248.952606 
L 221.764241 261.454971 
L 225.214477 266.868006 
L 228.664714 254.295796 
L 232.11495 263.375725 
L 235.565187 244.76187 
L 239.015423 296.028548 
L 242.465659 292.466422 
L 245.915896 285.726321 
L 249.366132 295.819012 
L 252.816369 310.73105 
L 256.266605 302.908341 
L 259.716842 301.197124 
L 263.167078 307.413383 
L 266.617315 311.185046 
L 270.067551 309.892902 
L 273.517788 311.534274 
L 276.968024 314.013793 
L 280.418261 320.893586 
L 283.868497 320.090362 
L 287.318734 317.540997 
L 290.76897 317.471151 
L 294.219207 310.207208 
L 297.669443 310.835818 
L 301.119679 315.480551 
L 304.569916 315.305937 
L 308.020152 319.985593 
L 311.470389 321.801579 
L 314.920625 322.255576 
L 318.370862 317.715611 
L 321.821098 248.009691 
L 325.271335 261.664508 
L 328.721571 286.494622 
L 332.171808 287.053387 
L 335.622044 247.62554 
L 339.072281 249.301834 
L 342.522517 261.629585 
L 345.972754 269.801521 
L 349.42299 271.198434 
L 352.873226 278.671914 
L 356.323463 232.538888 
L 359.773699 225.624172 
L 363.223936 230.19906 
L 366.674172 249.685985 
L 370.124409 235.507326 
L 373.574645 246.333396 
L 377.024882 179.945142 
L 380.475118 195.276254 
L 383.925355 188.047233 
L 387.375591 216.614088 
L 390.825828 217.033162 
L 394.276064 209.41999 
L 397.726301 247.695385 
L 401.176537 227.370312 
L 404.626774 27.856323 
L 408.07701 171.912897 
L 411.527246 185.14864 
L 414.977483 181.761128 
L 418.427719 198.105001 
L 421.877956 205.543559 
L 425.328192 137.828238 
L 428.778429 131.12306 
L 432.228665 157.419932 
L 435.678902 180.119756 
L 439.129138 199.746373 
L 442.579375 212.563043 
L 446.029611 156.546862 
L 449.479848 153.78796 
L 452.930084 198.873303 
L 456.380321 194.123801 
L 459.830557 212.493197 
L 463.280793 235.332712 
L 466.73103 237.113775 
L 470.181266 201.632204 
L 473.631503 183.367577 
L 477.081739 215.810864 
L 480.531976 232.783347 
L 483.982212 245.460326 
L 487.432449 256.810238 
L 490.882685 265.086943 
L 494.332922 256.775315 
L 497.783158 248.952606 
L 501.233395 257.96269 
L 504.683631 270.919051 
L 508.133868 279.510061 
L 511.584104 292.396577 
L 515.034341 290.021826 
L 518.484577 292.780728 
L 521.934813 277.833767 
L 525.38505 275.63363 
L 528.835286 289.986903 
L 532.285523 291.034587 
L 535.735759 301.89558 
L 542.636232 287.507384 
L 546.086469 277.589307 
L 549.536705 290.720282 
L 552.986942 291.418738 
L 556.437178 298.612836 
L 559.887415 300.952664 
L 563.337651 286.110472 
L 566.787888 279.824367 
L 570.238124 250.943206 
L 573.68836 286.494622 
L 577.138597 279.160833 
L 580.588833 294.212563 
L 584.03907 296.377777 
L 587.489306 280.033903 
L 590.939543 271.198434 
L 594.389779 274.5161 
L 597.840016 278.986219 
L 601.290252 280.976819 
L 604.740489 291.802889 
L 608.190725 290.371054 
L 611.640962 268.474455 
L 615.091198 268.264918 
L 618.541435 279.61483 
L 621.991671 289.113833 
L 625.441908 290.161517 
L 628.892144 297.809612 
L 632.34238 298.717605 
L 635.792617 284.050026 
L 639.242853 288.520145 
L 642.69309 286.878773 
L 646.143326 293.898257 
L 649.593563 298.647759 
L 653.043799 306.226008 
L 656.494036 293.828412 
L 659.944272 293.129956 
L 663.394509 297.390538 
L 666.844745 302.105117 
L 670.294982 302.873418 
L 673.745218 308.565836 
L 677.195455 311.848579 
L 677.195455 311.848579 
" clip-path="url(#p1cf94625c0)" style="fill: none; stroke: #ff7f0e; stroke-width: 1.5; stroke-linecap: square"/>
    <defs>
     <path id="m0516e3c00a" d="M 0 3 
C 0.795609 3 1.55874 2.683901 2.12132 2.12132 
C 2.683901 1.55874 3 0.795609 3 0 
C 3 -0.795609 2.683901 -1.55874 2.12132 -2.12132 
C 1.55874 -2.683901 0.795609 -3 0 -3 
C -0.795609 -3 -1.55874 -2.683901 -2.12132 -2.12132 
C -2.683901 -1.55874 -3 -0.795609 -3 0 
C -3 0.795609 -2.683901 1.55874 -2.12132 2.12132 
C -1.55874 2.683901 -0.795609 3 0 3 
z
" style="stroke: #ff7f0e"/>
    </defs>
    <g clip-path="url(#p1cf94625c0)">
     <use xlink:href="#m0516e3c00a" x="80.304545" y="324.80494" style="fill: #ff7f0e; stroke: #ff7f0e"/>
     <use xlink:href="#m0516e3c00a" x="83.754782" y="325.084323" style="fill: #ff7f0e; stroke: #ff7f0e"/>
     <use xlink:href="#m0516e3c00a" x="87.205018" y="325.573242" style="fill: #ff7f0e; stroke: #ff7f0e"/>
     <use xlink:href="#m0516e3c00a" x="90.655255" y="324.141407" style="fill: #ff7f0e; stroke: #ff7f0e"/>
     <use xlink:href="#m0516e3c00a" x="94.105491" y="325.154168" style="fill: #ff7f0e; stroke: #ff7f0e"/>
     <use xlink:href="#m0516e3c00a" x="97.555728" y="324.595404" style="fill: #ff7f0e; stroke: #ff7f0e"/>
     <use xlink:href="#m0516e3c00a" x="101.005964" y="324.455712" style="fill: #ff7f0e; stroke: #ff7f0e"/>
     <use xlink:href="#m0516e3c00a" x="104.456201" y="324.455712" style="fill: #ff7f0e; stroke: #ff7f0e"/>
     <use xlink:href="#m0516e3c00a" x="107.906437" y="324.42079" style="fill: #ff7f0e; stroke: #ff7f0e"/>
     <use xlink:href="#m0516e3c00a" x="111.356674" y="322.849263" style="fill: #ff7f0e; stroke: #ff7f0e"/>
     <use xlink:href="#m0516e3c00a" x="114.80691" y="318.518835" style="fill: #ff7f0e; stroke: #ff7f0e"/>
     <use xlink:href="#m0516e3c00a" x="118.257147" y="320.404667" style="fill: #ff7f0e; stroke: #ff7f0e"/>
     <use xlink:href="#m0516e3c00a" x="121.707383" y="315.271014" style="fill: #ff7f0e; stroke: #ff7f0e"/>
     <use xlink:href="#m0516e3c00a" x="125.15762" y="315.655165" style="fill: #ff7f0e; stroke: #ff7f0e"/>
     <use xlink:href="#m0516e3c00a" x="128.607856" y="315.550397" style="fill: #ff7f0e; stroke: #ff7f0e"/>
     <use xlink:href="#m0516e3c00a" x="132.058092" y="308.705527" style="fill: #ff7f0e; stroke: #ff7f0e"/>
     <use xlink:href="#m0516e3c00a" x="135.508329" y="306.540313" style="fill: #ff7f0e; stroke: #ff7f0e"/>
     <use xlink:href="#m0516e3c00a" x="138.958565" y="301.89558" style="fill: #ff7f0e; stroke: #ff7f0e"/>
     <use xlink:href="#m0516e3c00a" x="142.408802" y="305.352938" style="fill: #ff7f0e; stroke: #ff7f0e"/>
     <use xlink:href="#m0516e3c00a" x="145.859038" y="302.663882" style="fill: #ff7f0e; stroke: #ff7f0e"/>
     <use xlink:href="#m0516e3c00a" x="149.309275" y="305.527552" style="fill: #ff7f0e; stroke: #ff7f0e"/>
     <use xlink:href="#m0516e3c00a" x="152.759511" y="306.086317" style="fill: #ff7f0e; stroke: #ff7f0e"/>
     <use xlink:href="#m0516e3c00a" x="156.209748" y="305.00371" style="fill: #ff7f0e; stroke: #ff7f0e"/>
     <use xlink:href="#m0516e3c00a" x="159.659984" y="285.34217" style="fill: #ff7f0e; stroke: #ff7f0e"/>
     <use xlink:href="#m0516e3c00a" x="163.110221" y="261.769276" style="fill: #ff7f0e; stroke: #ff7f0e"/>
     <use xlink:href="#m0516e3c00a" x="166.560457" y="261.350202" style="fill: #ff7f0e; stroke: #ff7f0e"/>
     <use xlink:href="#m0516e3c00a" x="170.010694" y="267.391848" style="fill: #ff7f0e; stroke: #ff7f0e"/>
     <use xlink:href="#m0516e3c00a" x="173.46093" y="264.109104" style="fill: #ff7f0e; stroke: #ff7f0e"/>
     <use xlink:href="#m0516e3c00a" x="176.911167" y="262.293118" style="fill: #ff7f0e; stroke: #ff7f0e"/>
     <use xlink:href="#m0516e3c00a" x="180.361403" y="217.068085" style="fill: #ff7f0e; stroke: #ff7f0e"/>
     <use xlink:href="#m0516e3c00a" x="183.81164" y="190.456907" style="fill: #ff7f0e; stroke: #ff7f0e"/>
     <use xlink:href="#m0516e3c00a" x="187.261876" y="195.066717" style="fill: #ff7f0e; stroke: #ff7f0e"/>
     <use xlink:href="#m0516e3c00a" x="190.712112" y="177.640237" style="fill: #ff7f0e; stroke: #ff7f0e"/>
     <use xlink:href="#m0516e3c00a" x="194.162349" y="215.461636" style="fill: #ff7f0e; stroke: #ff7f0e"/>
     <use xlink:href="#m0516e3c00a" x="197.612585" y="262.886806" style="fill: #ff7f0e; stroke: #ff7f0e"/>
     <use xlink:href="#m0516e3c00a" x="201.062822" y="231.421358" style="fill: #ff7f0e; stroke: #ff7f0e"/>
     <use xlink:href="#m0516e3c00a" x="204.513058" y="221.398512" style="fill: #ff7f0e; stroke: #ff7f0e"/>
     <use xlink:href="#m0516e3c00a" x="207.963295" y="222.23666" style="fill: #ff7f0e; stroke: #ff7f0e"/>
     <use xlink:href="#m0516e3c00a" x="211.413531" y="242.247428" style="fill: #ff7f0e; stroke: #ff7f0e"/>
     <use xlink:href="#m0516e3c00a" x="214.863768" y="221.188976" style="fill: #ff7f0e; stroke: #ff7f0e"/>
     <use xlink:href="#m0516e3c00a" x="218.314004" y="248.952606" style="fill: #ff7f0e; stroke: #ff7f0e"/>
     <use xlink:href="#m0516e3c00a" x="221.764241" y="261.454971" style="fill: #ff7f0e; stroke: #ff7f0e"/>
     <use xlink:href="#m0516e3c00a" x="225.214477" y="266.868006" style="fill: #ff7f0e; stroke: #ff7f0e"/>
     <use xlink:href="#m0516e3c00a" x="228.664714" y="254.295796" style="fill: #ff7f0e; stroke: #ff7f0e"/>
     <use xlink:href="#m0516e3c00a" x="232.11495" y="263.375725" style="fill: #ff7f0e; stroke: #ff7f0e"/>
     <use xlink:href="#m0516e3c00a" x="235.565187" y="244.76187" style="fill: #ff7f0e; stroke: #ff7f0e"/>
     <use xlink:href="#m0516e3c00a" x="239.015423" y="296.028548" style="fill: #ff7f0e; stroke: #ff7f0e"/>
     <use xlink:href="#m0516e3c00a" x="242.465659" y="292.466422" style="fill: #ff7f0e; stroke: #ff7f0e"/>
     <use xlink:href="#m0516e3c00a" x="245.915896" y="285.726321" style="fill: #ff7f0e; stroke: #ff7f0e"/>
     <use xlink:href="#m0516e3c00a" x="249.366132" y="295.819012" style="fill: #ff7f0e; stroke: #ff7f0e"/>
     <use xlink:href="#m0516e3c00a" x="252.816369" y="310.73105" style="fill: #ff7f0e; stroke: #ff7f0e"/>
     <use xlink:href="#m0516e3c00a" x="256.266605" y="302.908341" style="fill: #ff7f0e; stroke: #ff7f0e"/>
     <use xlink:href="#m0516e3c00a" x="259.716842" y="301.197124" style="fill: #ff7f0e; stroke: #ff7f0e"/>
     <use xlink:href="#m0516e3c00a" x="263.167078" y="307.413383" style="fill: #ff7f0e; stroke: #ff7f0e"/>
     <use xlink:href="#m0516e3c00a" x="266.617315" y="311.185046" style="fill: #ff7f0e; stroke: #ff7f0e"/>
     <use xlink:href="#m0516e3c00a" x="270.067551" y="309.892902" style="fill: #ff7f0e; stroke: #ff7f0e"/>
     <use xlink:href="#m0516e3c00a" x="273.517788" y="311.534274" style="fill: #ff7f0e; stroke: #ff7f0e"/>
     <use xlink:href="#m0516e3c00a" x="276.968024" y="314.013793" style="fill: #ff7f0e; stroke: #ff7f0e"/>
     <use xlink:href="#m0516e3c00a" x="280.418261" y="320.893586" style="fill: #ff7f0e; stroke: #ff7f0e"/>
     <use xlink:href="#m0516e3c00a" x="283.868497" y="320.090362" style="fill: #ff7f0e; stroke: #ff7f0e"/>
     <use xlink:href="#m0516e3c00a" x="287.318734" y="317.540997" style="fill: #ff7f0e; stroke: #ff7f0e"/>
     <use xlink:href="#m0516e3c00a" x="290.76897" y="317.471151" style="fill: #ff7f0e; stroke: #ff7f0e"/>
     <use xlink:href="#m0516e3c00a" x="294.219207" y="310.207208" style="fill: #ff7f0e; stroke: #ff7f0e"/>
     <use xlink:href="#m0516e3c00a" x="297.669443" y="310.835818" style="fill: #ff7f0e; stroke: #ff7f0e"/>
     <use xlink:href="#m0516e3c00a" x="301.119679" y="315.480551" style="fill: #ff7f0e; stroke: #ff7f0e"/>
     <use xlink:href="#m0516e3c00a" x="304.569916" y="315.305937" style="fill: #ff7f0e; stroke: #ff7f0e"/>
     <use xlink:href="#m0516e3c00a" x="308.020152" y="319.985593" style="fill: #ff7f0e; stroke: #ff7f0e"/>
     <use xlink:href="#m0516e3c00a" x="311.470389" y="321.801579" style="fill: #ff7f0e; stroke: #ff7f0e"/>
     <use xlink:href="#m0516e3c00a" x="314.920625" y="322.255576" style="fill: #ff7f0e; stroke: #ff7f0e"/>
     <use xlink:href="#m0516e3c00a" x="318.370862" y="317.715611" style="fill: #ff7f0e; stroke: #ff7f0e"/>
     <use xlink:href="#m0516e3c00a" x="321.821098" y="248.009691" style="fill: #ff7f0e; stroke: #ff7f0e"/>
     <use xlink:href="#m0516e3c00a" x="325.271335" y="261.664508" style="fill: #ff7f0e; stroke: #ff7f0e"/>
     <use xlink:href="#m0516e3c00a" x="328.721571" y="286.494622" style="fill: #ff7f0e; stroke: #ff7f0e"/>
     <use xlink:href="#m0516e3c00a" x="332.171808" y="287.053387" style="fill: #ff7f0e; stroke: #ff7f0e"/>
     <use xlink:href="#m0516e3c00a" x="335.622044" y="247.62554" style="fill: #ff7f0e; stroke: #ff7f0e"/>
     <use xlink:href="#m0516e3c00a" x="339.072281" y="249.301834" style="fill: #ff7f0e; stroke: #ff7f0e"/>
     <use xlink:href="#m0516e3c00a" x="342.522517" y="261.629585" style="fill: #ff7f0e; stroke: #ff7f0e"/>
     <use xlink:href="#m0516e3c00a" x="345.972754" y="269.801521" style="fill: #ff7f0e; stroke: #ff7f0e"/>
     <use xlink:href="#m0516e3c00a" x="349.42299" y="271.198434" style="fill: #ff7f0e; stroke: #ff7f0e"/>
     <use xlink:href="#m0516e3c00a" x="352.873226" y="278.671914" style="fill: #ff7f0e; stroke: #ff7f0e"/>
     <use xlink:href="#m0516e3c00a" x="356.323463" y="232.538888" style="fill: #ff7f0e; stroke: #ff7f0e"/>
     <use xlink:href="#m0516e3c00a" x="359.773699" y="225.624172" style="fill: #ff7f0e; stroke: #ff7f0e"/>
     <use xlink:href="#m0516e3c00a" x="363.223936" y="230.19906" style="fill: #ff7f0e; stroke: #ff7f0e"/>
     <use xlink:href="#m0516e3c00a" x="366.674172" y="249.685985" style="fill: #ff7f0e; stroke: #ff7f0e"/>
     <use xlink:href="#m0516e3c00a" x="370.124409" y="235.507326" style="fill: #ff7f0e; stroke: #ff7f0e"/>
     <use xlink:href="#m0516e3c00a" x="373.574645" y="246.333396" style="fill: #ff7f0e; stroke: #ff7f0e"/>
     <use xlink:href="#m0516e3c00a" x="377.024882" y="179.945142" style="fill: #ff7f0e; stroke: #ff7f0e"/>
     <use xlink:href="#m0516e3c00a" x="380.475118" y="195.276254" style="fill: #ff7f0e; stroke: #ff7f0e"/>
     <use xlink:href="#m0516e3c00a" x="383.925355" y="188.047233" style="fill: #ff7f0e; stroke: #ff7f0e"/>
     <use xlink:href="#m0516e3c00a" x="387.375591" y="216.614088" style="fill: #ff7f0e; stroke: #ff7f0e"/>
     <use xlink:href="#m0516e3c00a" x="390.825828" y="217.033162" style="fill: #ff7f0e; stroke: #ff7f0e"/>
     <use xlink:href="#m0516e3c00a" x="394.276064" y="209.41999" style="fill: #ff7f0e; stroke: #ff7f0e"/>
     <use xlink:href="#m0516e3c00a" x="397.726301" y="247.695385" style="fill: #ff7f0e; stroke: #ff7f0e"/>
     <use xlink:href="#m0516e3c00a" x="401.176537" y="227.370312" style="fill: #ff7f0e; stroke: #ff7f0e"/>
     <use xlink:href="#m0516e3c00a" x="404.626774" y="27.856323" style="fill: #ff7f0e; stroke: #ff7f0e"/>
     <use xlink:href="#m0516e3c00a" x="408.07701" y="171.912897" style="fill: #ff7f0e; stroke: #ff7f0e"/>
     <use xlink:href="#m0516e3c00a" x="411.527246" y="185.14864" style="fill: #ff7f0e; stroke: #ff7f0e"/>
     <use xlink:href="#m0516e3c00a" x="414.977483" y="181.761128" style="fill: #ff7f0e; stroke: #ff7f0e"/>
     <use xlink:href="#m0516e3c00a" x="418.427719" y="198.105001" style="fill: #ff7f0e; stroke: #ff7f0e"/>
     <use xlink:href="#m0516e3c00a" x="421.877956" y="205.543559" style="fill: #ff7f0e; stroke: #ff7f0e"/>
     <use xlink:href="#m0516e3c00a" x="425.328192" y="137.828238" style="fill: #ff7f0e; stroke: #ff7f0e"/>
     <use xlink:href="#m0516e3c00a" x="428.778429" y="131.12306" style="fill: #ff7f0e; stroke: #ff7f0e"/>
     <use xlink:href="#m0516e3c00a" x="432.228665" y="157.419932" style="fill: #ff7f0e; stroke: #ff7f0e"/>
     <use xlink:href="#m0516e3c00a" x="435.678902" y="180.119756" style="fill: #ff7f0e; stroke: #ff7f0e"/>
     <use xlink:href="#m0516e3c00a" x="439.129138" y="199.746373" style="fill: #ff7f0e; stroke: #ff7f0e"/>
     <use xlink:href="#m0516e3c00a" x="442.579375" y="212.563043" style="fill: #ff7f0e; stroke: #ff7f0e"/>
     <use xlink:href="#m0516e3c00a" x="446.029611" y="156.546862" style="fill: #ff7f0e; stroke: #ff7f0e"/>
     <use xlink:href="#m0516e3c00a" x="449.479848" y="153.78796" style="fill: #ff7f0e; stroke: #ff7f0e"/>
     <use xlink:href="#m0516e3c00a" x="452.930084" y="198.873303" style="fill: #ff7f0e; stroke: #ff7f0e"/>
     <use xlink:href="#m0516e3c00a" x="456.380321" y="194.123801" style="fill: #ff7f0e; stroke: #ff7f0e"/>
     <use xlink:href="#m0516e3c00a" x="459.830557" y="212.493197" style="fill: #ff7f0e; stroke: #ff7f0e"/>
     <use xlink:href="#m0516e3c00a" x="463.280793" y="235.332712" style="fill: #ff7f0e; stroke: #ff7f0e"/>
     <use xlink:href="#m0516e3c00a" x="466.73103" y="237.113775" style="fill: #ff7f0e; stroke: #ff7f0e"/>
     <use xlink:href="#m0516e3c00a" x="470.181266" y="201.632204" style="fill: #ff7f0e; stroke: #ff7f0e"/>
     <use xlink:href="#m0516e3c00a" x="473.631503" y="183.367577" style="fill: #ff7f0e; stroke: #ff7f0e"/>
     <use xlink:href="#m0516e3c00a" x="477.081739" y="215.810864" style="fill: #ff7f0e; stroke: #ff7f0e"/>
     <use xlink:href="#m0516e3c00a" x="480.531976" y="232.783347" style="fill: #ff7f0e; stroke: #ff7f0e"/>
     <use xlink:href="#m0516e3c00a" x="483.982212" y="245.460326" style="fill: #ff7f0e; stroke: #ff7f0e"/>
     <use xlink:href="#m0516e3c00a" x="487.432449" y="256.810238" style="fill: #ff7f0e; stroke: #ff7f0e"/>
     <use xlink:href="#m0516e3c00a" x="490.882685" y="265.086943" style="fill: #ff7f0e; stroke: #ff7f0e"/>
     <use xlink:href="#m0516e3c00a" x="494.332922" y="256.775315" style="fill: #ff7f0e; stroke: #ff7f0e"/>
     <use xlink:href="#m0516e3c00a" x="497.783158" y="248.952606" style="fill: #ff7f0e; stroke: #ff7f0e"/>
     <use xlink:href="#m0516e3c00a" x="501.233395" y="257.96269" style="fill: #ff7f0e; stroke: #ff7f0e"/>
     <use xlink:href="#m0516e3c00a" x="504.683631" y="270.919051" style="fill: #ff7f0e; stroke: #ff7f0e"/>
     <use xlink:href="#m0516e3c00a" x="508.133868" y="279.510061" style="fill: #ff7f0e; stroke: #ff7f0e"/>
     <use xlink:href="#m0516e3c00a" x="511.584104" y="292.396577" style="fill: #ff7f0e; stroke: #ff7f0e"/>
     <use xlink:href="#m0516e3c00a" x="515.034341" y="290.021826" style="fill: #ff7f0e; stroke: #ff7f0e"/>
     <use xlink:href="#m0516e3c00a" x="518.484577" y="292.780728" style="fill: #ff7f0e; stroke: #ff7f0e"/>
     <use xlink:href="#m0516e3c00a" x="521.934813" y="277.833767" style="fill: #ff7f0e; stroke: #ff7f0e"/>
     <use xlink:href="#m0516e3c00a" x="525.38505" y="275.63363" style="fill: #ff7f0e; stroke: #ff7f0e"/>
     <use xlink:href="#m0516e3c00a" x="528.835286" y="289.986903" style="fill: #ff7f0e; stroke: #ff7f0e"/>
     <use xlink:href="#m0516e3c00a" x="532.285523" y="291.034587" style="fill: #ff7f0e; stroke: #ff7f0e"/>
     <use xlink:href="#m0516e3c00a" x="535.735759" y="301.89558" style="fill: #ff7f0e; stroke: #ff7f0e"/>
     <use xlink:href="#m0516e3c00a" x="539.185996" y="294.596713" style="fill: #ff7f0e; stroke: #ff7f0e"/>
     <use xlink:href="#m0516e3c00a" x="542.636232" y="287.507384" style="fill: #ff7f0e; stroke: #ff7f0e"/>
     <use xlink:href="#m0516e3c00a" x="546.086469" y="277.589307" style="fill: #ff7f0e; stroke: #ff7f0e"/>
     <use xlink:href="#m0516e3c00a" x="549.536705" y="290.720282" style="fill: #ff7f0e; stroke: #ff7f0e"/>
     <use xlink:href="#m0516e3c00a" x="552.986942" y="291.418738" style="fill: #ff7f0e; stroke: #ff7f0e"/>
     <use xlink:href="#m0516e3c00a" x="556.437178" y="298.612836" style="fill: #ff7f0e; stroke: #ff7f0e"/>
     <use xlink:href="#m0516e3c00a" x="559.887415" y="300.952664" style="fill: #ff7f0e; stroke: #ff7f0e"/>
     <use xlink:href="#m0516e3c00a" x="563.337651" y="286.110472" style="fill: #ff7f0e; stroke: #ff7f0e"/>
     <use xlink:href="#m0516e3c00a" x="566.787888" y="279.824367" style="fill: #ff7f0e; stroke: #ff7f0e"/>
     <use xlink:href="#m0516e3c00a" x="570.238124" y="250.943206" style="fill: #ff7f0e; stroke: #ff7f0e"/>
     <use xlink:href="#m0516e3c00a" x="573.68836" y="286.494622" style="fill: #ff7f0e; stroke: #ff7f0e"/>
     <use xlink:href="#m0516e3c00a" x="577.138597" y="279.160833" style="fill: #ff7f0e; stroke: #ff7f0e"/>
     <use xlink:href="#m0516e3c00a" x="580.588833" y="294.212563" style="fill: #ff7f0e; stroke: #ff7f0e"/>
     <use xlink:href="#m0516e3c00a" x="584.03907" y="296.377777" style="fill: #ff7f0e; stroke: #ff7f0e"/>
     <use xlink:href="#m0516e3c00a" x="587.489306" y="280.033903" style="fill: #ff7f0e; stroke: #ff7f0e"/>
     <use xlink:href="#m0516e3c00a" x="590.939543" y="271.198434" style="fill: #ff7f0e; stroke: #ff7f0e"/>
     <use xlink:href="#m0516e3c00a" x="594.389779" y="274.5161" style="fill: #ff7f0e; stroke: #ff7f0e"/>
     <use xlink:href="#m0516e3c00a" x="597.840016" y="278.986219" style="fill: #ff7f0e; stroke: #ff7f0e"/>
     <use xlink:href="#m0516e3c00a" x="601.290252" y="280.976819" style="fill: #ff7f0e; stroke: #ff7f0e"/>
     <use xlink:href="#m0516e3c00a" x="604.740489" y="291.802889" style="fill: #ff7f0e; stroke: #ff7f0e"/>
     <use xlink:href="#m0516e3c00a" x="608.190725" y="290.371054" style="fill: #ff7f0e; stroke: #ff7f0e"/>
     <use xlink:href="#m0516e3c00a" x="611.640962" y="268.474455" style="fill: #ff7f0e; stroke: #ff7f0e"/>
     <use xlink:href="#m0516e3c00a" x="615.091198" y="268.264918" style="fill: #ff7f0e; stroke: #ff7f0e"/>
     <use xlink:href="#m0516e3c00a" x="618.541435" y="279.61483" style="fill: #ff7f0e; stroke: #ff7f0e"/>
     <use xlink:href="#m0516e3c00a" x="621.991671" y="289.113833" style="fill: #ff7f0e; stroke: #ff7f0e"/>
     <use xlink:href="#m0516e3c00a" x="625.441908" y="290.161517" style="fill: #ff7f0e; stroke: #ff7f0e"/>
     <use xlink:href="#m0516e3c00a" x="628.892144" y="297.809612" style="fill: #ff7f0e; stroke: #ff7f0e"/>
     <use xlink:href="#m0516e3c00a" x="632.34238" y="298.717605" style="fill: #ff7f0e; stroke: #ff7f0e"/>
     <use xlink:href="#m0516e3c00a" x="635.792617" y="284.050026" style="fill: #ff7f0e; stroke: #ff7f0e"/>
     <use xlink:href="#m0516e3c00a" x="639.242853" y="288.520145" style="fill: #ff7f0e; stroke: #ff7f0e"/>
     <use xlink:href="#m0516e3c00a" x="642.69309" y="286.878773" style="fill: #ff7f0e; stroke: #ff7f0e"/>
     <use xlink:href="#m0516e3c00a" x="646.143326" y="293.898257" style="fill: #ff7f0e; stroke: #ff7f0e"/>
     <use xlink:href="#m0516e3c00a" x="649.593563" y="298.647759" style="fill: #ff7f0e; stroke: #ff7f0e"/>
     <use xlink:href="#m0516e3c00a" x="653.043799" y="306.226008" style="fill: #ff7f0e; stroke: #ff7f0e"/>
     <use xlink:href="#m0516e3c00a" x="656.494036" y="293.828412" style="fill: #ff7f0e; stroke: #ff7f0e"/>
     <use xlink:href="#m0516e3c00a" x="659.944272" y="293.129956" style="fill: #ff7f0e; stroke: #ff7f0e"/>
     <use xlink:href="#m0516e3c00a" x="663.394509" y="297.390538" style="fill: #ff7f0e; stroke: #ff7f0e"/>
     <use xlink:href="#m0516e3c00a" x="666.844745" y="302.105117" style="fill: #ff7f0e; stroke: #ff7f0e"/>
     <use xlink:href="#m0516e3c00a" x="670.294982" y="302.873418" style="fill: #ff7f0e; stroke: #ff7f0e"/>
     <use xlink:href="#m0516e3c00a" x="673.745218" y="308.565836" style="fill: #ff7f0e; stroke: #ff7f0e"/>
     <use xlink:href="#m0516e3c00a" x="677.195455" y="311.848579" style="fill: #ff7f0e; stroke: #ff7f0e"/>
    </g>
   </g>
   <g id="patch_3">
    <path d="M 50.46 327.04 
L 50.46 12.96 
" style="fill: none; stroke: #000000; stroke-width: 0.8; stroke-linejoin: miter; stroke-linecap: square"/>
   </g>
   <g id="patch_4">
    <path d="M 50.46 327.04 
L 707.04 327.04 
" style="fill: none; stroke: #000000; stroke-width: 0.8; stroke-linejoin: miter; stroke-linecap: square"/>
   </g>
   <g id="legend_1">
    <g id="patch_5">
     <path d="M 58.86 57.7875 
L 197.86125 57.7875 
Q 200.26125 57.7875 200.26125 55.3875 
L 200.26125 21.36 
Q 200.26125 18.96 197.86125 18.96 
L 58.86 18.96 
Q 56.46 18.96 56.46 21.36 
L 56.46 55.3875 
Q 56.46 57.7875 58.86 57.7875 
z
" style="fill: #ffffff; opacity: 0.8; stroke: #cccccc; stroke-linejoin: miter"/>
    </g>
    <g id="line2d_21">
     <path d="M 61.26 28.678125 
L 73.26 28.678125 
L 85.26 28.678125 
" style="fill: none; stroke: #1f77b4; stroke-width: 1.5; stroke-linecap: square"/>
     <g>
      <use xlink:href="#mcb381b9243" x="73.26" y="28.678125" style="fill: #1f77b4; stroke: #1f77b4"/>
     </g>
    </g>
    <g id="text_19">
     <!-- Age range 0-9 -->
     <g transform="translate(94.86 32.878125)scale(0.12 -0.12)">
      <defs>
       <path id="DejaVuSans-67" d="M 2906 1791 
Q 2906 2416 2648 2759 
Q 2391 3103 1925 3103 
Q 1463 3103 1205 2759 
Q 947 2416 947 1791 
Q 947 1169 1205 825 
Q 1463 481 1925 481 
Q 2391 481 2648 825 
Q 2906 1169 2906 1791 
z
M 3481 434 
Q 3481 -459 3084 -895 
Q 2688 -1331 1869 -1331 
Q 1566 -1331 1297 -1286 
Q 1028 -1241 775 -1147 
L 775 -588 
Q 1028 -725 1275 -790 
Q 1522 -856 1778 -856 
Q 2344 -856 2625 -561 
Q 2906 -266 2906 331 
L 2906 616 
Q 2728 306 2450 153 
Q 2172 0 1784 0 
Q 1141 0 747 490 
Q 353 981 353 1791 
Q 353 2603 747 3093 
Q 1141 3584 1784 3584 
Q 2172 3584 2450 3431 
Q 2728 3278 2906 2969 
L 2906 3500 
L 3481 3500 
L 3481 434 
z
" transform="scale(0.015625)"/>
       <path id="DejaVuSans-2d" d="M 313 2009 
L 1997 2009 
L 1997 1497 
L 313 1497 
L 313 2009 
z
" transform="scale(0.015625)"/>
       <path id="DejaVuSans-39" d="M 703 97 
L 703 672 
Q 941 559 1184 500 
Q 1428 441 1663 441 
Q 2288 441 2617 861 
Q 2947 1281 2994 2138 
Q 2813 1869 2534 1725 
Q 2256 1581 1919 1581 
Q 1219 1581 811 2004 
Q 403 2428 403 3163 
Q 403 3881 828 4315 
Q 1253 4750 1959 4750 
Q 2769 4750 3195 4129 
Q 3622 3509 3622 2328 
Q 3622 1225 3098 567 
Q 2575 -91 1691 -91 
Q 1453 -91 1209 -44 
Q 966 3 703 97 
z
M 1959 2075 
Q 2384 2075 2632 2365 
Q 2881 2656 2881 3163 
Q 2881 3666 2632 3958 
Q 2384 4250 1959 4250 
Q 1534 4250 1286 3958 
Q 1038 3666 1038 3163 
Q 1038 2656 1286 2365 
Q 1534 2075 1959 2075 
z
" transform="scale(0.015625)"/>
      </defs>
      <use xlink:href="#DejaVuSans-41"/>
      <use xlink:href="#DejaVuSans-67" x="68.408203"/>
      <use xlink:href="#DejaVuSans-65" x="131.884766"/>
      <use xlink:href="#DejaVuSans-20" x="193.408203"/>
      <use xlink:href="#DejaVuSans-72" x="225.195312"/>
      <use xlink:href="#DejaVuSans-61" x="266.308594"/>
      <use xlink:href="#DejaVuSans-6e" x="327.587891"/>
      <use xlink:href="#DejaVuSans-67" x="390.966797"/>
      <use xlink:href="#DejaVuSans-65" x="454.443359"/>
      <use xlink:href="#DejaVuSans-20" x="515.966797"/>
      <use xlink:href="#DejaVuSans-30" x="547.753906"/>
      <use xlink:href="#DejaVuSans-2d" x="611.376953"/>
      <use xlink:href="#DejaVuSans-39" x="647.460938"/>
     </g>
    </g>
    <g id="line2d_22">
     <path d="M 61.26 46.291875 
L 73.26 46.291875 
L 85.26 46.291875 
" style="fill: none; stroke: #ff7f0e; stroke-width: 1.5; stroke-linecap: square"/>
     <g>
      <use xlink:href="#m0516e3c00a" x="73.26" y="46.291875" style="fill: #ff7f0e; stroke: #ff7f0e"/>
     </g>
    </g>
    <g id="text_20">
     <!-- Age range 10-19 -->
     <g transform="translate(94.86 50.491875)scale(0.12 -0.12)">
      <use xlink:href="#DejaVuSans-41"/>
      <use xlink:href="#DejaVuSans-67" x="68.408203"/>
      <use xlink:href="#DejaVuSans-65" x="131.884766"/>
      <use xlink:href="#DejaVuSans-20" x="193.408203"/>
      <use xlink:href="#DejaVuSans-72" x="225.195312"/>
      <use xlink:href="#DejaVuSans-61" x="266.308594"/>
      <use xlink:href="#DejaVuSans-6e" x="327.587891"/>
      <use xlink:href="#DejaVuSans-67" x="390.966797"/>
      <use xlink:href="#DejaVuSans-65" x="454.443359"/>
      <use xlink:href="#DejaVuSans-20" x="515.966797"/>
      <use xlink:href="#DejaVuSans-31" x="547.753906"/>
      <use xlink:href="#DejaVuSans-30" x="611.376953"/>
      <use xlink:href="#DejaVuSans-2d" x="675"/>
      <use xlink:href="#DejaVuSans-31" x="711.083984"/>
      <use xlink:href="#DejaVuSans-39" x="774.707031"/>
     </g>
    </g>
   </g>
  </g>
 </g>
 <defs>
  <clipPath id="p1cf94625c0">
   <rect x="50.46" y="12.96" width="656.58" height="314.08"/>
  </clipPath>
 </defs>
</svg>
