<?xml version="1.0" encoding="utf-8" standalone="no"?>
<!DOCTYPE svg PUBLIC "-//W3C//DTD SVG 1.1//EN"
  "http://www.w3.org/Graphics/SVG/1.1/DTD/svg11.dtd">
<svg xmlns:xlink="http://www.w3.org/1999/xlink" width="720pt" height="360pt" viewBox="0 0 720 360" xmlns="http://www.w3.org/2000/svg" version="1.1">
 <metadata>
  <rdf:RDF xmlns:dc="http://purl.org/dc/elements/1.1/" xmlns:cc="http://creativecommons.org/ns#" xmlns:rdf="http://www.w3.org/1999/02/22-rdf-syntax-ns#">
   <cc:Work>
    <dc:type rdf:resource="http://purl.org/dc/dcmitype/StillImage"/>
    <dc:date>2022-02-27T21:41:17.518536</dc:date>
    <dc:format>image/svg+xml</dc:format>
    <dc:creator>
     <cc:Agent>
      <dc:title>Matplotlib v3.5.1, https://matplotlib.org/</dc:title>
     </cc:Agent>
    </dc:creator>
   </cc:Work>
  </rdf:RDF>
 </metadata>
 <defs>
  <style type="text/css">*{stroke-linejoin: round; stroke-linecap: butt}</style>
 </defs>
 <g id="figure_1">
  <g id="patch_1">
   <path d="M 0 360 
L 720 360 
L 720 0 
L 0 0 
L 0 360 
z
" style="fill: none"/>
  </g>
  <g id="axes_1">
   <g id="patch_2">
    <path d="M 50.46 327.04 
L 707.04 327.04 
L 707.04 12.96 
L 50.46 12.96 
z
" style="fill: #ffffff"/>
   </g>
   <g id="matplotlib.axis_1">
    <g id="xtick_1">
     <g id="line2d_1">
      <defs>
       <path id="mbb51ea392e" d="M 0 0 
L 0 3.5 
" style="stroke: #000000; stroke-width: 0.8"/>
      </defs>
      <g>
       <use xlink:href="#mbb51ea392e" x="80.304545" y="327.04" style="stroke: #000000; stroke-width: 0.8"/>
      </g>
     </g>
     <g id="text_1">
      <!-- Dec 05 -->
      <g transform="translate(59.151733 343.158125)scale(0.12 -0.12)">
       <defs>
        <path id="DejaVuSans-44" d="M 1259 4147 
L 1259 519 
L 2022 519 
Q 2988 519 3436 956 
Q 3884 1394 3884 2338 
Q 3884 3275 3436 3711 
Q 2988 4147 2022 4147 
L 1259 4147 
z
M 628 4666 
L 1925 4666 
Q 3281 4666 3915 4102 
Q 4550 3538 4550 2338 
Q 4550 1131 3912 565 
Q 3275 0 1925 0 
L 628 0 
L 628 4666 
z
" transform="scale(0.015625)"/>
        <path id="DejaVuSans-65" d="M 3597 1894 
L 3597 1613 
L 953 1613 
Q 991 1019 1311 708 
Q 1631 397 2203 397 
Q 2534 397 2845 478 
Q 3156 559 3463 722 
L 3463 178 
Q 3153 47 2828 -22 
Q 2503 -91 2169 -91 
Q 1331 -91 842 396 
Q 353 884 353 1716 
Q 353 2575 817 3079 
Q 1281 3584 2069 3584 
Q 2775 3584 3186 3129 
Q 3597 2675 3597 1894 
z
M 3022 2063 
Q 3016 2534 2758 2815 
Q 2500 3097 2075 3097 
Q 1594 3097 1305 2825 
Q 1016 2553 972 2059 
L 3022 2063 
z
" transform="scale(0.015625)"/>
        <path id="DejaVuSans-63" d="M 3122 3366 
L 3122 2828 
Q 2878 2963 2633 3030 
Q 2388 3097 2138 3097 
Q 1578 3097 1268 2742 
Q 959 2388 959 1747 
Q 959 1106 1268 751 
Q 1578 397 2138 397 
Q 2388 397 2633 464 
Q 2878 531 3122 666 
L 3122 134 
Q 2881 22 2623 -34 
Q 2366 -91 2075 -91 
Q 1284 -91 818 406 
Q 353 903 353 1747 
Q 353 2603 823 3093 
Q 1294 3584 2113 3584 
Q 2378 3584 2631 3529 
Q 2884 3475 3122 3366 
z
" transform="scale(0.015625)"/>
        <path id="DejaVuSans-20" transform="scale(0.015625)"/>
        <path id="DejaVuSans-30" d="M 2034 4250 
Q 1547 4250 1301 3770 
Q 1056 3291 1056 2328 
Q 1056 1369 1301 889 
Q 1547 409 2034 409 
Q 2525 409 2770 889 
Q 3016 1369 3016 2328 
Q 3016 3291 2770 3770 
Q 2525 4250 2034 4250 
z
M 2034 4750 
Q 2819 4750 3233 4129 
Q 3647 3509 3647 2328 
Q 3647 1150 3233 529 
Q 2819 -91 2034 -91 
Q 1250 -91 836 529 
Q 422 1150 422 2328 
Q 422 3509 836 4129 
Q 1250 4750 2034 4750 
z
" transform="scale(0.015625)"/>
        <path id="DejaVuSans-35" d="M 691 4666 
L 3169 4666 
L 3169 4134 
L 1269 4134 
L 1269 2991 
Q 1406 3038 1543 3061 
Q 1681 3084 1819 3084 
Q 2600 3084 3056 2656 
Q 3513 2228 3513 1497 
Q 3513 744 3044 326 
Q 2575 -91 1722 -91 
Q 1428 -91 1123 -41 
Q 819 9 494 109 
L 494 744 
Q 775 591 1075 516 
Q 1375 441 1709 441 
Q 2250 441 2565 725 
Q 2881 1009 2881 1497 
Q 2881 1984 2565 2268 
Q 2250 2553 1709 2553 
Q 1456 2553 1204 2497 
Q 953 2441 691 2322 
L 691 4666 
z
" transform="scale(0.015625)"/>
       </defs>
       <use xlink:href="#DejaVuSans-44"/>
       <use xlink:href="#DejaVuSans-65" x="77.001953"/>
       <use xlink:href="#DejaVuSans-63" x="138.525391"/>
       <use xlink:href="#DejaVuSans-20" x="193.505859"/>
       <use xlink:href="#DejaVuSans-30" x="225.292969"/>
       <use xlink:href="#DejaVuSans-35" x="288.916016"/>
      </g>
     </g>
    </g>
    <g id="xtick_2">
     <g id="line2d_2">
      <g>
       <use xlink:href="#mbb51ea392e" x="155.860357" y="327.04" style="stroke: #000000; stroke-width: 0.8"/>
      </g>
     </g>
     <g id="text_2">
      <!-- Dec 17 -->
      <g transform="translate(134.707544 343.158125)scale(0.12 -0.12)">
       <defs>
        <path id="DejaVuSans-31" d="M 794 531 
L 1825 531 
L 1825 4091 
L 703 3866 
L 703 4441 
L 1819 4666 
L 2450 4666 
L 2450 531 
L 3481 531 
L 3481 0 
L 794 0 
L 794 531 
z
" transform="scale(0.015625)"/>
        <path id="DejaVuSans-37" d="M 525 4666 
L 3525 4666 
L 3525 4397 
L 1831 0 
L 1172 0 
L 2766 4134 
L 525 4134 
L 525 4666 
z
" transform="scale(0.015625)"/>
       </defs>
       <use xlink:href="#DejaVuSans-44"/>
       <use xlink:href="#DejaVuSans-65" x="77.001953"/>
       <use xlink:href="#DejaVuSans-63" x="138.525391"/>
       <use xlink:href="#DejaVuSans-20" x="193.505859"/>
       <use xlink:href="#DejaVuSans-31" x="225.292969"/>
       <use xlink:href="#DejaVuSans-37" x="288.916016"/>
      </g>
     </g>
    </g>
    <g id="xtick_3">
     <g id="line2d_3">
      <g>
       <use xlink:href="#mbb51ea392e" x="231.416168" y="327.04" style="stroke: #000000; stroke-width: 0.8"/>
      </g>
     </g>
     <g id="text_3">
      <!-- Dec 27 -->
      <g transform="translate(210.263356 343.158125)scale(0.12 -0.12)">
       <defs>
        <path id="DejaVuSans-32" d="M 1228 531 
L 3431 531 
L 3431 0 
L 469 0 
L 469 531 
Q 828 903 1448 1529 
Q 2069 2156 2228 2338 
Q 2531 2678 2651 2914 
Q 2772 3150 2772 3378 
Q 2772 3750 2511 3984 
Q 2250 4219 1831 4219 
Q 1534 4219 1204 4116 
Q 875 4013 500 3803 
L 500 4441 
Q 881 4594 1212 4672 
Q 1544 4750 1819 4750 
Q 2544 4750 2975 4387 
Q 3406 4025 3406 3419 
Q 3406 3131 3298 2873 
Q 3191 2616 2906 2266 
Q 2828 2175 2409 1742 
Q 1991 1309 1228 531 
z
" transform="scale(0.015625)"/>
       </defs>
       <use xlink:href="#DejaVuSans-44"/>
       <use xlink:href="#DejaVuSans-65" x="77.001953"/>
       <use xlink:href="#DejaVuSans-63" x="138.525391"/>
       <use xlink:href="#DejaVuSans-20" x="193.505859"/>
       <use xlink:href="#DejaVuSans-32" x="225.292969"/>
       <use xlink:href="#DejaVuSans-37" x="288.916016"/>
      </g>
     </g>
    </g>
    <g id="xtick_4">
     <g id="line2d_4">
      <g>
       <use xlink:href="#mbb51ea392e" x="306.971979" y="327.04" style="stroke: #000000; stroke-width: 0.8"/>
      </g>
     </g>
     <g id="text_4">
      <!-- Jan 06 -->
      <g transform="translate(288.180729 343.158125)scale(0.12 -0.12)">
       <defs>
        <path id="DejaVuSans-4a" d="M 628 4666 
L 1259 4666 
L 1259 325 
Q 1259 -519 939 -900 
Q 619 -1281 -91 -1281 
L -331 -1281 
L -331 -750 
L -134 -750 
Q 284 -750 456 -515 
Q 628 -281 628 325 
L 628 4666 
z
" transform="scale(0.015625)"/>
        <path id="DejaVuSans-61" d="M 2194 1759 
Q 1497 1759 1228 1600 
Q 959 1441 959 1056 
Q 959 750 1161 570 
Q 1363 391 1709 391 
Q 2188 391 2477 730 
Q 2766 1069 2766 1631 
L 2766 1759 
L 2194 1759 
z
M 3341 1997 
L 3341 0 
L 2766 0 
L 2766 531 
Q 2569 213 2275 61 
Q 1981 -91 1556 -91 
Q 1019 -91 701 211 
Q 384 513 384 1019 
Q 384 1609 779 1909 
Q 1175 2209 1959 2209 
L 2766 2209 
L 2766 2266 
Q 2766 2663 2505 2880 
Q 2244 3097 1772 3097 
Q 1472 3097 1187 3025 
Q 903 2953 641 2809 
L 641 3341 
Q 956 3463 1253 3523 
Q 1550 3584 1831 3584 
Q 2591 3584 2966 3190 
Q 3341 2797 3341 1997 
z
" transform="scale(0.015625)"/>
        <path id="DejaVuSans-6e" d="M 3513 2113 
L 3513 0 
L 2938 0 
L 2938 2094 
Q 2938 2591 2744 2837 
Q 2550 3084 2163 3084 
Q 1697 3084 1428 2787 
Q 1159 2491 1159 1978 
L 1159 0 
L 581 0 
L 581 3500 
L 1159 3500 
L 1159 2956 
Q 1366 3272 1645 3428 
Q 1925 3584 2291 3584 
Q 2894 3584 3203 3211 
Q 3513 2838 3513 2113 
z
" transform="scale(0.015625)"/>
        <path id="DejaVuSans-36" d="M 2113 2584 
Q 1688 2584 1439 2293 
Q 1191 2003 1191 1497 
Q 1191 994 1439 701 
Q 1688 409 2113 409 
Q 2538 409 2786 701 
Q 3034 994 3034 1497 
Q 3034 2003 2786 2293 
Q 2538 2584 2113 2584 
z
M 3366 4563 
L 3366 3988 
Q 3128 4100 2886 4159 
Q 2644 4219 2406 4219 
Q 1781 4219 1451 3797 
Q 1122 3375 1075 2522 
Q 1259 2794 1537 2939 
Q 1816 3084 2150 3084 
Q 2853 3084 3261 2657 
Q 3669 2231 3669 1497 
Q 3669 778 3244 343 
Q 2819 -91 2113 -91 
Q 1303 -91 875 529 
Q 447 1150 447 2328 
Q 447 3434 972 4092 
Q 1497 4750 2381 4750 
Q 2619 4750 2861 4703 
Q 3103 4656 3366 4563 
z
" transform="scale(0.015625)"/>
       </defs>
       <use xlink:href="#DejaVuSans-4a"/>
       <use xlink:href="#DejaVuSans-61" x="29.492188"/>
       <use xlink:href="#DejaVuSans-6e" x="90.771484"/>
       <use xlink:href="#DejaVuSans-20" x="154.150391"/>
       <use xlink:href="#DejaVuSans-30" x="185.9375"/>
       <use xlink:href="#DejaVuSans-36" x="249.560547"/>
      </g>
     </g>
    </g>
    <g id="xtick_5">
     <g id="line2d_5">
      <g>
       <use xlink:href="#mbb51ea392e" x="382.527791" y="327.04" style="stroke: #000000; stroke-width: 0.8"/>
      </g>
     </g>
     <g id="text_5">
      <!-- Jan 16 -->
      <g transform="translate(363.736541 343.158125)scale(0.12 -0.12)">
       <use xlink:href="#DejaVuSans-4a"/>
       <use xlink:href="#DejaVuSans-61" x="29.492188"/>
       <use xlink:href="#DejaVuSans-6e" x="90.771484"/>
       <use xlink:href="#DejaVuSans-20" x="154.150391"/>
       <use xlink:href="#DejaVuSans-31" x="185.9375"/>
       <use xlink:href="#DejaVuSans-36" x="249.560547"/>
      </g>
     </g>
    </g>
    <g id="xtick_6">
     <g id="line2d_6">
      <g>
       <use xlink:href="#mbb51ea392e" x="458.083602" y="327.04" style="stroke: #000000; stroke-width: 0.8"/>
      </g>
     </g>
     <g id="text_6">
      <!-- Jan 28 -->
      <g transform="translate(439.292352 343.158125)scale(0.12 -0.12)">
       <defs>
        <path id="DejaVuSans-38" d="M 2034 2216 
Q 1584 2216 1326 1975 
Q 1069 1734 1069 1313 
Q 1069 891 1326 650 
Q 1584 409 2034 409 
Q 2484 409 2743 651 
Q 3003 894 3003 1313 
Q 3003 1734 2745 1975 
Q 2488 2216 2034 2216 
z
M 1403 2484 
Q 997 2584 770 2862 
Q 544 3141 544 3541 
Q 544 4100 942 4425 
Q 1341 4750 2034 4750 
Q 2731 4750 3128 4425 
Q 3525 4100 3525 3541 
Q 3525 3141 3298 2862 
Q 3072 2584 2669 2484 
Q 3125 2378 3379 2068 
Q 3634 1759 3634 1313 
Q 3634 634 3220 271 
Q 2806 -91 2034 -91 
Q 1263 -91 848 271 
Q 434 634 434 1313 
Q 434 1759 690 2068 
Q 947 2378 1403 2484 
z
M 1172 3481 
Q 1172 3119 1398 2916 
Q 1625 2713 2034 2713 
Q 2441 2713 2670 2916 
Q 2900 3119 2900 3481 
Q 2900 3844 2670 4047 
Q 2441 4250 2034 4250 
Q 1625 4250 1398 4047 
Q 1172 3844 1172 3481 
z
" transform="scale(0.015625)"/>
       </defs>
       <use xlink:href="#DejaVuSans-4a"/>
       <use xlink:href="#DejaVuSans-61" x="29.492188"/>
       <use xlink:href="#DejaVuSans-6e" x="90.771484"/>
       <use xlink:href="#DejaVuSans-20" x="154.150391"/>
       <use xlink:href="#DejaVuSans-32" x="185.9375"/>
       <use xlink:href="#DejaVuSans-38" x="249.560547"/>
      </g>
     </g>
    </g>
    <g id="xtick_7">
     <g id="line2d_7">
      <g>
       <use xlink:href="#mbb51ea392e" x="533.639413" y="327.04" style="stroke: #000000; stroke-width: 0.8"/>
      </g>
     </g>
     <g id="text_7">
      <!-- Feb 07 -->
      <g transform="translate(513.475663 343.158125)scale(0.12 -0.12)">
       <defs>
        <path id="DejaVuSans-46" d="M 628 4666 
L 3309 4666 
L 3309 4134 
L 1259 4134 
L 1259 2759 
L 3109 2759 
L 3109 2228 
L 1259 2228 
L 1259 0 
L 628 0 
L 628 4666 
z
" transform="scale(0.015625)"/>
        <path id="DejaVuSans-62" d="M 3116 1747 
Q 3116 2381 2855 2742 
Q 2594 3103 2138 3103 
Q 1681 3103 1420 2742 
Q 1159 2381 1159 1747 
Q 1159 1113 1420 752 
Q 1681 391 2138 391 
Q 2594 391 2855 752 
Q 3116 1113 3116 1747 
z
M 1159 2969 
Q 1341 3281 1617 3432 
Q 1894 3584 2278 3584 
Q 2916 3584 3314 3078 
Q 3713 2572 3713 1747 
Q 3713 922 3314 415 
Q 2916 -91 2278 -91 
Q 1894 -91 1617 61 
Q 1341 213 1159 525 
L 1159 0 
L 581 0 
L 581 4863 
L 1159 4863 
L 1159 2969 
z
" transform="scale(0.015625)"/>
       </defs>
       <use xlink:href="#DejaVuSans-46"/>
       <use xlink:href="#DejaVuSans-65" x="52.019531"/>
       <use xlink:href="#DejaVuSans-62" x="113.542969"/>
       <use xlink:href="#DejaVuSans-20" x="177.019531"/>
       <use xlink:href="#DejaVuSans-30" x="208.806641"/>
       <use xlink:href="#DejaVuSans-37" x="272.429688"/>
      </g>
     </g>
    </g>
    <g id="xtick_8">
     <g id="line2d_8">
      <g>
       <use xlink:href="#mbb51ea392e" x="609.195224" y="327.04" style="stroke: #000000; stroke-width: 0.8"/>
      </g>
     </g>
     <g id="text_8">
      <!-- Feb 17 -->
      <g transform="translate(589.031474 343.158125)scale(0.12 -0.12)">
       <use xlink:href="#DejaVuSans-46"/>
       <use xlink:href="#DejaVuSans-65" x="52.019531"/>
       <use xlink:href="#DejaVuSans-62" x="113.542969"/>
       <use xlink:href="#DejaVuSans-20" x="177.019531"/>
       <use xlink:href="#DejaVuSans-31" x="208.806641"/>
       <use xlink:href="#DejaVuSans-37" x="272.429688"/>
      </g>
     </g>
    </g>
   </g>
   <g id="matplotlib.axis_2">
    <g id="ytick_1">
     <g id="line2d_9">
      <defs>
       <path id="ma7dc7203ed" d="M 0 0 
L -3.5 0 
" style="stroke: #000000; stroke-width: 0.8"/>
      </defs>
      <g>
       <use xlink:href="#ma7dc7203ed" x="50.46" y="327.04" style="stroke: #000000; stroke-width: 0.8"/>
      </g>
     </g>
     <g id="text_9">
      <!-- 0 -->
      <g transform="translate(35.825 331.599063)scale(0.12 -0.12)">
       <use xlink:href="#DejaVuSans-30"/>
      </g>
     </g>
    </g>
    <g id="ytick_2">
     <g id="line2d_10">
      <g>
       <use xlink:href="#ma7dc7203ed" x="50.46" y="292.065278" style="stroke: #000000; stroke-width: 0.8"/>
      </g>
     </g>
     <g id="text_10">
      <!-- 500 -->
      <g transform="translate(20.555 296.62434)scale(0.12 -0.12)">
       <use xlink:href="#DejaVuSans-35"/>
       <use xlink:href="#DejaVuSans-30" x="63.623047"/>
       <use xlink:href="#DejaVuSans-30" x="127.246094"/>
      </g>
     </g>
    </g>
    <g id="ytick_3">
     <g id="line2d_11">
      <g>
       <use xlink:href="#ma7dc7203ed" x="50.46" y="257.090556" style="stroke: #000000; stroke-width: 0.8"/>
      </g>
     </g>
     <g id="text_11">
      <!-- 1000 -->
      <g transform="translate(12.92 261.649618)scale(0.12 -0.12)">
       <use xlink:href="#DejaVuSans-31"/>
       <use xlink:href="#DejaVuSans-30" x="63.623047"/>
       <use xlink:href="#DejaVuSans-30" x="127.246094"/>
       <use xlink:href="#DejaVuSans-30" x="190.869141"/>
      </g>
     </g>
    </g>
    <g id="ytick_4">
     <g id="line2d_12">
      <g>
       <use xlink:href="#ma7dc7203ed" x="50.46" y="222.115834" style="stroke: #000000; stroke-width: 0.8"/>
      </g>
     </g>
     <g id="text_12">
      <!-- 1500 -->
      <g transform="translate(12.92 226.674896)scale(0.12 -0.12)">
       <use xlink:href="#DejaVuSans-31"/>
       <use xlink:href="#DejaVuSans-35" x="63.623047"/>
       <use xlink:href="#DejaVuSans-30" x="127.246094"/>
       <use xlink:href="#DejaVuSans-30" x="190.869141"/>
      </g>
     </g>
    </g>
    <g id="ytick_5">
     <g id="line2d_13">
      <g>
       <use xlink:href="#ma7dc7203ed" x="50.46" y="187.141111" style="stroke: #000000; stroke-width: 0.8"/>
      </g>
     </g>
     <g id="text_13">
      <!-- 2000 -->
      <g transform="translate(12.92 191.700174)scale(0.12 -0.12)">
       <use xlink:href="#DejaVuSans-32"/>
       <use xlink:href="#DejaVuSans-30" x="63.623047"/>
       <use xlink:href="#DejaVuSans-30" x="127.246094"/>
       <use xlink:href="#DejaVuSans-30" x="190.869141"/>
      </g>
     </g>
    </g>
    <g id="ytick_6">
     <g id="line2d_14">
      <g>
       <use xlink:href="#ma7dc7203ed" x="50.46" y="152.166389" style="stroke: #000000; stroke-width: 0.8"/>
      </g>
     </g>
     <g id="text_14">
      <!-- 2500 -->
      <g transform="translate(12.92 156.725452)scale(0.12 -0.12)">
       <use xlink:href="#DejaVuSans-32"/>
       <use xlink:href="#DejaVuSans-35" x="63.623047"/>
       <use xlink:href="#DejaVuSans-30" x="127.246094"/>
       <use xlink:href="#DejaVuSans-30" x="190.869141"/>
      </g>
     </g>
    </g>
    <g id="ytick_7">
     <g id="line2d_15">
      <g>
       <use xlink:href="#ma7dc7203ed" x="50.46" y="117.191667" style="stroke: #000000; stroke-width: 0.8"/>
      </g>
     </g>
     <g id="text_15">
      <!-- 3000 -->
      <g transform="translate(12.92 121.75073)scale(0.12 -0.12)">
       <defs>
        <path id="DejaVuSans-33" d="M 2597 2516 
Q 3050 2419 3304 2112 
Q 3559 1806 3559 1356 
Q 3559 666 3084 287 
Q 2609 -91 1734 -91 
Q 1441 -91 1130 -33 
Q 819 25 488 141 
L 488 750 
Q 750 597 1062 519 
Q 1375 441 1716 441 
Q 2309 441 2620 675 
Q 2931 909 2931 1356 
Q 2931 1769 2642 2001 
Q 2353 2234 1838 2234 
L 1294 2234 
L 1294 2753 
L 1863 2753 
Q 2328 2753 2575 2939 
Q 2822 3125 2822 3475 
Q 2822 3834 2567 4026 
Q 2313 4219 1838 4219 
Q 1578 4219 1281 4162 
Q 984 4106 628 3988 
L 628 4550 
Q 988 4650 1302 4700 
Q 1616 4750 1894 4750 
Q 2613 4750 3031 4423 
Q 3450 4097 3450 3541 
Q 3450 3153 3228 2886 
Q 3006 2619 2597 2516 
z
" transform="scale(0.015625)"/>
       </defs>
       <use xlink:href="#DejaVuSans-33"/>
       <use xlink:href="#DejaVuSans-30" x="63.623047"/>
       <use xlink:href="#DejaVuSans-30" x="127.246094"/>
       <use xlink:href="#DejaVuSans-30" x="190.869141"/>
      </g>
     </g>
    </g>
    <g id="ytick_8">
     <g id="line2d_16">
      <g>
       <use xlink:href="#ma7dc7203ed" x="50.46" y="82.216945" style="stroke: #000000; stroke-width: 0.8"/>
      </g>
     </g>
     <g id="text_16">
      <!-- 3500 -->
      <g transform="translate(12.92 86.776007)scale(0.12 -0.12)">
       <use xlink:href="#DejaVuSans-33"/>
       <use xlink:href="#DejaVuSans-35" x="63.623047"/>
       <use xlink:href="#DejaVuSans-30" x="127.246094"/>
       <use xlink:href="#DejaVuSans-30" x="190.869141"/>
      </g>
     </g>
    </g>
    <g id="ytick_9">
     <g id="line2d_17">
      <g>
       <use xlink:href="#ma7dc7203ed" x="50.46" y="47.242223" style="stroke: #000000; stroke-width: 0.8"/>
      </g>
     </g>
     <g id="text_17">
      <!-- 4000 -->
      <g transform="translate(12.92 51.801285)scale(0.12 -0.12)">
       <defs>
        <path id="DejaVuSans-34" d="M 2419 4116 
L 825 1625 
L 2419 1625 
L 2419 4116 
z
M 2253 4666 
L 3047 4666 
L 3047 1625 
L 3713 1625 
L 3713 1100 
L 3047 1100 
L 3047 0 
L 2419 0 
L 2419 1100 
L 313 1100 
L 313 1709 
L 2253 4666 
z
" transform="scale(0.015625)"/>
       </defs>
       <use xlink:href="#DejaVuSans-34"/>
       <use xlink:href="#DejaVuSans-30" x="63.623047"/>
       <use xlink:href="#DejaVuSans-30" x="127.246094"/>
       <use xlink:href="#DejaVuSans-30" x="190.869141"/>
      </g>
     </g>
    </g>
   </g>
   <g id="line2d_18">
    <path d="M 80.304545 323.472578 
L 87.860127 324.102123 
L 95.415708 324.52182 
L 102.971289 323.472578 
L 110.52687 322.283438 
L 118.082451 321.653893 
L 125.638032 323.332679 
L 133.193613 322.912983 
L 140.749194 322.493286 
L 148.304776 322.353387 
L 155.860357 320.674601 
L 163.415938 319.695308 
L 170.971519 319.835207 
L 178.5271 318.995814 
L 186.082681 316.96728 
L 193.638262 315.568291 
L 201.193843 312.630414 
L 208.749425 310.182184 
L 216.305006 310.811729 
L 223.860587 312.700364 
L 231.416168 311.441274 
L 238.971749 312.350617 
L 246.52733 309.972336 
L 254.082911 289.966795 
L 261.638493 259.11909 
L 269.194074 260.098382 
L 276.749655 258.629443 
L 284.305236 254.922123 
L 291.860817 242.261273 
L 299.416398 214.631243 
L 306.971979 195.465095 
L 314.52756 209.035287 
L 322.083142 190.778482 
L 329.638723 199.94186 
L 337.194304 247.087785 
L 344.749885 202.180242 
L 352.305466 179.656521 
L 359.861047 159.021435 
L 367.416628 200.081759 
L 374.972209 152.236339 
L 382.527791 189.099696 
L 390.083372 204.068877 
L 397.638953 215.610535 
L 405.194534 191.477977 
L 412.750115 200.571405 
L 420.305696 179.446672 
L 427.861277 257.580202 
L 435.416858 240.862285 
L 442.97244 240.442588 
L 450.528021 255.621617 
L 458.083602 291.295834 
L 465.639183 274.787765 
L 473.194764 273.528675 
L 480.750345 291.575632 
L 488.305926 289.2673 
L 495.861507 293.394317 
L 503.417089 291.155935 
L 510.97267 301.158706 
L 518.528251 311.721072 
L 526.083832 312.560465 
L 533.639413 304.166532 
L 541.194994 304.236481 
L 548.750575 287.448615 
L 556.306157 291.925379 
L 563.861738 302.837492 
L 571.417319 302.487745 
L 578.9729 313.679656 
L 586.528481 316.757432 
L 594.084062 317.386977 
L 601.639643 307.803903 
L 609.195224 184.483032 
L 616.750806 212.043114 
L 624.306387 247.437532 
L 631.861968 251.144853 
L 639.417549 185.882021 
L 646.97313 194.695651 
L 654.528711 218.548412 
L 662.084292 241.002183 
L 669.639873 245.2691 
L 677.195455 250.725156 
" clip-path="url(#p15349394bf)" style="fill: none; stroke: #1f77b4; stroke-width: 1.5; stroke-linecap: square"/>
    <defs>
     <path id="m3a1a7040d6" d="M 0 3 
C 0.795609 3 1.55874 2.683901 2.12132 2.12132 
C 2.683901 1.55874 3 0.795609 3 0 
C 3 -0.795609 2.683901 -1.55874 2.12132 -2.12132 
C 1.55874 -2.683901 0.795609 -3 0 -3 
C -0.795609 -3 -1.55874 -2.683901 -2.12132 -2.12132 
C -2.683901 -1.55874 -3 -0.795609 -3 0 
C -3 0.795609 -2.683901 1.55874 -2.12132 2.12132 
C -1.55874 2.683901 -0.795609 3 0 3 
z
" style="stroke: #1f77b4"/>
    </defs>
    <g clip-path="url(#p15349394bf)">
     <use xlink:href="#m3a1a7040d6" x="80.304545" y="323.472578" style="fill: #1f77b4; stroke: #1f77b4"/>
     <use xlink:href="#m3a1a7040d6" x="87.860127" y="324.102123" style="fill: #1f77b4; stroke: #1f77b4"/>
     <use xlink:href="#m3a1a7040d6" x="95.415708" y="324.52182" style="fill: #1f77b4; stroke: #1f77b4"/>
     <use xlink:href="#m3a1a7040d6" x="102.971289" y="323.472578" style="fill: #1f77b4; stroke: #1f77b4"/>
     <use xlink:href="#m3a1a7040d6" x="110.52687" y="322.283438" style="fill: #1f77b4; stroke: #1f77b4"/>
     <use xlink:href="#m3a1a7040d6" x="118.082451" y="321.653893" style="fill: #1f77b4; stroke: #1f77b4"/>
     <use xlink:href="#m3a1a7040d6" x="125.638032" y="323.332679" style="fill: #1f77b4; stroke: #1f77b4"/>
     <use xlink:href="#m3a1a7040d6" x="133.193613" y="322.912983" style="fill: #1f77b4; stroke: #1f77b4"/>
     <use xlink:href="#m3a1a7040d6" x="140.749194" y="322.493286" style="fill: #1f77b4; stroke: #1f77b4"/>
     <use xlink:href="#m3a1a7040d6" x="148.304776" y="322.353387" style="fill: #1f77b4; stroke: #1f77b4"/>
     <use xlink:href="#m3a1a7040d6" x="155.860357" y="320.674601" style="fill: #1f77b4; stroke: #1f77b4"/>
     <use xlink:href="#m3a1a7040d6" x="163.415938" y="319.695308" style="fill: #1f77b4; stroke: #1f77b4"/>
     <use xlink:href="#m3a1a7040d6" x="170.971519" y="319.835207" style="fill: #1f77b4; stroke: #1f77b4"/>
     <use xlink:href="#m3a1a7040d6" x="178.5271" y="318.995814" style="fill: #1f77b4; stroke: #1f77b4"/>
     <use xlink:href="#m3a1a7040d6" x="186.082681" y="316.96728" style="fill: #1f77b4; stroke: #1f77b4"/>
     <use xlink:href="#m3a1a7040d6" x="193.638262" y="315.568291" style="fill: #1f77b4; stroke: #1f77b4"/>
     <use xlink:href="#m3a1a7040d6" x="201.193843" y="312.630414" style="fill: #1f77b4; stroke: #1f77b4"/>
     <use xlink:href="#m3a1a7040d6" x="208.749425" y="310.182184" style="fill: #1f77b4; stroke: #1f77b4"/>
     <use xlink:href="#m3a1a7040d6" x="216.305006" y="310.811729" style="fill: #1f77b4; stroke: #1f77b4"/>
     <use xlink:href="#m3a1a7040d6" x="223.860587" y="312.700364" style="fill: #1f77b4; stroke: #1f77b4"/>
     <use xlink:href="#m3a1a7040d6" x="231.416168" y="311.441274" style="fill: #1f77b4; stroke: #1f77b4"/>
     <use xlink:href="#m3a1a7040d6" x="238.971749" y="312.350617" style="fill: #1f77b4; stroke: #1f77b4"/>
     <use xlink:href="#m3a1a7040d6" x="246.52733" y="309.972336" style="fill: #1f77b4; stroke: #1f77b4"/>
     <use xlink:href="#m3a1a7040d6" x="254.082911" y="289.966795" style="fill: #1f77b4; stroke: #1f77b4"/>
     <use xlink:href="#m3a1a7040d6" x="261.638493" y="259.11909" style="fill: #1f77b4; stroke: #1f77b4"/>
     <use xlink:href="#m3a1a7040d6" x="269.194074" y="260.098382" style="fill: #1f77b4; stroke: #1f77b4"/>
     <use xlink:href="#m3a1a7040d6" x="276.749655" y="258.629443" style="fill: #1f77b4; stroke: #1f77b4"/>
     <use xlink:href="#m3a1a7040d6" x="284.305236" y="254.922123" style="fill: #1f77b4; stroke: #1f77b4"/>
     <use xlink:href="#m3a1a7040d6" x="291.860817" y="242.261273" style="fill: #1f77b4; stroke: #1f77b4"/>
     <use xlink:href="#m3a1a7040d6" x="299.416398" y="214.631243" style="fill: #1f77b4; stroke: #1f77b4"/>
     <use xlink:href="#m3a1a7040d6" x="306.971979" y="195.465095" style="fill: #1f77b4; stroke: #1f77b4"/>
     <use xlink:href="#m3a1a7040d6" x="314.52756" y="209.035287" style="fill: #1f77b4; stroke: #1f77b4"/>
     <use xlink:href="#m3a1a7040d6" x="322.083142" y="190.778482" style="fill: #1f77b4; stroke: #1f77b4"/>
     <use xlink:href="#m3a1a7040d6" x="329.638723" y="199.94186" style="fill: #1f77b4; stroke: #1f77b4"/>
     <use xlink:href="#m3a1a7040d6" x="337.194304" y="247.087785" style="fill: #1f77b4; stroke: #1f77b4"/>
     <use xlink:href="#m3a1a7040d6" x="344.749885" y="202.180242" style="fill: #1f77b4; stroke: #1f77b4"/>
     <use xlink:href="#m3a1a7040d6" x="352.305466" y="179.656521" style="fill: #1f77b4; stroke: #1f77b4"/>
     <use xlink:href="#m3a1a7040d6" x="359.861047" y="159.021435" style="fill: #1f77b4; stroke: #1f77b4"/>
     <use xlink:href="#m3a1a7040d6" x="367.416628" y="200.081759" style="fill: #1f77b4; stroke: #1f77b4"/>
     <use xlink:href="#m3a1a7040d6" x="374.972209" y="152.236339" style="fill: #1f77b4; stroke: #1f77b4"/>
     <use xlink:href="#m3a1a7040d6" x="382.527791" y="189.099696" style="fill: #1f77b4; stroke: #1f77b4"/>
     <use xlink:href="#m3a1a7040d6" x="390.083372" y="204.068877" style="fill: #1f77b4; stroke: #1f77b4"/>
     <use xlink:href="#m3a1a7040d6" x="397.638953" y="215.610535" style="fill: #1f77b4; stroke: #1f77b4"/>
     <use xlink:href="#m3a1a7040d6" x="405.194534" y="191.477977" style="fill: #1f77b4; stroke: #1f77b4"/>
     <use xlink:href="#m3a1a7040d6" x="412.750115" y="200.571405" style="fill: #1f77b4; stroke: #1f77b4"/>
     <use xlink:href="#m3a1a7040d6" x="420.305696" y="179.446672" style="fill: #1f77b4; stroke: #1f77b4"/>
     <use xlink:href="#m3a1a7040d6" x="427.861277" y="257.580202" style="fill: #1f77b4; stroke: #1f77b4"/>
     <use xlink:href="#m3a1a7040d6" x="435.416858" y="240.862285" style="fill: #1f77b4; stroke: #1f77b4"/>
     <use xlink:href="#m3a1a7040d6" x="442.97244" y="240.442588" style="fill: #1f77b4; stroke: #1f77b4"/>
     <use xlink:href="#m3a1a7040d6" x="450.528021" y="255.621617" style="fill: #1f77b4; stroke: #1f77b4"/>
     <use xlink:href="#m3a1a7040d6" x="458.083602" y="291.295834" style="fill: #1f77b4; stroke: #1f77b4"/>
     <use xlink:href="#m3a1a7040d6" x="465.639183" y="274.787765" style="fill: #1f77b4; stroke: #1f77b4"/>
     <use xlink:href="#m3a1a7040d6" x="473.194764" y="273.528675" style="fill: #1f77b4; stroke: #1f77b4"/>
     <use xlink:href="#m3a1a7040d6" x="480.750345" y="291.575632" style="fill: #1f77b4; stroke: #1f77b4"/>
     <use xlink:href="#m3a1a7040d6" x="488.305926" y="289.2673" style="fill: #1f77b4; stroke: #1f77b4"/>
     <use xlink:href="#m3a1a7040d6" x="495.861507" y="293.394317" style="fill: #1f77b4; stroke: #1f77b4"/>
     <use xlink:href="#m3a1a7040d6" x="503.417089" y="291.155935" style="fill: #1f77b4; stroke: #1f77b4"/>
     <use xlink:href="#m3a1a7040d6" x="510.97267" y="301.158706" style="fill: #1f77b4; stroke: #1f77b4"/>
     <use xlink:href="#m3a1a7040d6" x="518.528251" y="311.721072" style="fill: #1f77b4; stroke: #1f77b4"/>
     <use xlink:href="#m3a1a7040d6" x="526.083832" y="312.560465" style="fill: #1f77b4; stroke: #1f77b4"/>
     <use xlink:href="#m3a1a7040d6" x="533.639413" y="304.166532" style="fill: #1f77b4; stroke: #1f77b4"/>
     <use xlink:href="#m3a1a7040d6" x="541.194994" y="304.236481" style="fill: #1f77b4; stroke: #1f77b4"/>
     <use xlink:href="#m3a1a7040d6" x="548.750575" y="287.448615" style="fill: #1f77b4; stroke: #1f77b4"/>
     <use xlink:href="#m3a1a7040d6" x="556.306157" y="291.925379" style="fill: #1f77b4; stroke: #1f77b4"/>
     <use xlink:href="#m3a1a7040d6" x="563.861738" y="302.837492" style="fill: #1f77b4; stroke: #1f77b4"/>
     <use xlink:href="#m3a1a7040d6" x="571.417319" y="302.487745" style="fill: #1f77b4; stroke: #1f77b4"/>
     <use xlink:href="#m3a1a7040d6" x="578.9729" y="313.679656" style="fill: #1f77b4; stroke: #1f77b4"/>
     <use xlink:href="#m3a1a7040d6" x="586.528481" y="316.757432" style="fill: #1f77b4; stroke: #1f77b4"/>
     <use xlink:href="#m3a1a7040d6" x="594.084062" y="317.386977" style="fill: #1f77b4; stroke: #1f77b4"/>
     <use xlink:href="#m3a1a7040d6" x="601.639643" y="307.803903" style="fill: #1f77b4; stroke: #1f77b4"/>
     <use xlink:href="#m3a1a7040d6" x="609.195224" y="184.483032" style="fill: #1f77b4; stroke: #1f77b4"/>
     <use xlink:href="#m3a1a7040d6" x="616.750806" y="212.043114" style="fill: #1f77b4; stroke: #1f77b4"/>
     <use xlink:href="#m3a1a7040d6" x="624.306387" y="247.437532" style="fill: #1f77b4; stroke: #1f77b4"/>
     <use xlink:href="#m3a1a7040d6" x="631.861968" y="251.144853" style="fill: #1f77b4; stroke: #1f77b4"/>
     <use xlink:href="#m3a1a7040d6" x="639.417549" y="185.882021" style="fill: #1f77b4; stroke: #1f77b4"/>
     <use xlink:href="#m3a1a7040d6" x="646.97313" y="194.695651" style="fill: #1f77b4; stroke: #1f77b4"/>
     <use xlink:href="#m3a1a7040d6" x="654.528711" y="218.548412" style="fill: #1f77b4; stroke: #1f77b4"/>
     <use xlink:href="#m3a1a7040d6" x="662.084292" y="241.002183" style="fill: #1f77b4; stroke: #1f77b4"/>
     <use xlink:href="#m3a1a7040d6" x="669.639873" y="245.2691" style="fill: #1f77b4; stroke: #1f77b4"/>
     <use xlink:href="#m3a1a7040d6" x="677.195455" y="250.725156" style="fill: #1f77b4; stroke: #1f77b4"/>
    </g>
   </g>
   <g id="line2d_19">
    <path d="M 80.304545 322.563236 
L 87.860127 323.122831 
L 95.415708 324.102123 
L 102.971289 321.234196 
L 110.52687 323.26273 
L 118.082451 322.143539 
L 125.638032 321.863741 
L 133.193613 321.863741 
L 140.749194 321.793792 
L 148.304776 318.646067 
L 155.860357 309.972336 
L 163.415938 313.749606 
L 170.971519 303.467037 
L 178.5271 304.236481 
L 186.082681 304.026633 
L 193.638262 290.316542 
L 201.193843 285.979676 
L 208.749425 276.6764 
L 216.305006 283.601395 
L 223.860587 278.215288 
L 231.416168 283.951142 
L 238.971749 285.070333 
L 246.52733 282.901901 
L 254.082911 243.520363 
L 261.638493 196.304489 
L 269.194074 195.465095 
L 276.749655 207.566349 
L 284.305236 200.991101 
L 291.860817 197.35373 
L 299.416398 106.7692 
L 306.971979 53.467723 
L 314.52756 62.70105 
L 322.083142 27.796277 
L 329.638723 103.551525 
L 337.194304 198.542871 
L 344.749885 135.518421 
L 352.305466 115.442931 
L 359.861047 117.121718 
L 367.416628 157.202749 
L 374.972209 115.023234 
L 382.527791 170.633042 
L 390.083372 195.674944 
L 397.638953 206.517107 
L 405.194534 181.335307 
L 412.750115 199.522163 
L 420.305696 162.239109 
L 427.861277 264.924893 
L 435.416858 257.79005 
L 442.97244 244.289807 
L 450.528021 264.505197 
L 458.083602 294.373609 
L 465.639183 278.704934 
L 473.194764 275.277411 
L 480.750345 287.728412 
L 488.305926 295.282952 
L 495.861507 292.694823 
L 503.417089 295.982447 
L 510.97267 300.948857 
L 518.528251 314.728898 
L 526.083832 313.120061 
L 533.639413 308.013751 
L 541.194994 307.873852 
L 548.750575 293.324368 
L 556.306157 294.583458 
L 563.861738 303.886734 
L 571.417319 303.536987 
L 578.9729 312.910212 
L 586.528481 316.547583 
L 594.084062 317.456926 
L 601.639643 308.363498 
L 609.195224 168.744407 
L 616.750806 196.09464 
L 624.306387 245.828695 
L 631.861968 246.947886 
L 639.417549 167.974964 
L 646.97313 171.332537 
L 654.528711 196.024691 
L 662.084292 212.392861 
L 669.639873 215.190839 
L 677.195455 230.16002 
" clip-path="url(#p15349394bf)" style="fill: none; stroke: #ff7f0e; stroke-width: 1.5; stroke-linecap: square"/>
    <defs>
     <path id="mc18f0cf018" d="M 0 3 
C 0.795609 3 1.55874 2.683901 2.12132 2.12132 
C 2.683901 1.55874 3 0.795609 3 0 
C 3 -0.795609 2.683901 -1.55874 2.12132 -2.12132 
C 1.55874 -2.683901 0.795609 -3 0 -3 
C -0.795609 -3 -1.55874 -2.683901 -2.12132 -2.12132 
C -2.683901 -1.55874 -3 -0.795609 -3 0 
C -3 0.795609 -2.683901 1.55874 -2.12132 2.12132 
C -1.55874 2.683901 -0.795609 3 0 3 
z
" style="stroke: #ff7f0e"/>
    </defs>
    <g clip-path="url(#p15349394bf)">
     <use xlink:href="#mc18f0cf018" x="80.304545" y="322.563236" style="fill: #ff7f0e; stroke: #ff7f0e"/>
     <use xlink:href="#mc18f0cf018" x="87.860127" y="323.122831" style="fill: #ff7f0e; stroke: #ff7f0e"/>
     <use xlink:href="#mc18f0cf018" x="95.415708" y="324.102123" style="fill: #ff7f0e; stroke: #ff7f0e"/>
     <use xlink:href="#mc18f0cf018" x="102.971289" y="321.234196" style="fill: #ff7f0e; stroke: #ff7f0e"/>
     <use xlink:href="#mc18f0cf018" x="110.52687" y="323.26273" style="fill: #ff7f0e; stroke: #ff7f0e"/>
     <use xlink:href="#mc18f0cf018" x="118.082451" y="322.143539" style="fill: #ff7f0e; stroke: #ff7f0e"/>
     <use xlink:href="#mc18f0cf018" x="125.638032" y="321.863741" style="fill: #ff7f0e; stroke: #ff7f0e"/>
     <use xlink:href="#mc18f0cf018" x="133.193613" y="321.863741" style="fill: #ff7f0e; stroke: #ff7f0e"/>
     <use xlink:href="#mc18f0cf018" x="140.749194" y="321.793792" style="fill: #ff7f0e; stroke: #ff7f0e"/>
     <use xlink:href="#mc18f0cf018" x="148.304776" y="318.646067" style="fill: #ff7f0e; stroke: #ff7f0e"/>
     <use xlink:href="#mc18f0cf018" x="155.860357" y="309.972336" style="fill: #ff7f0e; stroke: #ff7f0e"/>
     <use xlink:href="#mc18f0cf018" x="163.415938" y="313.749606" style="fill: #ff7f0e; stroke: #ff7f0e"/>
     <use xlink:href="#mc18f0cf018" x="170.971519" y="303.467037" style="fill: #ff7f0e; stroke: #ff7f0e"/>
     <use xlink:href="#mc18f0cf018" x="178.5271" y="304.236481" style="fill: #ff7f0e; stroke: #ff7f0e"/>
     <use xlink:href="#mc18f0cf018" x="186.082681" y="304.026633" style="fill: #ff7f0e; stroke: #ff7f0e"/>
     <use xlink:href="#mc18f0cf018" x="193.638262" y="290.316542" style="fill: #ff7f0e; stroke: #ff7f0e"/>
     <use xlink:href="#mc18f0cf018" x="201.193843" y="285.979676" style="fill: #ff7f0e; stroke: #ff7f0e"/>
     <use xlink:href="#mc18f0cf018" x="208.749425" y="276.6764" style="fill: #ff7f0e; stroke: #ff7f0e"/>
     <use xlink:href="#mc18f0cf018" x="216.305006" y="283.601395" style="fill: #ff7f0e; stroke: #ff7f0e"/>
     <use xlink:href="#mc18f0cf018" x="223.860587" y="278.215288" style="fill: #ff7f0e; stroke: #ff7f0e"/>
     <use xlink:href="#mc18f0cf018" x="231.416168" y="283.951142" style="fill: #ff7f0e; stroke: #ff7f0e"/>
     <use xlink:href="#mc18f0cf018" x="238.971749" y="285.070333" style="fill: #ff7f0e; stroke: #ff7f0e"/>
     <use xlink:href="#mc18f0cf018" x="246.52733" y="282.901901" style="fill: #ff7f0e; stroke: #ff7f0e"/>
     <use xlink:href="#mc18f0cf018" x="254.082911" y="243.520363" style="fill: #ff7f0e; stroke: #ff7f0e"/>
     <use xlink:href="#mc18f0cf018" x="261.638493" y="196.304489" style="fill: #ff7f0e; stroke: #ff7f0e"/>
     <use xlink:href="#mc18f0cf018" x="269.194074" y="195.465095" style="fill: #ff7f0e; stroke: #ff7f0e"/>
     <use xlink:href="#mc18f0cf018" x="276.749655" y="207.566349" style="fill: #ff7f0e; stroke: #ff7f0e"/>
     <use xlink:href="#mc18f0cf018" x="284.305236" y="200.991101" style="fill: #ff7f0e; stroke: #ff7f0e"/>
     <use xlink:href="#mc18f0cf018" x="291.860817" y="197.35373" style="fill: #ff7f0e; stroke: #ff7f0e"/>
     <use xlink:href="#mc18f0cf018" x="299.416398" y="106.7692" style="fill: #ff7f0e; stroke: #ff7f0e"/>
     <use xlink:href="#mc18f0cf018" x="306.971979" y="53.467723" style="fill: #ff7f0e; stroke: #ff7f0e"/>
     <use xlink:href="#mc18f0cf018" x="314.52756" y="62.70105" style="fill: #ff7f0e; stroke: #ff7f0e"/>
     <use xlink:href="#mc18f0cf018" x="322.083142" y="27.796277" style="fill: #ff7f0e; stroke: #ff7f0e"/>
     <use xlink:href="#mc18f0cf018" x="329.638723" y="103.551525" style="fill: #ff7f0e; stroke: #ff7f0e"/>
     <use xlink:href="#mc18f0cf018" x="337.194304" y="198.542871" style="fill: #ff7f0e; stroke: #ff7f0e"/>
     <use xlink:href="#mc18f0cf018" x="344.749885" y="135.518421" style="fill: #ff7f0e; stroke: #ff7f0e"/>
     <use xlink:href="#mc18f0cf018" x="352.305466" y="115.442931" style="fill: #ff7f0e; stroke: #ff7f0e"/>
     <use xlink:href="#mc18f0cf018" x="359.861047" y="117.121718" style="fill: #ff7f0e; stroke: #ff7f0e"/>
     <use xlink:href="#mc18f0cf018" x="367.416628" y="157.202749" style="fill: #ff7f0e; stroke: #ff7f0e"/>
     <use xlink:href="#mc18f0cf018" x="374.972209" y="115.023234" style="fill: #ff7f0e; stroke: #ff7f0e"/>
     <use xlink:href="#mc18f0cf018" x="382.527791" y="170.633042" style="fill: #ff7f0e; stroke: #ff7f0e"/>
     <use xlink:href="#mc18f0cf018" x="390.083372" y="195.674944" style="fill: #ff7f0e; stroke: #ff7f0e"/>
     <use xlink:href="#mc18f0cf018" x="397.638953" y="206.517107" style="fill: #ff7f0e; stroke: #ff7f0e"/>
     <use xlink:href="#mc18f0cf018" x="405.194534" y="181.335307" style="fill: #ff7f0e; stroke: #ff7f0e"/>
     <use xlink:href="#mc18f0cf018" x="412.750115" y="199.522163" style="fill: #ff7f0e; stroke: #ff7f0e"/>
     <use xlink:href="#mc18f0cf018" x="420.305696" y="162.239109" style="fill: #ff7f0e; stroke: #ff7f0e"/>
     <use xlink:href="#mc18f0cf018" x="427.861277" y="264.924893" style="fill: #ff7f0e; stroke: #ff7f0e"/>
     <use xlink:href="#mc18f0cf018" x="435.416858" y="257.79005" style="fill: #ff7f0e; stroke: #ff7f0e"/>
     <use xlink:href="#mc18f0cf018" x="442.97244" y="244.289807" style="fill: #ff7f0e; stroke: #ff7f0e"/>
     <use xlink:href="#mc18f0cf018" x="450.528021" y="264.505197" style="fill: #ff7f0e; stroke: #ff7f0e"/>
     <use xlink:href="#mc18f0cf018" x="458.083602" y="294.373609" style="fill: #ff7f0e; stroke: #ff7f0e"/>
     <use xlink:href="#mc18f0cf018" x="465.639183" y="278.704934" style="fill: #ff7f0e; stroke: #ff7f0e"/>
     <use xlink:href="#mc18f0cf018" x="473.194764" y="275.277411" style="fill: #ff7f0e; stroke: #ff7f0e"/>
     <use xlink:href="#mc18f0cf018" x="480.750345" y="287.728412" style="fill: #ff7f0e; stroke: #ff7f0e"/>
     <use xlink:href="#mc18f0cf018" x="488.305926" y="295.282952" style="fill: #ff7f0e; stroke: #ff7f0e"/>
     <use xlink:href="#mc18f0cf018" x="495.861507" y="292.694823" style="fill: #ff7f0e; stroke: #ff7f0e"/>
     <use xlink:href="#mc18f0cf018" x="503.417089" y="295.982447" style="fill: #ff7f0e; stroke: #ff7f0e"/>
     <use xlink:href="#mc18f0cf018" x="510.97267" y="300.948857" style="fill: #ff7f0e; stroke: #ff7f0e"/>
     <use xlink:href="#mc18f0cf018" x="518.528251" y="314.728898" style="fill: #ff7f0e; stroke: #ff7f0e"/>
     <use xlink:href="#mc18f0cf018" x="526.083832" y="313.120061" style="fill: #ff7f0e; stroke: #ff7f0e"/>
     <use xlink:href="#mc18f0cf018" x="533.639413" y="308.013751" style="fill: #ff7f0e; stroke: #ff7f0e"/>
     <use xlink:href="#mc18f0cf018" x="541.194994" y="307.873852" style="fill: #ff7f0e; stroke: #ff7f0e"/>
     <use xlink:href="#mc18f0cf018" x="548.750575" y="293.324368" style="fill: #ff7f0e; stroke: #ff7f0e"/>
     <use xlink:href="#mc18f0cf018" x="556.306157" y="294.583458" style="fill: #ff7f0e; stroke: #ff7f0e"/>
     <use xlink:href="#mc18f0cf018" x="563.861738" y="303.886734" style="fill: #ff7f0e; stroke: #ff7f0e"/>
     <use xlink:href="#mc18f0cf018" x="571.417319" y="303.536987" style="fill: #ff7f0e; stroke: #ff7f0e"/>
     <use xlink:href="#mc18f0cf018" x="578.9729" y="312.910212" style="fill: #ff7f0e; stroke: #ff7f0e"/>
     <use xlink:href="#mc18f0cf018" x="586.528481" y="316.547583" style="fill: #ff7f0e; stroke: #ff7f0e"/>
     <use xlink:href="#mc18f0cf018" x="594.084062" y="317.456926" style="fill: #ff7f0e; stroke: #ff7f0e"/>
     <use xlink:href="#mc18f0cf018" x="601.639643" y="308.363498" style="fill: #ff7f0e; stroke: #ff7f0e"/>
     <use xlink:href="#mc18f0cf018" x="609.195224" y="168.744407" style="fill: #ff7f0e; stroke: #ff7f0e"/>
     <use xlink:href="#mc18f0cf018" x="616.750806" y="196.09464" style="fill: #ff7f0e; stroke: #ff7f0e"/>
     <use xlink:href="#mc18f0cf018" x="624.306387" y="245.828695" style="fill: #ff7f0e; stroke: #ff7f0e"/>
     <use xlink:href="#mc18f0cf018" x="631.861968" y="246.947886" style="fill: #ff7f0e; stroke: #ff7f0e"/>
     <use xlink:href="#mc18f0cf018" x="639.417549" y="167.974964" style="fill: #ff7f0e; stroke: #ff7f0e"/>
     <use xlink:href="#mc18f0cf018" x="646.97313" y="171.332537" style="fill: #ff7f0e; stroke: #ff7f0e"/>
     <use xlink:href="#mc18f0cf018" x="654.528711" y="196.024691" style="fill: #ff7f0e; stroke: #ff7f0e"/>
     <use xlink:href="#mc18f0cf018" x="662.084292" y="212.392861" style="fill: #ff7f0e; stroke: #ff7f0e"/>
     <use xlink:href="#mc18f0cf018" x="669.639873" y="215.190839" style="fill: #ff7f0e; stroke: #ff7f0e"/>
     <use xlink:href="#mc18f0cf018" x="677.195455" y="230.16002" style="fill: #ff7f0e; stroke: #ff7f0e"/>
    </g>
   </g>
   <g id="patch_3">
    <path d="M 50.46 327.04 
L 50.46 12.96 
" style="fill: none; stroke: #000000; stroke-width: 0.8; stroke-linejoin: miter; stroke-linecap: square"/>
   </g>
   <g id="patch_4">
    <path d="M 50.46 327.04 
L 707.04 327.04 
" style="fill: none; stroke: #000000; stroke-width: 0.8; stroke-linejoin: miter; stroke-linecap: square"/>
   </g>
   <g id="legend_1">
    <g id="patch_5">
     <path d="M 58.86 57.7875 
L 197.86125 57.7875 
Q 200.26125 57.7875 200.26125 55.3875 
L 200.26125 21.36 
Q 200.26125 18.96 197.86125 18.96 
L 58.86 18.96 
Q 56.46 18.96 56.46 21.36 
L 56.46 55.3875 
Q 56.46 57.7875 58.86 57.7875 
z
" style="fill: #ffffff; opacity: 0.8; stroke: #cccccc; stroke-linejoin: miter"/>
    </g>
    <g id="line2d_20">
     <path d="M 61.26 28.678125 
L 73.26 28.678125 
L 85.26 28.678125 
" style="fill: none; stroke: #1f77b4; stroke-width: 1.5; stroke-linecap: square"/>
     <g>
      <use xlink:href="#m3a1a7040d6" x="73.26" y="28.678125" style="fill: #1f77b4; stroke: #1f77b4"/>
     </g>
    </g>
    <g id="text_18">
     <!-- Age range 0-9 -->
     <g transform="translate(94.86 32.878125)scale(0.12 -0.12)">
      <defs>
       <path id="DejaVuSans-41" d="M 2188 4044 
L 1331 1722 
L 3047 1722 
L 2188 4044 
z
M 1831 4666 
L 2547 4666 
L 4325 0 
L 3669 0 
L 3244 1197 
L 1141 1197 
L 716 0 
L 50 0 
L 1831 4666 
z
" transform="scale(0.015625)"/>
       <path id="DejaVuSans-67" d="M 2906 1791 
Q 2906 2416 2648 2759 
Q 2391 3103 1925 3103 
Q 1463 3103 1205 2759 
Q 947 2416 947 1791 
Q 947 1169 1205 825 
Q 1463 481 1925 481 
Q 2391 481 2648 825 
Q 2906 1169 2906 1791 
z
M 3481 434 
Q 3481 -459 3084 -895 
Q 2688 -1331 1869 -1331 
Q 1566 -1331 1297 -1286 
Q 1028 -1241 775 -1147 
L 775 -588 
Q 1028 -725 1275 -790 
Q 1522 -856 1778 -856 
Q 2344 -856 2625 -561 
Q 2906 -266 2906 331 
L 2906 616 
Q 2728 306 2450 153 
Q 2172 0 1784 0 
Q 1141 0 747 490 
Q 353 981 353 1791 
Q 353 2603 747 3093 
Q 1141 3584 1784 3584 
Q 2172 3584 2450 3431 
Q 2728 3278 2906 2969 
L 2906 3500 
L 3481 3500 
L 3481 434 
z
" transform="scale(0.015625)"/>
       <path id="DejaVuSans-72" d="M 2631 2963 
Q 2534 3019 2420 3045 
Q 2306 3072 2169 3072 
Q 1681 3072 1420 2755 
Q 1159 2438 1159 1844 
L 1159 0 
L 581 0 
L 581 3500 
L 1159 3500 
L 1159 2956 
Q 1341 3275 1631 3429 
Q 1922 3584 2338 3584 
Q 2397 3584 2469 3576 
Q 2541 3569 2628 3553 
L 2631 2963 
z
" transform="scale(0.015625)"/>
       <path id="DejaVuSans-2d" d="M 313 2009 
L 1997 2009 
L 1997 1497 
L 313 1497 
L 313 2009 
z
" transform="scale(0.015625)"/>
       <path id="DejaVuSans-39" d="M 703 97 
L 703 672 
Q 941 559 1184 500 
Q 1428 441 1663 441 
Q 2288 441 2617 861 
Q 2947 1281 2994 2138 
Q 2813 1869 2534 1725 
Q 2256 1581 1919 1581 
Q 1219 1581 811 2004 
Q 403 2428 403 3163 
Q 403 3881 828 4315 
Q 1253 4750 1959 4750 
Q 2769 4750 3195 4129 
Q 3622 3509 3622 2328 
Q 3622 1225 3098 567 
Q 2575 -91 1691 -91 
Q 1453 -91 1209 -44 
Q 966 3 703 97 
z
M 1959 2075 
Q 2384 2075 2632 2365 
Q 2881 2656 2881 3163 
Q 2881 3666 2632 3958 
Q 2384 4250 1959 4250 
Q 1534 4250 1286 3958 
Q 1038 3666 1038 3163 
Q 1038 2656 1286 2365 
Q 1534 2075 1959 2075 
z
" transform="scale(0.015625)"/>
      </defs>
      <use xlink:href="#DejaVuSans-41"/>
      <use xlink:href="#DejaVuSans-67" x="68.408203"/>
      <use xlink:href="#DejaVuSans-65" x="131.884766"/>
      <use xlink:href="#DejaVuSans-20" x="193.408203"/>
      <use xlink:href="#DejaVuSans-72" x="225.195312"/>
      <use xlink:href="#DejaVuSans-61" x="266.308594"/>
      <use xlink:href="#DejaVuSans-6e" x="327.587891"/>
      <use xlink:href="#DejaVuSans-67" x="390.966797"/>
      <use xlink:href="#DejaVuSans-65" x="454.443359"/>
      <use xlink:href="#DejaVuSans-20" x="515.966797"/>
      <use xlink:href="#DejaVuSans-30" x="547.753906"/>
      <use xlink:href="#DejaVuSans-2d" x="611.376953"/>
      <use xlink:href="#DejaVuSans-39" x="647.460938"/>
     </g>
    </g>
    <g id="line2d_21">
     <path d="M 61.26 46.291875 
L 73.26 46.291875 
L 85.26 46.291875 
" style="fill: none; stroke: #ff7f0e; stroke-width: 1.5; stroke-linecap: square"/>
     <g>
      <use xlink:href="#mc18f0cf018" x="73.26" y="46.291875" style="fill: #ff7f0e; stroke: #ff7f0e"/>
     </g>
    </g>
    <g id="text_19">
     <!-- Age range 10-19 -->
     <g transform="translate(94.86 50.491875)scale(0.12 -0.12)">
      <use xlink:href="#DejaVuSans-41"/>
      <use xlink:href="#DejaVuSans-67" x="68.408203"/>
      <use xlink:href="#DejaVuSans-65" x="131.884766"/>
      <use xlink:href="#DejaVuSans-20" x="193.408203"/>
      <use xlink:href="#DejaVuSans-72" x="225.195312"/>
      <use xlink:href="#DejaVuSans-61" x="266.308594"/>
      <use xlink:href="#DejaVuSans-6e" x="327.587891"/>
      <use xlink:href="#DejaVuSans-67" x="390.966797"/>
      <use xlink:href="#DejaVuSans-65" x="454.443359"/>
      <use xlink:href="#DejaVuSans-20" x="515.966797"/>
      <use xlink:href="#DejaVuSans-31" x="547.753906"/>
      <use xlink:href="#DejaVuSans-30" x="611.376953"/>
      <use xlink:href="#DejaVuSans-2d" x="675"/>
      <use xlink:href="#DejaVuSans-31" x="711.083984"/>
      <use xlink:href="#DejaVuSans-39" x="774.707031"/>
     </g>
    </g>
   </g>
  </g>
 </g>
 <defs>
  <clipPath id="p15349394bf">
   <rect x="50.46" y="12.96" width="656.58" height="314.08"/>
  </clipPath>
 </defs>
</svg>
