<?xml version="1.0" encoding="utf-8" standalone="no"?>
<!DOCTYPE svg PUBLIC "-//W3C//DTD SVG 1.1//EN"
  "http://www.w3.org/Graphics/SVG/1.1/DTD/svg11.dtd">
<svg xmlns:xlink="http://www.w3.org/1999/xlink" width="720pt" height="360pt" viewBox="0 0 720 360" xmlns="http://www.w3.org/2000/svg" version="1.1">
 <metadata>
  <rdf:RDF xmlns:dc="http://purl.org/dc/elements/1.1/" xmlns:cc="http://creativecommons.org/ns#" xmlns:rdf="http://www.w3.org/1999/02/22-rdf-syntax-ns#">
   <cc:Work>
    <dc:type rdf:resource="http://purl.org/dc/dcmitype/StillImage"/>
    <dc:date>2022-04-29T14:26:45.874360</dc:date>
    <dc:format>image/svg+xml</dc:format>
    <dc:creator>
     <cc:Agent>
      <dc:title>Matplotlib v3.5.1, https://matplotlib.org/</dc:title>
     </cc:Agent>
    </dc:creator>
   </cc:Work>
  </rdf:RDF>
 </metadata>
 <defs>
  <style type="text/css">*{stroke-linejoin: round; stroke-linecap: butt}</style>
 </defs>
 <g id="figure_1">
  <g id="patch_1">
   <path d="M 0 360 
L 720 360 
L 720 0 
L 0 0 
L 0 360 
z
" style="fill: none"/>
  </g>
  <g id="axes_1">
   <g id="patch_2">
    <path d="M 50.46 327.04 
L 707.04 327.04 
L 707.04 12.96 
L 50.46 12.96 
z
" style="fill: #ffffff"/>
   </g>
   <g id="matplotlib.axis_1">
    <g id="xtick_1">
     <g id="line2d_1">
      <defs>
       <path id="m652f450357" d="M 0 0 
L 0 3.5 
" style="stroke: #000000; stroke-width: 0.8"/>
      </defs>
      <g>
       <use xlink:href="#m652f450357" x="80.304545" y="327.04" style="stroke: #000000; stroke-width: 0.8"/>
      </g>
     </g>
     <g id="text_1">
      <!-- Dec 05 -->
      <g transform="translate(59.151733 343.158125)scale(0.12 -0.12)">
       <defs>
        <path id="DejaVuSans-44" d="M 1259 4147 
L 1259 519 
L 2022 519 
Q 2988 519 3436 956 
Q 3884 1394 3884 2338 
Q 3884 3275 3436 3711 
Q 2988 4147 2022 4147 
L 1259 4147 
z
M 628 4666 
L 1925 4666 
Q 3281 4666 3915 4102 
Q 4550 3538 4550 2338 
Q 4550 1131 3912 565 
Q 3275 0 1925 0 
L 628 0 
L 628 4666 
z
" transform="scale(0.015625)"/>
        <path id="DejaVuSans-65" d="M 3597 1894 
L 3597 1613 
L 953 1613 
Q 991 1019 1311 708 
Q 1631 397 2203 397 
Q 2534 397 2845 478 
Q 3156 559 3463 722 
L 3463 178 
Q 3153 47 2828 -22 
Q 2503 -91 2169 -91 
Q 1331 -91 842 396 
Q 353 884 353 1716 
Q 353 2575 817 3079 
Q 1281 3584 2069 3584 
Q 2775 3584 3186 3129 
Q 3597 2675 3597 1894 
z
M 3022 2063 
Q 3016 2534 2758 2815 
Q 2500 3097 2075 3097 
Q 1594 3097 1305 2825 
Q 1016 2553 972 2059 
L 3022 2063 
z
" transform="scale(0.015625)"/>
        <path id="DejaVuSans-63" d="M 3122 3366 
L 3122 2828 
Q 2878 2963 2633 3030 
Q 2388 3097 2138 3097 
Q 1578 3097 1268 2742 
Q 959 2388 959 1747 
Q 959 1106 1268 751 
Q 1578 397 2138 397 
Q 2388 397 2633 464 
Q 2878 531 3122 666 
L 3122 134 
Q 2881 22 2623 -34 
Q 2366 -91 2075 -91 
Q 1284 -91 818 406 
Q 353 903 353 1747 
Q 353 2603 823 3093 
Q 1294 3584 2113 3584 
Q 2378 3584 2631 3529 
Q 2884 3475 3122 3366 
z
" transform="scale(0.015625)"/>
        <path id="DejaVuSans-20" transform="scale(0.015625)"/>
        <path id="DejaVuSans-30" d="M 2034 4250 
Q 1547 4250 1301 3770 
Q 1056 3291 1056 2328 
Q 1056 1369 1301 889 
Q 1547 409 2034 409 
Q 2525 409 2770 889 
Q 3016 1369 3016 2328 
Q 3016 3291 2770 3770 
Q 2525 4250 2034 4250 
z
M 2034 4750 
Q 2819 4750 3233 4129 
Q 3647 3509 3647 2328 
Q 3647 1150 3233 529 
Q 2819 -91 2034 -91 
Q 1250 -91 836 529 
Q 422 1150 422 2328 
Q 422 3509 836 4129 
Q 1250 4750 2034 4750 
z
" transform="scale(0.015625)"/>
        <path id="DejaVuSans-35" d="M 691 4666 
L 3169 4666 
L 3169 4134 
L 1269 4134 
L 1269 2991 
Q 1406 3038 1543 3061 
Q 1681 3084 1819 3084 
Q 2600 3084 3056 2656 
Q 3513 2228 3513 1497 
Q 3513 744 3044 326 
Q 2575 -91 1722 -91 
Q 1428 -91 1123 -41 
Q 819 9 494 109 
L 494 744 
Q 775 591 1075 516 
Q 1375 441 1709 441 
Q 2250 441 2565 725 
Q 2881 1009 2881 1497 
Q 2881 1984 2565 2268 
Q 2250 2553 1709 2553 
Q 1456 2553 1204 2497 
Q 953 2441 691 2322 
L 691 4666 
z
" transform="scale(0.015625)"/>
       </defs>
       <use xlink:href="#DejaVuSans-44"/>
       <use xlink:href="#DejaVuSans-65" x="77.001953"/>
       <use xlink:href="#DejaVuSans-63" x="138.525391"/>
       <use xlink:href="#DejaVuSans-20" x="193.505859"/>
       <use xlink:href="#DejaVuSans-30" x="225.292969"/>
       <use xlink:href="#DejaVuSans-35" x="288.916016"/>
      </g>
     </g>
    </g>
    <g id="xtick_2">
     <g id="line2d_2">
      <g>
       <use xlink:href="#m652f450357" x="154.915909" y="327.04" style="stroke: #000000; stroke-width: 0.8"/>
      </g>
     </g>
     <g id="text_2">
      <!-- Dec 24 -->
      <g transform="translate(133.763097 343.158125)scale(0.12 -0.12)">
       <defs>
        <path id="DejaVuSans-32" d="M 1228 531 
L 3431 531 
L 3431 0 
L 469 0 
L 469 531 
Q 828 903 1448 1529 
Q 2069 2156 2228 2338 
Q 2531 2678 2651 2914 
Q 2772 3150 2772 3378 
Q 2772 3750 2511 3984 
Q 2250 4219 1831 4219 
Q 1534 4219 1204 4116 
Q 875 4013 500 3803 
L 500 4441 
Q 881 4594 1212 4672 
Q 1544 4750 1819 4750 
Q 2544 4750 2975 4387 
Q 3406 4025 3406 3419 
Q 3406 3131 3298 2873 
Q 3191 2616 2906 2266 
Q 2828 2175 2409 1742 
Q 1991 1309 1228 531 
z
" transform="scale(0.015625)"/>
        <path id="DejaVuSans-34" d="M 2419 4116 
L 825 1625 
L 2419 1625 
L 2419 4116 
z
M 2253 4666 
L 3047 4666 
L 3047 1625 
L 3713 1625 
L 3713 1100 
L 3047 1100 
L 3047 0 
L 2419 0 
L 2419 1100 
L 313 1100 
L 313 1709 
L 2253 4666 
z
" transform="scale(0.015625)"/>
       </defs>
       <use xlink:href="#DejaVuSans-44"/>
       <use xlink:href="#DejaVuSans-65" x="77.001953"/>
       <use xlink:href="#DejaVuSans-63" x="138.525391"/>
       <use xlink:href="#DejaVuSans-20" x="193.505859"/>
       <use xlink:href="#DejaVuSans-32" x="225.292969"/>
       <use xlink:href="#DejaVuSans-34" x="288.916016"/>
      </g>
     </g>
    </g>
    <g id="xtick_3">
     <g id="line2d_3">
      <g>
       <use xlink:href="#m652f450357" x="229.527273" y="327.04" style="stroke: #000000; stroke-width: 0.8"/>
      </g>
     </g>
     <g id="text_3">
      <!-- Jan 10 -->
      <g transform="translate(210.736023 343.158125)scale(0.12 -0.12)">
       <defs>
        <path id="DejaVuSans-4a" d="M 628 4666 
L 1259 4666 
L 1259 325 
Q 1259 -519 939 -900 
Q 619 -1281 -91 -1281 
L -331 -1281 
L -331 -750 
L -134 -750 
Q 284 -750 456 -515 
Q 628 -281 628 325 
L 628 4666 
z
" transform="scale(0.015625)"/>
        <path id="DejaVuSans-61" d="M 2194 1759 
Q 1497 1759 1228 1600 
Q 959 1441 959 1056 
Q 959 750 1161 570 
Q 1363 391 1709 391 
Q 2188 391 2477 730 
Q 2766 1069 2766 1631 
L 2766 1759 
L 2194 1759 
z
M 3341 1997 
L 3341 0 
L 2766 0 
L 2766 531 
Q 2569 213 2275 61 
Q 1981 -91 1556 -91 
Q 1019 -91 701 211 
Q 384 513 384 1019 
Q 384 1609 779 1909 
Q 1175 2209 1959 2209 
L 2766 2209 
L 2766 2266 
Q 2766 2663 2505 2880 
Q 2244 3097 1772 3097 
Q 1472 3097 1187 3025 
Q 903 2953 641 2809 
L 641 3341 
Q 956 3463 1253 3523 
Q 1550 3584 1831 3584 
Q 2591 3584 2966 3190 
Q 3341 2797 3341 1997 
z
" transform="scale(0.015625)"/>
        <path id="DejaVuSans-6e" d="M 3513 2113 
L 3513 0 
L 2938 0 
L 2938 2094 
Q 2938 2591 2744 2837 
Q 2550 3084 2163 3084 
Q 1697 3084 1428 2787 
Q 1159 2491 1159 1978 
L 1159 0 
L 581 0 
L 581 3500 
L 1159 3500 
L 1159 2956 
Q 1366 3272 1645 3428 
Q 1925 3584 2291 3584 
Q 2894 3584 3203 3211 
Q 3513 2838 3513 2113 
z
" transform="scale(0.015625)"/>
        <path id="DejaVuSans-31" d="M 794 531 
L 1825 531 
L 1825 4091 
L 703 3866 
L 703 4441 
L 1819 4666 
L 2450 4666 
L 2450 531 
L 3481 531 
L 3481 0 
L 794 0 
L 794 531 
z
" transform="scale(0.015625)"/>
       </defs>
       <use xlink:href="#DejaVuSans-4a"/>
       <use xlink:href="#DejaVuSans-61" x="29.492188"/>
       <use xlink:href="#DejaVuSans-6e" x="90.771484"/>
       <use xlink:href="#DejaVuSans-20" x="154.150391"/>
       <use xlink:href="#DejaVuSans-31" x="185.9375"/>
       <use xlink:href="#DejaVuSans-30" x="249.560547"/>
      </g>
     </g>
    </g>
    <g id="xtick_4">
     <g id="line2d_4">
      <g>
       <use xlink:href="#m652f450357" x="304.138636" y="327.04" style="stroke: #000000; stroke-width: 0.8"/>
      </g>
     </g>
     <g id="text_4">
      <!-- Jan 29 -->
      <g transform="translate(285.347386 343.158125)scale(0.12 -0.12)">
       <defs>
        <path id="DejaVuSans-39" d="M 703 97 
L 703 672 
Q 941 559 1184 500 
Q 1428 441 1663 441 
Q 2288 441 2617 861 
Q 2947 1281 2994 2138 
Q 2813 1869 2534 1725 
Q 2256 1581 1919 1581 
Q 1219 1581 811 2004 
Q 403 2428 403 3163 
Q 403 3881 828 4315 
Q 1253 4750 1959 4750 
Q 2769 4750 3195 4129 
Q 3622 3509 3622 2328 
Q 3622 1225 3098 567 
Q 2575 -91 1691 -91 
Q 1453 -91 1209 -44 
Q 966 3 703 97 
z
M 1959 2075 
Q 2384 2075 2632 2365 
Q 2881 2656 2881 3163 
Q 2881 3666 2632 3958 
Q 2384 4250 1959 4250 
Q 1534 4250 1286 3958 
Q 1038 3666 1038 3163 
Q 1038 2656 1286 2365 
Q 1534 2075 1959 2075 
z
" transform="scale(0.015625)"/>
       </defs>
       <use xlink:href="#DejaVuSans-4a"/>
       <use xlink:href="#DejaVuSans-61" x="29.492188"/>
       <use xlink:href="#DejaVuSans-6e" x="90.771484"/>
       <use xlink:href="#DejaVuSans-20" x="154.150391"/>
       <use xlink:href="#DejaVuSans-32" x="185.9375"/>
       <use xlink:href="#DejaVuSans-39" x="249.560547"/>
      </g>
     </g>
    </g>
    <g id="xtick_5">
     <g id="line2d_5">
      <g>
       <use xlink:href="#m652f450357" x="378.75" y="327.04" style="stroke: #000000; stroke-width: 0.8"/>
      </g>
     </g>
     <g id="text_5">
      <!-- Feb 15 -->
      <g transform="translate(358.58625 343.158125)scale(0.12 -0.12)">
       <defs>
        <path id="DejaVuSans-46" d="M 628 4666 
L 3309 4666 
L 3309 4134 
L 1259 4134 
L 1259 2759 
L 3109 2759 
L 3109 2228 
L 1259 2228 
L 1259 0 
L 628 0 
L 628 4666 
z
" transform="scale(0.015625)"/>
        <path id="DejaVuSans-62" d="M 3116 1747 
Q 3116 2381 2855 2742 
Q 2594 3103 2138 3103 
Q 1681 3103 1420 2742 
Q 1159 2381 1159 1747 
Q 1159 1113 1420 752 
Q 1681 391 2138 391 
Q 2594 391 2855 752 
Q 3116 1113 3116 1747 
z
M 1159 2969 
Q 1341 3281 1617 3432 
Q 1894 3584 2278 3584 
Q 2916 3584 3314 3078 
Q 3713 2572 3713 1747 
Q 3713 922 3314 415 
Q 2916 -91 2278 -91 
Q 1894 -91 1617 61 
Q 1341 213 1159 525 
L 1159 0 
L 581 0 
L 581 4863 
L 1159 4863 
L 1159 2969 
z
" transform="scale(0.015625)"/>
       </defs>
       <use xlink:href="#DejaVuSans-46"/>
       <use xlink:href="#DejaVuSans-65" x="52.019531"/>
       <use xlink:href="#DejaVuSans-62" x="113.542969"/>
       <use xlink:href="#DejaVuSans-20" x="177.019531"/>
       <use xlink:href="#DejaVuSans-31" x="208.806641"/>
       <use xlink:href="#DejaVuSans-35" x="272.429688"/>
      </g>
     </g>
    </g>
    <g id="xtick_6">
     <g id="line2d_6">
      <g>
       <use xlink:href="#m652f450357" x="453.361364" y="327.04" style="stroke: #000000; stroke-width: 0.8"/>
      </g>
     </g>
     <g id="text_6">
      <!-- Mar 06 -->
      <g transform="translate(432.499176 343.158125)scale(0.12 -0.12)">
       <defs>
        <path id="DejaVuSans-4d" d="M 628 4666 
L 1569 4666 
L 2759 1491 
L 3956 4666 
L 4897 4666 
L 4897 0 
L 4281 0 
L 4281 4097 
L 3078 897 
L 2444 897 
L 1241 4097 
L 1241 0 
L 628 0 
L 628 4666 
z
" transform="scale(0.015625)"/>
        <path id="DejaVuSans-72" d="M 2631 2963 
Q 2534 3019 2420 3045 
Q 2306 3072 2169 3072 
Q 1681 3072 1420 2755 
Q 1159 2438 1159 1844 
L 1159 0 
L 581 0 
L 581 3500 
L 1159 3500 
L 1159 2956 
Q 1341 3275 1631 3429 
Q 1922 3584 2338 3584 
Q 2397 3584 2469 3576 
Q 2541 3569 2628 3553 
L 2631 2963 
z
" transform="scale(0.015625)"/>
        <path id="DejaVuSans-36" d="M 2113 2584 
Q 1688 2584 1439 2293 
Q 1191 2003 1191 1497 
Q 1191 994 1439 701 
Q 1688 409 2113 409 
Q 2538 409 2786 701 
Q 3034 994 3034 1497 
Q 3034 2003 2786 2293 
Q 2538 2584 2113 2584 
z
M 3366 4563 
L 3366 3988 
Q 3128 4100 2886 4159 
Q 2644 4219 2406 4219 
Q 1781 4219 1451 3797 
Q 1122 3375 1075 2522 
Q 1259 2794 1537 2939 
Q 1816 3084 2150 3084 
Q 2853 3084 3261 2657 
Q 3669 2231 3669 1497 
Q 3669 778 3244 343 
Q 2819 -91 2113 -91 
Q 1303 -91 875 529 
Q 447 1150 447 2328 
Q 447 3434 972 4092 
Q 1497 4750 2381 4750 
Q 2619 4750 2861 4703 
Q 3103 4656 3366 4563 
z
" transform="scale(0.015625)"/>
       </defs>
       <use xlink:href="#DejaVuSans-4d"/>
       <use xlink:href="#DejaVuSans-61" x="86.279297"/>
       <use xlink:href="#DejaVuSans-72" x="147.558594"/>
       <use xlink:href="#DejaVuSans-20" x="188.671875"/>
       <use xlink:href="#DejaVuSans-30" x="220.458984"/>
       <use xlink:href="#DejaVuSans-36" x="284.082031"/>
      </g>
     </g>
    </g>
    <g id="xtick_7">
     <g id="line2d_7">
      <g>
       <use xlink:href="#m652f450357" x="527.972727" y="327.04" style="stroke: #000000; stroke-width: 0.8"/>
      </g>
     </g>
     <g id="text_7">
      <!-- Mar 24 -->
      <g transform="translate(507.11054 343.158125)scale(0.12 -0.12)">
       <use xlink:href="#DejaVuSans-4d"/>
       <use xlink:href="#DejaVuSans-61" x="86.279297"/>
       <use xlink:href="#DejaVuSans-72" x="147.558594"/>
       <use xlink:href="#DejaVuSans-20" x="188.671875"/>
       <use xlink:href="#DejaVuSans-32" x="220.458984"/>
       <use xlink:href="#DejaVuSans-34" x="284.082031"/>
      </g>
     </g>
    </g>
    <g id="xtick_8">
     <g id="line2d_8">
      <g>
       <use xlink:href="#m652f450357" x="602.584091" y="327.04" style="stroke: #000000; stroke-width: 0.8"/>
      </g>
     </g>
     <g id="text_8">
      <!-- Apr 11 -->
      <g transform="translate(582.662216 343.158125)scale(0.12 -0.12)">
       <defs>
        <path id="DejaVuSans-41" d="M 2188 4044 
L 1331 1722 
L 3047 1722 
L 2188 4044 
z
M 1831 4666 
L 2547 4666 
L 4325 0 
L 3669 0 
L 3244 1197 
L 1141 1197 
L 716 0 
L 50 0 
L 1831 4666 
z
" transform="scale(0.015625)"/>
        <path id="DejaVuSans-70" d="M 1159 525 
L 1159 -1331 
L 581 -1331 
L 581 3500 
L 1159 3500 
L 1159 2969 
Q 1341 3281 1617 3432 
Q 1894 3584 2278 3584 
Q 2916 3584 3314 3078 
Q 3713 2572 3713 1747 
Q 3713 922 3314 415 
Q 2916 -91 2278 -91 
Q 1894 -91 1617 61 
Q 1341 213 1159 525 
z
M 3116 1747 
Q 3116 2381 2855 2742 
Q 2594 3103 2138 3103 
Q 1681 3103 1420 2742 
Q 1159 2381 1159 1747 
Q 1159 1113 1420 752 
Q 1681 391 2138 391 
Q 2594 391 2855 752 
Q 3116 1113 3116 1747 
z
" transform="scale(0.015625)"/>
       </defs>
       <use xlink:href="#DejaVuSans-41"/>
       <use xlink:href="#DejaVuSans-70" x="68.408203"/>
       <use xlink:href="#DejaVuSans-72" x="131.884766"/>
       <use xlink:href="#DejaVuSans-20" x="172.998047"/>
       <use xlink:href="#DejaVuSans-31" x="204.785156"/>
       <use xlink:href="#DejaVuSans-31" x="268.408203"/>
      </g>
     </g>
    </g>
    <g id="xtick_9">
     <g id="line2d_9">
      <g>
       <use xlink:href="#m652f450357" x="677.195455" y="327.04" style="stroke: #000000; stroke-width: 0.8"/>
      </g>
     </g>
     <g id="text_9">
      <!-- Apr 29 -->
      <g transform="translate(657.27358 343.158125)scale(0.12 -0.12)">
       <use xlink:href="#DejaVuSans-41"/>
       <use xlink:href="#DejaVuSans-70" x="68.408203"/>
       <use xlink:href="#DejaVuSans-72" x="131.884766"/>
       <use xlink:href="#DejaVuSans-20" x="172.998047"/>
       <use xlink:href="#DejaVuSans-32" x="204.785156"/>
       <use xlink:href="#DejaVuSans-39" x="268.408203"/>
      </g>
     </g>
    </g>
   </g>
   <g id="matplotlib.axis_2">
    <g id="ytick_1">
     <g id="line2d_10">
      <defs>
       <path id="m74ae375bb6" d="M 0 0 
L -3.5 0 
" style="stroke: #000000; stroke-width: 0.8"/>
      </defs>
      <g>
       <use xlink:href="#m74ae375bb6" x="50.46" y="327.04" style="stroke: #000000; stroke-width: 0.8"/>
      </g>
     </g>
     <g id="text_10">
      <!-- 0 -->
      <g transform="translate(35.825 331.599063)scale(0.12 -0.12)">
       <use xlink:href="#DejaVuSans-30"/>
      </g>
     </g>
    </g>
    <g id="ytick_2">
     <g id="line2d_11">
      <g>
       <use xlink:href="#m74ae375bb6" x="50.46" y="292.117194" style="stroke: #000000; stroke-width: 0.8"/>
      </g>
     </g>
     <g id="text_11">
      <!-- 1000 -->
      <g transform="translate(12.92 296.676257)scale(0.12 -0.12)">
       <use xlink:href="#DejaVuSans-31"/>
       <use xlink:href="#DejaVuSans-30" x="63.623047"/>
       <use xlink:href="#DejaVuSans-30" x="127.246094"/>
       <use xlink:href="#DejaVuSans-30" x="190.869141"/>
      </g>
     </g>
    </g>
    <g id="ytick_3">
     <g id="line2d_12">
      <g>
       <use xlink:href="#m74ae375bb6" x="50.46" y="257.194388" style="stroke: #000000; stroke-width: 0.8"/>
      </g>
     </g>
     <g id="text_12">
      <!-- 2000 -->
      <g transform="translate(12.92 261.753451)scale(0.12 -0.12)">
       <use xlink:href="#DejaVuSans-32"/>
       <use xlink:href="#DejaVuSans-30" x="63.623047"/>
       <use xlink:href="#DejaVuSans-30" x="127.246094"/>
       <use xlink:href="#DejaVuSans-30" x="190.869141"/>
      </g>
     </g>
    </g>
    <g id="ytick_4">
     <g id="line2d_13">
      <g>
       <use xlink:href="#m74ae375bb6" x="50.46" y="222.271583" style="stroke: #000000; stroke-width: 0.8"/>
      </g>
     </g>
     <g id="text_13">
      <!-- 3000 -->
      <g transform="translate(12.92 226.830645)scale(0.12 -0.12)">
       <defs>
        <path id="DejaVuSans-33" d="M 2597 2516 
Q 3050 2419 3304 2112 
Q 3559 1806 3559 1356 
Q 3559 666 3084 287 
Q 2609 -91 1734 -91 
Q 1441 -91 1130 -33 
Q 819 25 488 141 
L 488 750 
Q 750 597 1062 519 
Q 1375 441 1716 441 
Q 2309 441 2620 675 
Q 2931 909 2931 1356 
Q 2931 1769 2642 2001 
Q 2353 2234 1838 2234 
L 1294 2234 
L 1294 2753 
L 1863 2753 
Q 2328 2753 2575 2939 
Q 2822 3125 2822 3475 
Q 2822 3834 2567 4026 
Q 2313 4219 1838 4219 
Q 1578 4219 1281 4162 
Q 984 4106 628 3988 
L 628 4550 
Q 988 4650 1302 4700 
Q 1616 4750 1894 4750 
Q 2613 4750 3031 4423 
Q 3450 4097 3450 3541 
Q 3450 3153 3228 2886 
Q 3006 2619 2597 2516 
z
" transform="scale(0.015625)"/>
       </defs>
       <use xlink:href="#DejaVuSans-33"/>
       <use xlink:href="#DejaVuSans-30" x="63.623047"/>
       <use xlink:href="#DejaVuSans-30" x="127.246094"/>
       <use xlink:href="#DejaVuSans-30" x="190.869141"/>
      </g>
     </g>
    </g>
    <g id="ytick_5">
     <g id="line2d_14">
      <g>
       <use xlink:href="#m74ae375bb6" x="50.46" y="187.348777" style="stroke: #000000; stroke-width: 0.8"/>
      </g>
     </g>
     <g id="text_14">
      <!-- 4000 -->
      <g transform="translate(12.92 191.907839)scale(0.12 -0.12)">
       <use xlink:href="#DejaVuSans-34"/>
       <use xlink:href="#DejaVuSans-30" x="63.623047"/>
       <use xlink:href="#DejaVuSans-30" x="127.246094"/>
       <use xlink:href="#DejaVuSans-30" x="190.869141"/>
      </g>
     </g>
    </g>
    <g id="ytick_6">
     <g id="line2d_15">
      <g>
       <use xlink:href="#m74ae375bb6" x="50.46" y="152.425971" style="stroke: #000000; stroke-width: 0.8"/>
      </g>
     </g>
     <g id="text_15">
      <!-- 5000 -->
      <g transform="translate(12.92 156.985034)scale(0.12 -0.12)">
       <use xlink:href="#DejaVuSans-35"/>
       <use xlink:href="#DejaVuSans-30" x="63.623047"/>
       <use xlink:href="#DejaVuSans-30" x="127.246094"/>
       <use xlink:href="#DejaVuSans-30" x="190.869141"/>
      </g>
     </g>
    </g>
    <g id="ytick_7">
     <g id="line2d_16">
      <g>
       <use xlink:href="#m74ae375bb6" x="50.46" y="117.503165" style="stroke: #000000; stroke-width: 0.8"/>
      </g>
     </g>
     <g id="text_16">
      <!-- 6000 -->
      <g transform="translate(12.92 122.062228)scale(0.12 -0.12)">
       <use xlink:href="#DejaVuSans-36"/>
       <use xlink:href="#DejaVuSans-30" x="63.623047"/>
       <use xlink:href="#DejaVuSans-30" x="127.246094"/>
       <use xlink:href="#DejaVuSans-30" x="190.869141"/>
      </g>
     </g>
    </g>
    <g id="ytick_8">
     <g id="line2d_17">
      <g>
       <use xlink:href="#m74ae375bb6" x="50.46" y="82.580359" style="stroke: #000000; stroke-width: 0.8"/>
      </g>
     </g>
     <g id="text_17">
      <!-- 7000 -->
      <g transform="translate(12.92 87.139422)scale(0.12 -0.12)">
       <defs>
        <path id="DejaVuSans-37" d="M 525 4666 
L 3525 4666 
L 3525 4397 
L 1831 0 
L 1172 0 
L 2766 4134 
L 525 4134 
L 525 4666 
z
" transform="scale(0.015625)"/>
       </defs>
       <use xlink:href="#DejaVuSans-37"/>
       <use xlink:href="#DejaVuSans-30" x="63.623047"/>
       <use xlink:href="#DejaVuSans-30" x="127.246094"/>
       <use xlink:href="#DejaVuSans-30" x="190.869141"/>
      </g>
     </g>
    </g>
    <g id="ytick_9">
     <g id="line2d_18">
      <g>
       <use xlink:href="#m74ae375bb6" x="50.46" y="47.657554" style="stroke: #000000; stroke-width: 0.8"/>
      </g>
     </g>
     <g id="text_18">
      <!-- 8000 -->
      <g transform="translate(12.92 52.216616)scale(0.12 -0.12)">
       <defs>
        <path id="DejaVuSans-38" d="M 2034 2216 
Q 1584 2216 1326 1975 
Q 1069 1734 1069 1313 
Q 1069 891 1326 650 
Q 1584 409 2034 409 
Q 2484 409 2743 651 
Q 3003 894 3003 1313 
Q 3003 1734 2745 1975 
Q 2488 2216 2034 2216 
z
M 1403 2484 
Q 997 2584 770 2862 
Q 544 3141 544 3541 
Q 544 4100 942 4425 
Q 1341 4750 2034 4750 
Q 2731 4750 3128 4425 
Q 3525 4100 3525 3541 
Q 3525 3141 3298 2862 
Q 3072 2584 2669 2484 
Q 3125 2378 3379 2068 
Q 3634 1759 3634 1313 
Q 3634 634 3220 271 
Q 2806 -91 2034 -91 
Q 1263 -91 848 271 
Q 434 634 434 1313 
Q 434 1759 690 2068 
Q 947 2378 1403 2484 
z
M 1172 3481 
Q 1172 3119 1398 2916 
Q 1625 2713 2034 2713 
Q 2441 2713 2670 2916 
Q 2900 3119 2900 3481 
Q 2900 3844 2670 4047 
Q 2441 4250 2034 4250 
Q 1625 4250 1398 4047 
Q 1172 3844 1172 3481 
z
" transform="scale(0.015625)"/>
       </defs>
       <use xlink:href="#DejaVuSans-38"/>
       <use xlink:href="#DejaVuSans-30" x="63.623047"/>
       <use xlink:href="#DejaVuSans-30" x="127.246094"/>
       <use xlink:href="#DejaVuSans-30" x="190.869141"/>
      </g>
     </g>
    </g>
   </g>
   <g id="line2d_19">
    <path d="M 80.304545 325.258937 
L 89.082353 325.782779 
L 97.86016 324.665249 
L 102.249064 324.350944 
L 106.637968 325.189091 
L 115.415775 324.770018 
L 119.804679 324.700172 
L 124.193583 323.862025 
L 128.582487 323.373105 
L 132.97139 323.442951 
L 137.360294 323.023877 
L 141.749198 322.011116 
L 146.138102 321.31266 
L 150.527005 319.845902 
L 154.915909 318.623604 
L 159.304813 318.937909 
L 163.693717 319.880825 
L 168.08262 319.252214 
L 172.471524 319.706211 
L 176.860428 318.518835 
L 181.249332 308.530913 
L 185.638235 293.129956 
L 190.027139 293.618875 
L 194.416043 292.885496 
L 198.804947 291.034587 
L 203.19385 284.713559 
L 207.582754 270.919051 
L 211.971658 261.350202 
L 216.360561 268.125227 
L 220.749465 259.010374 
L 225.138369 263.585262 
L 229.527273 287.123233 
L 233.916176 264.702792 
L 238.30508 253.457648 
L 242.693984 243.15542 
L 247.082888 263.655107 
L 251.471791 239.767908 
L 255.860695 258.172227 
L 260.249599 265.645707 
L 264.638503 271.40797 
L 269.027406 259.359602 
L 273.41631 263.899567 
L 277.805214 253.35288 
L 282.194118 292.361654 
L 286.583021 284.015103 
L 290.971925 283.805566 
L 295.360829 291.383815 
L 299.749733 309.194446 
L 304.138636 300.952664 
L 308.52754 300.324054 
L 312.916444 309.334137 
L 317.305348 308.181685 
L 321.694251 310.24213 
L 326.083155 309.124601 
L 330.472059 314.118562 
L 334.860963 319.391906 
L 339.249866 319.810979 
L 343.63877 315.620243 
L 348.027674 315.655165 
L 352.416578 307.273692 
L 356.805481 309.508751 
L 361.194385 314.956709 
L 365.583289 314.782095 
L 369.972193 320.369744 
L 374.361096 321.906348 
L 378.75 322.220653 
L 383.138904 317.436228 
L 387.527807 255.867322 
L 391.916711 269.626907 
L 396.305615 287.297847 
L 400.694519 289.148756 
L 405.083422 256.565778 
L 409.472326 260.966051 
L 413.86123 272.874728 
L 418.250134 284.084949 
L 422.639037 286.21524 
L 427.027941 288.939219 
L 431.416845 261.350202 
L 435.805749 259.778676 
L 440.194652 267.880767 
L 444.583556 281.570507 
L 448.97246 273.852567 
L 453.361364 278.113149 
L 457.750267 245.600017 
L 462.139171 253.702108 
L 466.528075 249.441526 
L 470.916979 267.636307 
L 475.305882 268.998297 
L 479.694786 259.464371 
L 484.08369 280.24344 
L 488.472594 267.531539 
L 492.861497 158.712076 
L 497.250401 235.716863 
L 501.639305 241.968045 
L 506.028209 241.793431 
L 510.417112 249.546294 
L 514.806016 253.632262 
L 519.19492 220.141291 
L 523.583824 210.53752 
L 527.972727 222.166814 
L 532.361631 230.932438 
L 536.750535 237.497926 
L 541.139439 247.206466 
L 545.528342 222.166814 
L 549.917246 218.325306 
L 554.30615 241.793431 
L 558.695053 227.789386 
L 563.083957 249.685985 
L 567.472861 257.438848 
L 571.861765 260.581901 
L 576.250668 238.859915 
L 580.639572 224.960639 
L 585.028476 243.050652 
L 589.41738 256.635624 
L 593.806283 261.07082 
L 598.195187 270.150749 
L 602.584091 276.681314 
L 606.972995 269.871367 
L 611.361898 264.877406 
L 615.750802 268.928451 
L 620.139706 277.37977 
L 624.52861 281.745121 
L 628.917513 291.593352 
L 633.306417 287.402615 
L 637.695321 292.291808 
L 642.084225 279.544984 
L 646.473128 275.808244 
L 650.862032 293.06011 
L 655.250936 296.79685 
L 659.63984 303.536952 
L 664.028743 297.285769 
L 668.417647 288.031226 
L 672.806551 287.297847 
L 677.195455 294.282408 
L 677.195455 294.282408 
" clip-path="url(#p371c51ed9f)" style="fill: none; stroke: #1f77b4; stroke-width: 1.5; stroke-linecap: square"/>
    <defs>
     <path id="mf803a1769a" d="M 0 3 
C 0.795609 3 1.55874 2.683901 2.12132 2.12132 
C 2.683901 1.55874 3 0.795609 3 0 
C 3 -0.795609 2.683901 -1.55874 2.12132 -2.12132 
C 1.55874 -2.683901 0.795609 -3 0 -3 
C -0.795609 -3 -1.55874 -2.683901 -2.12132 -2.12132 
C -2.683901 -1.55874 -3 -0.795609 -3 0 
C -3 0.795609 -2.683901 1.55874 -2.12132 2.12132 
C -1.55874 2.683901 -0.795609 3 0 3 
z
" style="stroke: #1f77b4"/>
    </defs>
    <g clip-path="url(#p371c51ed9f)">
     <use xlink:href="#mf803a1769a" x="80.304545" y="325.258937" style="fill: #1f77b4; stroke: #1f77b4"/>
     <use xlink:href="#mf803a1769a" x="84.693449" y="325.573242" style="fill: #1f77b4; stroke: #1f77b4"/>
     <use xlink:href="#mf803a1769a" x="89.082353" y="325.782779" style="fill: #1f77b4; stroke: #1f77b4"/>
     <use xlink:href="#mf803a1769a" x="93.471257" y="325.258937" style="fill: #1f77b4; stroke: #1f77b4"/>
     <use xlink:href="#mf803a1769a" x="97.86016" y="324.665249" style="fill: #1f77b4; stroke: #1f77b4"/>
     <use xlink:href="#mf803a1769a" x="102.249064" y="324.350944" style="fill: #1f77b4; stroke: #1f77b4"/>
     <use xlink:href="#mf803a1769a" x="106.637968" y="325.189091" style="fill: #1f77b4; stroke: #1f77b4"/>
     <use xlink:href="#mf803a1769a" x="111.026872" y="324.979554" style="fill: #1f77b4; stroke: #1f77b4"/>
     <use xlink:href="#mf803a1769a" x="115.415775" y="324.770018" style="fill: #1f77b4; stroke: #1f77b4"/>
     <use xlink:href="#mf803a1769a" x="119.804679" y="324.700172" style="fill: #1f77b4; stroke: #1f77b4"/>
     <use xlink:href="#mf803a1769a" x="124.193583" y="323.862025" style="fill: #1f77b4; stroke: #1f77b4"/>
     <use xlink:href="#mf803a1769a" x="128.582487" y="323.373105" style="fill: #1f77b4; stroke: #1f77b4"/>
     <use xlink:href="#mf803a1769a" x="132.97139" y="323.442951" style="fill: #1f77b4; stroke: #1f77b4"/>
     <use xlink:href="#mf803a1769a" x="137.360294" y="323.023877" style="fill: #1f77b4; stroke: #1f77b4"/>
     <use xlink:href="#mf803a1769a" x="141.749198" y="322.011116" style="fill: #1f77b4; stroke: #1f77b4"/>
     <use xlink:href="#mf803a1769a" x="146.138102" y="321.31266" style="fill: #1f77b4; stroke: #1f77b4"/>
     <use xlink:href="#mf803a1769a" x="150.527005" y="319.845902" style="fill: #1f77b4; stroke: #1f77b4"/>
     <use xlink:href="#mf803a1769a" x="154.915909" y="318.623604" style="fill: #1f77b4; stroke: #1f77b4"/>
     <use xlink:href="#mf803a1769a" x="159.304813" y="318.937909" style="fill: #1f77b4; stroke: #1f77b4"/>
     <use xlink:href="#mf803a1769a" x="163.693717" y="319.880825" style="fill: #1f77b4; stroke: #1f77b4"/>
     <use xlink:href="#mf803a1769a" x="168.08262" y="319.252214" style="fill: #1f77b4; stroke: #1f77b4"/>
     <use xlink:href="#mf803a1769a" x="172.471524" y="319.706211" style="fill: #1f77b4; stroke: #1f77b4"/>
     <use xlink:href="#mf803a1769a" x="176.860428" y="318.518835" style="fill: #1f77b4; stroke: #1f77b4"/>
     <use xlink:href="#mf803a1769a" x="181.249332" y="308.530913" style="fill: #1f77b4; stroke: #1f77b4"/>
     <use xlink:href="#mf803a1769a" x="185.638235" y="293.129956" style="fill: #1f77b4; stroke: #1f77b4"/>
     <use xlink:href="#mf803a1769a" x="190.027139" y="293.618875" style="fill: #1f77b4; stroke: #1f77b4"/>
     <use xlink:href="#mf803a1769a" x="194.416043" y="292.885496" style="fill: #1f77b4; stroke: #1f77b4"/>
     <use xlink:href="#mf803a1769a" x="198.804947" y="291.034587" style="fill: #1f77b4; stroke: #1f77b4"/>
     <use xlink:href="#mf803a1769a" x="203.19385" y="284.713559" style="fill: #1f77b4; stroke: #1f77b4"/>
     <use xlink:href="#mf803a1769a" x="207.582754" y="270.919051" style="fill: #1f77b4; stroke: #1f77b4"/>
     <use xlink:href="#mf803a1769a" x="211.971658" y="261.350202" style="fill: #1f77b4; stroke: #1f77b4"/>
     <use xlink:href="#mf803a1769a" x="216.360561" y="268.125227" style="fill: #1f77b4; stroke: #1f77b4"/>
     <use xlink:href="#mf803a1769a" x="220.749465" y="259.010374" style="fill: #1f77b4; stroke: #1f77b4"/>
     <use xlink:href="#mf803a1769a" x="225.138369" y="263.585262" style="fill: #1f77b4; stroke: #1f77b4"/>
     <use xlink:href="#mf803a1769a" x="229.527273" y="287.123233" style="fill: #1f77b4; stroke: #1f77b4"/>
     <use xlink:href="#mf803a1769a" x="233.916176" y="264.702792" style="fill: #1f77b4; stroke: #1f77b4"/>
     <use xlink:href="#mf803a1769a" x="238.30508" y="253.457648" style="fill: #1f77b4; stroke: #1f77b4"/>
     <use xlink:href="#mf803a1769a" x="242.693984" y="243.15542" style="fill: #1f77b4; stroke: #1f77b4"/>
     <use xlink:href="#mf803a1769a" x="247.082888" y="263.655107" style="fill: #1f77b4; stroke: #1f77b4"/>
     <use xlink:href="#mf803a1769a" x="251.471791" y="239.767908" style="fill: #1f77b4; stroke: #1f77b4"/>
     <use xlink:href="#mf803a1769a" x="255.860695" y="258.172227" style="fill: #1f77b4; stroke: #1f77b4"/>
     <use xlink:href="#mf803a1769a" x="260.249599" y="265.645707" style="fill: #1f77b4; stroke: #1f77b4"/>
     <use xlink:href="#mf803a1769a" x="264.638503" y="271.40797" style="fill: #1f77b4; stroke: #1f77b4"/>
     <use xlink:href="#mf803a1769a" x="269.027406" y="259.359602" style="fill: #1f77b4; stroke: #1f77b4"/>
     <use xlink:href="#mf803a1769a" x="273.41631" y="263.899567" style="fill: #1f77b4; stroke: #1f77b4"/>
     <use xlink:href="#mf803a1769a" x="277.805214" y="253.35288" style="fill: #1f77b4; stroke: #1f77b4"/>
     <use xlink:href="#mf803a1769a" x="282.194118" y="292.361654" style="fill: #1f77b4; stroke: #1f77b4"/>
     <use xlink:href="#mf803a1769a" x="286.583021" y="284.015103" style="fill: #1f77b4; stroke: #1f77b4"/>
     <use xlink:href="#mf803a1769a" x="290.971925" y="283.805566" style="fill: #1f77b4; stroke: #1f77b4"/>
     <use xlink:href="#mf803a1769a" x="295.360829" y="291.383815" style="fill: #1f77b4; stroke: #1f77b4"/>
     <use xlink:href="#mf803a1769a" x="299.749733" y="309.194446" style="fill: #1f77b4; stroke: #1f77b4"/>
     <use xlink:href="#mf803a1769a" x="304.138636" y="300.952664" style="fill: #1f77b4; stroke: #1f77b4"/>
     <use xlink:href="#mf803a1769a" x="308.52754" y="300.324054" style="fill: #1f77b4; stroke: #1f77b4"/>
     <use xlink:href="#mf803a1769a" x="312.916444" y="309.334137" style="fill: #1f77b4; stroke: #1f77b4"/>
     <use xlink:href="#mf803a1769a" x="317.305348" y="308.181685" style="fill: #1f77b4; stroke: #1f77b4"/>
     <use xlink:href="#mf803a1769a" x="321.694251" y="310.24213" style="fill: #1f77b4; stroke: #1f77b4"/>
     <use xlink:href="#mf803a1769a" x="326.083155" y="309.124601" style="fill: #1f77b4; stroke: #1f77b4"/>
     <use xlink:href="#mf803a1769a" x="330.472059" y="314.118562" style="fill: #1f77b4; stroke: #1f77b4"/>
     <use xlink:href="#mf803a1769a" x="334.860963" y="319.391906" style="fill: #1f77b4; stroke: #1f77b4"/>
     <use xlink:href="#mf803a1769a" x="339.249866" y="319.810979" style="fill: #1f77b4; stroke: #1f77b4"/>
     <use xlink:href="#mf803a1769a" x="343.63877" y="315.620243" style="fill: #1f77b4; stroke: #1f77b4"/>
     <use xlink:href="#mf803a1769a" x="348.027674" y="315.655165" style="fill: #1f77b4; stroke: #1f77b4"/>
     <use xlink:href="#mf803a1769a" x="352.416578" y="307.273692" style="fill: #1f77b4; stroke: #1f77b4"/>
     <use xlink:href="#mf803a1769a" x="356.805481" y="309.508751" style="fill: #1f77b4; stroke: #1f77b4"/>
     <use xlink:href="#mf803a1769a" x="361.194385" y="314.956709" style="fill: #1f77b4; stroke: #1f77b4"/>
     <use xlink:href="#mf803a1769a" x="365.583289" y="314.782095" style="fill: #1f77b4; stroke: #1f77b4"/>
     <use xlink:href="#mf803a1769a" x="369.972193" y="320.369744" style="fill: #1f77b4; stroke: #1f77b4"/>
     <use xlink:href="#mf803a1769a" x="374.361096" y="321.906348" style="fill: #1f77b4; stroke: #1f77b4"/>
     <use xlink:href="#mf803a1769a" x="378.75" y="322.220653" style="fill: #1f77b4; stroke: #1f77b4"/>
     <use xlink:href="#mf803a1769a" x="383.138904" y="317.436228" style="fill: #1f77b4; stroke: #1f77b4"/>
     <use xlink:href="#mf803a1769a" x="387.527807" y="255.867322" style="fill: #1f77b4; stroke: #1f77b4"/>
     <use xlink:href="#mf803a1769a" x="391.916711" y="269.626907" style="fill: #1f77b4; stroke: #1f77b4"/>
     <use xlink:href="#mf803a1769a" x="396.305615" y="287.297847" style="fill: #1f77b4; stroke: #1f77b4"/>
     <use xlink:href="#mf803a1769a" x="400.694519" y="289.148756" style="fill: #1f77b4; stroke: #1f77b4"/>
     <use xlink:href="#mf803a1769a" x="405.083422" y="256.565778" style="fill: #1f77b4; stroke: #1f77b4"/>
     <use xlink:href="#mf803a1769a" x="409.472326" y="260.966051" style="fill: #1f77b4; stroke: #1f77b4"/>
     <use xlink:href="#mf803a1769a" x="413.86123" y="272.874728" style="fill: #1f77b4; stroke: #1f77b4"/>
     <use xlink:href="#mf803a1769a" x="418.250134" y="284.084949" style="fill: #1f77b4; stroke: #1f77b4"/>
     <use xlink:href="#mf803a1769a" x="422.639037" y="286.21524" style="fill: #1f77b4; stroke: #1f77b4"/>
     <use xlink:href="#mf803a1769a" x="427.027941" y="288.939219" style="fill: #1f77b4; stroke: #1f77b4"/>
     <use xlink:href="#mf803a1769a" x="431.416845" y="261.350202" style="fill: #1f77b4; stroke: #1f77b4"/>
     <use xlink:href="#mf803a1769a" x="435.805749" y="259.778676" style="fill: #1f77b4; stroke: #1f77b4"/>
     <use xlink:href="#mf803a1769a" x="440.194652" y="267.880767" style="fill: #1f77b4; stroke: #1f77b4"/>
     <use xlink:href="#mf803a1769a" x="444.583556" y="281.570507" style="fill: #1f77b4; stroke: #1f77b4"/>
     <use xlink:href="#mf803a1769a" x="448.97246" y="273.852567" style="fill: #1f77b4; stroke: #1f77b4"/>
     <use xlink:href="#mf803a1769a" x="453.361364" y="278.113149" style="fill: #1f77b4; stroke: #1f77b4"/>
     <use xlink:href="#mf803a1769a" x="457.750267" y="245.600017" style="fill: #1f77b4; stroke: #1f77b4"/>
     <use xlink:href="#mf803a1769a" x="462.139171" y="253.702108" style="fill: #1f77b4; stroke: #1f77b4"/>
     <use xlink:href="#mf803a1769a" x="466.528075" y="249.441526" style="fill: #1f77b4; stroke: #1f77b4"/>
     <use xlink:href="#mf803a1769a" x="470.916979" y="267.636307" style="fill: #1f77b4; stroke: #1f77b4"/>
     <use xlink:href="#mf803a1769a" x="475.305882" y="268.998297" style="fill: #1f77b4; stroke: #1f77b4"/>
     <use xlink:href="#mf803a1769a" x="479.694786" y="259.464371" style="fill: #1f77b4; stroke: #1f77b4"/>
     <use xlink:href="#mf803a1769a" x="484.08369" y="280.24344" style="fill: #1f77b4; stroke: #1f77b4"/>
     <use xlink:href="#mf803a1769a" x="488.472594" y="267.531539" style="fill: #1f77b4; stroke: #1f77b4"/>
     <use xlink:href="#mf803a1769a" x="492.861497" y="158.712076" style="fill: #1f77b4; stroke: #1f77b4"/>
     <use xlink:href="#mf803a1769a" x="497.250401" y="235.716863" style="fill: #1f77b4; stroke: #1f77b4"/>
     <use xlink:href="#mf803a1769a" x="501.639305" y="241.968045" style="fill: #1f77b4; stroke: #1f77b4"/>
     <use xlink:href="#mf803a1769a" x="506.028209" y="241.793431" style="fill: #1f77b4; stroke: #1f77b4"/>
     <use xlink:href="#mf803a1769a" x="510.417112" y="249.546294" style="fill: #1f77b4; stroke: #1f77b4"/>
     <use xlink:href="#mf803a1769a" x="514.806016" y="253.632262" style="fill: #1f77b4; stroke: #1f77b4"/>
     <use xlink:href="#mf803a1769a" x="519.19492" y="220.141291" style="fill: #1f77b4; stroke: #1f77b4"/>
     <use xlink:href="#mf803a1769a" x="523.583824" y="210.53752" style="fill: #1f77b4; stroke: #1f77b4"/>
     <use xlink:href="#mf803a1769a" x="527.972727" y="222.166814" style="fill: #1f77b4; stroke: #1f77b4"/>
     <use xlink:href="#mf803a1769a" x="532.361631" y="230.932438" style="fill: #1f77b4; stroke: #1f77b4"/>
     <use xlink:href="#mf803a1769a" x="536.750535" y="237.497926" style="fill: #1f77b4; stroke: #1f77b4"/>
     <use xlink:href="#mf803a1769a" x="541.139439" y="247.206466" style="fill: #1f77b4; stroke: #1f77b4"/>
     <use xlink:href="#mf803a1769a" x="545.528342" y="222.166814" style="fill: #1f77b4; stroke: #1f77b4"/>
     <use xlink:href="#mf803a1769a" x="549.917246" y="218.325306" style="fill: #1f77b4; stroke: #1f77b4"/>
     <use xlink:href="#mf803a1769a" x="554.30615" y="241.793431" style="fill: #1f77b4; stroke: #1f77b4"/>
     <use xlink:href="#mf803a1769a" x="558.695053" y="227.789386" style="fill: #1f77b4; stroke: #1f77b4"/>
     <use xlink:href="#mf803a1769a" x="563.083957" y="249.685985" style="fill: #1f77b4; stroke: #1f77b4"/>
     <use xlink:href="#mf803a1769a" x="567.472861" y="257.438848" style="fill: #1f77b4; stroke: #1f77b4"/>
     <use xlink:href="#mf803a1769a" x="571.861765" y="260.581901" style="fill: #1f77b4; stroke: #1f77b4"/>
     <use xlink:href="#mf803a1769a" x="576.250668" y="238.859915" style="fill: #1f77b4; stroke: #1f77b4"/>
     <use xlink:href="#mf803a1769a" x="580.639572" y="224.960639" style="fill: #1f77b4; stroke: #1f77b4"/>
     <use xlink:href="#mf803a1769a" x="585.028476" y="243.050652" style="fill: #1f77b4; stroke: #1f77b4"/>
     <use xlink:href="#mf803a1769a" x="589.41738" y="256.635624" style="fill: #1f77b4; stroke: #1f77b4"/>
     <use xlink:href="#mf803a1769a" x="593.806283" y="261.07082" style="fill: #1f77b4; stroke: #1f77b4"/>
     <use xlink:href="#mf803a1769a" x="598.195187" y="270.150749" style="fill: #1f77b4; stroke: #1f77b4"/>
     <use xlink:href="#mf803a1769a" x="602.584091" y="276.681314" style="fill: #1f77b4; stroke: #1f77b4"/>
     <use xlink:href="#mf803a1769a" x="606.972995" y="269.871367" style="fill: #1f77b4; stroke: #1f77b4"/>
     <use xlink:href="#mf803a1769a" x="611.361898" y="264.877406" style="fill: #1f77b4; stroke: #1f77b4"/>
     <use xlink:href="#mf803a1769a" x="615.750802" y="268.928451" style="fill: #1f77b4; stroke: #1f77b4"/>
     <use xlink:href="#mf803a1769a" x="620.139706" y="277.37977" style="fill: #1f77b4; stroke: #1f77b4"/>
     <use xlink:href="#mf803a1769a" x="624.52861" y="281.745121" style="fill: #1f77b4; stroke: #1f77b4"/>
     <use xlink:href="#mf803a1769a" x="628.917513" y="291.593352" style="fill: #1f77b4; stroke: #1f77b4"/>
     <use xlink:href="#mf803a1769a" x="633.306417" y="287.402615" style="fill: #1f77b4; stroke: #1f77b4"/>
     <use xlink:href="#mf803a1769a" x="637.695321" y="292.291808" style="fill: #1f77b4; stroke: #1f77b4"/>
     <use xlink:href="#mf803a1769a" x="642.084225" y="279.544984" style="fill: #1f77b4; stroke: #1f77b4"/>
     <use xlink:href="#mf803a1769a" x="646.473128" y="275.808244" style="fill: #1f77b4; stroke: #1f77b4"/>
     <use xlink:href="#mf803a1769a" x="650.862032" y="293.06011" style="fill: #1f77b4; stroke: #1f77b4"/>
     <use xlink:href="#mf803a1769a" x="655.250936" y="296.79685" style="fill: #1f77b4; stroke: #1f77b4"/>
     <use xlink:href="#mf803a1769a" x="659.63984" y="303.536952" style="fill: #1f77b4; stroke: #1f77b4"/>
     <use xlink:href="#mf803a1769a" x="664.028743" y="297.285769" style="fill: #1f77b4; stroke: #1f77b4"/>
     <use xlink:href="#mf803a1769a" x="668.417647" y="288.031226" style="fill: #1f77b4; stroke: #1f77b4"/>
     <use xlink:href="#mf803a1769a" x="672.806551" y="287.297847" style="fill: #1f77b4; stroke: #1f77b4"/>
     <use xlink:href="#mf803a1769a" x="677.195455" y="294.282408" style="fill: #1f77b4; stroke: #1f77b4"/>
    </g>
   </g>
   <g id="line2d_20">
    <path d="M 80.304545 324.80494 
L 84.693449 325.084323 
L 89.082353 325.573242 
L 93.471257 324.141407 
L 97.86016 325.154168 
L 102.249064 324.595404 
L 106.637968 324.455712 
L 115.415775 324.42079 
L 119.804679 322.849263 
L 124.193583 318.518835 
L 128.582487 320.404667 
L 132.97139 315.271014 
L 137.360294 315.655165 
L 141.749198 315.550397 
L 146.138102 308.705527 
L 150.527005 306.540313 
L 154.915909 301.89558 
L 159.304813 305.352938 
L 163.693717 302.663882 
L 168.08262 305.527552 
L 172.471524 306.086317 
L 176.860428 305.00371 
L 181.249332 285.34217 
L 185.638235 261.769276 
L 190.027139 261.350202 
L 194.416043 267.391848 
L 198.804947 264.109104 
L 203.19385 262.293118 
L 207.582754 217.068085 
L 211.971658 190.456907 
L 216.360561 195.066717 
L 220.749465 177.640237 
L 225.138369 215.461636 
L 229.527273 262.886806 
L 233.916176 231.421358 
L 238.30508 221.398512 
L 242.693984 222.23666 
L 247.082888 242.247428 
L 251.471791 221.188976 
L 255.860695 248.952606 
L 260.249599 261.454971 
L 264.638503 266.868006 
L 269.027406 254.295796 
L 273.41631 263.375725 
L 277.805214 244.76187 
L 282.194118 296.028548 
L 286.583021 292.466422 
L 290.971925 285.726321 
L 295.360829 295.819012 
L 299.749733 310.73105 
L 304.138636 302.908341 
L 308.52754 301.197124 
L 312.916444 307.413383 
L 317.305348 311.185046 
L 321.694251 309.892902 
L 326.083155 311.534274 
L 330.472059 314.013793 
L 334.860963 320.893586 
L 339.249866 320.090362 
L 343.63877 317.540997 
L 348.027674 317.471151 
L 352.416578 310.207208 
L 356.805481 310.835818 
L 361.194385 315.480551 
L 365.583289 315.305937 
L 369.972193 319.985593 
L 374.361096 321.801579 
L 378.75 322.255576 
L 383.138904 317.715611 
L 387.527807 248.009691 
L 391.916711 261.664508 
L 396.305615 286.494622 
L 400.694519 287.053387 
L 405.083422 247.62554 
L 409.472326 249.301834 
L 413.86123 261.629585 
L 418.250134 269.801521 
L 422.639037 271.198434 
L 427.027941 278.671914 
L 431.416845 232.538888 
L 435.805749 225.624172 
L 440.194652 230.19906 
L 444.583556 249.685985 
L 448.97246 235.507326 
L 453.361364 246.333396 
L 457.750267 179.945142 
L 462.139171 195.276254 
L 466.528075 188.047233 
L 470.916979 216.614088 
L 475.305882 217.033162 
L 479.694786 209.41999 
L 484.08369 247.695385 
L 488.472594 227.370312 
L 492.861497 27.856323 
L 497.250401 171.912897 
L 501.639305 185.14864 
L 506.028209 181.761128 
L 510.417112 198.105001 
L 514.806016 205.543559 
L 519.19492 137.828238 
L 523.583824 131.12306 
L 527.972727 157.419932 
L 532.361631 180.119756 
L 536.750535 199.746373 
L 541.139439 212.563043 
L 545.528342 156.546862 
L 549.917246 153.78796 
L 554.30615 198.873303 
L 558.695053 194.123801 
L 563.083957 212.493197 
L 567.472861 235.332712 
L 571.861765 237.113775 
L 576.250668 201.632204 
L 580.639572 183.367577 
L 585.028476 215.810864 
L 589.41738 232.783347 
L 593.806283 245.460326 
L 598.195187 256.810238 
L 602.584091 265.086943 
L 606.972995 256.775315 
L 611.361898 248.952606 
L 615.750802 257.96269 
L 620.139706 270.919051 
L 624.52861 279.510061 
L 628.917513 292.396577 
L 633.306417 290.021826 
L 637.695321 292.780728 
L 642.084225 277.833767 
L 646.473128 275.63363 
L 650.862032 289.986903 
L 655.250936 291.034587 
L 659.63984 301.89558 
L 668.417647 287.507384 
L 672.806551 277.589307 
L 677.195455 290.720282 
L 677.195455 290.720282 
" clip-path="url(#p371c51ed9f)" style="fill: none; stroke: #ff7f0e; stroke-width: 1.5; stroke-linecap: square"/>
    <defs>
     <path id="m404414588a" d="M 0 3 
C 0.795609 3 1.55874 2.683901 2.12132 2.12132 
C 2.683901 1.55874 3 0.795609 3 0 
C 3 -0.795609 2.683901 -1.55874 2.12132 -2.12132 
C 1.55874 -2.683901 0.795609 -3 0 -3 
C -0.795609 -3 -1.55874 -2.683901 -2.12132 -2.12132 
C -2.683901 -1.55874 -3 -0.795609 -3 0 
C -3 0.795609 -2.683901 1.55874 -2.12132 2.12132 
C -1.55874 2.683901 -0.795609 3 0 3 
z
" style="stroke: #ff7f0e"/>
    </defs>
    <g clip-path="url(#p371c51ed9f)">
     <use xlink:href="#m404414588a" x="80.304545" y="324.80494" style="fill: #ff7f0e; stroke: #ff7f0e"/>
     <use xlink:href="#m404414588a" x="84.693449" y="325.084323" style="fill: #ff7f0e; stroke: #ff7f0e"/>
     <use xlink:href="#m404414588a" x="89.082353" y="325.573242" style="fill: #ff7f0e; stroke: #ff7f0e"/>
     <use xlink:href="#m404414588a" x="93.471257" y="324.141407" style="fill: #ff7f0e; stroke: #ff7f0e"/>
     <use xlink:href="#m404414588a" x="97.86016" y="325.154168" style="fill: #ff7f0e; stroke: #ff7f0e"/>
     <use xlink:href="#m404414588a" x="102.249064" y="324.595404" style="fill: #ff7f0e; stroke: #ff7f0e"/>
     <use xlink:href="#m404414588a" x="106.637968" y="324.455712" style="fill: #ff7f0e; stroke: #ff7f0e"/>
     <use xlink:href="#m404414588a" x="111.026872" y="324.455712" style="fill: #ff7f0e; stroke: #ff7f0e"/>
     <use xlink:href="#m404414588a" x="115.415775" y="324.42079" style="fill: #ff7f0e; stroke: #ff7f0e"/>
     <use xlink:href="#m404414588a" x="119.804679" y="322.849263" style="fill: #ff7f0e; stroke: #ff7f0e"/>
     <use xlink:href="#m404414588a" x="124.193583" y="318.518835" style="fill: #ff7f0e; stroke: #ff7f0e"/>
     <use xlink:href="#m404414588a" x="128.582487" y="320.404667" style="fill: #ff7f0e; stroke: #ff7f0e"/>
     <use xlink:href="#m404414588a" x="132.97139" y="315.271014" style="fill: #ff7f0e; stroke: #ff7f0e"/>
     <use xlink:href="#m404414588a" x="137.360294" y="315.655165" style="fill: #ff7f0e; stroke: #ff7f0e"/>
     <use xlink:href="#m404414588a" x="141.749198" y="315.550397" style="fill: #ff7f0e; stroke: #ff7f0e"/>
     <use xlink:href="#m404414588a" x="146.138102" y="308.705527" style="fill: #ff7f0e; stroke: #ff7f0e"/>
     <use xlink:href="#m404414588a" x="150.527005" y="306.540313" style="fill: #ff7f0e; stroke: #ff7f0e"/>
     <use xlink:href="#m404414588a" x="154.915909" y="301.89558" style="fill: #ff7f0e; stroke: #ff7f0e"/>
     <use xlink:href="#m404414588a" x="159.304813" y="305.352938" style="fill: #ff7f0e; stroke: #ff7f0e"/>
     <use xlink:href="#m404414588a" x="163.693717" y="302.663882" style="fill: #ff7f0e; stroke: #ff7f0e"/>
     <use xlink:href="#m404414588a" x="168.08262" y="305.527552" style="fill: #ff7f0e; stroke: #ff7f0e"/>
     <use xlink:href="#m404414588a" x="172.471524" y="306.086317" style="fill: #ff7f0e; stroke: #ff7f0e"/>
     <use xlink:href="#m404414588a" x="176.860428" y="305.00371" style="fill: #ff7f0e; stroke: #ff7f0e"/>
     <use xlink:href="#m404414588a" x="181.249332" y="285.34217" style="fill: #ff7f0e; stroke: #ff7f0e"/>
     <use xlink:href="#m404414588a" x="185.638235" y="261.769276" style="fill: #ff7f0e; stroke: #ff7f0e"/>
     <use xlink:href="#m404414588a" x="190.027139" y="261.350202" style="fill: #ff7f0e; stroke: #ff7f0e"/>
     <use xlink:href="#m404414588a" x="194.416043" y="267.391848" style="fill: #ff7f0e; stroke: #ff7f0e"/>
     <use xlink:href="#m404414588a" x="198.804947" y="264.109104" style="fill: #ff7f0e; stroke: #ff7f0e"/>
     <use xlink:href="#m404414588a" x="203.19385" y="262.293118" style="fill: #ff7f0e; stroke: #ff7f0e"/>
     <use xlink:href="#m404414588a" x="207.582754" y="217.068085" style="fill: #ff7f0e; stroke: #ff7f0e"/>
     <use xlink:href="#m404414588a" x="211.971658" y="190.456907" style="fill: #ff7f0e; stroke: #ff7f0e"/>
     <use xlink:href="#m404414588a" x="216.360561" y="195.066717" style="fill: #ff7f0e; stroke: #ff7f0e"/>
     <use xlink:href="#m404414588a" x="220.749465" y="177.640237" style="fill: #ff7f0e; stroke: #ff7f0e"/>
     <use xlink:href="#m404414588a" x="225.138369" y="215.461636" style="fill: #ff7f0e; stroke: #ff7f0e"/>
     <use xlink:href="#m404414588a" x="229.527273" y="262.886806" style="fill: #ff7f0e; stroke: #ff7f0e"/>
     <use xlink:href="#m404414588a" x="233.916176" y="231.421358" style="fill: #ff7f0e; stroke: #ff7f0e"/>
     <use xlink:href="#m404414588a" x="238.30508" y="221.398512" style="fill: #ff7f0e; stroke: #ff7f0e"/>
     <use xlink:href="#m404414588a" x="242.693984" y="222.23666" style="fill: #ff7f0e; stroke: #ff7f0e"/>
     <use xlink:href="#m404414588a" x="247.082888" y="242.247428" style="fill: #ff7f0e; stroke: #ff7f0e"/>
     <use xlink:href="#m404414588a" x="251.471791" y="221.188976" style="fill: #ff7f0e; stroke: #ff7f0e"/>
     <use xlink:href="#m404414588a" x="255.860695" y="248.952606" style="fill: #ff7f0e; stroke: #ff7f0e"/>
     <use xlink:href="#m404414588a" x="260.249599" y="261.454971" style="fill: #ff7f0e; stroke: #ff7f0e"/>
     <use xlink:href="#m404414588a" x="264.638503" y="266.868006" style="fill: #ff7f0e; stroke: #ff7f0e"/>
     <use xlink:href="#m404414588a" x="269.027406" y="254.295796" style="fill: #ff7f0e; stroke: #ff7f0e"/>
     <use xlink:href="#m404414588a" x="273.41631" y="263.375725" style="fill: #ff7f0e; stroke: #ff7f0e"/>
     <use xlink:href="#m404414588a" x="277.805214" y="244.76187" style="fill: #ff7f0e; stroke: #ff7f0e"/>
     <use xlink:href="#m404414588a" x="282.194118" y="296.028548" style="fill: #ff7f0e; stroke: #ff7f0e"/>
     <use xlink:href="#m404414588a" x="286.583021" y="292.466422" style="fill: #ff7f0e; stroke: #ff7f0e"/>
     <use xlink:href="#m404414588a" x="290.971925" y="285.726321" style="fill: #ff7f0e; stroke: #ff7f0e"/>
     <use xlink:href="#m404414588a" x="295.360829" y="295.819012" style="fill: #ff7f0e; stroke: #ff7f0e"/>
     <use xlink:href="#m404414588a" x="299.749733" y="310.73105" style="fill: #ff7f0e; stroke: #ff7f0e"/>
     <use xlink:href="#m404414588a" x="304.138636" y="302.908341" style="fill: #ff7f0e; stroke: #ff7f0e"/>
     <use xlink:href="#m404414588a" x="308.52754" y="301.197124" style="fill: #ff7f0e; stroke: #ff7f0e"/>
     <use xlink:href="#m404414588a" x="312.916444" y="307.413383" style="fill: #ff7f0e; stroke: #ff7f0e"/>
     <use xlink:href="#m404414588a" x="317.305348" y="311.185046" style="fill: #ff7f0e; stroke: #ff7f0e"/>
     <use xlink:href="#m404414588a" x="321.694251" y="309.892902" style="fill: #ff7f0e; stroke: #ff7f0e"/>
     <use xlink:href="#m404414588a" x="326.083155" y="311.534274" style="fill: #ff7f0e; stroke: #ff7f0e"/>
     <use xlink:href="#m404414588a" x="330.472059" y="314.013793" style="fill: #ff7f0e; stroke: #ff7f0e"/>
     <use xlink:href="#m404414588a" x="334.860963" y="320.893586" style="fill: #ff7f0e; stroke: #ff7f0e"/>
     <use xlink:href="#m404414588a" x="339.249866" y="320.090362" style="fill: #ff7f0e; stroke: #ff7f0e"/>
     <use xlink:href="#m404414588a" x="343.63877" y="317.540997" style="fill: #ff7f0e; stroke: #ff7f0e"/>
     <use xlink:href="#m404414588a" x="348.027674" y="317.471151" style="fill: #ff7f0e; stroke: #ff7f0e"/>
     <use xlink:href="#m404414588a" x="352.416578" y="310.207208" style="fill: #ff7f0e; stroke: #ff7f0e"/>
     <use xlink:href="#m404414588a" x="356.805481" y="310.835818" style="fill: #ff7f0e; stroke: #ff7f0e"/>
     <use xlink:href="#m404414588a" x="361.194385" y="315.480551" style="fill: #ff7f0e; stroke: #ff7f0e"/>
     <use xlink:href="#m404414588a" x="365.583289" y="315.305937" style="fill: #ff7f0e; stroke: #ff7f0e"/>
     <use xlink:href="#m404414588a" x="369.972193" y="319.985593" style="fill: #ff7f0e; stroke: #ff7f0e"/>
     <use xlink:href="#m404414588a" x="374.361096" y="321.801579" style="fill: #ff7f0e; stroke: #ff7f0e"/>
     <use xlink:href="#m404414588a" x="378.75" y="322.255576" style="fill: #ff7f0e; stroke: #ff7f0e"/>
     <use xlink:href="#m404414588a" x="383.138904" y="317.715611" style="fill: #ff7f0e; stroke: #ff7f0e"/>
     <use xlink:href="#m404414588a" x="387.527807" y="248.009691" style="fill: #ff7f0e; stroke: #ff7f0e"/>
     <use xlink:href="#m404414588a" x="391.916711" y="261.664508" style="fill: #ff7f0e; stroke: #ff7f0e"/>
     <use xlink:href="#m404414588a" x="396.305615" y="286.494622" style="fill: #ff7f0e; stroke: #ff7f0e"/>
     <use xlink:href="#m404414588a" x="400.694519" y="287.053387" style="fill: #ff7f0e; stroke: #ff7f0e"/>
     <use xlink:href="#m404414588a" x="405.083422" y="247.62554" style="fill: #ff7f0e; stroke: #ff7f0e"/>
     <use xlink:href="#m404414588a" x="409.472326" y="249.301834" style="fill: #ff7f0e; stroke: #ff7f0e"/>
     <use xlink:href="#m404414588a" x="413.86123" y="261.629585" style="fill: #ff7f0e; stroke: #ff7f0e"/>
     <use xlink:href="#m404414588a" x="418.250134" y="269.801521" style="fill: #ff7f0e; stroke: #ff7f0e"/>
     <use xlink:href="#m404414588a" x="422.639037" y="271.198434" style="fill: #ff7f0e; stroke: #ff7f0e"/>
     <use xlink:href="#m404414588a" x="427.027941" y="278.671914" style="fill: #ff7f0e; stroke: #ff7f0e"/>
     <use xlink:href="#m404414588a" x="431.416845" y="232.538888" style="fill: #ff7f0e; stroke: #ff7f0e"/>
     <use xlink:href="#m404414588a" x="435.805749" y="225.624172" style="fill: #ff7f0e; stroke: #ff7f0e"/>
     <use xlink:href="#m404414588a" x="440.194652" y="230.19906" style="fill: #ff7f0e; stroke: #ff7f0e"/>
     <use xlink:href="#m404414588a" x="444.583556" y="249.685985" style="fill: #ff7f0e; stroke: #ff7f0e"/>
     <use xlink:href="#m404414588a" x="448.97246" y="235.507326" style="fill: #ff7f0e; stroke: #ff7f0e"/>
     <use xlink:href="#m404414588a" x="453.361364" y="246.333396" style="fill: #ff7f0e; stroke: #ff7f0e"/>
     <use xlink:href="#m404414588a" x="457.750267" y="179.945142" style="fill: #ff7f0e; stroke: #ff7f0e"/>
     <use xlink:href="#m404414588a" x="462.139171" y="195.276254" style="fill: #ff7f0e; stroke: #ff7f0e"/>
     <use xlink:href="#m404414588a" x="466.528075" y="188.047233" style="fill: #ff7f0e; stroke: #ff7f0e"/>
     <use xlink:href="#m404414588a" x="470.916979" y="216.614088" style="fill: #ff7f0e; stroke: #ff7f0e"/>
     <use xlink:href="#m404414588a" x="475.305882" y="217.033162" style="fill: #ff7f0e; stroke: #ff7f0e"/>
     <use xlink:href="#m404414588a" x="479.694786" y="209.41999" style="fill: #ff7f0e; stroke: #ff7f0e"/>
     <use xlink:href="#m404414588a" x="484.08369" y="247.695385" style="fill: #ff7f0e; stroke: #ff7f0e"/>
     <use xlink:href="#m404414588a" x="488.472594" y="227.370312" style="fill: #ff7f0e; stroke: #ff7f0e"/>
     <use xlink:href="#m404414588a" x="492.861497" y="27.856323" style="fill: #ff7f0e; stroke: #ff7f0e"/>
     <use xlink:href="#m404414588a" x="497.250401" y="171.912897" style="fill: #ff7f0e; stroke: #ff7f0e"/>
     <use xlink:href="#m404414588a" x="501.639305" y="185.14864" style="fill: #ff7f0e; stroke: #ff7f0e"/>
     <use xlink:href="#m404414588a" x="506.028209" y="181.761128" style="fill: #ff7f0e; stroke: #ff7f0e"/>
     <use xlink:href="#m404414588a" x="510.417112" y="198.105001" style="fill: #ff7f0e; stroke: #ff7f0e"/>
     <use xlink:href="#m404414588a" x="514.806016" y="205.543559" style="fill: #ff7f0e; stroke: #ff7f0e"/>
     <use xlink:href="#m404414588a" x="519.19492" y="137.828238" style="fill: #ff7f0e; stroke: #ff7f0e"/>
     <use xlink:href="#m404414588a" x="523.583824" y="131.12306" style="fill: #ff7f0e; stroke: #ff7f0e"/>
     <use xlink:href="#m404414588a" x="527.972727" y="157.419932" style="fill: #ff7f0e; stroke: #ff7f0e"/>
     <use xlink:href="#m404414588a" x="532.361631" y="180.119756" style="fill: #ff7f0e; stroke: #ff7f0e"/>
     <use xlink:href="#m404414588a" x="536.750535" y="199.746373" style="fill: #ff7f0e; stroke: #ff7f0e"/>
     <use xlink:href="#m404414588a" x="541.139439" y="212.563043" style="fill: #ff7f0e; stroke: #ff7f0e"/>
     <use xlink:href="#m404414588a" x="545.528342" y="156.546862" style="fill: #ff7f0e; stroke: #ff7f0e"/>
     <use xlink:href="#m404414588a" x="549.917246" y="153.78796" style="fill: #ff7f0e; stroke: #ff7f0e"/>
     <use xlink:href="#m404414588a" x="554.30615" y="198.873303" style="fill: #ff7f0e; stroke: #ff7f0e"/>
     <use xlink:href="#m404414588a" x="558.695053" y="194.123801" style="fill: #ff7f0e; stroke: #ff7f0e"/>
     <use xlink:href="#m404414588a" x="563.083957" y="212.493197" style="fill: #ff7f0e; stroke: #ff7f0e"/>
     <use xlink:href="#m404414588a" x="567.472861" y="235.332712" style="fill: #ff7f0e; stroke: #ff7f0e"/>
     <use xlink:href="#m404414588a" x="571.861765" y="237.113775" style="fill: #ff7f0e; stroke: #ff7f0e"/>
     <use xlink:href="#m404414588a" x="576.250668" y="201.632204" style="fill: #ff7f0e; stroke: #ff7f0e"/>
     <use xlink:href="#m404414588a" x="580.639572" y="183.367577" style="fill: #ff7f0e; stroke: #ff7f0e"/>
     <use xlink:href="#m404414588a" x="585.028476" y="215.810864" style="fill: #ff7f0e; stroke: #ff7f0e"/>
     <use xlink:href="#m404414588a" x="589.41738" y="232.783347" style="fill: #ff7f0e; stroke: #ff7f0e"/>
     <use xlink:href="#m404414588a" x="593.806283" y="245.460326" style="fill: #ff7f0e; stroke: #ff7f0e"/>
     <use xlink:href="#m404414588a" x="598.195187" y="256.810238" style="fill: #ff7f0e; stroke: #ff7f0e"/>
     <use xlink:href="#m404414588a" x="602.584091" y="265.086943" style="fill: #ff7f0e; stroke: #ff7f0e"/>
     <use xlink:href="#m404414588a" x="606.972995" y="256.775315" style="fill: #ff7f0e; stroke: #ff7f0e"/>
     <use xlink:href="#m404414588a" x="611.361898" y="248.952606" style="fill: #ff7f0e; stroke: #ff7f0e"/>
     <use xlink:href="#m404414588a" x="615.750802" y="257.96269" style="fill: #ff7f0e; stroke: #ff7f0e"/>
     <use xlink:href="#m404414588a" x="620.139706" y="270.919051" style="fill: #ff7f0e; stroke: #ff7f0e"/>
     <use xlink:href="#m404414588a" x="624.52861" y="279.510061" style="fill: #ff7f0e; stroke: #ff7f0e"/>
     <use xlink:href="#m404414588a" x="628.917513" y="292.396577" style="fill: #ff7f0e; stroke: #ff7f0e"/>
     <use xlink:href="#m404414588a" x="633.306417" y="290.021826" style="fill: #ff7f0e; stroke: #ff7f0e"/>
     <use xlink:href="#m404414588a" x="637.695321" y="292.780728" style="fill: #ff7f0e; stroke: #ff7f0e"/>
     <use xlink:href="#m404414588a" x="642.084225" y="277.833767" style="fill: #ff7f0e; stroke: #ff7f0e"/>
     <use xlink:href="#m404414588a" x="646.473128" y="275.63363" style="fill: #ff7f0e; stroke: #ff7f0e"/>
     <use xlink:href="#m404414588a" x="650.862032" y="289.986903" style="fill: #ff7f0e; stroke: #ff7f0e"/>
     <use xlink:href="#m404414588a" x="655.250936" y="291.034587" style="fill: #ff7f0e; stroke: #ff7f0e"/>
     <use xlink:href="#m404414588a" x="659.63984" y="301.89558" style="fill: #ff7f0e; stroke: #ff7f0e"/>
     <use xlink:href="#m404414588a" x="664.028743" y="294.596713" style="fill: #ff7f0e; stroke: #ff7f0e"/>
     <use xlink:href="#m404414588a" x="668.417647" y="287.507384" style="fill: #ff7f0e; stroke: #ff7f0e"/>
     <use xlink:href="#m404414588a" x="672.806551" y="277.589307" style="fill: #ff7f0e; stroke: #ff7f0e"/>
     <use xlink:href="#m404414588a" x="677.195455" y="290.720282" style="fill: #ff7f0e; stroke: #ff7f0e"/>
    </g>
   </g>
   <g id="patch_3">
    <path d="M 50.46 327.04 
L 50.46 12.96 
" style="fill: none; stroke: #000000; stroke-width: 0.8; stroke-linejoin: miter; stroke-linecap: square"/>
   </g>
   <g id="patch_4">
    <path d="M 50.46 327.04 
L 707.04 327.04 
" style="fill: none; stroke: #000000; stroke-width: 0.8; stroke-linejoin: miter; stroke-linecap: square"/>
   </g>
   <g id="legend_1">
    <g id="patch_5">
     <path d="M 58.86 57.7875 
L 197.86125 57.7875 
Q 200.26125 57.7875 200.26125 55.3875 
L 200.26125 21.36 
Q 200.26125 18.96 197.86125 18.96 
L 58.86 18.96 
Q 56.46 18.96 56.46 21.36 
L 56.46 55.3875 
Q 56.46 57.7875 58.86 57.7875 
z
" style="fill: #ffffff; opacity: 0.8; stroke: #cccccc; stroke-linejoin: miter"/>
    </g>
    <g id="line2d_21">
     <path d="M 61.26 28.678125 
L 73.26 28.678125 
L 85.26 28.678125 
" style="fill: none; stroke: #1f77b4; stroke-width: 1.5; stroke-linecap: square"/>
     <g>
      <use xlink:href="#mf803a1769a" x="73.26" y="28.678125" style="fill: #1f77b4; stroke: #1f77b4"/>
     </g>
    </g>
    <g id="text_19">
     <!-- Age range 0-9 -->
     <g transform="translate(94.86 32.878125)scale(0.12 -0.12)">
      <defs>
       <path id="DejaVuSans-67" d="M 2906 1791 
Q 2906 2416 2648 2759 
Q 2391 3103 1925 3103 
Q 1463 3103 1205 2759 
Q 947 2416 947 1791 
Q 947 1169 1205 825 
Q 1463 481 1925 481 
Q 2391 481 2648 825 
Q 2906 1169 2906 1791 
z
M 3481 434 
Q 3481 -459 3084 -895 
Q 2688 -1331 1869 -1331 
Q 1566 -1331 1297 -1286 
Q 1028 -1241 775 -1147 
L 775 -588 
Q 1028 -725 1275 -790 
Q 1522 -856 1778 -856 
Q 2344 -856 2625 -561 
Q 2906 -266 2906 331 
L 2906 616 
Q 2728 306 2450 153 
Q 2172 0 1784 0 
Q 1141 0 747 490 
Q 353 981 353 1791 
Q 353 2603 747 3093 
Q 1141 3584 1784 3584 
Q 2172 3584 2450 3431 
Q 2728 3278 2906 2969 
L 2906 3500 
L 3481 3500 
L 3481 434 
z
" transform="scale(0.015625)"/>
       <path id="DejaVuSans-2d" d="M 313 2009 
L 1997 2009 
L 1997 1497 
L 313 1497 
L 313 2009 
z
" transform="scale(0.015625)"/>
      </defs>
      <use xlink:href="#DejaVuSans-41"/>
      <use xlink:href="#DejaVuSans-67" x="68.408203"/>
      <use xlink:href="#DejaVuSans-65" x="131.884766"/>
      <use xlink:href="#DejaVuSans-20" x="193.408203"/>
      <use xlink:href="#DejaVuSans-72" x="225.195312"/>
      <use xlink:href="#DejaVuSans-61" x="266.308594"/>
      <use xlink:href="#DejaVuSans-6e" x="327.587891"/>
      <use xlink:href="#DejaVuSans-67" x="390.966797"/>
      <use xlink:href="#DejaVuSans-65" x="454.443359"/>
      <use xlink:href="#DejaVuSans-20" x="515.966797"/>
      <use xlink:href="#DejaVuSans-30" x="547.753906"/>
      <use xlink:href="#DejaVuSans-2d" x="611.376953"/>
      <use xlink:href="#DejaVuSans-39" x="647.460938"/>
     </g>
    </g>
    <g id="line2d_22">
     <path d="M 61.26 46.291875 
L 73.26 46.291875 
L 85.26 46.291875 
" style="fill: none; stroke: #ff7f0e; stroke-width: 1.5; stroke-linecap: square"/>
     <g>
      <use xlink:href="#m404414588a" x="73.26" y="46.291875" style="fill: #ff7f0e; stroke: #ff7f0e"/>
     </g>
    </g>
    <g id="text_20">
     <!-- Age range 10-19 -->
     <g transform="translate(94.86 50.491875)scale(0.12 -0.12)">
      <use xlink:href="#DejaVuSans-41"/>
      <use xlink:href="#DejaVuSans-67" x="68.408203"/>
      <use xlink:href="#DejaVuSans-65" x="131.884766"/>
      <use xlink:href="#DejaVuSans-20" x="193.408203"/>
      <use xlink:href="#DejaVuSans-72" x="225.195312"/>
      <use xlink:href="#DejaVuSans-61" x="266.308594"/>
      <use xlink:href="#DejaVuSans-6e" x="327.587891"/>
      <use xlink:href="#DejaVuSans-67" x="390.966797"/>
      <use xlink:href="#DejaVuSans-65" x="454.443359"/>
      <use xlink:href="#DejaVuSans-20" x="515.966797"/>
      <use xlink:href="#DejaVuSans-31" x="547.753906"/>
      <use xlink:href="#DejaVuSans-30" x="611.376953"/>
      <use xlink:href="#DejaVuSans-2d" x="675"/>
      <use xlink:href="#DejaVuSans-31" x="711.083984"/>
      <use xlink:href="#DejaVuSans-39" x="774.707031"/>
     </g>
    </g>
   </g>
  </g>
 </g>
 <defs>
  <clipPath id="p371c51ed9f">
   <rect x="50.46" y="12.96" width="656.58" height="314.08"/>
  </clipPath>
 </defs>
</svg>
