<?xml version="1.0" encoding="utf-8" standalone="no"?>
<!DOCTYPE svg PUBLIC "-//W3C//DTD SVG 1.1//EN"
  "http://www.w3.org/Graphics/SVG/1.1/DTD/svg11.dtd">
<svg xmlns:xlink="http://www.w3.org/1999/xlink" width="720pt" height="360pt" viewBox="0 0 720 360" xmlns="http://www.w3.org/2000/svg" version="1.1">
 <metadata>
  <rdf:RDF xmlns:dc="http://purl.org/dc/elements/1.1/" xmlns:cc="http://creativecommons.org/ns#" xmlns:rdf="http://www.w3.org/1999/02/22-rdf-syntax-ns#">
   <cc:Work>
    <dc:type rdf:resource="http://purl.org/dc/dcmitype/StillImage"/>
    <dc:date>2022-02-05T16:28:31.421951</dc:date>
    <dc:format>image/svg+xml</dc:format>
    <dc:creator>
     <cc:Agent>
      <dc:title>Matplotlib v3.5.1, https://matplotlib.org/</dc:title>
     </cc:Agent>
    </dc:creator>
   </cc:Work>
  </rdf:RDF>
 </metadata>
 <defs>
  <style type="text/css">*{stroke-linejoin: round; stroke-linecap: butt}</style>
 </defs>
 <g id="figure_1">
  <g id="patch_1">
   <path d="M 0 360 
L 720 360 
L 720 0 
L 0 0 
L 0 360 
z
" style="fill: none"/>
  </g>
  <g id="axes_1">
   <g id="patch_2">
    <path d="M 50.46 327.04 
L 707.04 327.04 
L 707.04 12.96 
L 50.46 12.96 
z
" style="fill: #ffffff"/>
   </g>
   <g id="matplotlib.axis_1">
    <g id="xtick_1">
     <g id="line2d_1">
      <defs>
       <path id="m7b311bd311" d="M 0 0 
L 0 3.5 
" style="stroke: #000000; stroke-width: 0.8"/>
      </defs>
      <g>
       <use xlink:href="#m7b311bd311" x="80.304545" y="327.04" style="stroke: #000000; stroke-width: 0.8"/>
      </g>
     </g>
     <g id="text_1">
      <!-- Dec 05 -->
      <g transform="translate(59.151733 343.158125)scale(0.12 -0.12)">
       <defs>
        <path id="DejaVuSans-44" d="M 1259 4147 
L 1259 519 
L 2022 519 
Q 2988 519 3436 956 
Q 3884 1394 3884 2338 
Q 3884 3275 3436 3711 
Q 2988 4147 2022 4147 
L 1259 4147 
z
M 628 4666 
L 1925 4666 
Q 3281 4666 3915 4102 
Q 4550 3538 4550 2338 
Q 4550 1131 3912 565 
Q 3275 0 1925 0 
L 628 0 
L 628 4666 
z
" transform="scale(0.015625)"/>
        <path id="DejaVuSans-65" d="M 3597 1894 
L 3597 1613 
L 953 1613 
Q 991 1019 1311 708 
Q 1631 397 2203 397 
Q 2534 397 2845 478 
Q 3156 559 3463 722 
L 3463 178 
Q 3153 47 2828 -22 
Q 2503 -91 2169 -91 
Q 1331 -91 842 396 
Q 353 884 353 1716 
Q 353 2575 817 3079 
Q 1281 3584 2069 3584 
Q 2775 3584 3186 3129 
Q 3597 2675 3597 1894 
z
M 3022 2063 
Q 3016 2534 2758 2815 
Q 2500 3097 2075 3097 
Q 1594 3097 1305 2825 
Q 1016 2553 972 2059 
L 3022 2063 
z
" transform="scale(0.015625)"/>
        <path id="DejaVuSans-63" d="M 3122 3366 
L 3122 2828 
Q 2878 2963 2633 3030 
Q 2388 3097 2138 3097 
Q 1578 3097 1268 2742 
Q 959 2388 959 1747 
Q 959 1106 1268 751 
Q 1578 397 2138 397 
Q 2388 397 2633 464 
Q 2878 531 3122 666 
L 3122 134 
Q 2881 22 2623 -34 
Q 2366 -91 2075 -91 
Q 1284 -91 818 406 
Q 353 903 353 1747 
Q 353 2603 823 3093 
Q 1294 3584 2113 3584 
Q 2378 3584 2631 3529 
Q 2884 3475 3122 3366 
z
" transform="scale(0.015625)"/>
        <path id="DejaVuSans-20" transform="scale(0.015625)"/>
        <path id="DejaVuSans-30" d="M 2034 4250 
Q 1547 4250 1301 3770 
Q 1056 3291 1056 2328 
Q 1056 1369 1301 889 
Q 1547 409 2034 409 
Q 2525 409 2770 889 
Q 3016 1369 3016 2328 
Q 3016 3291 2770 3770 
Q 2525 4250 2034 4250 
z
M 2034 4750 
Q 2819 4750 3233 4129 
Q 3647 3509 3647 2328 
Q 3647 1150 3233 529 
Q 2819 -91 2034 -91 
Q 1250 -91 836 529 
Q 422 1150 422 2328 
Q 422 3509 836 4129 
Q 1250 4750 2034 4750 
z
" transform="scale(0.015625)"/>
        <path id="DejaVuSans-35" d="M 691 4666 
L 3169 4666 
L 3169 4134 
L 1269 4134 
L 1269 2991 
Q 1406 3038 1543 3061 
Q 1681 3084 1819 3084 
Q 2600 3084 3056 2656 
Q 3513 2228 3513 1497 
Q 3513 744 3044 326 
Q 2575 -91 1722 -91 
Q 1428 -91 1123 -41 
Q 819 9 494 109 
L 494 744 
Q 775 591 1075 516 
Q 1375 441 1709 441 
Q 2250 441 2565 725 
Q 2881 1009 2881 1497 
Q 2881 1984 2565 2268 
Q 2250 2553 1709 2553 
Q 1456 2553 1204 2497 
Q 953 2441 691 2322 
L 691 4666 
z
" transform="scale(0.015625)"/>
       </defs>
       <use xlink:href="#DejaVuSans-44"/>
       <use xlink:href="#DejaVuSans-65" x="77.001953"/>
       <use xlink:href="#DejaVuSans-63" x="138.525391"/>
       <use xlink:href="#DejaVuSans-20" x="193.505859"/>
       <use xlink:href="#DejaVuSans-30" x="225.292969"/>
       <use xlink:href="#DejaVuSans-35" x="288.916016"/>
      </g>
     </g>
    </g>
    <g id="xtick_2">
     <g id="line2d_2">
      <g>
       <use xlink:href="#m7b311bd311" x="152.343103" y="327.04" style="stroke: #000000; stroke-width: 0.8"/>
      </g>
     </g>
     <g id="text_2">
      <!-- Dec 13 -->
      <g transform="translate(131.190291 343.158125)scale(0.12 -0.12)">
       <defs>
        <path id="DejaVuSans-31" d="M 794 531 
L 1825 531 
L 1825 4091 
L 703 3866 
L 703 4441 
L 1819 4666 
L 2450 4666 
L 2450 531 
L 3481 531 
L 3481 0 
L 794 0 
L 794 531 
z
" transform="scale(0.015625)"/>
        <path id="DejaVuSans-33" d="M 2597 2516 
Q 3050 2419 3304 2112 
Q 3559 1806 3559 1356 
Q 3559 666 3084 287 
Q 2609 -91 1734 -91 
Q 1441 -91 1130 -33 
Q 819 25 488 141 
L 488 750 
Q 750 597 1062 519 
Q 1375 441 1716 441 
Q 2309 441 2620 675 
Q 2931 909 2931 1356 
Q 2931 1769 2642 2001 
Q 2353 2234 1838 2234 
L 1294 2234 
L 1294 2753 
L 1863 2753 
Q 2328 2753 2575 2939 
Q 2822 3125 2822 3475 
Q 2822 3834 2567 4026 
Q 2313 4219 1838 4219 
Q 1578 4219 1281 4162 
Q 984 4106 628 3988 
L 628 4550 
Q 988 4650 1302 4700 
Q 1616 4750 1894 4750 
Q 2613 4750 3031 4423 
Q 3450 4097 3450 3541 
Q 3450 3153 3228 2886 
Q 3006 2619 2597 2516 
z
" transform="scale(0.015625)"/>
       </defs>
       <use xlink:href="#DejaVuSans-44"/>
       <use xlink:href="#DejaVuSans-65" x="77.001953"/>
       <use xlink:href="#DejaVuSans-63" x="138.525391"/>
       <use xlink:href="#DejaVuSans-20" x="193.505859"/>
       <use xlink:href="#DejaVuSans-31" x="225.292969"/>
       <use xlink:href="#DejaVuSans-33" x="288.916016"/>
      </g>
     </g>
    </g>
    <g id="xtick_3">
     <g id="line2d_3">
      <g>
       <use xlink:href="#m7b311bd311" x="224.381661" y="327.04" style="stroke: #000000; stroke-width: 0.8"/>
      </g>
     </g>
     <g id="text_3">
      <!-- Dec 21 -->
      <g transform="translate(203.228849 343.158125)scale(0.12 -0.12)">
       <defs>
        <path id="DejaVuSans-32" d="M 1228 531 
L 3431 531 
L 3431 0 
L 469 0 
L 469 531 
Q 828 903 1448 1529 
Q 2069 2156 2228 2338 
Q 2531 2678 2651 2914 
Q 2772 3150 2772 3378 
Q 2772 3750 2511 3984 
Q 2250 4219 1831 4219 
Q 1534 4219 1204 4116 
Q 875 4013 500 3803 
L 500 4441 
Q 881 4594 1212 4672 
Q 1544 4750 1819 4750 
Q 2544 4750 2975 4387 
Q 3406 4025 3406 3419 
Q 3406 3131 3298 2873 
Q 3191 2616 2906 2266 
Q 2828 2175 2409 1742 
Q 1991 1309 1228 531 
z
" transform="scale(0.015625)"/>
       </defs>
       <use xlink:href="#DejaVuSans-44"/>
       <use xlink:href="#DejaVuSans-65" x="77.001953"/>
       <use xlink:href="#DejaVuSans-63" x="138.525391"/>
       <use xlink:href="#DejaVuSans-20" x="193.505859"/>
       <use xlink:href="#DejaVuSans-32" x="225.292969"/>
       <use xlink:href="#DejaVuSans-31" x="288.916016"/>
      </g>
     </g>
    </g>
    <g id="xtick_4">
     <g id="line2d_4">
      <g>
       <use xlink:href="#m7b311bd311" x="296.420219" y="327.04" style="stroke: #000000; stroke-width: 0.8"/>
      </g>
     </g>
     <g id="text_4">
      <!-- Dec 28 -->
      <g transform="translate(275.267407 343.158125)scale(0.12 -0.12)">
       <defs>
        <path id="DejaVuSans-38" d="M 2034 2216 
Q 1584 2216 1326 1975 
Q 1069 1734 1069 1313 
Q 1069 891 1326 650 
Q 1584 409 2034 409 
Q 2484 409 2743 651 
Q 3003 894 3003 1313 
Q 3003 1734 2745 1975 
Q 2488 2216 2034 2216 
z
M 1403 2484 
Q 997 2584 770 2862 
Q 544 3141 544 3541 
Q 544 4100 942 4425 
Q 1341 4750 2034 4750 
Q 2731 4750 3128 4425 
Q 3525 4100 3525 3541 
Q 3525 3141 3298 2862 
Q 3072 2584 2669 2484 
Q 3125 2378 3379 2068 
Q 3634 1759 3634 1313 
Q 3634 634 3220 271 
Q 2806 -91 2034 -91 
Q 1263 -91 848 271 
Q 434 634 434 1313 
Q 434 1759 690 2068 
Q 947 2378 1403 2484 
z
M 1172 3481 
Q 1172 3119 1398 2916 
Q 1625 2713 2034 2713 
Q 2441 2713 2670 2916 
Q 2900 3119 2900 3481 
Q 2900 3844 2670 4047 
Q 2441 4250 2034 4250 
Q 1625 4250 1398 4047 
Q 1172 3844 1172 3481 
z
" transform="scale(0.015625)"/>
       </defs>
       <use xlink:href="#DejaVuSans-44"/>
       <use xlink:href="#DejaVuSans-65" x="77.001953"/>
       <use xlink:href="#DejaVuSans-63" x="138.525391"/>
       <use xlink:href="#DejaVuSans-20" x="193.505859"/>
       <use xlink:href="#DejaVuSans-32" x="225.292969"/>
       <use xlink:href="#DejaVuSans-38" x="288.916016"/>
      </g>
     </g>
    </g>
    <g id="xtick_5">
     <g id="line2d_5">
      <g>
       <use xlink:href="#m7b311bd311" x="368.458777" y="327.04" style="stroke: #000000; stroke-width: 0.8"/>
      </g>
     </g>
     <g id="text_5">
      <!-- Jan 04 -->
      <g transform="translate(349.667527 343.158125)scale(0.12 -0.12)">
       <defs>
        <path id="DejaVuSans-4a" d="M 628 4666 
L 1259 4666 
L 1259 325 
Q 1259 -519 939 -900 
Q 619 -1281 -91 -1281 
L -331 -1281 
L -331 -750 
L -134 -750 
Q 284 -750 456 -515 
Q 628 -281 628 325 
L 628 4666 
z
" transform="scale(0.015625)"/>
        <path id="DejaVuSans-61" d="M 2194 1759 
Q 1497 1759 1228 1600 
Q 959 1441 959 1056 
Q 959 750 1161 570 
Q 1363 391 1709 391 
Q 2188 391 2477 730 
Q 2766 1069 2766 1631 
L 2766 1759 
L 2194 1759 
z
M 3341 1997 
L 3341 0 
L 2766 0 
L 2766 531 
Q 2569 213 2275 61 
Q 1981 -91 1556 -91 
Q 1019 -91 701 211 
Q 384 513 384 1019 
Q 384 1609 779 1909 
Q 1175 2209 1959 2209 
L 2766 2209 
L 2766 2266 
Q 2766 2663 2505 2880 
Q 2244 3097 1772 3097 
Q 1472 3097 1187 3025 
Q 903 2953 641 2809 
L 641 3341 
Q 956 3463 1253 3523 
Q 1550 3584 1831 3584 
Q 2591 3584 2966 3190 
Q 3341 2797 3341 1997 
z
" transform="scale(0.015625)"/>
        <path id="DejaVuSans-6e" d="M 3513 2113 
L 3513 0 
L 2938 0 
L 2938 2094 
Q 2938 2591 2744 2837 
Q 2550 3084 2163 3084 
Q 1697 3084 1428 2787 
Q 1159 2491 1159 1978 
L 1159 0 
L 581 0 
L 581 3500 
L 1159 3500 
L 1159 2956 
Q 1366 3272 1645 3428 
Q 1925 3584 2291 3584 
Q 2894 3584 3203 3211 
Q 3513 2838 3513 2113 
z
" transform="scale(0.015625)"/>
        <path id="DejaVuSans-34" d="M 2419 4116 
L 825 1625 
L 2419 1625 
L 2419 4116 
z
M 2253 4666 
L 3047 4666 
L 3047 1625 
L 3713 1625 
L 3713 1100 
L 3047 1100 
L 3047 0 
L 2419 0 
L 2419 1100 
L 313 1100 
L 313 1709 
L 2253 4666 
z
" transform="scale(0.015625)"/>
       </defs>
       <use xlink:href="#DejaVuSans-4a"/>
       <use xlink:href="#DejaVuSans-61" x="29.492188"/>
       <use xlink:href="#DejaVuSans-6e" x="90.771484"/>
       <use xlink:href="#DejaVuSans-20" x="154.150391"/>
       <use xlink:href="#DejaVuSans-30" x="185.9375"/>
       <use xlink:href="#DejaVuSans-34" x="249.560547"/>
      </g>
     </g>
    </g>
    <g id="xtick_6">
     <g id="line2d_6">
      <g>
       <use xlink:href="#m7b311bd311" x="440.497335" y="327.04" style="stroke: #000000; stroke-width: 0.8"/>
      </g>
     </g>
     <g id="text_6">
      <!-- Jan 11 -->
      <g transform="translate(421.706085 343.158125)scale(0.12 -0.12)">
       <use xlink:href="#DejaVuSans-4a"/>
       <use xlink:href="#DejaVuSans-61" x="29.492188"/>
       <use xlink:href="#DejaVuSans-6e" x="90.771484"/>
       <use xlink:href="#DejaVuSans-20" x="154.150391"/>
       <use xlink:href="#DejaVuSans-31" x="185.9375"/>
       <use xlink:href="#DejaVuSans-31" x="249.560547"/>
      </g>
     </g>
    </g>
    <g id="xtick_7">
     <g id="line2d_7">
      <g>
       <use xlink:href="#m7b311bd311" x="512.535893" y="327.04" style="stroke: #000000; stroke-width: 0.8"/>
      </g>
     </g>
     <g id="text_7">
      <!-- Jan 18 -->
      <g transform="translate(493.744643 343.158125)scale(0.12 -0.12)">
       <use xlink:href="#DejaVuSans-4a"/>
       <use xlink:href="#DejaVuSans-61" x="29.492188"/>
       <use xlink:href="#DejaVuSans-6e" x="90.771484"/>
       <use xlink:href="#DejaVuSans-20" x="154.150391"/>
       <use xlink:href="#DejaVuSans-31" x="185.9375"/>
       <use xlink:href="#DejaVuSans-38" x="249.560547"/>
      </g>
     </g>
    </g>
    <g id="xtick_8">
     <g id="line2d_8">
      <g>
       <use xlink:href="#m7b311bd311" x="584.574451" y="327.04" style="stroke: #000000; stroke-width: 0.8"/>
      </g>
     </g>
     <g id="text_8">
      <!-- Jan 27 -->
      <g transform="translate(565.783201 343.158125)scale(0.12 -0.12)">
       <defs>
        <path id="DejaVuSans-37" d="M 525 4666 
L 3525 4666 
L 3525 4397 
L 1831 0 
L 1172 0 
L 2766 4134 
L 525 4134 
L 525 4666 
z
" transform="scale(0.015625)"/>
       </defs>
       <use xlink:href="#DejaVuSans-4a"/>
       <use xlink:href="#DejaVuSans-61" x="29.492188"/>
       <use xlink:href="#DejaVuSans-6e" x="90.771484"/>
       <use xlink:href="#DejaVuSans-20" x="154.150391"/>
       <use xlink:href="#DejaVuSans-32" x="185.9375"/>
       <use xlink:href="#DejaVuSans-37" x="249.560547"/>
      </g>
     </g>
    </g>
    <g id="xtick_9">
     <g id="line2d_9">
      <g>
       <use xlink:href="#m7b311bd311" x="656.613009" y="327.04" style="stroke: #000000; stroke-width: 0.8"/>
      </g>
     </g>
     <g id="text_9">
      <!-- Feb 03 -->
      <g transform="translate(636.449259 343.158125)scale(0.12 -0.12)">
       <defs>
        <path id="DejaVuSans-46" d="M 628 4666 
L 3309 4666 
L 3309 4134 
L 1259 4134 
L 1259 2759 
L 3109 2759 
L 3109 2228 
L 1259 2228 
L 1259 0 
L 628 0 
L 628 4666 
z
" transform="scale(0.015625)"/>
        <path id="DejaVuSans-62" d="M 3116 1747 
Q 3116 2381 2855 2742 
Q 2594 3103 2138 3103 
Q 1681 3103 1420 2742 
Q 1159 2381 1159 1747 
Q 1159 1113 1420 752 
Q 1681 391 2138 391 
Q 2594 391 2855 752 
Q 3116 1113 3116 1747 
z
M 1159 2969 
Q 1341 3281 1617 3432 
Q 1894 3584 2278 3584 
Q 2916 3584 3314 3078 
Q 3713 2572 3713 1747 
Q 3713 922 3314 415 
Q 2916 -91 2278 -91 
Q 1894 -91 1617 61 
Q 1341 213 1159 525 
L 1159 0 
L 581 0 
L 581 4863 
L 1159 4863 
L 1159 2969 
z
" transform="scale(0.015625)"/>
       </defs>
       <use xlink:href="#DejaVuSans-46"/>
       <use xlink:href="#DejaVuSans-65" x="52.019531"/>
       <use xlink:href="#DejaVuSans-62" x="113.542969"/>
       <use xlink:href="#DejaVuSans-20" x="177.019531"/>
       <use xlink:href="#DejaVuSans-30" x="208.806641"/>
       <use xlink:href="#DejaVuSans-33" x="272.429688"/>
      </g>
     </g>
    </g>
   </g>
   <g id="matplotlib.axis_2">
    <g id="ytick_1">
     <g id="line2d_10">
      <defs>
       <path id="m1168cce229" d="M 0 0 
L -3.5 0 
" style="stroke: #000000; stroke-width: 0.8"/>
      </defs>
      <g>
       <use xlink:href="#m1168cce229" x="50.46" y="327.04" style="stroke: #000000; stroke-width: 0.8"/>
      </g>
     </g>
     <g id="text_10">
      <!-- 0 -->
      <g transform="translate(35.825 331.599063)scale(0.12 -0.12)">
       <use xlink:href="#DejaVuSans-30"/>
      </g>
     </g>
    </g>
    <g id="ytick_2">
     <g id="line2d_11">
      <g>
       <use xlink:href="#m1168cce229" x="50.46" y="292.065278" style="stroke: #000000; stroke-width: 0.8"/>
      </g>
     </g>
     <g id="text_11">
      <!-- 500 -->
      <g transform="translate(20.555 296.62434)scale(0.12 -0.12)">
       <use xlink:href="#DejaVuSans-35"/>
       <use xlink:href="#DejaVuSans-30" x="63.623047"/>
       <use xlink:href="#DejaVuSans-30" x="127.246094"/>
      </g>
     </g>
    </g>
    <g id="ytick_3">
     <g id="line2d_12">
      <g>
       <use xlink:href="#m1168cce229" x="50.46" y="257.090556" style="stroke: #000000; stroke-width: 0.8"/>
      </g>
     </g>
     <g id="text_12">
      <!-- 1000 -->
      <g transform="translate(12.92 261.649618)scale(0.12 -0.12)">
       <use xlink:href="#DejaVuSans-31"/>
       <use xlink:href="#DejaVuSans-30" x="63.623047"/>
       <use xlink:href="#DejaVuSans-30" x="127.246094"/>
       <use xlink:href="#DejaVuSans-30" x="190.869141"/>
      </g>
     </g>
    </g>
    <g id="ytick_4">
     <g id="line2d_13">
      <g>
       <use xlink:href="#m1168cce229" x="50.46" y="222.115834" style="stroke: #000000; stroke-width: 0.8"/>
      </g>
     </g>
     <g id="text_13">
      <!-- 1500 -->
      <g transform="translate(12.92 226.674896)scale(0.12 -0.12)">
       <use xlink:href="#DejaVuSans-31"/>
       <use xlink:href="#DejaVuSans-35" x="63.623047"/>
       <use xlink:href="#DejaVuSans-30" x="127.246094"/>
       <use xlink:href="#DejaVuSans-30" x="190.869141"/>
      </g>
     </g>
    </g>
    <g id="ytick_5">
     <g id="line2d_14">
      <g>
       <use xlink:href="#m1168cce229" x="50.46" y="187.141111" style="stroke: #000000; stroke-width: 0.8"/>
      </g>
     </g>
     <g id="text_14">
      <!-- 2000 -->
      <g transform="translate(12.92 191.700174)scale(0.12 -0.12)">
       <use xlink:href="#DejaVuSans-32"/>
       <use xlink:href="#DejaVuSans-30" x="63.623047"/>
       <use xlink:href="#DejaVuSans-30" x="127.246094"/>
       <use xlink:href="#DejaVuSans-30" x="190.869141"/>
      </g>
     </g>
    </g>
    <g id="ytick_6">
     <g id="line2d_15">
      <g>
       <use xlink:href="#m1168cce229" x="50.46" y="152.166389" style="stroke: #000000; stroke-width: 0.8"/>
      </g>
     </g>
     <g id="text_15">
      <!-- 2500 -->
      <g transform="translate(12.92 156.725452)scale(0.12 -0.12)">
       <use xlink:href="#DejaVuSans-32"/>
       <use xlink:href="#DejaVuSans-35" x="63.623047"/>
       <use xlink:href="#DejaVuSans-30" x="127.246094"/>
       <use xlink:href="#DejaVuSans-30" x="190.869141"/>
      </g>
     </g>
    </g>
    <g id="ytick_7">
     <g id="line2d_16">
      <g>
       <use xlink:href="#m1168cce229" x="50.46" y="117.191667" style="stroke: #000000; stroke-width: 0.8"/>
      </g>
     </g>
     <g id="text_16">
      <!-- 3000 -->
      <g transform="translate(12.92 121.75073)scale(0.12 -0.12)">
       <use xlink:href="#DejaVuSans-33"/>
       <use xlink:href="#DejaVuSans-30" x="63.623047"/>
       <use xlink:href="#DejaVuSans-30" x="127.246094"/>
       <use xlink:href="#DejaVuSans-30" x="190.869141"/>
      </g>
     </g>
    </g>
    <g id="ytick_8">
     <g id="line2d_17">
      <g>
       <use xlink:href="#m1168cce229" x="50.46" y="82.216945" style="stroke: #000000; stroke-width: 0.8"/>
      </g>
     </g>
     <g id="text_17">
      <!-- 3500 -->
      <g transform="translate(12.92 86.776007)scale(0.12 -0.12)">
       <use xlink:href="#DejaVuSans-33"/>
       <use xlink:href="#DejaVuSans-35" x="63.623047"/>
       <use xlink:href="#DejaVuSans-30" x="127.246094"/>
       <use xlink:href="#DejaVuSans-30" x="190.869141"/>
      </g>
     </g>
    </g>
    <g id="ytick_9">
     <g id="line2d_18">
      <g>
       <use xlink:href="#m1168cce229" x="50.46" y="47.242223" style="stroke: #000000; stroke-width: 0.8"/>
      </g>
     </g>
     <g id="text_18">
      <!-- 4000 -->
      <g transform="translate(12.92 51.801285)scale(0.12 -0.12)">
       <use xlink:href="#DejaVuSans-34"/>
       <use xlink:href="#DejaVuSans-30" x="63.623047"/>
       <use xlink:href="#DejaVuSans-30" x="127.246094"/>
       <use xlink:href="#DejaVuSans-30" x="190.869141"/>
      </g>
     </g>
    </g>
   </g>
   <g id="line2d_19">
    <path d="M 80.304545 323.472578 
L 90.595768 324.102123 
L 100.886991 324.52182 
L 111.178213 323.472578 
L 121.469436 322.283438 
L 131.760658 321.653893 
L 142.051881 323.332679 
L 152.343103 322.912983 
L 162.634326 322.493286 
L 172.925549 322.353387 
L 183.216771 320.674601 
L 193.507994 319.695308 
L 203.799216 319.835207 
L 214.090439 318.995814 
L 224.381661 316.96728 
L 234.672884 315.568291 
L 244.964107 312.630414 
L 255.255329 310.182184 
L 265.546552 310.811729 
L 275.837774 312.700364 
L 286.128997 311.441274 
L 296.420219 312.350617 
L 306.711442 309.972336 
L 317.002665 289.966795 
L 327.293887 259.11909 
L 337.58511 260.098382 
L 347.876332 258.629443 
L 358.167555 254.922123 
L 368.458777 242.261273 
L 378.75 214.631243 
L 389.041223 195.465095 
L 399.332445 209.035287 
L 409.623668 190.778482 
L 419.91489 199.94186 
L 430.206113 247.087785 
L 440.497335 202.180242 
L 450.788558 179.656521 
L 461.079781 159.021435 
L 471.371003 200.081759 
L 481.662226 152.236339 
L 491.953448 189.099696 
L 502.244671 204.068877 
L 512.535893 215.610535 
L 522.827116 191.477977 
L 533.118339 200.571405 
L 543.409561 179.446672 
L 553.700784 257.580202 
L 563.992006 240.862285 
L 574.283229 240.442588 
L 584.574451 255.621617 
L 594.865674 291.295834 
L 605.156897 274.787765 
L 615.448119 273.528675 
L 625.739342 291.575632 
L 636.030564 289.2673 
L 646.321787 293.394317 
L 656.613009 291.155935 
L 666.904232 301.158706 
L 677.195455 311.721072 
" clip-path="url(#p8c2b3db78f)" style="fill: none; stroke: #1f77b4; stroke-width: 1.5; stroke-linecap: square"/>
    <defs>
     <path id="m22bbc547c0" d="M 0 3 
C 0.795609 3 1.55874 2.683901 2.12132 2.12132 
C 2.683901 1.55874 3 0.795609 3 0 
C 3 -0.795609 2.683901 -1.55874 2.12132 -2.12132 
C 1.55874 -2.683901 0.795609 -3 0 -3 
C -0.795609 -3 -1.55874 -2.683901 -2.12132 -2.12132 
C -2.683901 -1.55874 -3 -0.795609 -3 0 
C -3 0.795609 -2.683901 1.55874 -2.12132 2.12132 
C -1.55874 2.683901 -0.795609 3 0 3 
z
" style="stroke: #1f77b4"/>
    </defs>
    <g clip-path="url(#p8c2b3db78f)">
     <use xlink:href="#m22bbc547c0" x="80.304545" y="323.472578" style="fill: #1f77b4; stroke: #1f77b4"/>
     <use xlink:href="#m22bbc547c0" x="90.595768" y="324.102123" style="fill: #1f77b4; stroke: #1f77b4"/>
     <use xlink:href="#m22bbc547c0" x="100.886991" y="324.52182" style="fill: #1f77b4; stroke: #1f77b4"/>
     <use xlink:href="#m22bbc547c0" x="111.178213" y="323.472578" style="fill: #1f77b4; stroke: #1f77b4"/>
     <use xlink:href="#m22bbc547c0" x="121.469436" y="322.283438" style="fill: #1f77b4; stroke: #1f77b4"/>
     <use xlink:href="#m22bbc547c0" x="131.760658" y="321.653893" style="fill: #1f77b4; stroke: #1f77b4"/>
     <use xlink:href="#m22bbc547c0" x="142.051881" y="323.332679" style="fill: #1f77b4; stroke: #1f77b4"/>
     <use xlink:href="#m22bbc547c0" x="152.343103" y="322.912983" style="fill: #1f77b4; stroke: #1f77b4"/>
     <use xlink:href="#m22bbc547c0" x="162.634326" y="322.493286" style="fill: #1f77b4; stroke: #1f77b4"/>
     <use xlink:href="#m22bbc547c0" x="172.925549" y="322.353387" style="fill: #1f77b4; stroke: #1f77b4"/>
     <use xlink:href="#m22bbc547c0" x="183.216771" y="320.674601" style="fill: #1f77b4; stroke: #1f77b4"/>
     <use xlink:href="#m22bbc547c0" x="193.507994" y="319.695308" style="fill: #1f77b4; stroke: #1f77b4"/>
     <use xlink:href="#m22bbc547c0" x="203.799216" y="319.835207" style="fill: #1f77b4; stroke: #1f77b4"/>
     <use xlink:href="#m22bbc547c0" x="214.090439" y="318.995814" style="fill: #1f77b4; stroke: #1f77b4"/>
     <use xlink:href="#m22bbc547c0" x="224.381661" y="316.96728" style="fill: #1f77b4; stroke: #1f77b4"/>
     <use xlink:href="#m22bbc547c0" x="234.672884" y="315.568291" style="fill: #1f77b4; stroke: #1f77b4"/>
     <use xlink:href="#m22bbc547c0" x="244.964107" y="312.630414" style="fill: #1f77b4; stroke: #1f77b4"/>
     <use xlink:href="#m22bbc547c0" x="255.255329" y="310.182184" style="fill: #1f77b4; stroke: #1f77b4"/>
     <use xlink:href="#m22bbc547c0" x="265.546552" y="310.811729" style="fill: #1f77b4; stroke: #1f77b4"/>
     <use xlink:href="#m22bbc547c0" x="275.837774" y="312.700364" style="fill: #1f77b4; stroke: #1f77b4"/>
     <use xlink:href="#m22bbc547c0" x="286.128997" y="311.441274" style="fill: #1f77b4; stroke: #1f77b4"/>
     <use xlink:href="#m22bbc547c0" x="296.420219" y="312.350617" style="fill: #1f77b4; stroke: #1f77b4"/>
     <use xlink:href="#m22bbc547c0" x="306.711442" y="309.972336" style="fill: #1f77b4; stroke: #1f77b4"/>
     <use xlink:href="#m22bbc547c0" x="317.002665" y="289.966795" style="fill: #1f77b4; stroke: #1f77b4"/>
     <use xlink:href="#m22bbc547c0" x="327.293887" y="259.11909" style="fill: #1f77b4; stroke: #1f77b4"/>
     <use xlink:href="#m22bbc547c0" x="337.58511" y="260.098382" style="fill: #1f77b4; stroke: #1f77b4"/>
     <use xlink:href="#m22bbc547c0" x="347.876332" y="258.629443" style="fill: #1f77b4; stroke: #1f77b4"/>
     <use xlink:href="#m22bbc547c0" x="358.167555" y="254.922123" style="fill: #1f77b4; stroke: #1f77b4"/>
     <use xlink:href="#m22bbc547c0" x="368.458777" y="242.261273" style="fill: #1f77b4; stroke: #1f77b4"/>
     <use xlink:href="#m22bbc547c0" x="378.75" y="214.631243" style="fill: #1f77b4; stroke: #1f77b4"/>
     <use xlink:href="#m22bbc547c0" x="389.041223" y="195.465095" style="fill: #1f77b4; stroke: #1f77b4"/>
     <use xlink:href="#m22bbc547c0" x="399.332445" y="209.035287" style="fill: #1f77b4; stroke: #1f77b4"/>
     <use xlink:href="#m22bbc547c0" x="409.623668" y="190.778482" style="fill: #1f77b4; stroke: #1f77b4"/>
     <use xlink:href="#m22bbc547c0" x="419.91489" y="199.94186" style="fill: #1f77b4; stroke: #1f77b4"/>
     <use xlink:href="#m22bbc547c0" x="430.206113" y="247.087785" style="fill: #1f77b4; stroke: #1f77b4"/>
     <use xlink:href="#m22bbc547c0" x="440.497335" y="202.180242" style="fill: #1f77b4; stroke: #1f77b4"/>
     <use xlink:href="#m22bbc547c0" x="450.788558" y="179.656521" style="fill: #1f77b4; stroke: #1f77b4"/>
     <use xlink:href="#m22bbc547c0" x="461.079781" y="159.021435" style="fill: #1f77b4; stroke: #1f77b4"/>
     <use xlink:href="#m22bbc547c0" x="471.371003" y="200.081759" style="fill: #1f77b4; stroke: #1f77b4"/>
     <use xlink:href="#m22bbc547c0" x="481.662226" y="152.236339" style="fill: #1f77b4; stroke: #1f77b4"/>
     <use xlink:href="#m22bbc547c0" x="491.953448" y="189.099696" style="fill: #1f77b4; stroke: #1f77b4"/>
     <use xlink:href="#m22bbc547c0" x="502.244671" y="204.068877" style="fill: #1f77b4; stroke: #1f77b4"/>
     <use xlink:href="#m22bbc547c0" x="512.535893" y="215.610535" style="fill: #1f77b4; stroke: #1f77b4"/>
     <use xlink:href="#m22bbc547c0" x="522.827116" y="191.477977" style="fill: #1f77b4; stroke: #1f77b4"/>
     <use xlink:href="#m22bbc547c0" x="533.118339" y="200.571405" style="fill: #1f77b4; stroke: #1f77b4"/>
     <use xlink:href="#m22bbc547c0" x="543.409561" y="179.446672" style="fill: #1f77b4; stroke: #1f77b4"/>
     <use xlink:href="#m22bbc547c0" x="553.700784" y="257.580202" style="fill: #1f77b4; stroke: #1f77b4"/>
     <use xlink:href="#m22bbc547c0" x="563.992006" y="240.862285" style="fill: #1f77b4; stroke: #1f77b4"/>
     <use xlink:href="#m22bbc547c0" x="574.283229" y="240.442588" style="fill: #1f77b4; stroke: #1f77b4"/>
     <use xlink:href="#m22bbc547c0" x="584.574451" y="255.621617" style="fill: #1f77b4; stroke: #1f77b4"/>
     <use xlink:href="#m22bbc547c0" x="594.865674" y="291.295834" style="fill: #1f77b4; stroke: #1f77b4"/>
     <use xlink:href="#m22bbc547c0" x="605.156897" y="274.787765" style="fill: #1f77b4; stroke: #1f77b4"/>
     <use xlink:href="#m22bbc547c0" x="615.448119" y="273.528675" style="fill: #1f77b4; stroke: #1f77b4"/>
     <use xlink:href="#m22bbc547c0" x="625.739342" y="291.575632" style="fill: #1f77b4; stroke: #1f77b4"/>
     <use xlink:href="#m22bbc547c0" x="636.030564" y="289.2673" style="fill: #1f77b4; stroke: #1f77b4"/>
     <use xlink:href="#m22bbc547c0" x="646.321787" y="293.394317" style="fill: #1f77b4; stroke: #1f77b4"/>
     <use xlink:href="#m22bbc547c0" x="656.613009" y="291.155935" style="fill: #1f77b4; stroke: #1f77b4"/>
     <use xlink:href="#m22bbc547c0" x="666.904232" y="301.158706" style="fill: #1f77b4; stroke: #1f77b4"/>
     <use xlink:href="#m22bbc547c0" x="677.195455" y="311.721072" style="fill: #1f77b4; stroke: #1f77b4"/>
    </g>
   </g>
   <g id="line2d_20">
    <path d="M 80.304545 322.563236 
L 90.595768 323.122831 
L 100.886991 324.102123 
L 111.178213 321.234196 
L 121.469436 323.26273 
L 131.760658 322.143539 
L 142.051881 321.863741 
L 152.343103 321.863741 
L 162.634326 321.793792 
L 172.925549 318.646067 
L 183.216771 309.972336 
L 193.507994 313.749606 
L 203.799216 303.467037 
L 214.090439 304.236481 
L 224.381661 304.026633 
L 234.672884 290.316542 
L 244.964107 285.979676 
L 255.255329 276.6764 
L 265.546552 283.601395 
L 275.837774 278.215288 
L 286.128997 283.951142 
L 296.420219 285.070333 
L 306.711442 282.901901 
L 317.002665 243.520363 
L 327.293887 196.304489 
L 337.58511 195.465095 
L 347.876332 207.566349 
L 358.167555 200.991101 
L 368.458777 197.35373 
L 378.75 106.7692 
L 389.041223 53.467723 
L 399.332445 62.70105 
L 409.623668 27.796277 
L 419.91489 103.551525 
L 430.206113 198.542871 
L 440.497335 135.518421 
L 450.788558 115.442931 
L 461.079781 117.121718 
L 471.371003 157.202749 
L 481.662226 115.023234 
L 491.953448 170.633042 
L 502.244671 195.674944 
L 512.535893 206.517107 
L 522.827116 181.335307 
L 533.118339 199.522163 
L 543.409561 162.239109 
L 553.700784 264.924893 
L 563.992006 257.79005 
L 574.283229 244.289807 
L 584.574451 264.505197 
L 594.865674 294.373609 
L 605.156897 278.704934 
L 615.448119 275.277411 
L 625.739342 287.728412 
L 636.030564 295.282952 
L 646.321787 292.694823 
L 656.613009 295.982447 
L 666.904232 300.948857 
L 677.195455 314.728898 
" clip-path="url(#p8c2b3db78f)" style="fill: none; stroke: #ff7f0e; stroke-width: 1.5; stroke-linecap: square"/>
    <defs>
     <path id="m0404b59d33" d="M 0 3 
C 0.795609 3 1.55874 2.683901 2.12132 2.12132 
C 2.683901 1.55874 3 0.795609 3 0 
C 3 -0.795609 2.683901 -1.55874 2.12132 -2.12132 
C 1.55874 -2.683901 0.795609 -3 0 -3 
C -0.795609 -3 -1.55874 -2.683901 -2.12132 -2.12132 
C -2.683901 -1.55874 -3 -0.795609 -3 0 
C -3 0.795609 -2.683901 1.55874 -2.12132 2.12132 
C -1.55874 2.683901 -0.795609 3 0 3 
z
" style="stroke: #ff7f0e"/>
    </defs>
    <g clip-path="url(#p8c2b3db78f)">
     <use xlink:href="#m0404b59d33" x="80.304545" y="322.563236" style="fill: #ff7f0e; stroke: #ff7f0e"/>
     <use xlink:href="#m0404b59d33" x="90.595768" y="323.122831" style="fill: #ff7f0e; stroke: #ff7f0e"/>
     <use xlink:href="#m0404b59d33" x="100.886991" y="324.102123" style="fill: #ff7f0e; stroke: #ff7f0e"/>
     <use xlink:href="#m0404b59d33" x="111.178213" y="321.234196" style="fill: #ff7f0e; stroke: #ff7f0e"/>
     <use xlink:href="#m0404b59d33" x="121.469436" y="323.26273" style="fill: #ff7f0e; stroke: #ff7f0e"/>
     <use xlink:href="#m0404b59d33" x="131.760658" y="322.143539" style="fill: #ff7f0e; stroke: #ff7f0e"/>
     <use xlink:href="#m0404b59d33" x="142.051881" y="321.863741" style="fill: #ff7f0e; stroke: #ff7f0e"/>
     <use xlink:href="#m0404b59d33" x="152.343103" y="321.863741" style="fill: #ff7f0e; stroke: #ff7f0e"/>
     <use xlink:href="#m0404b59d33" x="162.634326" y="321.793792" style="fill: #ff7f0e; stroke: #ff7f0e"/>
     <use xlink:href="#m0404b59d33" x="172.925549" y="318.646067" style="fill: #ff7f0e; stroke: #ff7f0e"/>
     <use xlink:href="#m0404b59d33" x="183.216771" y="309.972336" style="fill: #ff7f0e; stroke: #ff7f0e"/>
     <use xlink:href="#m0404b59d33" x="193.507994" y="313.749606" style="fill: #ff7f0e; stroke: #ff7f0e"/>
     <use xlink:href="#m0404b59d33" x="203.799216" y="303.467037" style="fill: #ff7f0e; stroke: #ff7f0e"/>
     <use xlink:href="#m0404b59d33" x="214.090439" y="304.236481" style="fill: #ff7f0e; stroke: #ff7f0e"/>
     <use xlink:href="#m0404b59d33" x="224.381661" y="304.026633" style="fill: #ff7f0e; stroke: #ff7f0e"/>
     <use xlink:href="#m0404b59d33" x="234.672884" y="290.316542" style="fill: #ff7f0e; stroke: #ff7f0e"/>
     <use xlink:href="#m0404b59d33" x="244.964107" y="285.979676" style="fill: #ff7f0e; stroke: #ff7f0e"/>
     <use xlink:href="#m0404b59d33" x="255.255329" y="276.6764" style="fill: #ff7f0e; stroke: #ff7f0e"/>
     <use xlink:href="#m0404b59d33" x="265.546552" y="283.601395" style="fill: #ff7f0e; stroke: #ff7f0e"/>
     <use xlink:href="#m0404b59d33" x="275.837774" y="278.215288" style="fill: #ff7f0e; stroke: #ff7f0e"/>
     <use xlink:href="#m0404b59d33" x="286.128997" y="283.951142" style="fill: #ff7f0e; stroke: #ff7f0e"/>
     <use xlink:href="#m0404b59d33" x="296.420219" y="285.070333" style="fill: #ff7f0e; stroke: #ff7f0e"/>
     <use xlink:href="#m0404b59d33" x="306.711442" y="282.901901" style="fill: #ff7f0e; stroke: #ff7f0e"/>
     <use xlink:href="#m0404b59d33" x="317.002665" y="243.520363" style="fill: #ff7f0e; stroke: #ff7f0e"/>
     <use xlink:href="#m0404b59d33" x="327.293887" y="196.304489" style="fill: #ff7f0e; stroke: #ff7f0e"/>
     <use xlink:href="#m0404b59d33" x="337.58511" y="195.465095" style="fill: #ff7f0e; stroke: #ff7f0e"/>
     <use xlink:href="#m0404b59d33" x="347.876332" y="207.566349" style="fill: #ff7f0e; stroke: #ff7f0e"/>
     <use xlink:href="#m0404b59d33" x="358.167555" y="200.991101" style="fill: #ff7f0e; stroke: #ff7f0e"/>
     <use xlink:href="#m0404b59d33" x="368.458777" y="197.35373" style="fill: #ff7f0e; stroke: #ff7f0e"/>
     <use xlink:href="#m0404b59d33" x="378.75" y="106.7692" style="fill: #ff7f0e; stroke: #ff7f0e"/>
     <use xlink:href="#m0404b59d33" x="389.041223" y="53.467723" style="fill: #ff7f0e; stroke: #ff7f0e"/>
     <use xlink:href="#m0404b59d33" x="399.332445" y="62.70105" style="fill: #ff7f0e; stroke: #ff7f0e"/>
     <use xlink:href="#m0404b59d33" x="409.623668" y="27.796277" style="fill: #ff7f0e; stroke: #ff7f0e"/>
     <use xlink:href="#m0404b59d33" x="419.91489" y="103.551525" style="fill: #ff7f0e; stroke: #ff7f0e"/>
     <use xlink:href="#m0404b59d33" x="430.206113" y="198.542871" style="fill: #ff7f0e; stroke: #ff7f0e"/>
     <use xlink:href="#m0404b59d33" x="440.497335" y="135.518421" style="fill: #ff7f0e; stroke: #ff7f0e"/>
     <use xlink:href="#m0404b59d33" x="450.788558" y="115.442931" style="fill: #ff7f0e; stroke: #ff7f0e"/>
     <use xlink:href="#m0404b59d33" x="461.079781" y="117.121718" style="fill: #ff7f0e; stroke: #ff7f0e"/>
     <use xlink:href="#m0404b59d33" x="471.371003" y="157.202749" style="fill: #ff7f0e; stroke: #ff7f0e"/>
     <use xlink:href="#m0404b59d33" x="481.662226" y="115.023234" style="fill: #ff7f0e; stroke: #ff7f0e"/>
     <use xlink:href="#m0404b59d33" x="491.953448" y="170.633042" style="fill: #ff7f0e; stroke: #ff7f0e"/>
     <use xlink:href="#m0404b59d33" x="502.244671" y="195.674944" style="fill: #ff7f0e; stroke: #ff7f0e"/>
     <use xlink:href="#m0404b59d33" x="512.535893" y="206.517107" style="fill: #ff7f0e; stroke: #ff7f0e"/>
     <use xlink:href="#m0404b59d33" x="522.827116" y="181.335307" style="fill: #ff7f0e; stroke: #ff7f0e"/>
     <use xlink:href="#m0404b59d33" x="533.118339" y="199.522163" style="fill: #ff7f0e; stroke: #ff7f0e"/>
     <use xlink:href="#m0404b59d33" x="543.409561" y="162.239109" style="fill: #ff7f0e; stroke: #ff7f0e"/>
     <use xlink:href="#m0404b59d33" x="553.700784" y="264.924893" style="fill: #ff7f0e; stroke: #ff7f0e"/>
     <use xlink:href="#m0404b59d33" x="563.992006" y="257.79005" style="fill: #ff7f0e; stroke: #ff7f0e"/>
     <use xlink:href="#m0404b59d33" x="574.283229" y="244.289807" style="fill: #ff7f0e; stroke: #ff7f0e"/>
     <use xlink:href="#m0404b59d33" x="584.574451" y="264.505197" style="fill: #ff7f0e; stroke: #ff7f0e"/>
     <use xlink:href="#m0404b59d33" x="594.865674" y="294.373609" style="fill: #ff7f0e; stroke: #ff7f0e"/>
     <use xlink:href="#m0404b59d33" x="605.156897" y="278.704934" style="fill: #ff7f0e; stroke: #ff7f0e"/>
     <use xlink:href="#m0404b59d33" x="615.448119" y="275.277411" style="fill: #ff7f0e; stroke: #ff7f0e"/>
     <use xlink:href="#m0404b59d33" x="625.739342" y="287.728412" style="fill: #ff7f0e; stroke: #ff7f0e"/>
     <use xlink:href="#m0404b59d33" x="636.030564" y="295.282952" style="fill: #ff7f0e; stroke: #ff7f0e"/>
     <use xlink:href="#m0404b59d33" x="646.321787" y="292.694823" style="fill: #ff7f0e; stroke: #ff7f0e"/>
     <use xlink:href="#m0404b59d33" x="656.613009" y="295.982447" style="fill: #ff7f0e; stroke: #ff7f0e"/>
     <use xlink:href="#m0404b59d33" x="666.904232" y="300.948857" style="fill: #ff7f0e; stroke: #ff7f0e"/>
     <use xlink:href="#m0404b59d33" x="677.195455" y="314.728898" style="fill: #ff7f0e; stroke: #ff7f0e"/>
    </g>
   </g>
   <g id="patch_3">
    <path d="M 50.46 327.04 
L 50.46 12.96 
" style="fill: none; stroke: #000000; stroke-width: 0.8; stroke-linejoin: miter; stroke-linecap: square"/>
   </g>
   <g id="patch_4">
    <path d="M 50.46 327.04 
L 707.04 327.04 
" style="fill: none; stroke: #000000; stroke-width: 0.8; stroke-linejoin: miter; stroke-linecap: square"/>
   </g>
   <g id="legend_1">
    <g id="patch_5">
     <path d="M 58.86 57.7875 
L 197.86125 57.7875 
Q 200.26125 57.7875 200.26125 55.3875 
L 200.26125 21.36 
Q 200.26125 18.96 197.86125 18.96 
L 58.86 18.96 
Q 56.46 18.96 56.46 21.36 
L 56.46 55.3875 
Q 56.46 57.7875 58.86 57.7875 
z
" style="fill: #ffffff; opacity: 0.8; stroke: #cccccc; stroke-linejoin: miter"/>
    </g>
    <g id="line2d_21">
     <path d="M 61.26 28.678125 
L 73.26 28.678125 
L 85.26 28.678125 
" style="fill: none; stroke: #1f77b4; stroke-width: 1.5; stroke-linecap: square"/>
     <g>
      <use xlink:href="#m22bbc547c0" x="73.26" y="28.678125" style="fill: #1f77b4; stroke: #1f77b4"/>
     </g>
    </g>
    <g id="text_19">
     <!-- Age range 0-9 -->
     <g transform="translate(94.86 32.878125)scale(0.12 -0.12)">
      <defs>
       <path id="DejaVuSans-41" d="M 2188 4044 
L 1331 1722 
L 3047 1722 
L 2188 4044 
z
M 1831 4666 
L 2547 4666 
L 4325 0 
L 3669 0 
L 3244 1197 
L 1141 1197 
L 716 0 
L 50 0 
L 1831 4666 
z
" transform="scale(0.015625)"/>
       <path id="DejaVuSans-67" d="M 2906 1791 
Q 2906 2416 2648 2759 
Q 2391 3103 1925 3103 
Q 1463 3103 1205 2759 
Q 947 2416 947 1791 
Q 947 1169 1205 825 
Q 1463 481 1925 481 
Q 2391 481 2648 825 
Q 2906 1169 2906 1791 
z
M 3481 434 
Q 3481 -459 3084 -895 
Q 2688 -1331 1869 -1331 
Q 1566 -1331 1297 -1286 
Q 1028 -1241 775 -1147 
L 775 -588 
Q 1028 -725 1275 -790 
Q 1522 -856 1778 -856 
Q 2344 -856 2625 -561 
Q 2906 -266 2906 331 
L 2906 616 
Q 2728 306 2450 153 
Q 2172 0 1784 0 
Q 1141 0 747 490 
Q 353 981 353 1791 
Q 353 2603 747 3093 
Q 1141 3584 1784 3584 
Q 2172 3584 2450 3431 
Q 2728 3278 2906 2969 
L 2906 3500 
L 3481 3500 
L 3481 434 
z
" transform="scale(0.015625)"/>
       <path id="DejaVuSans-72" d="M 2631 2963 
Q 2534 3019 2420 3045 
Q 2306 3072 2169 3072 
Q 1681 3072 1420 2755 
Q 1159 2438 1159 1844 
L 1159 0 
L 581 0 
L 581 3500 
L 1159 3500 
L 1159 2956 
Q 1341 3275 1631 3429 
Q 1922 3584 2338 3584 
Q 2397 3584 2469 3576 
Q 2541 3569 2628 3553 
L 2631 2963 
z
" transform="scale(0.015625)"/>
       <path id="DejaVuSans-2d" d="M 313 2009 
L 1997 2009 
L 1997 1497 
L 313 1497 
L 313 2009 
z
" transform="scale(0.015625)"/>
       <path id="DejaVuSans-39" d="M 703 97 
L 703 672 
Q 941 559 1184 500 
Q 1428 441 1663 441 
Q 2288 441 2617 861 
Q 2947 1281 2994 2138 
Q 2813 1869 2534 1725 
Q 2256 1581 1919 1581 
Q 1219 1581 811 2004 
Q 403 2428 403 3163 
Q 403 3881 828 4315 
Q 1253 4750 1959 4750 
Q 2769 4750 3195 4129 
Q 3622 3509 3622 2328 
Q 3622 1225 3098 567 
Q 2575 -91 1691 -91 
Q 1453 -91 1209 -44 
Q 966 3 703 97 
z
M 1959 2075 
Q 2384 2075 2632 2365 
Q 2881 2656 2881 3163 
Q 2881 3666 2632 3958 
Q 2384 4250 1959 4250 
Q 1534 4250 1286 3958 
Q 1038 3666 1038 3163 
Q 1038 2656 1286 2365 
Q 1534 2075 1959 2075 
z
" transform="scale(0.015625)"/>
      </defs>
      <use xlink:href="#DejaVuSans-41"/>
      <use xlink:href="#DejaVuSans-67" x="68.408203"/>
      <use xlink:href="#DejaVuSans-65" x="131.884766"/>
      <use xlink:href="#DejaVuSans-20" x="193.408203"/>
      <use xlink:href="#DejaVuSans-72" x="225.195312"/>
      <use xlink:href="#DejaVuSans-61" x="266.308594"/>
      <use xlink:href="#DejaVuSans-6e" x="327.587891"/>
      <use xlink:href="#DejaVuSans-67" x="390.966797"/>
      <use xlink:href="#DejaVuSans-65" x="454.443359"/>
      <use xlink:href="#DejaVuSans-20" x="515.966797"/>
      <use xlink:href="#DejaVuSans-30" x="547.753906"/>
      <use xlink:href="#DejaVuSans-2d" x="611.376953"/>
      <use xlink:href="#DejaVuSans-39" x="647.460938"/>
     </g>
    </g>
    <g id="line2d_22">
     <path d="M 61.26 46.291875 
L 73.26 46.291875 
L 85.26 46.291875 
" style="fill: none; stroke: #ff7f0e; stroke-width: 1.5; stroke-linecap: square"/>
     <g>
      <use xlink:href="#m0404b59d33" x="73.26" y="46.291875" style="fill: #ff7f0e; stroke: #ff7f0e"/>
     </g>
    </g>
    <g id="text_20">
     <!-- Age range 10-19 -->
     <g transform="translate(94.86 50.491875)scale(0.12 -0.12)">
      <use xlink:href="#DejaVuSans-41"/>
      <use xlink:href="#DejaVuSans-67" x="68.408203"/>
      <use xlink:href="#DejaVuSans-65" x="131.884766"/>
      <use xlink:href="#DejaVuSans-20" x="193.408203"/>
      <use xlink:href="#DejaVuSans-72" x="225.195312"/>
      <use xlink:href="#DejaVuSans-61" x="266.308594"/>
      <use xlink:href="#DejaVuSans-6e" x="327.587891"/>
      <use xlink:href="#DejaVuSans-67" x="390.966797"/>
      <use xlink:href="#DejaVuSans-65" x="454.443359"/>
      <use xlink:href="#DejaVuSans-20" x="515.966797"/>
      <use xlink:href="#DejaVuSans-31" x="547.753906"/>
      <use xlink:href="#DejaVuSans-30" x="611.376953"/>
      <use xlink:href="#DejaVuSans-2d" x="675"/>
      <use xlink:href="#DejaVuSans-31" x="711.083984"/>
      <use xlink:href="#DejaVuSans-39" x="774.707031"/>
     </g>
    </g>
   </g>
  </g>
 </g>
 <defs>
  <clipPath id="p8c2b3db78f">
   <rect x="50.46" y="12.96" width="656.58" height="314.08"/>
  </clipPath>
 </defs>
</svg>
