<?xml version="1.0" encoding="utf-8" standalone="no"?>
<!DOCTYPE svg PUBLIC "-//W3C//DTD SVG 1.1//EN"
  "http://www.w3.org/Graphics/SVG/1.1/DTD/svg11.dtd">
<svg xmlns:xlink="http://www.w3.org/1999/xlink" width="720pt" height="360pt" viewBox="0 0 720 360" xmlns="http://www.w3.org/2000/svg" version="1.1">
 <metadata>
  <rdf:RDF xmlns:dc="http://purl.org/dc/elements/1.1/" xmlns:cc="http://creativecommons.org/ns#" xmlns:rdf="http://www.w3.org/1999/02/22-rdf-syntax-ns#">
   <cc:Work>
    <dc:type rdf:resource="http://purl.org/dc/dcmitype/StillImage"/>
    <dc:date>2022-06-11T16:39:59.490756</dc:date>
    <dc:format>image/svg+xml</dc:format>
    <dc:creator>
     <cc:Agent>
      <dc:title>Matplotlib v3.5.1, https://matplotlib.org/</dc:title>
     </cc:Agent>
    </dc:creator>
   </cc:Work>
  </rdf:RDF>
 </metadata>
 <defs>
  <style type="text/css">*{stroke-linejoin: round; stroke-linecap: butt}</style>
 </defs>
 <g id="figure_1">
  <g id="patch_1">
   <path d="M 0 360 
L 720 360 
L 720 0 
L 0 0 
L 0 360 
z
" style="fill: none"/>
  </g>
  <g id="axes_1">
   <g id="patch_2">
    <path d="M 50.46 327.04 
L 707.04 327.04 
L 707.04 12.96 
L 50.46 12.96 
z
" style="fill: #ffffff"/>
   </g>
   <g id="matplotlib.axis_1">
    <g id="xtick_1">
     <g id="line2d_1">
      <defs>
       <path id="m35828304f3" d="M 0 0 
L 0 3.5 
" style="stroke: #000000; stroke-width: 0.8"/>
      </defs>
      <g>
       <use xlink:href="#m35828304f3" x="80.304545" y="327.04" style="stroke: #000000; stroke-width: 0.8"/>
      </g>
     </g>
     <g id="text_1">
      <!-- Dec 05 -->
      <g transform="translate(59.151733 343.158125)scale(0.12 -0.12)">
       <defs>
        <path id="DejaVuSans-44" d="M 1259 4147 
L 1259 519 
L 2022 519 
Q 2988 519 3436 956 
Q 3884 1394 3884 2338 
Q 3884 3275 3436 3711 
Q 2988 4147 2022 4147 
L 1259 4147 
z
M 628 4666 
L 1925 4666 
Q 3281 4666 3915 4102 
Q 4550 3538 4550 2338 
Q 4550 1131 3912 565 
Q 3275 0 1925 0 
L 628 0 
L 628 4666 
z
" transform="scale(0.015625)"/>
        <path id="DejaVuSans-65" d="M 3597 1894 
L 3597 1613 
L 953 1613 
Q 991 1019 1311 708 
Q 1631 397 2203 397 
Q 2534 397 2845 478 
Q 3156 559 3463 722 
L 3463 178 
Q 3153 47 2828 -22 
Q 2503 -91 2169 -91 
Q 1331 -91 842 396 
Q 353 884 353 1716 
Q 353 2575 817 3079 
Q 1281 3584 2069 3584 
Q 2775 3584 3186 3129 
Q 3597 2675 3597 1894 
z
M 3022 2063 
Q 3016 2534 2758 2815 
Q 2500 3097 2075 3097 
Q 1594 3097 1305 2825 
Q 1016 2553 972 2059 
L 3022 2063 
z
" transform="scale(0.015625)"/>
        <path id="DejaVuSans-63" d="M 3122 3366 
L 3122 2828 
Q 2878 2963 2633 3030 
Q 2388 3097 2138 3097 
Q 1578 3097 1268 2742 
Q 959 2388 959 1747 
Q 959 1106 1268 751 
Q 1578 397 2138 397 
Q 2388 397 2633 464 
Q 2878 531 3122 666 
L 3122 134 
Q 2881 22 2623 -34 
Q 2366 -91 2075 -91 
Q 1284 -91 818 406 
Q 353 903 353 1747 
Q 353 2603 823 3093 
Q 1294 3584 2113 3584 
Q 2378 3584 2631 3529 
Q 2884 3475 3122 3366 
z
" transform="scale(0.015625)"/>
        <path id="DejaVuSans-20" transform="scale(0.015625)"/>
        <path id="DejaVuSans-30" d="M 2034 4250 
Q 1547 4250 1301 3770 
Q 1056 3291 1056 2328 
Q 1056 1369 1301 889 
Q 1547 409 2034 409 
Q 2525 409 2770 889 
Q 3016 1369 3016 2328 
Q 3016 3291 2770 3770 
Q 2525 4250 2034 4250 
z
M 2034 4750 
Q 2819 4750 3233 4129 
Q 3647 3509 3647 2328 
Q 3647 1150 3233 529 
Q 2819 -91 2034 -91 
Q 1250 -91 836 529 
Q 422 1150 422 2328 
Q 422 3509 836 4129 
Q 1250 4750 2034 4750 
z
" transform="scale(0.015625)"/>
        <path id="DejaVuSans-35" d="M 691 4666 
L 3169 4666 
L 3169 4134 
L 1269 4134 
L 1269 2991 
Q 1406 3038 1543 3061 
Q 1681 3084 1819 3084 
Q 2600 3084 3056 2656 
Q 3513 2228 3513 1497 
Q 3513 744 3044 326 
Q 2575 -91 1722 -91 
Q 1428 -91 1123 -41 
Q 819 9 494 109 
L 494 744 
Q 775 591 1075 516 
Q 1375 441 1709 441 
Q 2250 441 2565 725 
Q 2881 1009 2881 1497 
Q 2881 1984 2565 2268 
Q 2250 2553 1709 2553 
Q 1456 2553 1204 2497 
Q 953 2441 691 2322 
L 691 4666 
z
" transform="scale(0.015625)"/>
       </defs>
       <use xlink:href="#DejaVuSans-44"/>
       <use xlink:href="#DejaVuSans-65" x="77.001953"/>
       <use xlink:href="#DejaVuSans-63" x="138.525391"/>
       <use xlink:href="#DejaVuSans-20" x="193.505859"/>
       <use xlink:href="#DejaVuSans-30" x="225.292969"/>
       <use xlink:href="#DejaVuSans-35" x="288.916016"/>
      </g>
     </g>
    </g>
    <g id="xtick_2">
     <g id="line2d_2">
      <g>
       <use xlink:href="#m35828304f3" x="154.077579" y="327.04" style="stroke: #000000; stroke-width: 0.8"/>
      </g>
     </g>
     <g id="text_2">
      <!-- Dec 29 -->
      <g transform="translate(132.924767 343.158125)scale(0.12 -0.12)">
       <defs>
        <path id="DejaVuSans-32" d="M 1228 531 
L 3431 531 
L 3431 0 
L 469 0 
L 469 531 
Q 828 903 1448 1529 
Q 2069 2156 2228 2338 
Q 2531 2678 2651 2914 
Q 2772 3150 2772 3378 
Q 2772 3750 2511 3984 
Q 2250 4219 1831 4219 
Q 1534 4219 1204 4116 
Q 875 4013 500 3803 
L 500 4441 
Q 881 4594 1212 4672 
Q 1544 4750 1819 4750 
Q 2544 4750 2975 4387 
Q 3406 4025 3406 3419 
Q 3406 3131 3298 2873 
Q 3191 2616 2906 2266 
Q 2828 2175 2409 1742 
Q 1991 1309 1228 531 
z
" transform="scale(0.015625)"/>
        <path id="DejaVuSans-39" d="M 703 97 
L 703 672 
Q 941 559 1184 500 
Q 1428 441 1663 441 
Q 2288 441 2617 861 
Q 2947 1281 2994 2138 
Q 2813 1869 2534 1725 
Q 2256 1581 1919 1581 
Q 1219 1581 811 2004 
Q 403 2428 403 3163 
Q 403 3881 828 4315 
Q 1253 4750 1959 4750 
Q 2769 4750 3195 4129 
Q 3622 3509 3622 2328 
Q 3622 1225 3098 567 
Q 2575 -91 1691 -91 
Q 1453 -91 1209 -44 
Q 966 3 703 97 
z
M 1959 2075 
Q 2384 2075 2632 2365 
Q 2881 2656 2881 3163 
Q 2881 3666 2632 3958 
Q 2384 4250 1959 4250 
Q 1534 4250 1286 3958 
Q 1038 3666 1038 3163 
Q 1038 2656 1286 2365 
Q 1534 2075 1959 2075 
z
" transform="scale(0.015625)"/>
       </defs>
       <use xlink:href="#DejaVuSans-44"/>
       <use xlink:href="#DejaVuSans-65" x="77.001953"/>
       <use xlink:href="#DejaVuSans-63" x="138.525391"/>
       <use xlink:href="#DejaVuSans-20" x="193.505859"/>
       <use xlink:href="#DejaVuSans-32" x="225.292969"/>
       <use xlink:href="#DejaVuSans-39" x="288.916016"/>
      </g>
     </g>
    </g>
    <g id="xtick_3">
     <g id="line2d_3">
      <g>
       <use xlink:href="#m35828304f3" x="227.850613" y="327.04" style="stroke: #000000; stroke-width: 0.8"/>
      </g>
     </g>
     <g id="text_3">
      <!-- Jan 20 -->
      <g transform="translate(209.059363 343.158125)scale(0.12 -0.12)">
       <defs>
        <path id="DejaVuSans-4a" d="M 628 4666 
L 1259 4666 
L 1259 325 
Q 1259 -519 939 -900 
Q 619 -1281 -91 -1281 
L -331 -1281 
L -331 -750 
L -134 -750 
Q 284 -750 456 -515 
Q 628 -281 628 325 
L 628 4666 
z
" transform="scale(0.015625)"/>
        <path id="DejaVuSans-61" d="M 2194 1759 
Q 1497 1759 1228 1600 
Q 959 1441 959 1056 
Q 959 750 1161 570 
Q 1363 391 1709 391 
Q 2188 391 2477 730 
Q 2766 1069 2766 1631 
L 2766 1759 
L 2194 1759 
z
M 3341 1997 
L 3341 0 
L 2766 0 
L 2766 531 
Q 2569 213 2275 61 
Q 1981 -91 1556 -91 
Q 1019 -91 701 211 
Q 384 513 384 1019 
Q 384 1609 779 1909 
Q 1175 2209 1959 2209 
L 2766 2209 
L 2766 2266 
Q 2766 2663 2505 2880 
Q 2244 3097 1772 3097 
Q 1472 3097 1187 3025 
Q 903 2953 641 2809 
L 641 3341 
Q 956 3463 1253 3523 
Q 1550 3584 1831 3584 
Q 2591 3584 2966 3190 
Q 3341 2797 3341 1997 
z
" transform="scale(0.015625)"/>
        <path id="DejaVuSans-6e" d="M 3513 2113 
L 3513 0 
L 2938 0 
L 2938 2094 
Q 2938 2591 2744 2837 
Q 2550 3084 2163 3084 
Q 1697 3084 1428 2787 
Q 1159 2491 1159 1978 
L 1159 0 
L 581 0 
L 581 3500 
L 1159 3500 
L 1159 2956 
Q 1366 3272 1645 3428 
Q 1925 3584 2291 3584 
Q 2894 3584 3203 3211 
Q 3513 2838 3513 2113 
z
" transform="scale(0.015625)"/>
       </defs>
       <use xlink:href="#DejaVuSans-4a"/>
       <use xlink:href="#DejaVuSans-61" x="29.492188"/>
       <use xlink:href="#DejaVuSans-6e" x="90.771484"/>
       <use xlink:href="#DejaVuSans-20" x="154.150391"/>
       <use xlink:href="#DejaVuSans-32" x="185.9375"/>
       <use xlink:href="#DejaVuSans-30" x="249.560547"/>
      </g>
     </g>
    </g>
    <g id="xtick_4">
     <g id="line2d_4">
      <g>
       <use xlink:href="#m35828304f3" x="301.623647" y="327.04" style="stroke: #000000; stroke-width: 0.8"/>
      </g>
     </g>
     <g id="text_4">
      <!-- Feb 13 -->
      <g transform="translate(281.459897 343.158125)scale(0.12 -0.12)">
       <defs>
        <path id="DejaVuSans-46" d="M 628 4666 
L 3309 4666 
L 3309 4134 
L 1259 4134 
L 1259 2759 
L 3109 2759 
L 3109 2228 
L 1259 2228 
L 1259 0 
L 628 0 
L 628 4666 
z
" transform="scale(0.015625)"/>
        <path id="DejaVuSans-62" d="M 3116 1747 
Q 3116 2381 2855 2742 
Q 2594 3103 2138 3103 
Q 1681 3103 1420 2742 
Q 1159 2381 1159 1747 
Q 1159 1113 1420 752 
Q 1681 391 2138 391 
Q 2594 391 2855 752 
Q 3116 1113 3116 1747 
z
M 1159 2969 
Q 1341 3281 1617 3432 
Q 1894 3584 2278 3584 
Q 2916 3584 3314 3078 
Q 3713 2572 3713 1747 
Q 3713 922 3314 415 
Q 2916 -91 2278 -91 
Q 1894 -91 1617 61 
Q 1341 213 1159 525 
L 1159 0 
L 581 0 
L 581 4863 
L 1159 4863 
L 1159 2969 
z
" transform="scale(0.015625)"/>
        <path id="DejaVuSans-31" d="M 794 531 
L 1825 531 
L 1825 4091 
L 703 3866 
L 703 4441 
L 1819 4666 
L 2450 4666 
L 2450 531 
L 3481 531 
L 3481 0 
L 794 0 
L 794 531 
z
" transform="scale(0.015625)"/>
        <path id="DejaVuSans-33" d="M 2597 2516 
Q 3050 2419 3304 2112 
Q 3559 1806 3559 1356 
Q 3559 666 3084 287 
Q 2609 -91 1734 -91 
Q 1441 -91 1130 -33 
Q 819 25 488 141 
L 488 750 
Q 750 597 1062 519 
Q 1375 441 1716 441 
Q 2309 441 2620 675 
Q 2931 909 2931 1356 
Q 2931 1769 2642 2001 
Q 2353 2234 1838 2234 
L 1294 2234 
L 1294 2753 
L 1863 2753 
Q 2328 2753 2575 2939 
Q 2822 3125 2822 3475 
Q 2822 3834 2567 4026 
Q 2313 4219 1838 4219 
Q 1578 4219 1281 4162 
Q 984 4106 628 3988 
L 628 4550 
Q 988 4650 1302 4700 
Q 1616 4750 1894 4750 
Q 2613 4750 3031 4423 
Q 3450 4097 3450 3541 
Q 3450 3153 3228 2886 
Q 3006 2619 2597 2516 
z
" transform="scale(0.015625)"/>
       </defs>
       <use xlink:href="#DejaVuSans-46"/>
       <use xlink:href="#DejaVuSans-65" x="52.019531"/>
       <use xlink:href="#DejaVuSans-62" x="113.542969"/>
       <use xlink:href="#DejaVuSans-20" x="177.019531"/>
       <use xlink:href="#DejaVuSans-31" x="208.806641"/>
       <use xlink:href="#DejaVuSans-33" x="272.429688"/>
      </g>
     </g>
    </g>
    <g id="xtick_5">
     <g id="line2d_5">
      <g>
       <use xlink:href="#m35828304f3" x="375.39668" y="327.04" style="stroke: #000000; stroke-width: 0.8"/>
      </g>
     </g>
     <g id="text_5">
      <!-- Mar 10 -->
      <g transform="translate(354.534493 343.158125)scale(0.12 -0.12)">
       <defs>
        <path id="DejaVuSans-4d" d="M 628 4666 
L 1569 4666 
L 2759 1491 
L 3956 4666 
L 4897 4666 
L 4897 0 
L 4281 0 
L 4281 4097 
L 3078 897 
L 2444 897 
L 1241 4097 
L 1241 0 
L 628 0 
L 628 4666 
z
" transform="scale(0.015625)"/>
        <path id="DejaVuSans-72" d="M 2631 2963 
Q 2534 3019 2420 3045 
Q 2306 3072 2169 3072 
Q 1681 3072 1420 2755 
Q 1159 2438 1159 1844 
L 1159 0 
L 581 0 
L 581 3500 
L 1159 3500 
L 1159 2956 
Q 1341 3275 1631 3429 
Q 1922 3584 2338 3584 
Q 2397 3584 2469 3576 
Q 2541 3569 2628 3553 
L 2631 2963 
z
" transform="scale(0.015625)"/>
       </defs>
       <use xlink:href="#DejaVuSans-4d"/>
       <use xlink:href="#DejaVuSans-61" x="86.279297"/>
       <use xlink:href="#DejaVuSans-72" x="147.558594"/>
       <use xlink:href="#DejaVuSans-20" x="188.671875"/>
       <use xlink:href="#DejaVuSans-31" x="220.458984"/>
       <use xlink:href="#DejaVuSans-30" x="284.082031"/>
      </g>
     </g>
    </g>
    <g id="xtick_6">
     <g id="line2d_6">
      <g>
       <use xlink:href="#m35828304f3" x="449.169714" y="327.04" style="stroke: #000000; stroke-width: 0.8"/>
      </g>
     </g>
     <g id="text_6">
      <!-- Apr 02 -->
      <g transform="translate(429.247839 343.158125)scale(0.12 -0.12)">
       <defs>
        <path id="DejaVuSans-41" d="M 2188 4044 
L 1331 1722 
L 3047 1722 
L 2188 4044 
z
M 1831 4666 
L 2547 4666 
L 4325 0 
L 3669 0 
L 3244 1197 
L 1141 1197 
L 716 0 
L 50 0 
L 1831 4666 
z
" transform="scale(0.015625)"/>
        <path id="DejaVuSans-70" d="M 1159 525 
L 1159 -1331 
L 581 -1331 
L 581 3500 
L 1159 3500 
L 1159 2969 
Q 1341 3281 1617 3432 
Q 1894 3584 2278 3584 
Q 2916 3584 3314 3078 
Q 3713 2572 3713 1747 
Q 3713 922 3314 415 
Q 2916 -91 2278 -91 
Q 1894 -91 1617 61 
Q 1341 213 1159 525 
z
M 3116 1747 
Q 3116 2381 2855 2742 
Q 2594 3103 2138 3103 
Q 1681 3103 1420 2742 
Q 1159 2381 1159 1747 
Q 1159 1113 1420 752 
Q 1681 391 2138 391 
Q 2594 391 2855 752 
Q 3116 1113 3116 1747 
z
" transform="scale(0.015625)"/>
       </defs>
       <use xlink:href="#DejaVuSans-41"/>
       <use xlink:href="#DejaVuSans-70" x="68.408203"/>
       <use xlink:href="#DejaVuSans-72" x="131.884766"/>
       <use xlink:href="#DejaVuSans-20" x="172.998047"/>
       <use xlink:href="#DejaVuSans-30" x="204.785156"/>
       <use xlink:href="#DejaVuSans-32" x="268.408203"/>
      </g>
     </g>
    </g>
    <g id="xtick_7">
     <g id="line2d_7">
      <g>
       <use xlink:href="#m35828304f3" x="522.942748" y="327.04" style="stroke: #000000; stroke-width: 0.8"/>
      </g>
     </g>
     <g id="text_7">
      <!-- Apr 25 -->
      <g transform="translate(503.020873 343.158125)scale(0.12 -0.12)">
       <use xlink:href="#DejaVuSans-41"/>
       <use xlink:href="#DejaVuSans-70" x="68.408203"/>
       <use xlink:href="#DejaVuSans-72" x="131.884766"/>
       <use xlink:href="#DejaVuSans-20" x="172.998047"/>
       <use xlink:href="#DejaVuSans-32" x="204.785156"/>
       <use xlink:href="#DejaVuSans-35" x="268.408203"/>
      </g>
     </g>
    </g>
    <g id="xtick_8">
     <g id="line2d_8">
      <g>
       <use xlink:href="#m35828304f3" x="596.715781" y="327.04" style="stroke: #000000; stroke-width: 0.8"/>
      </g>
     </g>
     <g id="text_8">
      <!-- May 17 -->
      <g transform="translate(574.768906 343.158125)scale(0.12 -0.12)">
       <defs>
        <path id="DejaVuSans-79" d="M 2059 -325 
Q 1816 -950 1584 -1140 
Q 1353 -1331 966 -1331 
L 506 -1331 
L 506 -850 
L 844 -850 
Q 1081 -850 1212 -737 
Q 1344 -625 1503 -206 
L 1606 56 
L 191 3500 
L 800 3500 
L 1894 763 
L 2988 3500 
L 3597 3500 
L 2059 -325 
z
" transform="scale(0.015625)"/>
        <path id="DejaVuSans-37" d="M 525 4666 
L 3525 4666 
L 3525 4397 
L 1831 0 
L 1172 0 
L 2766 4134 
L 525 4134 
L 525 4666 
z
" transform="scale(0.015625)"/>
       </defs>
       <use xlink:href="#DejaVuSans-4d"/>
       <use xlink:href="#DejaVuSans-61" x="86.279297"/>
       <use xlink:href="#DejaVuSans-79" x="147.558594"/>
       <use xlink:href="#DejaVuSans-20" x="206.738281"/>
       <use xlink:href="#DejaVuSans-31" x="238.525391"/>
       <use xlink:href="#DejaVuSans-37" x="302.148438"/>
      </g>
     </g>
    </g>
    <g id="xtick_9">
     <g id="line2d_9">
      <g>
       <use xlink:href="#m35828304f3" x="670.488815" y="327.04" style="stroke: #000000; stroke-width: 0.8"/>
      </g>
     </g>
     <g id="text_9">
      <!-- Jun 09 -->
      <g transform="translate(651.57194 343.158125)scale(0.12 -0.12)">
       <defs>
        <path id="DejaVuSans-75" d="M 544 1381 
L 544 3500 
L 1119 3500 
L 1119 1403 
Q 1119 906 1312 657 
Q 1506 409 1894 409 
Q 2359 409 2629 706 
Q 2900 1003 2900 1516 
L 2900 3500 
L 3475 3500 
L 3475 0 
L 2900 0 
L 2900 538 
Q 2691 219 2414 64 
Q 2138 -91 1772 -91 
Q 1169 -91 856 284 
Q 544 659 544 1381 
z
M 1991 3584 
L 1991 3584 
z
" transform="scale(0.015625)"/>
       </defs>
       <use xlink:href="#DejaVuSans-4a"/>
       <use xlink:href="#DejaVuSans-75" x="29.492188"/>
       <use xlink:href="#DejaVuSans-6e" x="92.871094"/>
       <use xlink:href="#DejaVuSans-20" x="156.25"/>
       <use xlink:href="#DejaVuSans-30" x="188.037109"/>
       <use xlink:href="#DejaVuSans-39" x="251.660156"/>
      </g>
     </g>
    </g>
   </g>
   <g id="matplotlib.axis_2">
    <g id="ytick_1">
     <g id="line2d_10">
      <defs>
       <path id="m8cfa46ed52" d="M 0 0 
L -3.5 0 
" style="stroke: #000000; stroke-width: 0.8"/>
      </defs>
      <g>
       <use xlink:href="#m8cfa46ed52" x="50.46" y="327.04" style="stroke: #000000; stroke-width: 0.8"/>
      </g>
     </g>
     <g id="text_10">
      <!-- 0 -->
      <g transform="translate(35.825 331.599063)scale(0.12 -0.12)">
       <use xlink:href="#DejaVuSans-30"/>
      </g>
     </g>
    </g>
    <g id="ytick_2">
     <g id="line2d_11">
      <g>
       <use xlink:href="#m8cfa46ed52" x="50.46" y="292.117194" style="stroke: #000000; stroke-width: 0.8"/>
      </g>
     </g>
     <g id="text_11">
      <!-- 1000 -->
      <g transform="translate(12.92 296.676257)scale(0.12 -0.12)">
       <use xlink:href="#DejaVuSans-31"/>
       <use xlink:href="#DejaVuSans-30" x="63.623047"/>
       <use xlink:href="#DejaVuSans-30" x="127.246094"/>
       <use xlink:href="#DejaVuSans-30" x="190.869141"/>
      </g>
     </g>
    </g>
    <g id="ytick_3">
     <g id="line2d_12">
      <g>
       <use xlink:href="#m8cfa46ed52" x="50.46" y="257.194388" style="stroke: #000000; stroke-width: 0.8"/>
      </g>
     </g>
     <g id="text_12">
      <!-- 2000 -->
      <g transform="translate(12.92 261.753451)scale(0.12 -0.12)">
       <use xlink:href="#DejaVuSans-32"/>
       <use xlink:href="#DejaVuSans-30" x="63.623047"/>
       <use xlink:href="#DejaVuSans-30" x="127.246094"/>
       <use xlink:href="#DejaVuSans-30" x="190.869141"/>
      </g>
     </g>
    </g>
    <g id="ytick_4">
     <g id="line2d_13">
      <g>
       <use xlink:href="#m8cfa46ed52" x="50.46" y="222.271583" style="stroke: #000000; stroke-width: 0.8"/>
      </g>
     </g>
     <g id="text_13">
      <!-- 3000 -->
      <g transform="translate(12.92 226.830645)scale(0.12 -0.12)">
       <use xlink:href="#DejaVuSans-33"/>
       <use xlink:href="#DejaVuSans-30" x="63.623047"/>
       <use xlink:href="#DejaVuSans-30" x="127.246094"/>
       <use xlink:href="#DejaVuSans-30" x="190.869141"/>
      </g>
     </g>
    </g>
    <g id="ytick_5">
     <g id="line2d_14">
      <g>
       <use xlink:href="#m8cfa46ed52" x="50.46" y="187.348777" style="stroke: #000000; stroke-width: 0.8"/>
      </g>
     </g>
     <g id="text_14">
      <!-- 4000 -->
      <g transform="translate(12.92 191.907839)scale(0.12 -0.12)">
       <defs>
        <path id="DejaVuSans-34" d="M 2419 4116 
L 825 1625 
L 2419 1625 
L 2419 4116 
z
M 2253 4666 
L 3047 4666 
L 3047 1625 
L 3713 1625 
L 3713 1100 
L 3047 1100 
L 3047 0 
L 2419 0 
L 2419 1100 
L 313 1100 
L 313 1709 
L 2253 4666 
z
" transform="scale(0.015625)"/>
       </defs>
       <use xlink:href="#DejaVuSans-34"/>
       <use xlink:href="#DejaVuSans-30" x="63.623047"/>
       <use xlink:href="#DejaVuSans-30" x="127.246094"/>
       <use xlink:href="#DejaVuSans-30" x="190.869141"/>
      </g>
     </g>
    </g>
    <g id="ytick_6">
     <g id="line2d_15">
      <g>
       <use xlink:href="#m8cfa46ed52" x="50.46" y="152.425971" style="stroke: #000000; stroke-width: 0.8"/>
      </g>
     </g>
     <g id="text_15">
      <!-- 5000 -->
      <g transform="translate(12.92 156.985034)scale(0.12 -0.12)">
       <use xlink:href="#DejaVuSans-35"/>
       <use xlink:href="#DejaVuSans-30" x="63.623047"/>
       <use xlink:href="#DejaVuSans-30" x="127.246094"/>
       <use xlink:href="#DejaVuSans-30" x="190.869141"/>
      </g>
     </g>
    </g>
    <g id="ytick_7">
     <g id="line2d_16">
      <g>
       <use xlink:href="#m8cfa46ed52" x="50.46" y="117.503165" style="stroke: #000000; stroke-width: 0.8"/>
      </g>
     </g>
     <g id="text_16">
      <!-- 6000 -->
      <g transform="translate(12.92 122.062228)scale(0.12 -0.12)">
       <defs>
        <path id="DejaVuSans-36" d="M 2113 2584 
Q 1688 2584 1439 2293 
Q 1191 2003 1191 1497 
Q 1191 994 1439 701 
Q 1688 409 2113 409 
Q 2538 409 2786 701 
Q 3034 994 3034 1497 
Q 3034 2003 2786 2293 
Q 2538 2584 2113 2584 
z
M 3366 4563 
L 3366 3988 
Q 3128 4100 2886 4159 
Q 2644 4219 2406 4219 
Q 1781 4219 1451 3797 
Q 1122 3375 1075 2522 
Q 1259 2794 1537 2939 
Q 1816 3084 2150 3084 
Q 2853 3084 3261 2657 
Q 3669 2231 3669 1497 
Q 3669 778 3244 343 
Q 2819 -91 2113 -91 
Q 1303 -91 875 529 
Q 447 1150 447 2328 
Q 447 3434 972 4092 
Q 1497 4750 2381 4750 
Q 2619 4750 2861 4703 
Q 3103 4656 3366 4563 
z
" transform="scale(0.015625)"/>
       </defs>
       <use xlink:href="#DejaVuSans-36"/>
       <use xlink:href="#DejaVuSans-30" x="63.623047"/>
       <use xlink:href="#DejaVuSans-30" x="127.246094"/>
       <use xlink:href="#DejaVuSans-30" x="190.869141"/>
      </g>
     </g>
    </g>
    <g id="ytick_8">
     <g id="line2d_17">
      <g>
       <use xlink:href="#m8cfa46ed52" x="50.46" y="82.580359" style="stroke: #000000; stroke-width: 0.8"/>
      </g>
     </g>
     <g id="text_17">
      <!-- 7000 -->
      <g transform="translate(12.92 87.139422)scale(0.12 -0.12)">
       <use xlink:href="#DejaVuSans-37"/>
       <use xlink:href="#DejaVuSans-30" x="63.623047"/>
       <use xlink:href="#DejaVuSans-30" x="127.246094"/>
       <use xlink:href="#DejaVuSans-30" x="190.869141"/>
      </g>
     </g>
    </g>
    <g id="ytick_9">
     <g id="line2d_18">
      <g>
       <use xlink:href="#m8cfa46ed52" x="50.46" y="47.657554" style="stroke: #000000; stroke-width: 0.8"/>
      </g>
     </g>
     <g id="text_18">
      <!-- 8000 -->
      <g transform="translate(12.92 52.216616)scale(0.12 -0.12)">
       <defs>
        <path id="DejaVuSans-38" d="M 2034 2216 
Q 1584 2216 1326 1975 
Q 1069 1734 1069 1313 
Q 1069 891 1326 650 
Q 1584 409 2034 409 
Q 2484 409 2743 651 
Q 3003 894 3003 1313 
Q 3003 1734 2745 1975 
Q 2488 2216 2034 2216 
z
M 1403 2484 
Q 997 2584 770 2862 
Q 544 3141 544 3541 
Q 544 4100 942 4425 
Q 1341 4750 2034 4750 
Q 2731 4750 3128 4425 
Q 3525 4100 3525 3541 
Q 3525 3141 3298 2862 
Q 3072 2584 2669 2484 
Q 3125 2378 3379 2068 
Q 3634 1759 3634 1313 
Q 3634 634 3220 271 
Q 2806 -91 2034 -91 
Q 1263 -91 848 271 
Q 434 634 434 1313 
Q 434 1759 690 2068 
Q 947 2378 1403 2484 
z
M 1172 3481 
Q 1172 3119 1398 2916 
Q 1625 2713 2034 2713 
Q 2441 2713 2670 2916 
Q 2900 3119 2900 3481 
Q 2900 3844 2670 4047 
Q 2441 4250 2034 4250 
Q 1625 4250 1398 4047 
Q 1172 3844 1172 3481 
z
" transform="scale(0.015625)"/>
       </defs>
       <use xlink:href="#DejaVuSans-38"/>
       <use xlink:href="#DejaVuSans-30" x="63.623047"/>
       <use xlink:href="#DejaVuSans-30" x="127.246094"/>
       <use xlink:href="#DejaVuSans-30" x="190.869141"/>
      </g>
     </g>
    </g>
   </g>
   <g id="line2d_19">
    <path d="M 80.304545 325.258937 
L 87.011185 325.782779 
L 93.717824 324.665249 
L 97.071144 324.350944 
L 100.424464 325.189091 
L 107.131103 324.770018 
L 110.484423 324.700172 
L 113.837743 323.862025 
L 117.191062 323.373105 
L 120.544382 323.442951 
L 123.897702 323.023877 
L 127.251021 322.011116 
L 130.604341 321.31266 
L 133.957661 319.845902 
L 137.310981 318.623604 
L 140.6643 318.937909 
L 144.01762 319.880825 
L 147.37094 319.252214 
L 150.724259 319.706211 
L 154.077579 318.518835 
L 157.430899 308.530913 
L 160.784219 293.129956 
L 164.137538 293.618875 
L 167.490858 292.885496 
L 170.844178 291.034587 
L 174.197497 284.713559 
L 177.550817 270.919051 
L 180.904137 261.350202 
L 184.257457 268.125227 
L 187.610776 259.010374 
L 190.964096 263.585262 
L 194.317416 287.123233 
L 197.670735 264.702792 
L 201.024055 253.457648 
L 204.377375 243.15542 
L 207.730695 263.655107 
L 211.084014 239.767908 
L 214.437334 258.172227 
L 217.790654 265.645707 
L 221.143973 271.40797 
L 224.497293 259.359602 
L 227.850613 263.899567 
L 231.203933 253.35288 
L 234.557252 292.361654 
L 237.910572 284.015103 
L 241.263892 283.805566 
L 244.617211 291.383815 
L 247.970531 309.194446 
L 251.323851 300.952664 
L 254.677171 300.324054 
L 258.03049 309.334137 
L 261.38381 308.181685 
L 264.73713 310.24213 
L 268.090449 309.124601 
L 271.443769 314.118562 
L 274.797089 319.391906 
L 278.150409 319.810979 
L 281.503728 315.620243 
L 284.857048 315.655165 
L 288.210368 307.273692 
L 291.563687 309.508751 
L 294.917007 314.956709 
L 298.270327 314.782095 
L 301.623647 320.369744 
L 304.976966 321.906348 
L 308.330286 322.220653 
L 311.683606 317.436228 
L 315.036925 255.867322 
L 318.390245 269.626907 
L 321.743565 287.297847 
L 325.096885 289.148756 
L 328.450204 256.565778 
L 331.803524 260.966051 
L 335.156844 272.874728 
L 338.510163 284.084949 
L 341.863483 286.21524 
L 345.216803 288.939219 
L 348.570123 261.350202 
L 351.923442 259.778676 
L 355.276762 267.880767 
L 358.630082 281.570507 
L 361.983401 273.852567 
L 365.336721 278.113149 
L 368.690041 245.600017 
L 372.043361 253.702108 
L 375.39668 249.441526 
L 378.75 267.636307 
L 382.10332 268.998297 
L 385.456639 259.464371 
L 388.809959 280.24344 
L 392.163279 267.531539 
L 395.516599 158.712076 
L 398.869918 235.716863 
L 402.223238 241.968045 
L 405.576558 241.793431 
L 408.929877 249.546294 
L 412.283197 253.632262 
L 415.636517 220.141291 
L 418.989837 210.53752 
L 422.343156 222.166814 
L 425.696476 230.932438 
L 429.049796 237.497926 
L 432.403115 247.206466 
L 435.756435 222.166814 
L 439.109755 218.325306 
L 442.463075 241.793431 
L 445.816394 227.789386 
L 449.169714 249.685985 
L 452.523034 257.438848 
L 455.876353 260.581901 
L 459.229673 238.859915 
L 462.582993 224.960639 
L 465.936313 243.050652 
L 469.289632 256.635624 
L 472.642952 261.07082 
L 475.996272 270.150749 
L 479.349591 276.681314 
L 482.702911 269.871367 
L 486.056231 264.877406 
L 489.409551 268.928451 
L 492.76287 277.37977 
L 496.11619 281.745121 
L 499.46951 291.593352 
L 502.822829 287.402615 
L 506.176149 292.291808 
L 509.529469 279.544984 
L 512.882789 275.808244 
L 516.236108 293.06011 
L 519.589428 296.79685 
L 522.942748 303.536952 
L 526.296067 297.285769 
L 529.649387 288.031226 
L 533.002707 287.297847 
L 536.356027 294.282408 
L 539.709346 293.723643 
L 543.062666 298.996987 
L 546.415986 302.384499 
L 549.769305 291.209201 
L 553.122625 289.777366 
L 556.475945 266.029858 
L 559.829265 288.83445 
L 563.182584 287.472461 
L 566.535904 293.68872 
L 569.889224 299.241447 
L 573.242543 283.037265 
L 576.595863 280.662514 
L 579.949183 282.164195 
L 583.302503 285.551707 
L 586.655822 289.637675 
L 590.009142 295.574552 
L 593.362462 297.600075 
L 596.715781 283.840489 
L 600.069101 283.386493 
L 603.422421 290.161517 
L 606.775741 293.444261 
L 610.12906 297.66992 
L 613.48238 302.419422 
L 616.8357 305.667243 
L 620.189019 296.16824 
L 623.542339 297.460383 
L 626.895659 292.396577 
L 630.248979 301.476506 
L 633.602298 303.257569 
L 636.955618 308.880141 
L 640.308938 301.686043 
L 643.662257 301.371738 
L 647.015577 304.479867 
L 650.368897 305.108478 
L 653.722217 306.680004 
L 657.075536 310.067516 
L 660.428856 313.210569 
L 663.782176 305.772011 
L 667.135495 302.454345 
L 670.488815 302.384499 
L 673.842135 302.943264 
L 677.195455 308.565836 
L 677.195455 308.565836 
" clip-path="url(#pac4544f947)" style="fill: none; stroke: #1f77b4; stroke-width: 1.5; stroke-linecap: square"/>
    <defs>
     <path id="ma47efbcfd2" d="M 0 3 
C 0.795609 3 1.55874 2.683901 2.12132 2.12132 
C 2.683901 1.55874 3 0.795609 3 0 
C 3 -0.795609 2.683901 -1.55874 2.12132 -2.12132 
C 1.55874 -2.683901 0.795609 -3 0 -3 
C -0.795609 -3 -1.55874 -2.683901 -2.12132 -2.12132 
C -2.683901 -1.55874 -3 -0.795609 -3 0 
C -3 0.795609 -2.683901 1.55874 -2.12132 2.12132 
C -1.55874 2.683901 -0.795609 3 0 3 
z
" style="stroke: #1f77b4"/>
    </defs>
    <g clip-path="url(#pac4544f947)">
     <use xlink:href="#ma47efbcfd2" x="80.304545" y="325.258937" style="fill: #1f77b4; stroke: #1f77b4"/>
     <use xlink:href="#ma47efbcfd2" x="83.657865" y="325.573242" style="fill: #1f77b4; stroke: #1f77b4"/>
     <use xlink:href="#ma47efbcfd2" x="87.011185" y="325.782779" style="fill: #1f77b4; stroke: #1f77b4"/>
     <use xlink:href="#ma47efbcfd2" x="90.364505" y="325.258937" style="fill: #1f77b4; stroke: #1f77b4"/>
     <use xlink:href="#ma47efbcfd2" x="93.717824" y="324.665249" style="fill: #1f77b4; stroke: #1f77b4"/>
     <use xlink:href="#ma47efbcfd2" x="97.071144" y="324.350944" style="fill: #1f77b4; stroke: #1f77b4"/>
     <use xlink:href="#ma47efbcfd2" x="100.424464" y="325.189091" style="fill: #1f77b4; stroke: #1f77b4"/>
     <use xlink:href="#ma47efbcfd2" x="103.777783" y="324.979554" style="fill: #1f77b4; stroke: #1f77b4"/>
     <use xlink:href="#ma47efbcfd2" x="107.131103" y="324.770018" style="fill: #1f77b4; stroke: #1f77b4"/>
     <use xlink:href="#ma47efbcfd2" x="110.484423" y="324.700172" style="fill: #1f77b4; stroke: #1f77b4"/>
     <use xlink:href="#ma47efbcfd2" x="113.837743" y="323.862025" style="fill: #1f77b4; stroke: #1f77b4"/>
     <use xlink:href="#ma47efbcfd2" x="117.191062" y="323.373105" style="fill: #1f77b4; stroke: #1f77b4"/>
     <use xlink:href="#ma47efbcfd2" x="120.544382" y="323.442951" style="fill: #1f77b4; stroke: #1f77b4"/>
     <use xlink:href="#ma47efbcfd2" x="123.897702" y="323.023877" style="fill: #1f77b4; stroke: #1f77b4"/>
     <use xlink:href="#ma47efbcfd2" x="127.251021" y="322.011116" style="fill: #1f77b4; stroke: #1f77b4"/>
     <use xlink:href="#ma47efbcfd2" x="130.604341" y="321.31266" style="fill: #1f77b4; stroke: #1f77b4"/>
     <use xlink:href="#ma47efbcfd2" x="133.957661" y="319.845902" style="fill: #1f77b4; stroke: #1f77b4"/>
     <use xlink:href="#ma47efbcfd2" x="137.310981" y="318.623604" style="fill: #1f77b4; stroke: #1f77b4"/>
     <use xlink:href="#ma47efbcfd2" x="140.6643" y="318.937909" style="fill: #1f77b4; stroke: #1f77b4"/>
     <use xlink:href="#ma47efbcfd2" x="144.01762" y="319.880825" style="fill: #1f77b4; stroke: #1f77b4"/>
     <use xlink:href="#ma47efbcfd2" x="147.37094" y="319.252214" style="fill: #1f77b4; stroke: #1f77b4"/>
     <use xlink:href="#ma47efbcfd2" x="150.724259" y="319.706211" style="fill: #1f77b4; stroke: #1f77b4"/>
     <use xlink:href="#ma47efbcfd2" x="154.077579" y="318.518835" style="fill: #1f77b4; stroke: #1f77b4"/>
     <use xlink:href="#ma47efbcfd2" x="157.430899" y="308.530913" style="fill: #1f77b4; stroke: #1f77b4"/>
     <use xlink:href="#ma47efbcfd2" x="160.784219" y="293.129956" style="fill: #1f77b4; stroke: #1f77b4"/>
     <use xlink:href="#ma47efbcfd2" x="164.137538" y="293.618875" style="fill: #1f77b4; stroke: #1f77b4"/>
     <use xlink:href="#ma47efbcfd2" x="167.490858" y="292.885496" style="fill: #1f77b4; stroke: #1f77b4"/>
     <use xlink:href="#ma47efbcfd2" x="170.844178" y="291.034587" style="fill: #1f77b4; stroke: #1f77b4"/>
     <use xlink:href="#ma47efbcfd2" x="174.197497" y="284.713559" style="fill: #1f77b4; stroke: #1f77b4"/>
     <use xlink:href="#ma47efbcfd2" x="177.550817" y="270.919051" style="fill: #1f77b4; stroke: #1f77b4"/>
     <use xlink:href="#ma47efbcfd2" x="180.904137" y="261.350202" style="fill: #1f77b4; stroke: #1f77b4"/>
     <use xlink:href="#ma47efbcfd2" x="184.257457" y="268.125227" style="fill: #1f77b4; stroke: #1f77b4"/>
     <use xlink:href="#ma47efbcfd2" x="187.610776" y="259.010374" style="fill: #1f77b4; stroke: #1f77b4"/>
     <use xlink:href="#ma47efbcfd2" x="190.964096" y="263.585262" style="fill: #1f77b4; stroke: #1f77b4"/>
     <use xlink:href="#ma47efbcfd2" x="194.317416" y="287.123233" style="fill: #1f77b4; stroke: #1f77b4"/>
     <use xlink:href="#ma47efbcfd2" x="197.670735" y="264.702792" style="fill: #1f77b4; stroke: #1f77b4"/>
     <use xlink:href="#ma47efbcfd2" x="201.024055" y="253.457648" style="fill: #1f77b4; stroke: #1f77b4"/>
     <use xlink:href="#ma47efbcfd2" x="204.377375" y="243.15542" style="fill: #1f77b4; stroke: #1f77b4"/>
     <use xlink:href="#ma47efbcfd2" x="207.730695" y="263.655107" style="fill: #1f77b4; stroke: #1f77b4"/>
     <use xlink:href="#ma47efbcfd2" x="211.084014" y="239.767908" style="fill: #1f77b4; stroke: #1f77b4"/>
     <use xlink:href="#ma47efbcfd2" x="214.437334" y="258.172227" style="fill: #1f77b4; stroke: #1f77b4"/>
     <use xlink:href="#ma47efbcfd2" x="217.790654" y="265.645707" style="fill: #1f77b4; stroke: #1f77b4"/>
     <use xlink:href="#ma47efbcfd2" x="221.143973" y="271.40797" style="fill: #1f77b4; stroke: #1f77b4"/>
     <use xlink:href="#ma47efbcfd2" x="224.497293" y="259.359602" style="fill: #1f77b4; stroke: #1f77b4"/>
     <use xlink:href="#ma47efbcfd2" x="227.850613" y="263.899567" style="fill: #1f77b4; stroke: #1f77b4"/>
     <use xlink:href="#ma47efbcfd2" x="231.203933" y="253.35288" style="fill: #1f77b4; stroke: #1f77b4"/>
     <use xlink:href="#ma47efbcfd2" x="234.557252" y="292.361654" style="fill: #1f77b4; stroke: #1f77b4"/>
     <use xlink:href="#ma47efbcfd2" x="237.910572" y="284.015103" style="fill: #1f77b4; stroke: #1f77b4"/>
     <use xlink:href="#ma47efbcfd2" x="241.263892" y="283.805566" style="fill: #1f77b4; stroke: #1f77b4"/>
     <use xlink:href="#ma47efbcfd2" x="244.617211" y="291.383815" style="fill: #1f77b4; stroke: #1f77b4"/>
     <use xlink:href="#ma47efbcfd2" x="247.970531" y="309.194446" style="fill: #1f77b4; stroke: #1f77b4"/>
     <use xlink:href="#ma47efbcfd2" x="251.323851" y="300.952664" style="fill: #1f77b4; stroke: #1f77b4"/>
     <use xlink:href="#ma47efbcfd2" x="254.677171" y="300.324054" style="fill: #1f77b4; stroke: #1f77b4"/>
     <use xlink:href="#ma47efbcfd2" x="258.03049" y="309.334137" style="fill: #1f77b4; stroke: #1f77b4"/>
     <use xlink:href="#ma47efbcfd2" x="261.38381" y="308.181685" style="fill: #1f77b4; stroke: #1f77b4"/>
     <use xlink:href="#ma47efbcfd2" x="264.73713" y="310.24213" style="fill: #1f77b4; stroke: #1f77b4"/>
     <use xlink:href="#ma47efbcfd2" x="268.090449" y="309.124601" style="fill: #1f77b4; stroke: #1f77b4"/>
     <use xlink:href="#ma47efbcfd2" x="271.443769" y="314.118562" style="fill: #1f77b4; stroke: #1f77b4"/>
     <use xlink:href="#ma47efbcfd2" x="274.797089" y="319.391906" style="fill: #1f77b4; stroke: #1f77b4"/>
     <use xlink:href="#ma47efbcfd2" x="278.150409" y="319.810979" style="fill: #1f77b4; stroke: #1f77b4"/>
     <use xlink:href="#ma47efbcfd2" x="281.503728" y="315.620243" style="fill: #1f77b4; stroke: #1f77b4"/>
     <use xlink:href="#ma47efbcfd2" x="284.857048" y="315.655165" style="fill: #1f77b4; stroke: #1f77b4"/>
     <use xlink:href="#ma47efbcfd2" x="288.210368" y="307.273692" style="fill: #1f77b4; stroke: #1f77b4"/>
     <use xlink:href="#ma47efbcfd2" x="291.563687" y="309.508751" style="fill: #1f77b4; stroke: #1f77b4"/>
     <use xlink:href="#ma47efbcfd2" x="294.917007" y="314.956709" style="fill: #1f77b4; stroke: #1f77b4"/>
     <use xlink:href="#ma47efbcfd2" x="298.270327" y="314.782095" style="fill: #1f77b4; stroke: #1f77b4"/>
     <use xlink:href="#ma47efbcfd2" x="301.623647" y="320.369744" style="fill: #1f77b4; stroke: #1f77b4"/>
     <use xlink:href="#ma47efbcfd2" x="304.976966" y="321.906348" style="fill: #1f77b4; stroke: #1f77b4"/>
     <use xlink:href="#ma47efbcfd2" x="308.330286" y="322.220653" style="fill: #1f77b4; stroke: #1f77b4"/>
     <use xlink:href="#ma47efbcfd2" x="311.683606" y="317.436228" style="fill: #1f77b4; stroke: #1f77b4"/>
     <use xlink:href="#ma47efbcfd2" x="315.036925" y="255.867322" style="fill: #1f77b4; stroke: #1f77b4"/>
     <use xlink:href="#ma47efbcfd2" x="318.390245" y="269.626907" style="fill: #1f77b4; stroke: #1f77b4"/>
     <use xlink:href="#ma47efbcfd2" x="321.743565" y="287.297847" style="fill: #1f77b4; stroke: #1f77b4"/>
     <use xlink:href="#ma47efbcfd2" x="325.096885" y="289.148756" style="fill: #1f77b4; stroke: #1f77b4"/>
     <use xlink:href="#ma47efbcfd2" x="328.450204" y="256.565778" style="fill: #1f77b4; stroke: #1f77b4"/>
     <use xlink:href="#ma47efbcfd2" x="331.803524" y="260.966051" style="fill: #1f77b4; stroke: #1f77b4"/>
     <use xlink:href="#ma47efbcfd2" x="335.156844" y="272.874728" style="fill: #1f77b4; stroke: #1f77b4"/>
     <use xlink:href="#ma47efbcfd2" x="338.510163" y="284.084949" style="fill: #1f77b4; stroke: #1f77b4"/>
     <use xlink:href="#ma47efbcfd2" x="341.863483" y="286.21524" style="fill: #1f77b4; stroke: #1f77b4"/>
     <use xlink:href="#ma47efbcfd2" x="345.216803" y="288.939219" style="fill: #1f77b4; stroke: #1f77b4"/>
     <use xlink:href="#ma47efbcfd2" x="348.570123" y="261.350202" style="fill: #1f77b4; stroke: #1f77b4"/>
     <use xlink:href="#ma47efbcfd2" x="351.923442" y="259.778676" style="fill: #1f77b4; stroke: #1f77b4"/>
     <use xlink:href="#ma47efbcfd2" x="355.276762" y="267.880767" style="fill: #1f77b4; stroke: #1f77b4"/>
     <use xlink:href="#ma47efbcfd2" x="358.630082" y="281.570507" style="fill: #1f77b4; stroke: #1f77b4"/>
     <use xlink:href="#ma47efbcfd2" x="361.983401" y="273.852567" style="fill: #1f77b4; stroke: #1f77b4"/>
     <use xlink:href="#ma47efbcfd2" x="365.336721" y="278.113149" style="fill: #1f77b4; stroke: #1f77b4"/>
     <use xlink:href="#ma47efbcfd2" x="368.690041" y="245.600017" style="fill: #1f77b4; stroke: #1f77b4"/>
     <use xlink:href="#ma47efbcfd2" x="372.043361" y="253.702108" style="fill: #1f77b4; stroke: #1f77b4"/>
     <use xlink:href="#ma47efbcfd2" x="375.39668" y="249.441526" style="fill: #1f77b4; stroke: #1f77b4"/>
     <use xlink:href="#ma47efbcfd2" x="378.75" y="267.636307" style="fill: #1f77b4; stroke: #1f77b4"/>
     <use xlink:href="#ma47efbcfd2" x="382.10332" y="268.998297" style="fill: #1f77b4; stroke: #1f77b4"/>
     <use xlink:href="#ma47efbcfd2" x="385.456639" y="259.464371" style="fill: #1f77b4; stroke: #1f77b4"/>
     <use xlink:href="#ma47efbcfd2" x="388.809959" y="280.24344" style="fill: #1f77b4; stroke: #1f77b4"/>
     <use xlink:href="#ma47efbcfd2" x="392.163279" y="267.531539" style="fill: #1f77b4; stroke: #1f77b4"/>
     <use xlink:href="#ma47efbcfd2" x="395.516599" y="158.712076" style="fill: #1f77b4; stroke: #1f77b4"/>
     <use xlink:href="#ma47efbcfd2" x="398.869918" y="235.716863" style="fill: #1f77b4; stroke: #1f77b4"/>
     <use xlink:href="#ma47efbcfd2" x="402.223238" y="241.968045" style="fill: #1f77b4; stroke: #1f77b4"/>
     <use xlink:href="#ma47efbcfd2" x="405.576558" y="241.793431" style="fill: #1f77b4; stroke: #1f77b4"/>
     <use xlink:href="#ma47efbcfd2" x="408.929877" y="249.546294" style="fill: #1f77b4; stroke: #1f77b4"/>
     <use xlink:href="#ma47efbcfd2" x="412.283197" y="253.632262" style="fill: #1f77b4; stroke: #1f77b4"/>
     <use xlink:href="#ma47efbcfd2" x="415.636517" y="220.141291" style="fill: #1f77b4; stroke: #1f77b4"/>
     <use xlink:href="#ma47efbcfd2" x="418.989837" y="210.53752" style="fill: #1f77b4; stroke: #1f77b4"/>
     <use xlink:href="#ma47efbcfd2" x="422.343156" y="222.166814" style="fill: #1f77b4; stroke: #1f77b4"/>
     <use xlink:href="#ma47efbcfd2" x="425.696476" y="230.932438" style="fill: #1f77b4; stroke: #1f77b4"/>
     <use xlink:href="#ma47efbcfd2" x="429.049796" y="237.497926" style="fill: #1f77b4; stroke: #1f77b4"/>
     <use xlink:href="#ma47efbcfd2" x="432.403115" y="247.206466" style="fill: #1f77b4; stroke: #1f77b4"/>
     <use xlink:href="#ma47efbcfd2" x="435.756435" y="222.166814" style="fill: #1f77b4; stroke: #1f77b4"/>
     <use xlink:href="#ma47efbcfd2" x="439.109755" y="218.325306" style="fill: #1f77b4; stroke: #1f77b4"/>
     <use xlink:href="#ma47efbcfd2" x="442.463075" y="241.793431" style="fill: #1f77b4; stroke: #1f77b4"/>
     <use xlink:href="#ma47efbcfd2" x="445.816394" y="227.789386" style="fill: #1f77b4; stroke: #1f77b4"/>
     <use xlink:href="#ma47efbcfd2" x="449.169714" y="249.685985" style="fill: #1f77b4; stroke: #1f77b4"/>
     <use xlink:href="#ma47efbcfd2" x="452.523034" y="257.438848" style="fill: #1f77b4; stroke: #1f77b4"/>
     <use xlink:href="#ma47efbcfd2" x="455.876353" y="260.581901" style="fill: #1f77b4; stroke: #1f77b4"/>
     <use xlink:href="#ma47efbcfd2" x="459.229673" y="238.859915" style="fill: #1f77b4; stroke: #1f77b4"/>
     <use xlink:href="#ma47efbcfd2" x="462.582993" y="224.960639" style="fill: #1f77b4; stroke: #1f77b4"/>
     <use xlink:href="#ma47efbcfd2" x="465.936313" y="243.050652" style="fill: #1f77b4; stroke: #1f77b4"/>
     <use xlink:href="#ma47efbcfd2" x="469.289632" y="256.635624" style="fill: #1f77b4; stroke: #1f77b4"/>
     <use xlink:href="#ma47efbcfd2" x="472.642952" y="261.07082" style="fill: #1f77b4; stroke: #1f77b4"/>
     <use xlink:href="#ma47efbcfd2" x="475.996272" y="270.150749" style="fill: #1f77b4; stroke: #1f77b4"/>
     <use xlink:href="#ma47efbcfd2" x="479.349591" y="276.681314" style="fill: #1f77b4; stroke: #1f77b4"/>
     <use xlink:href="#ma47efbcfd2" x="482.702911" y="269.871367" style="fill: #1f77b4; stroke: #1f77b4"/>
     <use xlink:href="#ma47efbcfd2" x="486.056231" y="264.877406" style="fill: #1f77b4; stroke: #1f77b4"/>
     <use xlink:href="#ma47efbcfd2" x="489.409551" y="268.928451" style="fill: #1f77b4; stroke: #1f77b4"/>
     <use xlink:href="#ma47efbcfd2" x="492.76287" y="277.37977" style="fill: #1f77b4; stroke: #1f77b4"/>
     <use xlink:href="#ma47efbcfd2" x="496.11619" y="281.745121" style="fill: #1f77b4; stroke: #1f77b4"/>
     <use xlink:href="#ma47efbcfd2" x="499.46951" y="291.593352" style="fill: #1f77b4; stroke: #1f77b4"/>
     <use xlink:href="#ma47efbcfd2" x="502.822829" y="287.402615" style="fill: #1f77b4; stroke: #1f77b4"/>
     <use xlink:href="#ma47efbcfd2" x="506.176149" y="292.291808" style="fill: #1f77b4; stroke: #1f77b4"/>
     <use xlink:href="#ma47efbcfd2" x="509.529469" y="279.544984" style="fill: #1f77b4; stroke: #1f77b4"/>
     <use xlink:href="#ma47efbcfd2" x="512.882789" y="275.808244" style="fill: #1f77b4; stroke: #1f77b4"/>
     <use xlink:href="#ma47efbcfd2" x="516.236108" y="293.06011" style="fill: #1f77b4; stroke: #1f77b4"/>
     <use xlink:href="#ma47efbcfd2" x="519.589428" y="296.79685" style="fill: #1f77b4; stroke: #1f77b4"/>
     <use xlink:href="#ma47efbcfd2" x="522.942748" y="303.536952" style="fill: #1f77b4; stroke: #1f77b4"/>
     <use xlink:href="#ma47efbcfd2" x="526.296067" y="297.285769" style="fill: #1f77b4; stroke: #1f77b4"/>
     <use xlink:href="#ma47efbcfd2" x="529.649387" y="288.031226" style="fill: #1f77b4; stroke: #1f77b4"/>
     <use xlink:href="#ma47efbcfd2" x="533.002707" y="287.297847" style="fill: #1f77b4; stroke: #1f77b4"/>
     <use xlink:href="#ma47efbcfd2" x="536.356027" y="294.282408" style="fill: #1f77b4; stroke: #1f77b4"/>
     <use xlink:href="#ma47efbcfd2" x="539.709346" y="293.723643" style="fill: #1f77b4; stroke: #1f77b4"/>
     <use xlink:href="#ma47efbcfd2" x="543.062666" y="298.996987" style="fill: #1f77b4; stroke: #1f77b4"/>
     <use xlink:href="#ma47efbcfd2" x="546.415986" y="302.384499" style="fill: #1f77b4; stroke: #1f77b4"/>
     <use xlink:href="#ma47efbcfd2" x="549.769305" y="291.209201" style="fill: #1f77b4; stroke: #1f77b4"/>
     <use xlink:href="#ma47efbcfd2" x="553.122625" y="289.777366" style="fill: #1f77b4; stroke: #1f77b4"/>
     <use xlink:href="#ma47efbcfd2" x="556.475945" y="266.029858" style="fill: #1f77b4; stroke: #1f77b4"/>
     <use xlink:href="#ma47efbcfd2" x="559.829265" y="288.83445" style="fill: #1f77b4; stroke: #1f77b4"/>
     <use xlink:href="#ma47efbcfd2" x="563.182584" y="287.472461" style="fill: #1f77b4; stroke: #1f77b4"/>
     <use xlink:href="#ma47efbcfd2" x="566.535904" y="293.68872" style="fill: #1f77b4; stroke: #1f77b4"/>
     <use xlink:href="#ma47efbcfd2" x="569.889224" y="299.241447" style="fill: #1f77b4; stroke: #1f77b4"/>
     <use xlink:href="#ma47efbcfd2" x="573.242543" y="283.037265" style="fill: #1f77b4; stroke: #1f77b4"/>
     <use xlink:href="#ma47efbcfd2" x="576.595863" y="280.662514" style="fill: #1f77b4; stroke: #1f77b4"/>
     <use xlink:href="#ma47efbcfd2" x="579.949183" y="282.164195" style="fill: #1f77b4; stroke: #1f77b4"/>
     <use xlink:href="#ma47efbcfd2" x="583.302503" y="285.551707" style="fill: #1f77b4; stroke: #1f77b4"/>
     <use xlink:href="#ma47efbcfd2" x="586.655822" y="289.637675" style="fill: #1f77b4; stroke: #1f77b4"/>
     <use xlink:href="#ma47efbcfd2" x="590.009142" y="295.574552" style="fill: #1f77b4; stroke: #1f77b4"/>
     <use xlink:href="#ma47efbcfd2" x="593.362462" y="297.600075" style="fill: #1f77b4; stroke: #1f77b4"/>
     <use xlink:href="#ma47efbcfd2" x="596.715781" y="283.840489" style="fill: #1f77b4; stroke: #1f77b4"/>
     <use xlink:href="#ma47efbcfd2" x="600.069101" y="283.386493" style="fill: #1f77b4; stroke: #1f77b4"/>
     <use xlink:href="#ma47efbcfd2" x="603.422421" y="290.161517" style="fill: #1f77b4; stroke: #1f77b4"/>
     <use xlink:href="#ma47efbcfd2" x="606.775741" y="293.444261" style="fill: #1f77b4; stroke: #1f77b4"/>
     <use xlink:href="#ma47efbcfd2" x="610.12906" y="297.66992" style="fill: #1f77b4; stroke: #1f77b4"/>
     <use xlink:href="#ma47efbcfd2" x="613.48238" y="302.419422" style="fill: #1f77b4; stroke: #1f77b4"/>
     <use xlink:href="#ma47efbcfd2" x="616.8357" y="305.667243" style="fill: #1f77b4; stroke: #1f77b4"/>
     <use xlink:href="#ma47efbcfd2" x="620.189019" y="296.16824" style="fill: #1f77b4; stroke: #1f77b4"/>
     <use xlink:href="#ma47efbcfd2" x="623.542339" y="297.460383" style="fill: #1f77b4; stroke: #1f77b4"/>
     <use xlink:href="#ma47efbcfd2" x="626.895659" y="292.396577" style="fill: #1f77b4; stroke: #1f77b4"/>
     <use xlink:href="#ma47efbcfd2" x="630.248979" y="301.476506" style="fill: #1f77b4; stroke: #1f77b4"/>
     <use xlink:href="#ma47efbcfd2" x="633.602298" y="303.257569" style="fill: #1f77b4; stroke: #1f77b4"/>
     <use xlink:href="#ma47efbcfd2" x="636.955618" y="308.880141" style="fill: #1f77b4; stroke: #1f77b4"/>
     <use xlink:href="#ma47efbcfd2" x="640.308938" y="301.686043" style="fill: #1f77b4; stroke: #1f77b4"/>
     <use xlink:href="#ma47efbcfd2" x="643.662257" y="301.371738" style="fill: #1f77b4; stroke: #1f77b4"/>
     <use xlink:href="#ma47efbcfd2" x="647.015577" y="304.479867" style="fill: #1f77b4; stroke: #1f77b4"/>
     <use xlink:href="#ma47efbcfd2" x="650.368897" y="305.108478" style="fill: #1f77b4; stroke: #1f77b4"/>
     <use xlink:href="#ma47efbcfd2" x="653.722217" y="306.680004" style="fill: #1f77b4; stroke: #1f77b4"/>
     <use xlink:href="#ma47efbcfd2" x="657.075536" y="310.067516" style="fill: #1f77b4; stroke: #1f77b4"/>
     <use xlink:href="#ma47efbcfd2" x="660.428856" y="313.210569" style="fill: #1f77b4; stroke: #1f77b4"/>
     <use xlink:href="#ma47efbcfd2" x="663.782176" y="305.772011" style="fill: #1f77b4; stroke: #1f77b4"/>
     <use xlink:href="#ma47efbcfd2" x="667.135495" y="302.454345" style="fill: #1f77b4; stroke: #1f77b4"/>
     <use xlink:href="#ma47efbcfd2" x="670.488815" y="302.384499" style="fill: #1f77b4; stroke: #1f77b4"/>
     <use xlink:href="#ma47efbcfd2" x="673.842135" y="302.943264" style="fill: #1f77b4; stroke: #1f77b4"/>
     <use xlink:href="#ma47efbcfd2" x="677.195455" y="308.565836" style="fill: #1f77b4; stroke: #1f77b4"/>
    </g>
   </g>
   <g id="line2d_20">
    <path d="M 80.304545 324.80494 
L 83.657865 325.084323 
L 87.011185 325.573242 
L 90.364505 324.141407 
L 93.717824 325.154168 
L 97.071144 324.595404 
L 100.424464 324.455712 
L 107.131103 324.42079 
L 110.484423 322.849263 
L 113.837743 318.518835 
L 117.191062 320.404667 
L 120.544382 315.271014 
L 123.897702 315.655165 
L 127.251021 315.550397 
L 130.604341 308.705527 
L 133.957661 306.540313 
L 137.310981 301.89558 
L 140.6643 305.352938 
L 144.01762 302.663882 
L 147.37094 305.527552 
L 150.724259 306.086317 
L 154.077579 305.00371 
L 157.430899 285.34217 
L 160.784219 261.769276 
L 164.137538 261.350202 
L 167.490858 267.391848 
L 170.844178 264.109104 
L 174.197497 262.293118 
L 177.550817 217.068085 
L 180.904137 190.456907 
L 184.257457 195.066717 
L 187.610776 177.640237 
L 190.964096 215.461636 
L 194.317416 262.886806 
L 197.670735 231.421358 
L 201.024055 221.398512 
L 204.377375 222.23666 
L 207.730695 242.247428 
L 211.084014 221.188976 
L 214.437334 248.952606 
L 217.790654 261.454971 
L 221.143973 266.868006 
L 224.497293 254.295796 
L 227.850613 263.375725 
L 231.203933 244.76187 
L 234.557252 296.028548 
L 237.910572 292.466422 
L 241.263892 285.726321 
L 244.617211 295.819012 
L 247.970531 310.73105 
L 251.323851 302.908341 
L 254.677171 301.197124 
L 258.03049 307.413383 
L 261.38381 311.185046 
L 264.73713 309.892902 
L 268.090449 311.534274 
L 271.443769 314.013793 
L 274.797089 320.893586 
L 278.150409 320.090362 
L 281.503728 317.540997 
L 284.857048 317.471151 
L 288.210368 310.207208 
L 291.563687 310.835818 
L 294.917007 315.480551 
L 298.270327 315.305937 
L 301.623647 319.985593 
L 304.976966 321.801579 
L 308.330286 322.255576 
L 311.683606 317.715611 
L 315.036925 248.009691 
L 318.390245 261.664508 
L 321.743565 286.494622 
L 325.096885 287.053387 
L 328.450204 247.62554 
L 331.803524 249.301834 
L 335.156844 261.629585 
L 338.510163 269.801521 
L 341.863483 271.198434 
L 345.216803 278.671914 
L 348.570123 232.538888 
L 351.923442 225.624172 
L 355.276762 230.19906 
L 358.630082 249.685985 
L 361.983401 235.507326 
L 365.336721 246.333396 
L 368.690041 179.945142 
L 372.043361 195.276254 
L 375.39668 188.047233 
L 378.75 216.614088 
L 382.10332 217.033162 
L 385.456639 209.41999 
L 388.809959 247.695385 
L 392.163279 227.370312 
L 395.516599 27.856323 
L 398.869918 171.912897 
L 402.223238 185.14864 
L 405.576558 181.761128 
L 408.929877 198.105001 
L 412.283197 205.543559 
L 415.636517 137.828238 
L 418.989837 131.12306 
L 422.343156 157.419932 
L 425.696476 180.119756 
L 429.049796 199.746373 
L 432.403115 212.563043 
L 435.756435 156.546862 
L 439.109755 153.78796 
L 442.463075 198.873303 
L 445.816394 194.123801 
L 449.169714 212.493197 
L 452.523034 235.332712 
L 455.876353 237.113775 
L 459.229673 201.632204 
L 462.582993 183.367577 
L 465.936313 215.810864 
L 469.289632 232.783347 
L 472.642952 245.460326 
L 475.996272 256.810238 
L 479.349591 265.086943 
L 482.702911 256.775315 
L 486.056231 248.952606 
L 489.409551 257.96269 
L 492.76287 270.919051 
L 496.11619 279.510061 
L 499.46951 292.396577 
L 502.822829 290.021826 
L 506.176149 292.780728 
L 509.529469 277.833767 
L 512.882789 275.63363 
L 516.236108 289.986903 
L 519.589428 291.034587 
L 522.942748 301.89558 
L 529.649387 287.507384 
L 533.002707 277.589307 
L 536.356027 290.720282 
L 539.709346 291.418738 
L 543.062666 298.612836 
L 546.415986 300.952664 
L 549.769305 286.110472 
L 553.122625 279.824367 
L 556.475945 250.943206 
L 559.829265 286.494622 
L 563.182584 279.160833 
L 566.535904 294.212563 
L 569.889224 296.377777 
L 573.242543 280.033903 
L 576.595863 271.198434 
L 579.949183 274.5161 
L 583.302503 278.986219 
L 586.655822 280.976819 
L 590.009142 291.802889 
L 593.362462 290.371054 
L 596.715781 268.474455 
L 600.069101 268.264918 
L 603.422421 279.61483 
L 606.775741 289.113833 
L 610.12906 290.161517 
L 613.48238 297.809612 
L 616.8357 298.717605 
L 620.189019 284.050026 
L 623.542339 288.520145 
L 626.895659 286.878773 
L 630.248979 293.898257 
L 633.602298 298.647759 
L 636.955618 306.226008 
L 640.308938 293.828412 
L 643.662257 293.129956 
L 647.015577 297.390538 
L 650.368897 302.105117 
L 653.722217 302.873418 
L 657.075536 308.565836 
L 660.428856 311.848579 
L 663.782176 301.860657 
L 667.135495 298.368376 
L 670.488815 299.695443 
L 673.842135 302.209885 
L 677.195455 306.959387 
L 677.195455 306.959387 
" clip-path="url(#pac4544f947)" style="fill: none; stroke: #ff7f0e; stroke-width: 1.5; stroke-linecap: square"/>
    <defs>
     <path id="md906e007ed" d="M 0 3 
C 0.795609 3 1.55874 2.683901 2.12132 2.12132 
C 2.683901 1.55874 3 0.795609 3 0 
C 3 -0.795609 2.683901 -1.55874 2.12132 -2.12132 
C 1.55874 -2.683901 0.795609 -3 0 -3 
C -0.795609 -3 -1.55874 -2.683901 -2.12132 -2.12132 
C -2.683901 -1.55874 -3 -0.795609 -3 0 
C -3 0.795609 -2.683901 1.55874 -2.12132 2.12132 
C -1.55874 2.683901 -0.795609 3 0 3 
z
" style="stroke: #ff7f0e"/>
    </defs>
    <g clip-path="url(#pac4544f947)">
     <use xlink:href="#md906e007ed" x="80.304545" y="324.80494" style="fill: #ff7f0e; stroke: #ff7f0e"/>
     <use xlink:href="#md906e007ed" x="83.657865" y="325.084323" style="fill: #ff7f0e; stroke: #ff7f0e"/>
     <use xlink:href="#md906e007ed" x="87.011185" y="325.573242" style="fill: #ff7f0e; stroke: #ff7f0e"/>
     <use xlink:href="#md906e007ed" x="90.364505" y="324.141407" style="fill: #ff7f0e; stroke: #ff7f0e"/>
     <use xlink:href="#md906e007ed" x="93.717824" y="325.154168" style="fill: #ff7f0e; stroke: #ff7f0e"/>
     <use xlink:href="#md906e007ed" x="97.071144" y="324.595404" style="fill: #ff7f0e; stroke: #ff7f0e"/>
     <use xlink:href="#md906e007ed" x="100.424464" y="324.455712" style="fill: #ff7f0e; stroke: #ff7f0e"/>
     <use xlink:href="#md906e007ed" x="103.777783" y="324.455712" style="fill: #ff7f0e; stroke: #ff7f0e"/>
     <use xlink:href="#md906e007ed" x="107.131103" y="324.42079" style="fill: #ff7f0e; stroke: #ff7f0e"/>
     <use xlink:href="#md906e007ed" x="110.484423" y="322.849263" style="fill: #ff7f0e; stroke: #ff7f0e"/>
     <use xlink:href="#md906e007ed" x="113.837743" y="318.518835" style="fill: #ff7f0e; stroke: #ff7f0e"/>
     <use xlink:href="#md906e007ed" x="117.191062" y="320.404667" style="fill: #ff7f0e; stroke: #ff7f0e"/>
     <use xlink:href="#md906e007ed" x="120.544382" y="315.271014" style="fill: #ff7f0e; stroke: #ff7f0e"/>
     <use xlink:href="#md906e007ed" x="123.897702" y="315.655165" style="fill: #ff7f0e; stroke: #ff7f0e"/>
     <use xlink:href="#md906e007ed" x="127.251021" y="315.550397" style="fill: #ff7f0e; stroke: #ff7f0e"/>
     <use xlink:href="#md906e007ed" x="130.604341" y="308.705527" style="fill: #ff7f0e; stroke: #ff7f0e"/>
     <use xlink:href="#md906e007ed" x="133.957661" y="306.540313" style="fill: #ff7f0e; stroke: #ff7f0e"/>
     <use xlink:href="#md906e007ed" x="137.310981" y="301.89558" style="fill: #ff7f0e; stroke: #ff7f0e"/>
     <use xlink:href="#md906e007ed" x="140.6643" y="305.352938" style="fill: #ff7f0e; stroke: #ff7f0e"/>
     <use xlink:href="#md906e007ed" x="144.01762" y="302.663882" style="fill: #ff7f0e; stroke: #ff7f0e"/>
     <use xlink:href="#md906e007ed" x="147.37094" y="305.527552" style="fill: #ff7f0e; stroke: #ff7f0e"/>
     <use xlink:href="#md906e007ed" x="150.724259" y="306.086317" style="fill: #ff7f0e; stroke: #ff7f0e"/>
     <use xlink:href="#md906e007ed" x="154.077579" y="305.00371" style="fill: #ff7f0e; stroke: #ff7f0e"/>
     <use xlink:href="#md906e007ed" x="157.430899" y="285.34217" style="fill: #ff7f0e; stroke: #ff7f0e"/>
     <use xlink:href="#md906e007ed" x="160.784219" y="261.769276" style="fill: #ff7f0e; stroke: #ff7f0e"/>
     <use xlink:href="#md906e007ed" x="164.137538" y="261.350202" style="fill: #ff7f0e; stroke: #ff7f0e"/>
     <use xlink:href="#md906e007ed" x="167.490858" y="267.391848" style="fill: #ff7f0e; stroke: #ff7f0e"/>
     <use xlink:href="#md906e007ed" x="170.844178" y="264.109104" style="fill: #ff7f0e; stroke: #ff7f0e"/>
     <use xlink:href="#md906e007ed" x="174.197497" y="262.293118" style="fill: #ff7f0e; stroke: #ff7f0e"/>
     <use xlink:href="#md906e007ed" x="177.550817" y="217.068085" style="fill: #ff7f0e; stroke: #ff7f0e"/>
     <use xlink:href="#md906e007ed" x="180.904137" y="190.456907" style="fill: #ff7f0e; stroke: #ff7f0e"/>
     <use xlink:href="#md906e007ed" x="184.257457" y="195.066717" style="fill: #ff7f0e; stroke: #ff7f0e"/>
     <use xlink:href="#md906e007ed" x="187.610776" y="177.640237" style="fill: #ff7f0e; stroke: #ff7f0e"/>
     <use xlink:href="#md906e007ed" x="190.964096" y="215.461636" style="fill: #ff7f0e; stroke: #ff7f0e"/>
     <use xlink:href="#md906e007ed" x="194.317416" y="262.886806" style="fill: #ff7f0e; stroke: #ff7f0e"/>
     <use xlink:href="#md906e007ed" x="197.670735" y="231.421358" style="fill: #ff7f0e; stroke: #ff7f0e"/>
     <use xlink:href="#md906e007ed" x="201.024055" y="221.398512" style="fill: #ff7f0e; stroke: #ff7f0e"/>
     <use xlink:href="#md906e007ed" x="204.377375" y="222.23666" style="fill: #ff7f0e; stroke: #ff7f0e"/>
     <use xlink:href="#md906e007ed" x="207.730695" y="242.247428" style="fill: #ff7f0e; stroke: #ff7f0e"/>
     <use xlink:href="#md906e007ed" x="211.084014" y="221.188976" style="fill: #ff7f0e; stroke: #ff7f0e"/>
     <use xlink:href="#md906e007ed" x="214.437334" y="248.952606" style="fill: #ff7f0e; stroke: #ff7f0e"/>
     <use xlink:href="#md906e007ed" x="217.790654" y="261.454971" style="fill: #ff7f0e; stroke: #ff7f0e"/>
     <use xlink:href="#md906e007ed" x="221.143973" y="266.868006" style="fill: #ff7f0e; stroke: #ff7f0e"/>
     <use xlink:href="#md906e007ed" x="224.497293" y="254.295796" style="fill: #ff7f0e; stroke: #ff7f0e"/>
     <use xlink:href="#md906e007ed" x="227.850613" y="263.375725" style="fill: #ff7f0e; stroke: #ff7f0e"/>
     <use xlink:href="#md906e007ed" x="231.203933" y="244.76187" style="fill: #ff7f0e; stroke: #ff7f0e"/>
     <use xlink:href="#md906e007ed" x="234.557252" y="296.028548" style="fill: #ff7f0e; stroke: #ff7f0e"/>
     <use xlink:href="#md906e007ed" x="237.910572" y="292.466422" style="fill: #ff7f0e; stroke: #ff7f0e"/>
     <use xlink:href="#md906e007ed" x="241.263892" y="285.726321" style="fill: #ff7f0e; stroke: #ff7f0e"/>
     <use xlink:href="#md906e007ed" x="244.617211" y="295.819012" style="fill: #ff7f0e; stroke: #ff7f0e"/>
     <use xlink:href="#md906e007ed" x="247.970531" y="310.73105" style="fill: #ff7f0e; stroke: #ff7f0e"/>
     <use xlink:href="#md906e007ed" x="251.323851" y="302.908341" style="fill: #ff7f0e; stroke: #ff7f0e"/>
     <use xlink:href="#md906e007ed" x="254.677171" y="301.197124" style="fill: #ff7f0e; stroke: #ff7f0e"/>
     <use xlink:href="#md906e007ed" x="258.03049" y="307.413383" style="fill: #ff7f0e; stroke: #ff7f0e"/>
     <use xlink:href="#md906e007ed" x="261.38381" y="311.185046" style="fill: #ff7f0e; stroke: #ff7f0e"/>
     <use xlink:href="#md906e007ed" x="264.73713" y="309.892902" style="fill: #ff7f0e; stroke: #ff7f0e"/>
     <use xlink:href="#md906e007ed" x="268.090449" y="311.534274" style="fill: #ff7f0e; stroke: #ff7f0e"/>
     <use xlink:href="#md906e007ed" x="271.443769" y="314.013793" style="fill: #ff7f0e; stroke: #ff7f0e"/>
     <use xlink:href="#md906e007ed" x="274.797089" y="320.893586" style="fill: #ff7f0e; stroke: #ff7f0e"/>
     <use xlink:href="#md906e007ed" x="278.150409" y="320.090362" style="fill: #ff7f0e; stroke: #ff7f0e"/>
     <use xlink:href="#md906e007ed" x="281.503728" y="317.540997" style="fill: #ff7f0e; stroke: #ff7f0e"/>
     <use xlink:href="#md906e007ed" x="284.857048" y="317.471151" style="fill: #ff7f0e; stroke: #ff7f0e"/>
     <use xlink:href="#md906e007ed" x="288.210368" y="310.207208" style="fill: #ff7f0e; stroke: #ff7f0e"/>
     <use xlink:href="#md906e007ed" x="291.563687" y="310.835818" style="fill: #ff7f0e; stroke: #ff7f0e"/>
     <use xlink:href="#md906e007ed" x="294.917007" y="315.480551" style="fill: #ff7f0e; stroke: #ff7f0e"/>
     <use xlink:href="#md906e007ed" x="298.270327" y="315.305937" style="fill: #ff7f0e; stroke: #ff7f0e"/>
     <use xlink:href="#md906e007ed" x="301.623647" y="319.985593" style="fill: #ff7f0e; stroke: #ff7f0e"/>
     <use xlink:href="#md906e007ed" x="304.976966" y="321.801579" style="fill: #ff7f0e; stroke: #ff7f0e"/>
     <use xlink:href="#md906e007ed" x="308.330286" y="322.255576" style="fill: #ff7f0e; stroke: #ff7f0e"/>
     <use xlink:href="#md906e007ed" x="311.683606" y="317.715611" style="fill: #ff7f0e; stroke: #ff7f0e"/>
     <use xlink:href="#md906e007ed" x="315.036925" y="248.009691" style="fill: #ff7f0e; stroke: #ff7f0e"/>
     <use xlink:href="#md906e007ed" x="318.390245" y="261.664508" style="fill: #ff7f0e; stroke: #ff7f0e"/>
     <use xlink:href="#md906e007ed" x="321.743565" y="286.494622" style="fill: #ff7f0e; stroke: #ff7f0e"/>
     <use xlink:href="#md906e007ed" x="325.096885" y="287.053387" style="fill: #ff7f0e; stroke: #ff7f0e"/>
     <use xlink:href="#md906e007ed" x="328.450204" y="247.62554" style="fill: #ff7f0e; stroke: #ff7f0e"/>
     <use xlink:href="#md906e007ed" x="331.803524" y="249.301834" style="fill: #ff7f0e; stroke: #ff7f0e"/>
     <use xlink:href="#md906e007ed" x="335.156844" y="261.629585" style="fill: #ff7f0e; stroke: #ff7f0e"/>
     <use xlink:href="#md906e007ed" x="338.510163" y="269.801521" style="fill: #ff7f0e; stroke: #ff7f0e"/>
     <use xlink:href="#md906e007ed" x="341.863483" y="271.198434" style="fill: #ff7f0e; stroke: #ff7f0e"/>
     <use xlink:href="#md906e007ed" x="345.216803" y="278.671914" style="fill: #ff7f0e; stroke: #ff7f0e"/>
     <use xlink:href="#md906e007ed" x="348.570123" y="232.538888" style="fill: #ff7f0e; stroke: #ff7f0e"/>
     <use xlink:href="#md906e007ed" x="351.923442" y="225.624172" style="fill: #ff7f0e; stroke: #ff7f0e"/>
     <use xlink:href="#md906e007ed" x="355.276762" y="230.19906" style="fill: #ff7f0e; stroke: #ff7f0e"/>
     <use xlink:href="#md906e007ed" x="358.630082" y="249.685985" style="fill: #ff7f0e; stroke: #ff7f0e"/>
     <use xlink:href="#md906e007ed" x="361.983401" y="235.507326" style="fill: #ff7f0e; stroke: #ff7f0e"/>
     <use xlink:href="#md906e007ed" x="365.336721" y="246.333396" style="fill: #ff7f0e; stroke: #ff7f0e"/>
     <use xlink:href="#md906e007ed" x="368.690041" y="179.945142" style="fill: #ff7f0e; stroke: #ff7f0e"/>
     <use xlink:href="#md906e007ed" x="372.043361" y="195.276254" style="fill: #ff7f0e; stroke: #ff7f0e"/>
     <use xlink:href="#md906e007ed" x="375.39668" y="188.047233" style="fill: #ff7f0e; stroke: #ff7f0e"/>
     <use xlink:href="#md906e007ed" x="378.75" y="216.614088" style="fill: #ff7f0e; stroke: #ff7f0e"/>
     <use xlink:href="#md906e007ed" x="382.10332" y="217.033162" style="fill: #ff7f0e; stroke: #ff7f0e"/>
     <use xlink:href="#md906e007ed" x="385.456639" y="209.41999" style="fill: #ff7f0e; stroke: #ff7f0e"/>
     <use xlink:href="#md906e007ed" x="388.809959" y="247.695385" style="fill: #ff7f0e; stroke: #ff7f0e"/>
     <use xlink:href="#md906e007ed" x="392.163279" y="227.370312" style="fill: #ff7f0e; stroke: #ff7f0e"/>
     <use xlink:href="#md906e007ed" x="395.516599" y="27.856323" style="fill: #ff7f0e; stroke: #ff7f0e"/>
     <use xlink:href="#md906e007ed" x="398.869918" y="171.912897" style="fill: #ff7f0e; stroke: #ff7f0e"/>
     <use xlink:href="#md906e007ed" x="402.223238" y="185.14864" style="fill: #ff7f0e; stroke: #ff7f0e"/>
     <use xlink:href="#md906e007ed" x="405.576558" y="181.761128" style="fill: #ff7f0e; stroke: #ff7f0e"/>
     <use xlink:href="#md906e007ed" x="408.929877" y="198.105001" style="fill: #ff7f0e; stroke: #ff7f0e"/>
     <use xlink:href="#md906e007ed" x="412.283197" y="205.543559" style="fill: #ff7f0e; stroke: #ff7f0e"/>
     <use xlink:href="#md906e007ed" x="415.636517" y="137.828238" style="fill: #ff7f0e; stroke: #ff7f0e"/>
     <use xlink:href="#md906e007ed" x="418.989837" y="131.12306" style="fill: #ff7f0e; stroke: #ff7f0e"/>
     <use xlink:href="#md906e007ed" x="422.343156" y="157.419932" style="fill: #ff7f0e; stroke: #ff7f0e"/>
     <use xlink:href="#md906e007ed" x="425.696476" y="180.119756" style="fill: #ff7f0e; stroke: #ff7f0e"/>
     <use xlink:href="#md906e007ed" x="429.049796" y="199.746373" style="fill: #ff7f0e; stroke: #ff7f0e"/>
     <use xlink:href="#md906e007ed" x="432.403115" y="212.563043" style="fill: #ff7f0e; stroke: #ff7f0e"/>
     <use xlink:href="#md906e007ed" x="435.756435" y="156.546862" style="fill: #ff7f0e; stroke: #ff7f0e"/>
     <use xlink:href="#md906e007ed" x="439.109755" y="153.78796" style="fill: #ff7f0e; stroke: #ff7f0e"/>
     <use xlink:href="#md906e007ed" x="442.463075" y="198.873303" style="fill: #ff7f0e; stroke: #ff7f0e"/>
     <use xlink:href="#md906e007ed" x="445.816394" y="194.123801" style="fill: #ff7f0e; stroke: #ff7f0e"/>
     <use xlink:href="#md906e007ed" x="449.169714" y="212.493197" style="fill: #ff7f0e; stroke: #ff7f0e"/>
     <use xlink:href="#md906e007ed" x="452.523034" y="235.332712" style="fill: #ff7f0e; stroke: #ff7f0e"/>
     <use xlink:href="#md906e007ed" x="455.876353" y="237.113775" style="fill: #ff7f0e; stroke: #ff7f0e"/>
     <use xlink:href="#md906e007ed" x="459.229673" y="201.632204" style="fill: #ff7f0e; stroke: #ff7f0e"/>
     <use xlink:href="#md906e007ed" x="462.582993" y="183.367577" style="fill: #ff7f0e; stroke: #ff7f0e"/>
     <use xlink:href="#md906e007ed" x="465.936313" y="215.810864" style="fill: #ff7f0e; stroke: #ff7f0e"/>
     <use xlink:href="#md906e007ed" x="469.289632" y="232.783347" style="fill: #ff7f0e; stroke: #ff7f0e"/>
     <use xlink:href="#md906e007ed" x="472.642952" y="245.460326" style="fill: #ff7f0e; stroke: #ff7f0e"/>
     <use xlink:href="#md906e007ed" x="475.996272" y="256.810238" style="fill: #ff7f0e; stroke: #ff7f0e"/>
     <use xlink:href="#md906e007ed" x="479.349591" y="265.086943" style="fill: #ff7f0e; stroke: #ff7f0e"/>
     <use xlink:href="#md906e007ed" x="482.702911" y="256.775315" style="fill: #ff7f0e; stroke: #ff7f0e"/>
     <use xlink:href="#md906e007ed" x="486.056231" y="248.952606" style="fill: #ff7f0e; stroke: #ff7f0e"/>
     <use xlink:href="#md906e007ed" x="489.409551" y="257.96269" style="fill: #ff7f0e; stroke: #ff7f0e"/>
     <use xlink:href="#md906e007ed" x="492.76287" y="270.919051" style="fill: #ff7f0e; stroke: #ff7f0e"/>
     <use xlink:href="#md906e007ed" x="496.11619" y="279.510061" style="fill: #ff7f0e; stroke: #ff7f0e"/>
     <use xlink:href="#md906e007ed" x="499.46951" y="292.396577" style="fill: #ff7f0e; stroke: #ff7f0e"/>
     <use xlink:href="#md906e007ed" x="502.822829" y="290.021826" style="fill: #ff7f0e; stroke: #ff7f0e"/>
     <use xlink:href="#md906e007ed" x="506.176149" y="292.780728" style="fill: #ff7f0e; stroke: #ff7f0e"/>
     <use xlink:href="#md906e007ed" x="509.529469" y="277.833767" style="fill: #ff7f0e; stroke: #ff7f0e"/>
     <use xlink:href="#md906e007ed" x="512.882789" y="275.63363" style="fill: #ff7f0e; stroke: #ff7f0e"/>
     <use xlink:href="#md906e007ed" x="516.236108" y="289.986903" style="fill: #ff7f0e; stroke: #ff7f0e"/>
     <use xlink:href="#md906e007ed" x="519.589428" y="291.034587" style="fill: #ff7f0e; stroke: #ff7f0e"/>
     <use xlink:href="#md906e007ed" x="522.942748" y="301.89558" style="fill: #ff7f0e; stroke: #ff7f0e"/>
     <use xlink:href="#md906e007ed" x="526.296067" y="294.596713" style="fill: #ff7f0e; stroke: #ff7f0e"/>
     <use xlink:href="#md906e007ed" x="529.649387" y="287.507384" style="fill: #ff7f0e; stroke: #ff7f0e"/>
     <use xlink:href="#md906e007ed" x="533.002707" y="277.589307" style="fill: #ff7f0e; stroke: #ff7f0e"/>
     <use xlink:href="#md906e007ed" x="536.356027" y="290.720282" style="fill: #ff7f0e; stroke: #ff7f0e"/>
     <use xlink:href="#md906e007ed" x="539.709346" y="291.418738" style="fill: #ff7f0e; stroke: #ff7f0e"/>
     <use xlink:href="#md906e007ed" x="543.062666" y="298.612836" style="fill: #ff7f0e; stroke: #ff7f0e"/>
     <use xlink:href="#md906e007ed" x="546.415986" y="300.952664" style="fill: #ff7f0e; stroke: #ff7f0e"/>
     <use xlink:href="#md906e007ed" x="549.769305" y="286.110472" style="fill: #ff7f0e; stroke: #ff7f0e"/>
     <use xlink:href="#md906e007ed" x="553.122625" y="279.824367" style="fill: #ff7f0e; stroke: #ff7f0e"/>
     <use xlink:href="#md906e007ed" x="556.475945" y="250.943206" style="fill: #ff7f0e; stroke: #ff7f0e"/>
     <use xlink:href="#md906e007ed" x="559.829265" y="286.494622" style="fill: #ff7f0e; stroke: #ff7f0e"/>
     <use xlink:href="#md906e007ed" x="563.182584" y="279.160833" style="fill: #ff7f0e; stroke: #ff7f0e"/>
     <use xlink:href="#md906e007ed" x="566.535904" y="294.212563" style="fill: #ff7f0e; stroke: #ff7f0e"/>
     <use xlink:href="#md906e007ed" x="569.889224" y="296.377777" style="fill: #ff7f0e; stroke: #ff7f0e"/>
     <use xlink:href="#md906e007ed" x="573.242543" y="280.033903" style="fill: #ff7f0e; stroke: #ff7f0e"/>
     <use xlink:href="#md906e007ed" x="576.595863" y="271.198434" style="fill: #ff7f0e; stroke: #ff7f0e"/>
     <use xlink:href="#md906e007ed" x="579.949183" y="274.5161" style="fill: #ff7f0e; stroke: #ff7f0e"/>
     <use xlink:href="#md906e007ed" x="583.302503" y="278.986219" style="fill: #ff7f0e; stroke: #ff7f0e"/>
     <use xlink:href="#md906e007ed" x="586.655822" y="280.976819" style="fill: #ff7f0e; stroke: #ff7f0e"/>
     <use xlink:href="#md906e007ed" x="590.009142" y="291.802889" style="fill: #ff7f0e; stroke: #ff7f0e"/>
     <use xlink:href="#md906e007ed" x="593.362462" y="290.371054" style="fill: #ff7f0e; stroke: #ff7f0e"/>
     <use xlink:href="#md906e007ed" x="596.715781" y="268.474455" style="fill: #ff7f0e; stroke: #ff7f0e"/>
     <use xlink:href="#md906e007ed" x="600.069101" y="268.264918" style="fill: #ff7f0e; stroke: #ff7f0e"/>
     <use xlink:href="#md906e007ed" x="603.422421" y="279.61483" style="fill: #ff7f0e; stroke: #ff7f0e"/>
     <use xlink:href="#md906e007ed" x="606.775741" y="289.113833" style="fill: #ff7f0e; stroke: #ff7f0e"/>
     <use xlink:href="#md906e007ed" x="610.12906" y="290.161517" style="fill: #ff7f0e; stroke: #ff7f0e"/>
     <use xlink:href="#md906e007ed" x="613.48238" y="297.809612" style="fill: #ff7f0e; stroke: #ff7f0e"/>
     <use xlink:href="#md906e007ed" x="616.8357" y="298.717605" style="fill: #ff7f0e; stroke: #ff7f0e"/>
     <use xlink:href="#md906e007ed" x="620.189019" y="284.050026" style="fill: #ff7f0e; stroke: #ff7f0e"/>
     <use xlink:href="#md906e007ed" x="623.542339" y="288.520145" style="fill: #ff7f0e; stroke: #ff7f0e"/>
     <use xlink:href="#md906e007ed" x="626.895659" y="286.878773" style="fill: #ff7f0e; stroke: #ff7f0e"/>
     <use xlink:href="#md906e007ed" x="630.248979" y="293.898257" style="fill: #ff7f0e; stroke: #ff7f0e"/>
     <use xlink:href="#md906e007ed" x="633.602298" y="298.647759" style="fill: #ff7f0e; stroke: #ff7f0e"/>
     <use xlink:href="#md906e007ed" x="636.955618" y="306.226008" style="fill: #ff7f0e; stroke: #ff7f0e"/>
     <use xlink:href="#md906e007ed" x="640.308938" y="293.828412" style="fill: #ff7f0e; stroke: #ff7f0e"/>
     <use xlink:href="#md906e007ed" x="643.662257" y="293.129956" style="fill: #ff7f0e; stroke: #ff7f0e"/>
     <use xlink:href="#md906e007ed" x="647.015577" y="297.390538" style="fill: #ff7f0e; stroke: #ff7f0e"/>
     <use xlink:href="#md906e007ed" x="650.368897" y="302.105117" style="fill: #ff7f0e; stroke: #ff7f0e"/>
     <use xlink:href="#md906e007ed" x="653.722217" y="302.873418" style="fill: #ff7f0e; stroke: #ff7f0e"/>
     <use xlink:href="#md906e007ed" x="657.075536" y="308.565836" style="fill: #ff7f0e; stroke: #ff7f0e"/>
     <use xlink:href="#md906e007ed" x="660.428856" y="311.848579" style="fill: #ff7f0e; stroke: #ff7f0e"/>
     <use xlink:href="#md906e007ed" x="663.782176" y="301.860657" style="fill: #ff7f0e; stroke: #ff7f0e"/>
     <use xlink:href="#md906e007ed" x="667.135495" y="298.368376" style="fill: #ff7f0e; stroke: #ff7f0e"/>
     <use xlink:href="#md906e007ed" x="670.488815" y="299.695443" style="fill: #ff7f0e; stroke: #ff7f0e"/>
     <use xlink:href="#md906e007ed" x="673.842135" y="302.209885" style="fill: #ff7f0e; stroke: #ff7f0e"/>
     <use xlink:href="#md906e007ed" x="677.195455" y="306.959387" style="fill: #ff7f0e; stroke: #ff7f0e"/>
    </g>
   </g>
   <g id="patch_3">
    <path d="M 50.46 327.04 
L 50.46 12.96 
" style="fill: none; stroke: #000000; stroke-width: 0.8; stroke-linejoin: miter; stroke-linecap: square"/>
   </g>
   <g id="patch_4">
    <path d="M 50.46 327.04 
L 707.04 327.04 
" style="fill: none; stroke: #000000; stroke-width: 0.8; stroke-linejoin: miter; stroke-linecap: square"/>
   </g>
   <g id="legend_1">
    <g id="patch_5">
     <path d="M 58.86 57.7875 
L 197.86125 57.7875 
Q 200.26125 57.7875 200.26125 55.3875 
L 200.26125 21.36 
Q 200.26125 18.96 197.86125 18.96 
L 58.86 18.96 
Q 56.46 18.96 56.46 21.36 
L 56.46 55.3875 
Q 56.46 57.7875 58.86 57.7875 
z
" style="fill: #ffffff; opacity: 0.8; stroke: #cccccc; stroke-linejoin: miter"/>
    </g>
    <g id="line2d_21">
     <path d="M 61.26 28.678125 
L 73.26 28.678125 
L 85.26 28.678125 
" style="fill: none; stroke: #1f77b4; stroke-width: 1.5; stroke-linecap: square"/>
     <g>
      <use xlink:href="#ma47efbcfd2" x="73.26" y="28.678125" style="fill: #1f77b4; stroke: #1f77b4"/>
     </g>
    </g>
    <g id="text_19">
     <!-- Age range 0-9 -->
     <g transform="translate(94.86 32.878125)scale(0.12 -0.12)">
      <defs>
       <path id="DejaVuSans-67" d="M 2906 1791 
Q 2906 2416 2648 2759 
Q 2391 3103 1925 3103 
Q 1463 3103 1205 2759 
Q 947 2416 947 1791 
Q 947 1169 1205 825 
Q 1463 481 1925 481 
Q 2391 481 2648 825 
Q 2906 1169 2906 1791 
z
M 3481 434 
Q 3481 -459 3084 -895 
Q 2688 -1331 1869 -1331 
Q 1566 -1331 1297 -1286 
Q 1028 -1241 775 -1147 
L 775 -588 
Q 1028 -725 1275 -790 
Q 1522 -856 1778 -856 
Q 2344 -856 2625 -561 
Q 2906 -266 2906 331 
L 2906 616 
Q 2728 306 2450 153 
Q 2172 0 1784 0 
Q 1141 0 747 490 
Q 353 981 353 1791 
Q 353 2603 747 3093 
Q 1141 3584 1784 3584 
Q 2172 3584 2450 3431 
Q 2728 3278 2906 2969 
L 2906 3500 
L 3481 3500 
L 3481 434 
z
" transform="scale(0.015625)"/>
       <path id="DejaVuSans-2d" d="M 313 2009 
L 1997 2009 
L 1997 1497 
L 313 1497 
L 313 2009 
z
" transform="scale(0.015625)"/>
      </defs>
      <use xlink:href="#DejaVuSans-41"/>
      <use xlink:href="#DejaVuSans-67" x="68.408203"/>
      <use xlink:href="#DejaVuSans-65" x="131.884766"/>
      <use xlink:href="#DejaVuSans-20" x="193.408203"/>
      <use xlink:href="#DejaVuSans-72" x="225.195312"/>
      <use xlink:href="#DejaVuSans-61" x="266.308594"/>
      <use xlink:href="#DejaVuSans-6e" x="327.587891"/>
      <use xlink:href="#DejaVuSans-67" x="390.966797"/>
      <use xlink:href="#DejaVuSans-65" x="454.443359"/>
      <use xlink:href="#DejaVuSans-20" x="515.966797"/>
      <use xlink:href="#DejaVuSans-30" x="547.753906"/>
      <use xlink:href="#DejaVuSans-2d" x="611.376953"/>
      <use xlink:href="#DejaVuSans-39" x="647.460938"/>
     </g>
    </g>
    <g id="line2d_22">
     <path d="M 61.26 46.291875 
L 73.26 46.291875 
L 85.26 46.291875 
" style="fill: none; stroke: #ff7f0e; stroke-width: 1.5; stroke-linecap: square"/>
     <g>
      <use xlink:href="#md906e007ed" x="73.26" y="46.291875" style="fill: #ff7f0e; stroke: #ff7f0e"/>
     </g>
    </g>
    <g id="text_20">
     <!-- Age range 10-19 -->
     <g transform="translate(94.86 50.491875)scale(0.12 -0.12)">
      <use xlink:href="#DejaVuSans-41"/>
      <use xlink:href="#DejaVuSans-67" x="68.408203"/>
      <use xlink:href="#DejaVuSans-65" x="131.884766"/>
      <use xlink:href="#DejaVuSans-20" x="193.408203"/>
      <use xlink:href="#DejaVuSans-72" x="225.195312"/>
      <use xlink:href="#DejaVuSans-61" x="266.308594"/>
      <use xlink:href="#DejaVuSans-6e" x="327.587891"/>
      <use xlink:href="#DejaVuSans-67" x="390.966797"/>
      <use xlink:href="#DejaVuSans-65" x="454.443359"/>
      <use xlink:href="#DejaVuSans-20" x="515.966797"/>
      <use xlink:href="#DejaVuSans-31" x="547.753906"/>
      <use xlink:href="#DejaVuSans-30" x="611.376953"/>
      <use xlink:href="#DejaVuSans-2d" x="675"/>
      <use xlink:href="#DejaVuSans-31" x="711.083984"/>
      <use xlink:href="#DejaVuSans-39" x="774.707031"/>
     </g>
    </g>
   </g>
  </g>
 </g>
 <defs>
  <clipPath id="pac4544f947">
   <rect x="50.46" y="12.96" width="656.58" height="314.08"/>
  </clipPath>
 </defs>
</svg>
