<?xml version="1.0" encoding="utf-8" standalone="no"?>
<!DOCTYPE svg PUBLIC "-//W3C//DTD SVG 1.1//EN"
  "http://www.w3.org/Graphics/SVG/1.1/DTD/svg11.dtd">
<svg xmlns:xlink="http://www.w3.org/1999/xlink" width="720pt" height="360pt" viewBox="0 0 720 360" xmlns="http://www.w3.org/2000/svg" version="1.1">
 <metadata>
  <rdf:RDF xmlns:dc="http://purl.org/dc/elements/1.1/" xmlns:cc="http://creativecommons.org/ns#" xmlns:rdf="http://www.w3.org/1999/02/22-rdf-syntax-ns#">
   <cc:Work>
    <dc:type rdf:resource="http://purl.org/dc/dcmitype/StillImage"/>
    <dc:date>2022-06-07T14:06:53.131379</dc:date>
    <dc:format>image/svg+xml</dc:format>
    <dc:creator>
     <cc:Agent>
      <dc:title>Matplotlib v3.5.1, https://matplotlib.org/</dc:title>
     </cc:Agent>
    </dc:creator>
   </cc:Work>
  </rdf:RDF>
 </metadata>
 <defs>
  <style type="text/css">*{stroke-linejoin: round; stroke-linecap: butt}</style>
 </defs>
 <g id="figure_1">
  <g id="patch_1">
   <path d="M 0 360 
L 720 360 
L 720 0 
L 0 0 
L 0 360 
z
" style="fill: none"/>
  </g>
  <g id="axes_1">
   <g id="patch_2">
    <path d="M 50.46 327.04 
L 707.04 327.04 
L 707.04 12.96 
L 50.46 12.96 
z
" style="fill: #ffffff"/>
   </g>
   <g id="matplotlib.axis_1">
    <g id="xtick_1">
     <g id="line2d_1">
      <defs>
       <path id="mb8dff29c3f" d="M 0 0 
L 0 3.5 
" style="stroke: #000000; stroke-width: 0.8"/>
      </defs>
      <g>
       <use xlink:href="#mb8dff29c3f" x="80.304545" y="327.04" style="stroke: #000000; stroke-width: 0.8"/>
      </g>
     </g>
     <g id="text_1">
      <!-- Dec 05 -->
      <g transform="translate(59.151733 343.158125)scale(0.12 -0.12)">
       <defs>
        <path id="DejaVuSans-44" d="M 1259 4147 
L 1259 519 
L 2022 519 
Q 2988 519 3436 956 
Q 3884 1394 3884 2338 
Q 3884 3275 3436 3711 
Q 2988 4147 2022 4147 
L 1259 4147 
z
M 628 4666 
L 1925 4666 
Q 3281 4666 3915 4102 
Q 4550 3538 4550 2338 
Q 4550 1131 3912 565 
Q 3275 0 1925 0 
L 628 0 
L 628 4666 
z
" transform="scale(0.015625)"/>
        <path id="DejaVuSans-65" d="M 3597 1894 
L 3597 1613 
L 953 1613 
Q 991 1019 1311 708 
Q 1631 397 2203 397 
Q 2534 397 2845 478 
Q 3156 559 3463 722 
L 3463 178 
Q 3153 47 2828 -22 
Q 2503 -91 2169 -91 
Q 1331 -91 842 396 
Q 353 884 353 1716 
Q 353 2575 817 3079 
Q 1281 3584 2069 3584 
Q 2775 3584 3186 3129 
Q 3597 2675 3597 1894 
z
M 3022 2063 
Q 3016 2534 2758 2815 
Q 2500 3097 2075 3097 
Q 1594 3097 1305 2825 
Q 1016 2553 972 2059 
L 3022 2063 
z
" transform="scale(0.015625)"/>
        <path id="DejaVuSans-63" d="M 3122 3366 
L 3122 2828 
Q 2878 2963 2633 3030 
Q 2388 3097 2138 3097 
Q 1578 3097 1268 2742 
Q 959 2388 959 1747 
Q 959 1106 1268 751 
Q 1578 397 2138 397 
Q 2388 397 2633 464 
Q 2878 531 3122 666 
L 3122 134 
Q 2881 22 2623 -34 
Q 2366 -91 2075 -91 
Q 1284 -91 818 406 
Q 353 903 353 1747 
Q 353 2603 823 3093 
Q 1294 3584 2113 3584 
Q 2378 3584 2631 3529 
Q 2884 3475 3122 3366 
z
" transform="scale(0.015625)"/>
        <path id="DejaVuSans-20" transform="scale(0.015625)"/>
        <path id="DejaVuSans-30" d="M 2034 4250 
Q 1547 4250 1301 3770 
Q 1056 3291 1056 2328 
Q 1056 1369 1301 889 
Q 1547 409 2034 409 
Q 2525 409 2770 889 
Q 3016 1369 3016 2328 
Q 3016 3291 2770 3770 
Q 2525 4250 2034 4250 
z
M 2034 4750 
Q 2819 4750 3233 4129 
Q 3647 3509 3647 2328 
Q 3647 1150 3233 529 
Q 2819 -91 2034 -91 
Q 1250 -91 836 529 
Q 422 1150 422 2328 
Q 422 3509 836 4129 
Q 1250 4750 2034 4750 
z
" transform="scale(0.015625)"/>
        <path id="DejaVuSans-35" d="M 691 4666 
L 3169 4666 
L 3169 4134 
L 1269 4134 
L 1269 2991 
Q 1406 3038 1543 3061 
Q 1681 3084 1819 3084 
Q 2600 3084 3056 2656 
Q 3513 2228 3513 1497 
Q 3513 744 3044 326 
Q 2575 -91 1722 -91 
Q 1428 -91 1123 -41 
Q 819 9 494 109 
L 494 744 
Q 775 591 1075 516 
Q 1375 441 1709 441 
Q 2250 441 2565 725 
Q 2881 1009 2881 1497 
Q 2881 1984 2565 2268 
Q 2250 2553 1709 2553 
Q 1456 2553 1204 2497 
Q 953 2441 691 2322 
L 691 4666 
z
" transform="scale(0.015625)"/>
       </defs>
       <use xlink:href="#DejaVuSans-44"/>
       <use xlink:href="#DejaVuSans-65" x="77.001953"/>
       <use xlink:href="#DejaVuSans-63" x="138.525391"/>
       <use xlink:href="#DejaVuSans-20" x="193.505859"/>
       <use xlink:href="#DejaVuSans-30" x="225.292969"/>
       <use xlink:href="#DejaVuSans-35" x="288.916016"/>
      </g>
     </g>
    </g>
    <g id="xtick_2">
     <g id="line2d_2">
      <g>
       <use xlink:href="#mb8dff29c3f" x="152.343103" y="327.04" style="stroke: #000000; stroke-width: 0.8"/>
      </g>
     </g>
     <g id="text_2">
      <!-- Dec 28 -->
      <g transform="translate(131.190291 343.158125)scale(0.12 -0.12)">
       <defs>
        <path id="DejaVuSans-32" d="M 1228 531 
L 3431 531 
L 3431 0 
L 469 0 
L 469 531 
Q 828 903 1448 1529 
Q 2069 2156 2228 2338 
Q 2531 2678 2651 2914 
Q 2772 3150 2772 3378 
Q 2772 3750 2511 3984 
Q 2250 4219 1831 4219 
Q 1534 4219 1204 4116 
Q 875 4013 500 3803 
L 500 4441 
Q 881 4594 1212 4672 
Q 1544 4750 1819 4750 
Q 2544 4750 2975 4387 
Q 3406 4025 3406 3419 
Q 3406 3131 3298 2873 
Q 3191 2616 2906 2266 
Q 2828 2175 2409 1742 
Q 1991 1309 1228 531 
z
" transform="scale(0.015625)"/>
        <path id="DejaVuSans-38" d="M 2034 2216 
Q 1584 2216 1326 1975 
Q 1069 1734 1069 1313 
Q 1069 891 1326 650 
Q 1584 409 2034 409 
Q 2484 409 2743 651 
Q 3003 894 3003 1313 
Q 3003 1734 2745 1975 
Q 2488 2216 2034 2216 
z
M 1403 2484 
Q 997 2584 770 2862 
Q 544 3141 544 3541 
Q 544 4100 942 4425 
Q 1341 4750 2034 4750 
Q 2731 4750 3128 4425 
Q 3525 4100 3525 3541 
Q 3525 3141 3298 2862 
Q 3072 2584 2669 2484 
Q 3125 2378 3379 2068 
Q 3634 1759 3634 1313 
Q 3634 634 3220 271 
Q 2806 -91 2034 -91 
Q 1263 -91 848 271 
Q 434 634 434 1313 
Q 434 1759 690 2068 
Q 947 2378 1403 2484 
z
M 1172 3481 
Q 1172 3119 1398 2916 
Q 1625 2713 2034 2713 
Q 2441 2713 2670 2916 
Q 2900 3119 2900 3481 
Q 2900 3844 2670 4047 
Q 2441 4250 2034 4250 
Q 1625 4250 1398 4047 
Q 1172 3844 1172 3481 
z
" transform="scale(0.015625)"/>
       </defs>
       <use xlink:href="#DejaVuSans-44"/>
       <use xlink:href="#DejaVuSans-65" x="77.001953"/>
       <use xlink:href="#DejaVuSans-63" x="138.525391"/>
       <use xlink:href="#DejaVuSans-20" x="193.505859"/>
       <use xlink:href="#DejaVuSans-32" x="225.292969"/>
       <use xlink:href="#DejaVuSans-38" x="288.916016"/>
      </g>
     </g>
    </g>
    <g id="xtick_3">
     <g id="line2d_3">
      <g>
       <use xlink:href="#mb8dff29c3f" x="224.381661" y="327.04" style="stroke: #000000; stroke-width: 0.8"/>
      </g>
     </g>
     <g id="text_3">
      <!-- Jan 18 -->
      <g transform="translate(205.590411 343.158125)scale(0.12 -0.12)">
       <defs>
        <path id="DejaVuSans-4a" d="M 628 4666 
L 1259 4666 
L 1259 325 
Q 1259 -519 939 -900 
Q 619 -1281 -91 -1281 
L -331 -1281 
L -331 -750 
L -134 -750 
Q 284 -750 456 -515 
Q 628 -281 628 325 
L 628 4666 
z
" transform="scale(0.015625)"/>
        <path id="DejaVuSans-61" d="M 2194 1759 
Q 1497 1759 1228 1600 
Q 959 1441 959 1056 
Q 959 750 1161 570 
Q 1363 391 1709 391 
Q 2188 391 2477 730 
Q 2766 1069 2766 1631 
L 2766 1759 
L 2194 1759 
z
M 3341 1997 
L 3341 0 
L 2766 0 
L 2766 531 
Q 2569 213 2275 61 
Q 1981 -91 1556 -91 
Q 1019 -91 701 211 
Q 384 513 384 1019 
Q 384 1609 779 1909 
Q 1175 2209 1959 2209 
L 2766 2209 
L 2766 2266 
Q 2766 2663 2505 2880 
Q 2244 3097 1772 3097 
Q 1472 3097 1187 3025 
Q 903 2953 641 2809 
L 641 3341 
Q 956 3463 1253 3523 
Q 1550 3584 1831 3584 
Q 2591 3584 2966 3190 
Q 3341 2797 3341 1997 
z
" transform="scale(0.015625)"/>
        <path id="DejaVuSans-6e" d="M 3513 2113 
L 3513 0 
L 2938 0 
L 2938 2094 
Q 2938 2591 2744 2837 
Q 2550 3084 2163 3084 
Q 1697 3084 1428 2787 
Q 1159 2491 1159 1978 
L 1159 0 
L 581 0 
L 581 3500 
L 1159 3500 
L 1159 2956 
Q 1366 3272 1645 3428 
Q 1925 3584 2291 3584 
Q 2894 3584 3203 3211 
Q 3513 2838 3513 2113 
z
" transform="scale(0.015625)"/>
        <path id="DejaVuSans-31" d="M 794 531 
L 1825 531 
L 1825 4091 
L 703 3866 
L 703 4441 
L 1819 4666 
L 2450 4666 
L 2450 531 
L 3481 531 
L 3481 0 
L 794 0 
L 794 531 
z
" transform="scale(0.015625)"/>
       </defs>
       <use xlink:href="#DejaVuSans-4a"/>
       <use xlink:href="#DejaVuSans-61" x="29.492188"/>
       <use xlink:href="#DejaVuSans-6e" x="90.771484"/>
       <use xlink:href="#DejaVuSans-20" x="154.150391"/>
       <use xlink:href="#DejaVuSans-31" x="185.9375"/>
       <use xlink:href="#DejaVuSans-38" x="249.560547"/>
      </g>
     </g>
    </g>
    <g id="xtick_4">
     <g id="line2d_4">
      <g>
       <use xlink:href="#mb8dff29c3f" x="296.420219" y="327.04" style="stroke: #000000; stroke-width: 0.8"/>
      </g>
     </g>
     <g id="text_4">
      <!-- Feb 10 -->
      <g transform="translate(276.256469 343.158125)scale(0.12 -0.12)">
       <defs>
        <path id="DejaVuSans-46" d="M 628 4666 
L 3309 4666 
L 3309 4134 
L 1259 4134 
L 1259 2759 
L 3109 2759 
L 3109 2228 
L 1259 2228 
L 1259 0 
L 628 0 
L 628 4666 
z
" transform="scale(0.015625)"/>
        <path id="DejaVuSans-62" d="M 3116 1747 
Q 3116 2381 2855 2742 
Q 2594 3103 2138 3103 
Q 1681 3103 1420 2742 
Q 1159 2381 1159 1747 
Q 1159 1113 1420 752 
Q 1681 391 2138 391 
Q 2594 391 2855 752 
Q 3116 1113 3116 1747 
z
M 1159 2969 
Q 1341 3281 1617 3432 
Q 1894 3584 2278 3584 
Q 2916 3584 3314 3078 
Q 3713 2572 3713 1747 
Q 3713 922 3314 415 
Q 2916 -91 2278 -91 
Q 1894 -91 1617 61 
Q 1341 213 1159 525 
L 1159 0 
L 581 0 
L 581 4863 
L 1159 4863 
L 1159 2969 
z
" transform="scale(0.015625)"/>
       </defs>
       <use xlink:href="#DejaVuSans-46"/>
       <use xlink:href="#DejaVuSans-65" x="52.019531"/>
       <use xlink:href="#DejaVuSans-62" x="113.542969"/>
       <use xlink:href="#DejaVuSans-20" x="177.019531"/>
       <use xlink:href="#DejaVuSans-31" x="208.806641"/>
       <use xlink:href="#DejaVuSans-30" x="272.429688"/>
      </g>
     </g>
    </g>
    <g id="xtick_5">
     <g id="line2d_5">
      <g>
       <use xlink:href="#mb8dff29c3f" x="368.458777" y="327.04" style="stroke: #000000; stroke-width: 0.8"/>
      </g>
     </g>
     <g id="text_5">
      <!-- Mar 05 -->
      <g transform="translate(347.59659 343.158125)scale(0.12 -0.12)">
       <defs>
        <path id="DejaVuSans-4d" d="M 628 4666 
L 1569 4666 
L 2759 1491 
L 3956 4666 
L 4897 4666 
L 4897 0 
L 4281 0 
L 4281 4097 
L 3078 897 
L 2444 897 
L 1241 4097 
L 1241 0 
L 628 0 
L 628 4666 
z
" transform="scale(0.015625)"/>
        <path id="DejaVuSans-72" d="M 2631 2963 
Q 2534 3019 2420 3045 
Q 2306 3072 2169 3072 
Q 1681 3072 1420 2755 
Q 1159 2438 1159 1844 
L 1159 0 
L 581 0 
L 581 3500 
L 1159 3500 
L 1159 2956 
Q 1341 3275 1631 3429 
Q 1922 3584 2338 3584 
Q 2397 3584 2469 3576 
Q 2541 3569 2628 3553 
L 2631 2963 
z
" transform="scale(0.015625)"/>
       </defs>
       <use xlink:href="#DejaVuSans-4d"/>
       <use xlink:href="#DejaVuSans-61" x="86.279297"/>
       <use xlink:href="#DejaVuSans-72" x="147.558594"/>
       <use xlink:href="#DejaVuSans-20" x="188.671875"/>
       <use xlink:href="#DejaVuSans-30" x="220.458984"/>
       <use xlink:href="#DejaVuSans-35" x="284.082031"/>
      </g>
     </g>
    </g>
    <g id="xtick_6">
     <g id="line2d_6">
      <g>
       <use xlink:href="#mb8dff29c3f" x="440.497335" y="327.04" style="stroke: #000000; stroke-width: 0.8"/>
      </g>
     </g>
     <g id="text_6">
      <!-- Mar 27 -->
      <g transform="translate(419.635148 343.158125)scale(0.12 -0.12)">
       <defs>
        <path id="DejaVuSans-37" d="M 525 4666 
L 3525 4666 
L 3525 4397 
L 1831 0 
L 1172 0 
L 2766 4134 
L 525 4134 
L 525 4666 
z
" transform="scale(0.015625)"/>
       </defs>
       <use xlink:href="#DejaVuSans-4d"/>
       <use xlink:href="#DejaVuSans-61" x="86.279297"/>
       <use xlink:href="#DejaVuSans-72" x="147.558594"/>
       <use xlink:href="#DejaVuSans-20" x="188.671875"/>
       <use xlink:href="#DejaVuSans-32" x="220.458984"/>
       <use xlink:href="#DejaVuSans-37" x="284.082031"/>
      </g>
     </g>
    </g>
    <g id="xtick_7">
     <g id="line2d_7">
      <g>
       <use xlink:href="#mb8dff29c3f" x="512.535893" y="327.04" style="stroke: #000000; stroke-width: 0.8"/>
      </g>
     </g>
     <g id="text_7">
      <!-- Apr 18 -->
      <g transform="translate(492.614018 343.158125)scale(0.12 -0.12)">
       <defs>
        <path id="DejaVuSans-41" d="M 2188 4044 
L 1331 1722 
L 3047 1722 
L 2188 4044 
z
M 1831 4666 
L 2547 4666 
L 4325 0 
L 3669 0 
L 3244 1197 
L 1141 1197 
L 716 0 
L 50 0 
L 1831 4666 
z
" transform="scale(0.015625)"/>
        <path id="DejaVuSans-70" d="M 1159 525 
L 1159 -1331 
L 581 -1331 
L 581 3500 
L 1159 3500 
L 1159 2969 
Q 1341 3281 1617 3432 
Q 1894 3584 2278 3584 
Q 2916 3584 3314 3078 
Q 3713 2572 3713 1747 
Q 3713 922 3314 415 
Q 2916 -91 2278 -91 
Q 1894 -91 1617 61 
Q 1341 213 1159 525 
z
M 3116 1747 
Q 3116 2381 2855 2742 
Q 2594 3103 2138 3103 
Q 1681 3103 1420 2742 
Q 1159 2381 1159 1747 
Q 1159 1113 1420 752 
Q 1681 391 2138 391 
Q 2594 391 2855 752 
Q 3116 1113 3116 1747 
z
" transform="scale(0.015625)"/>
       </defs>
       <use xlink:href="#DejaVuSans-41"/>
       <use xlink:href="#DejaVuSans-70" x="68.408203"/>
       <use xlink:href="#DejaVuSans-72" x="131.884766"/>
       <use xlink:href="#DejaVuSans-20" x="172.998047"/>
       <use xlink:href="#DejaVuSans-31" x="204.785156"/>
       <use xlink:href="#DejaVuSans-38" x="268.408203"/>
      </g>
     </g>
    </g>
    <g id="xtick_8">
     <g id="line2d_8">
      <g>
       <use xlink:href="#mb8dff29c3f" x="584.574451" y="327.04" style="stroke: #000000; stroke-width: 0.8"/>
      </g>
     </g>
     <g id="text_8">
      <!-- May 10 -->
      <g transform="translate(562.627576 343.158125)scale(0.12 -0.12)">
       <defs>
        <path id="DejaVuSans-79" d="M 2059 -325 
Q 1816 -950 1584 -1140 
Q 1353 -1331 966 -1331 
L 506 -1331 
L 506 -850 
L 844 -850 
Q 1081 -850 1212 -737 
Q 1344 -625 1503 -206 
L 1606 56 
L 191 3500 
L 800 3500 
L 1894 763 
L 2988 3500 
L 3597 3500 
L 2059 -325 
z
" transform="scale(0.015625)"/>
       </defs>
       <use xlink:href="#DejaVuSans-4d"/>
       <use xlink:href="#DejaVuSans-61" x="86.279297"/>
       <use xlink:href="#DejaVuSans-79" x="147.558594"/>
       <use xlink:href="#DejaVuSans-20" x="206.738281"/>
       <use xlink:href="#DejaVuSans-31" x="238.525391"/>
       <use xlink:href="#DejaVuSans-30" x="302.148438"/>
      </g>
     </g>
    </g>
    <g id="xtick_9">
     <g id="line2d_9">
      <g>
       <use xlink:href="#mb8dff29c3f" x="656.613009" y="327.04" style="stroke: #000000; stroke-width: 0.8"/>
      </g>
     </g>
     <g id="text_9">
      <!-- Jun 01 -->
      <g transform="translate(637.696134 343.158125)scale(0.12 -0.12)">
       <defs>
        <path id="DejaVuSans-75" d="M 544 1381 
L 544 3500 
L 1119 3500 
L 1119 1403 
Q 1119 906 1312 657 
Q 1506 409 1894 409 
Q 2359 409 2629 706 
Q 2900 1003 2900 1516 
L 2900 3500 
L 3475 3500 
L 3475 0 
L 2900 0 
L 2900 538 
Q 2691 219 2414 64 
Q 2138 -91 1772 -91 
Q 1169 -91 856 284 
Q 544 659 544 1381 
z
M 1991 3584 
L 1991 3584 
z
" transform="scale(0.015625)"/>
       </defs>
       <use xlink:href="#DejaVuSans-4a"/>
       <use xlink:href="#DejaVuSans-75" x="29.492188"/>
       <use xlink:href="#DejaVuSans-6e" x="92.871094"/>
       <use xlink:href="#DejaVuSans-20" x="156.25"/>
       <use xlink:href="#DejaVuSans-30" x="188.037109"/>
       <use xlink:href="#DejaVuSans-31" x="251.660156"/>
      </g>
     </g>
    </g>
   </g>
   <g id="matplotlib.axis_2">
    <g id="ytick_1">
     <g id="line2d_10">
      <defs>
       <path id="m1d9960fd89" d="M 0 0 
L -3.5 0 
" style="stroke: #000000; stroke-width: 0.8"/>
      </defs>
      <g>
       <use xlink:href="#m1d9960fd89" x="50.46" y="327.04" style="stroke: #000000; stroke-width: 0.8"/>
      </g>
     </g>
     <g id="text_10">
      <!-- 0 -->
      <g transform="translate(35.825 331.599063)scale(0.12 -0.12)">
       <use xlink:href="#DejaVuSans-30"/>
      </g>
     </g>
    </g>
    <g id="ytick_2">
     <g id="line2d_11">
      <g>
       <use xlink:href="#m1d9960fd89" x="50.46" y="292.117194" style="stroke: #000000; stroke-width: 0.8"/>
      </g>
     </g>
     <g id="text_11">
      <!-- 1000 -->
      <g transform="translate(12.92 296.676257)scale(0.12 -0.12)">
       <use xlink:href="#DejaVuSans-31"/>
       <use xlink:href="#DejaVuSans-30" x="63.623047"/>
       <use xlink:href="#DejaVuSans-30" x="127.246094"/>
       <use xlink:href="#DejaVuSans-30" x="190.869141"/>
      </g>
     </g>
    </g>
    <g id="ytick_3">
     <g id="line2d_12">
      <g>
       <use xlink:href="#m1d9960fd89" x="50.46" y="257.194388" style="stroke: #000000; stroke-width: 0.8"/>
      </g>
     </g>
     <g id="text_12">
      <!-- 2000 -->
      <g transform="translate(12.92 261.753451)scale(0.12 -0.12)">
       <use xlink:href="#DejaVuSans-32"/>
       <use xlink:href="#DejaVuSans-30" x="63.623047"/>
       <use xlink:href="#DejaVuSans-30" x="127.246094"/>
       <use xlink:href="#DejaVuSans-30" x="190.869141"/>
      </g>
     </g>
    </g>
    <g id="ytick_4">
     <g id="line2d_13">
      <g>
       <use xlink:href="#m1d9960fd89" x="50.46" y="222.271583" style="stroke: #000000; stroke-width: 0.8"/>
      </g>
     </g>
     <g id="text_13">
      <!-- 3000 -->
      <g transform="translate(12.92 226.830645)scale(0.12 -0.12)">
       <defs>
        <path id="DejaVuSans-33" d="M 2597 2516 
Q 3050 2419 3304 2112 
Q 3559 1806 3559 1356 
Q 3559 666 3084 287 
Q 2609 -91 1734 -91 
Q 1441 -91 1130 -33 
Q 819 25 488 141 
L 488 750 
Q 750 597 1062 519 
Q 1375 441 1716 441 
Q 2309 441 2620 675 
Q 2931 909 2931 1356 
Q 2931 1769 2642 2001 
Q 2353 2234 1838 2234 
L 1294 2234 
L 1294 2753 
L 1863 2753 
Q 2328 2753 2575 2939 
Q 2822 3125 2822 3475 
Q 2822 3834 2567 4026 
Q 2313 4219 1838 4219 
Q 1578 4219 1281 4162 
Q 984 4106 628 3988 
L 628 4550 
Q 988 4650 1302 4700 
Q 1616 4750 1894 4750 
Q 2613 4750 3031 4423 
Q 3450 4097 3450 3541 
Q 3450 3153 3228 2886 
Q 3006 2619 2597 2516 
z
" transform="scale(0.015625)"/>
       </defs>
       <use xlink:href="#DejaVuSans-33"/>
       <use xlink:href="#DejaVuSans-30" x="63.623047"/>
       <use xlink:href="#DejaVuSans-30" x="127.246094"/>
       <use xlink:href="#DejaVuSans-30" x="190.869141"/>
      </g>
     </g>
    </g>
    <g id="ytick_5">
     <g id="line2d_14">
      <g>
       <use xlink:href="#m1d9960fd89" x="50.46" y="187.348777" style="stroke: #000000; stroke-width: 0.8"/>
      </g>
     </g>
     <g id="text_14">
      <!-- 4000 -->
      <g transform="translate(12.92 191.907839)scale(0.12 -0.12)">
       <defs>
        <path id="DejaVuSans-34" d="M 2419 4116 
L 825 1625 
L 2419 1625 
L 2419 4116 
z
M 2253 4666 
L 3047 4666 
L 3047 1625 
L 3713 1625 
L 3713 1100 
L 3047 1100 
L 3047 0 
L 2419 0 
L 2419 1100 
L 313 1100 
L 313 1709 
L 2253 4666 
z
" transform="scale(0.015625)"/>
       </defs>
       <use xlink:href="#DejaVuSans-34"/>
       <use xlink:href="#DejaVuSans-30" x="63.623047"/>
       <use xlink:href="#DejaVuSans-30" x="127.246094"/>
       <use xlink:href="#DejaVuSans-30" x="190.869141"/>
      </g>
     </g>
    </g>
    <g id="ytick_6">
     <g id="line2d_15">
      <g>
       <use xlink:href="#m1d9960fd89" x="50.46" y="152.425971" style="stroke: #000000; stroke-width: 0.8"/>
      </g>
     </g>
     <g id="text_15">
      <!-- 5000 -->
      <g transform="translate(12.92 156.985034)scale(0.12 -0.12)">
       <use xlink:href="#DejaVuSans-35"/>
       <use xlink:href="#DejaVuSans-30" x="63.623047"/>
       <use xlink:href="#DejaVuSans-30" x="127.246094"/>
       <use xlink:href="#DejaVuSans-30" x="190.869141"/>
      </g>
     </g>
    </g>
    <g id="ytick_7">
     <g id="line2d_16">
      <g>
       <use xlink:href="#m1d9960fd89" x="50.46" y="117.503165" style="stroke: #000000; stroke-width: 0.8"/>
      </g>
     </g>
     <g id="text_16">
      <!-- 6000 -->
      <g transform="translate(12.92 122.062228)scale(0.12 -0.12)">
       <defs>
        <path id="DejaVuSans-36" d="M 2113 2584 
Q 1688 2584 1439 2293 
Q 1191 2003 1191 1497 
Q 1191 994 1439 701 
Q 1688 409 2113 409 
Q 2538 409 2786 701 
Q 3034 994 3034 1497 
Q 3034 2003 2786 2293 
Q 2538 2584 2113 2584 
z
M 3366 4563 
L 3366 3988 
Q 3128 4100 2886 4159 
Q 2644 4219 2406 4219 
Q 1781 4219 1451 3797 
Q 1122 3375 1075 2522 
Q 1259 2794 1537 2939 
Q 1816 3084 2150 3084 
Q 2853 3084 3261 2657 
Q 3669 2231 3669 1497 
Q 3669 778 3244 343 
Q 2819 -91 2113 -91 
Q 1303 -91 875 529 
Q 447 1150 447 2328 
Q 447 3434 972 4092 
Q 1497 4750 2381 4750 
Q 2619 4750 2861 4703 
Q 3103 4656 3366 4563 
z
" transform="scale(0.015625)"/>
       </defs>
       <use xlink:href="#DejaVuSans-36"/>
       <use xlink:href="#DejaVuSans-30" x="63.623047"/>
       <use xlink:href="#DejaVuSans-30" x="127.246094"/>
       <use xlink:href="#DejaVuSans-30" x="190.869141"/>
      </g>
     </g>
    </g>
    <g id="ytick_8">
     <g id="line2d_17">
      <g>
       <use xlink:href="#m1d9960fd89" x="50.46" y="82.580359" style="stroke: #000000; stroke-width: 0.8"/>
      </g>
     </g>
     <g id="text_17">
      <!-- 7000 -->
      <g transform="translate(12.92 87.139422)scale(0.12 -0.12)">
       <use xlink:href="#DejaVuSans-37"/>
       <use xlink:href="#DejaVuSans-30" x="63.623047"/>
       <use xlink:href="#DejaVuSans-30" x="127.246094"/>
       <use xlink:href="#DejaVuSans-30" x="190.869141"/>
      </g>
     </g>
    </g>
    <g id="ytick_9">
     <g id="line2d_18">
      <g>
       <use xlink:href="#m1d9960fd89" x="50.46" y="47.657554" style="stroke: #000000; stroke-width: 0.8"/>
      </g>
     </g>
     <g id="text_18">
      <!-- 8000 -->
      <g transform="translate(12.92 52.216616)scale(0.12 -0.12)">
       <use xlink:href="#DejaVuSans-38"/>
       <use xlink:href="#DejaVuSans-30" x="63.623047"/>
       <use xlink:href="#DejaVuSans-30" x="127.246094"/>
       <use xlink:href="#DejaVuSans-30" x="190.869141"/>
      </g>
     </g>
    </g>
   </g>
   <g id="line2d_19">
    <path d="M 80.304545 325.258937 
L 87.165361 325.782779 
L 94.026176 324.665249 
L 97.456583 324.350944 
L 100.886991 325.189091 
L 107.747806 324.770018 
L 111.178213 324.700172 
L 114.608621 323.862025 
L 118.039028 323.373105 
L 121.469436 323.442951 
L 124.899843 323.023877 
L 128.330251 322.011116 
L 131.760658 321.31266 
L 135.191066 319.845902 
L 138.621473 318.623604 
L 142.051881 318.937909 
L 145.482288 319.880825 
L 148.912696 319.252214 
L 152.343103 319.706211 
L 155.773511 318.518835 
L 159.203918 308.530913 
L 162.634326 293.129956 
L 166.064734 293.618875 
L 169.495141 292.885496 
L 172.925549 291.034587 
L 176.355956 284.713559 
L 179.786364 270.919051 
L 183.216771 261.350202 
L 186.647179 268.125227 
L 190.077586 259.010374 
L 193.507994 263.585262 
L 196.938401 287.123233 
L 200.368809 264.702792 
L 203.799216 253.457648 
L 207.229624 243.15542 
L 210.660031 263.655107 
L 214.090439 239.767908 
L 217.520846 258.172227 
L 220.951254 265.645707 
L 224.381661 271.40797 
L 227.812069 259.359602 
L 231.242476 263.899567 
L 234.672884 253.35288 
L 238.103292 292.361654 
L 241.533699 284.015103 
L 244.964107 283.805566 
L 248.394514 291.383815 
L 251.824922 309.194446 
L 255.255329 300.952664 
L 258.685737 300.324054 
L 262.116144 309.334137 
L 265.546552 308.181685 
L 268.976959 310.24213 
L 272.407367 309.124601 
L 275.837774 314.118562 
L 279.268182 319.391906 
L 282.698589 319.810979 
L 286.128997 315.620243 
L 289.559404 315.655165 
L 292.989812 307.273692 
L 296.420219 309.508751 
L 299.850627 314.956709 
L 303.281034 314.782095 
L 306.711442 320.369744 
L 310.14185 321.906348 
L 313.572257 322.220653 
L 317.002665 317.436228 
L 320.433072 255.867322 
L 323.86348 269.626907 
L 327.293887 287.297847 
L 330.724295 289.148756 
L 334.154702 256.565778 
L 337.58511 260.966051 
L 341.015517 272.874728 
L 344.445925 284.084949 
L 347.876332 286.21524 
L 351.30674 288.939219 
L 354.737147 261.350202 
L 358.167555 259.778676 
L 361.597962 267.880767 
L 365.02837 281.570507 
L 368.458777 273.852567 
L 371.889185 278.113149 
L 375.319592 245.600017 
L 378.75 253.702108 
L 382.180408 249.441526 
L 385.610815 267.636307 
L 389.041223 268.998297 
L 392.47163 259.464371 
L 395.902038 280.24344 
L 399.332445 267.531539 
L 402.762853 158.712076 
L 406.19326 235.716863 
L 409.623668 241.968045 
L 413.054075 241.793431 
L 416.484483 249.546294 
L 419.91489 253.632262 
L 423.345298 220.141291 
L 426.775705 210.53752 
L 430.206113 222.166814 
L 433.63652 230.932438 
L 437.066928 237.497926 
L 440.497335 247.206466 
L 443.927743 222.166814 
L 447.35815 218.325306 
L 450.788558 241.793431 
L 454.218966 227.789386 
L 457.649373 249.685985 
L 461.079781 257.438848 
L 464.510188 260.581901 
L 467.940596 238.859915 
L 471.371003 224.960639 
L 474.801411 243.050652 
L 478.231818 256.635624 
L 481.662226 261.07082 
L 485.092633 270.150749 
L 488.523041 276.681314 
L 491.953448 269.871367 
L 495.383856 264.877406 
L 498.814263 268.928451 
L 502.244671 277.37977 
L 505.675078 281.745121 
L 509.105486 291.593352 
L 512.535893 287.402615 
L 515.966301 292.291808 
L 519.396708 279.544984 
L 522.827116 275.808244 
L 526.257524 293.06011 
L 529.687931 296.79685 
L 533.118339 303.536952 
L 536.548746 297.285769 
L 539.979154 288.031226 
L 543.409561 287.297847 
L 546.839969 294.282408 
L 550.270376 293.723643 
L 553.700784 298.996987 
L 557.131191 302.384499 
L 560.561599 291.209201 
L 563.992006 289.777366 
L 567.422414 266.029858 
L 570.852821 288.83445 
L 574.283229 287.472461 
L 577.713636 293.68872 
L 581.144044 299.241447 
L 584.574451 283.037265 
L 588.004859 280.662514 
L 591.435266 282.164195 
L 594.865674 285.551707 
L 598.296082 289.637675 
L 601.726489 295.574552 
L 605.156897 297.600075 
L 608.587304 283.840489 
L 612.017712 283.386493 
L 615.448119 290.161517 
L 618.878527 293.444261 
L 622.308934 297.66992 
L 625.739342 302.419422 
L 629.169749 305.667243 
L 632.600157 296.16824 
L 636.030564 297.460383 
L 639.460972 292.396577 
L 642.891379 301.476506 
L 646.321787 303.257569 
L 649.752194 308.880141 
L 653.182602 301.686043 
L 656.613009 301.371738 
L 660.043417 304.479867 
L 663.473824 305.108478 
L 666.904232 306.680004 
L 670.334639 310.067516 
L 673.765047 313.210569 
L 677.195455 305.772011 
L 677.195455 305.772011 
" clip-path="url(#pd03ebd2aa0)" style="fill: none; stroke: #1f77b4; stroke-width: 1.5; stroke-linecap: square"/>
    <defs>
     <path id="mea004ac0dd" d="M 0 3 
C 0.795609 3 1.55874 2.683901 2.12132 2.12132 
C 2.683901 1.55874 3 0.795609 3 0 
C 3 -0.795609 2.683901 -1.55874 2.12132 -2.12132 
C 1.55874 -2.683901 0.795609 -3 0 -3 
C -0.795609 -3 -1.55874 -2.683901 -2.12132 -2.12132 
C -2.683901 -1.55874 -3 -0.795609 -3 0 
C -3 0.795609 -2.683901 1.55874 -2.12132 2.12132 
C -1.55874 2.683901 -0.795609 3 0 3 
z
" style="stroke: #1f77b4"/>
    </defs>
    <g clip-path="url(#pd03ebd2aa0)">
     <use xlink:href="#mea004ac0dd" x="80.304545" y="325.258937" style="fill: #1f77b4; stroke: #1f77b4"/>
     <use xlink:href="#mea004ac0dd" x="83.734953" y="325.573242" style="fill: #1f77b4; stroke: #1f77b4"/>
     <use xlink:href="#mea004ac0dd" x="87.165361" y="325.782779" style="fill: #1f77b4; stroke: #1f77b4"/>
     <use xlink:href="#mea004ac0dd" x="90.595768" y="325.258937" style="fill: #1f77b4; stroke: #1f77b4"/>
     <use xlink:href="#mea004ac0dd" x="94.026176" y="324.665249" style="fill: #1f77b4; stroke: #1f77b4"/>
     <use xlink:href="#mea004ac0dd" x="97.456583" y="324.350944" style="fill: #1f77b4; stroke: #1f77b4"/>
     <use xlink:href="#mea004ac0dd" x="100.886991" y="325.189091" style="fill: #1f77b4; stroke: #1f77b4"/>
     <use xlink:href="#mea004ac0dd" x="104.317398" y="324.979554" style="fill: #1f77b4; stroke: #1f77b4"/>
     <use xlink:href="#mea004ac0dd" x="107.747806" y="324.770018" style="fill: #1f77b4; stroke: #1f77b4"/>
     <use xlink:href="#mea004ac0dd" x="111.178213" y="324.700172" style="fill: #1f77b4; stroke: #1f77b4"/>
     <use xlink:href="#mea004ac0dd" x="114.608621" y="323.862025" style="fill: #1f77b4; stroke: #1f77b4"/>
     <use xlink:href="#mea004ac0dd" x="118.039028" y="323.373105" style="fill: #1f77b4; stroke: #1f77b4"/>
     <use xlink:href="#mea004ac0dd" x="121.469436" y="323.442951" style="fill: #1f77b4; stroke: #1f77b4"/>
     <use xlink:href="#mea004ac0dd" x="124.899843" y="323.023877" style="fill: #1f77b4; stroke: #1f77b4"/>
     <use xlink:href="#mea004ac0dd" x="128.330251" y="322.011116" style="fill: #1f77b4; stroke: #1f77b4"/>
     <use xlink:href="#mea004ac0dd" x="131.760658" y="321.31266" style="fill: #1f77b4; stroke: #1f77b4"/>
     <use xlink:href="#mea004ac0dd" x="135.191066" y="319.845902" style="fill: #1f77b4; stroke: #1f77b4"/>
     <use xlink:href="#mea004ac0dd" x="138.621473" y="318.623604" style="fill: #1f77b4; stroke: #1f77b4"/>
     <use xlink:href="#mea004ac0dd" x="142.051881" y="318.937909" style="fill: #1f77b4; stroke: #1f77b4"/>
     <use xlink:href="#mea004ac0dd" x="145.482288" y="319.880825" style="fill: #1f77b4; stroke: #1f77b4"/>
     <use xlink:href="#mea004ac0dd" x="148.912696" y="319.252214" style="fill: #1f77b4; stroke: #1f77b4"/>
     <use xlink:href="#mea004ac0dd" x="152.343103" y="319.706211" style="fill: #1f77b4; stroke: #1f77b4"/>
     <use xlink:href="#mea004ac0dd" x="155.773511" y="318.518835" style="fill: #1f77b4; stroke: #1f77b4"/>
     <use xlink:href="#mea004ac0dd" x="159.203918" y="308.530913" style="fill: #1f77b4; stroke: #1f77b4"/>
     <use xlink:href="#mea004ac0dd" x="162.634326" y="293.129956" style="fill: #1f77b4; stroke: #1f77b4"/>
     <use xlink:href="#mea004ac0dd" x="166.064734" y="293.618875" style="fill: #1f77b4; stroke: #1f77b4"/>
     <use xlink:href="#mea004ac0dd" x="169.495141" y="292.885496" style="fill: #1f77b4; stroke: #1f77b4"/>
     <use xlink:href="#mea004ac0dd" x="172.925549" y="291.034587" style="fill: #1f77b4; stroke: #1f77b4"/>
     <use xlink:href="#mea004ac0dd" x="176.355956" y="284.713559" style="fill: #1f77b4; stroke: #1f77b4"/>
     <use xlink:href="#mea004ac0dd" x="179.786364" y="270.919051" style="fill: #1f77b4; stroke: #1f77b4"/>
     <use xlink:href="#mea004ac0dd" x="183.216771" y="261.350202" style="fill: #1f77b4; stroke: #1f77b4"/>
     <use xlink:href="#mea004ac0dd" x="186.647179" y="268.125227" style="fill: #1f77b4; stroke: #1f77b4"/>
     <use xlink:href="#mea004ac0dd" x="190.077586" y="259.010374" style="fill: #1f77b4; stroke: #1f77b4"/>
     <use xlink:href="#mea004ac0dd" x="193.507994" y="263.585262" style="fill: #1f77b4; stroke: #1f77b4"/>
     <use xlink:href="#mea004ac0dd" x="196.938401" y="287.123233" style="fill: #1f77b4; stroke: #1f77b4"/>
     <use xlink:href="#mea004ac0dd" x="200.368809" y="264.702792" style="fill: #1f77b4; stroke: #1f77b4"/>
     <use xlink:href="#mea004ac0dd" x="203.799216" y="253.457648" style="fill: #1f77b4; stroke: #1f77b4"/>
     <use xlink:href="#mea004ac0dd" x="207.229624" y="243.15542" style="fill: #1f77b4; stroke: #1f77b4"/>
     <use xlink:href="#mea004ac0dd" x="210.660031" y="263.655107" style="fill: #1f77b4; stroke: #1f77b4"/>
     <use xlink:href="#mea004ac0dd" x="214.090439" y="239.767908" style="fill: #1f77b4; stroke: #1f77b4"/>
     <use xlink:href="#mea004ac0dd" x="217.520846" y="258.172227" style="fill: #1f77b4; stroke: #1f77b4"/>
     <use xlink:href="#mea004ac0dd" x="220.951254" y="265.645707" style="fill: #1f77b4; stroke: #1f77b4"/>
     <use xlink:href="#mea004ac0dd" x="224.381661" y="271.40797" style="fill: #1f77b4; stroke: #1f77b4"/>
     <use xlink:href="#mea004ac0dd" x="227.812069" y="259.359602" style="fill: #1f77b4; stroke: #1f77b4"/>
     <use xlink:href="#mea004ac0dd" x="231.242476" y="263.899567" style="fill: #1f77b4; stroke: #1f77b4"/>
     <use xlink:href="#mea004ac0dd" x="234.672884" y="253.35288" style="fill: #1f77b4; stroke: #1f77b4"/>
     <use xlink:href="#mea004ac0dd" x="238.103292" y="292.361654" style="fill: #1f77b4; stroke: #1f77b4"/>
     <use xlink:href="#mea004ac0dd" x="241.533699" y="284.015103" style="fill: #1f77b4; stroke: #1f77b4"/>
     <use xlink:href="#mea004ac0dd" x="244.964107" y="283.805566" style="fill: #1f77b4; stroke: #1f77b4"/>
     <use xlink:href="#mea004ac0dd" x="248.394514" y="291.383815" style="fill: #1f77b4; stroke: #1f77b4"/>
     <use xlink:href="#mea004ac0dd" x="251.824922" y="309.194446" style="fill: #1f77b4; stroke: #1f77b4"/>
     <use xlink:href="#mea004ac0dd" x="255.255329" y="300.952664" style="fill: #1f77b4; stroke: #1f77b4"/>
     <use xlink:href="#mea004ac0dd" x="258.685737" y="300.324054" style="fill: #1f77b4; stroke: #1f77b4"/>
     <use xlink:href="#mea004ac0dd" x="262.116144" y="309.334137" style="fill: #1f77b4; stroke: #1f77b4"/>
     <use xlink:href="#mea004ac0dd" x="265.546552" y="308.181685" style="fill: #1f77b4; stroke: #1f77b4"/>
     <use xlink:href="#mea004ac0dd" x="268.976959" y="310.24213" style="fill: #1f77b4; stroke: #1f77b4"/>
     <use xlink:href="#mea004ac0dd" x="272.407367" y="309.124601" style="fill: #1f77b4; stroke: #1f77b4"/>
     <use xlink:href="#mea004ac0dd" x="275.837774" y="314.118562" style="fill: #1f77b4; stroke: #1f77b4"/>
     <use xlink:href="#mea004ac0dd" x="279.268182" y="319.391906" style="fill: #1f77b4; stroke: #1f77b4"/>
     <use xlink:href="#mea004ac0dd" x="282.698589" y="319.810979" style="fill: #1f77b4; stroke: #1f77b4"/>
     <use xlink:href="#mea004ac0dd" x="286.128997" y="315.620243" style="fill: #1f77b4; stroke: #1f77b4"/>
     <use xlink:href="#mea004ac0dd" x="289.559404" y="315.655165" style="fill: #1f77b4; stroke: #1f77b4"/>
     <use xlink:href="#mea004ac0dd" x="292.989812" y="307.273692" style="fill: #1f77b4; stroke: #1f77b4"/>
     <use xlink:href="#mea004ac0dd" x="296.420219" y="309.508751" style="fill: #1f77b4; stroke: #1f77b4"/>
     <use xlink:href="#mea004ac0dd" x="299.850627" y="314.956709" style="fill: #1f77b4; stroke: #1f77b4"/>
     <use xlink:href="#mea004ac0dd" x="303.281034" y="314.782095" style="fill: #1f77b4; stroke: #1f77b4"/>
     <use xlink:href="#mea004ac0dd" x="306.711442" y="320.369744" style="fill: #1f77b4; stroke: #1f77b4"/>
     <use xlink:href="#mea004ac0dd" x="310.14185" y="321.906348" style="fill: #1f77b4; stroke: #1f77b4"/>
     <use xlink:href="#mea004ac0dd" x="313.572257" y="322.220653" style="fill: #1f77b4; stroke: #1f77b4"/>
     <use xlink:href="#mea004ac0dd" x="317.002665" y="317.436228" style="fill: #1f77b4; stroke: #1f77b4"/>
     <use xlink:href="#mea004ac0dd" x="320.433072" y="255.867322" style="fill: #1f77b4; stroke: #1f77b4"/>
     <use xlink:href="#mea004ac0dd" x="323.86348" y="269.626907" style="fill: #1f77b4; stroke: #1f77b4"/>
     <use xlink:href="#mea004ac0dd" x="327.293887" y="287.297847" style="fill: #1f77b4; stroke: #1f77b4"/>
     <use xlink:href="#mea004ac0dd" x="330.724295" y="289.148756" style="fill: #1f77b4; stroke: #1f77b4"/>
     <use xlink:href="#mea004ac0dd" x="334.154702" y="256.565778" style="fill: #1f77b4; stroke: #1f77b4"/>
     <use xlink:href="#mea004ac0dd" x="337.58511" y="260.966051" style="fill: #1f77b4; stroke: #1f77b4"/>
     <use xlink:href="#mea004ac0dd" x="341.015517" y="272.874728" style="fill: #1f77b4; stroke: #1f77b4"/>
     <use xlink:href="#mea004ac0dd" x="344.445925" y="284.084949" style="fill: #1f77b4; stroke: #1f77b4"/>
     <use xlink:href="#mea004ac0dd" x="347.876332" y="286.21524" style="fill: #1f77b4; stroke: #1f77b4"/>
     <use xlink:href="#mea004ac0dd" x="351.30674" y="288.939219" style="fill: #1f77b4; stroke: #1f77b4"/>
     <use xlink:href="#mea004ac0dd" x="354.737147" y="261.350202" style="fill: #1f77b4; stroke: #1f77b4"/>
     <use xlink:href="#mea004ac0dd" x="358.167555" y="259.778676" style="fill: #1f77b4; stroke: #1f77b4"/>
     <use xlink:href="#mea004ac0dd" x="361.597962" y="267.880767" style="fill: #1f77b4; stroke: #1f77b4"/>
     <use xlink:href="#mea004ac0dd" x="365.02837" y="281.570507" style="fill: #1f77b4; stroke: #1f77b4"/>
     <use xlink:href="#mea004ac0dd" x="368.458777" y="273.852567" style="fill: #1f77b4; stroke: #1f77b4"/>
     <use xlink:href="#mea004ac0dd" x="371.889185" y="278.113149" style="fill: #1f77b4; stroke: #1f77b4"/>
     <use xlink:href="#mea004ac0dd" x="375.319592" y="245.600017" style="fill: #1f77b4; stroke: #1f77b4"/>
     <use xlink:href="#mea004ac0dd" x="378.75" y="253.702108" style="fill: #1f77b4; stroke: #1f77b4"/>
     <use xlink:href="#mea004ac0dd" x="382.180408" y="249.441526" style="fill: #1f77b4; stroke: #1f77b4"/>
     <use xlink:href="#mea004ac0dd" x="385.610815" y="267.636307" style="fill: #1f77b4; stroke: #1f77b4"/>
     <use xlink:href="#mea004ac0dd" x="389.041223" y="268.998297" style="fill: #1f77b4; stroke: #1f77b4"/>
     <use xlink:href="#mea004ac0dd" x="392.47163" y="259.464371" style="fill: #1f77b4; stroke: #1f77b4"/>
     <use xlink:href="#mea004ac0dd" x="395.902038" y="280.24344" style="fill: #1f77b4; stroke: #1f77b4"/>
     <use xlink:href="#mea004ac0dd" x="399.332445" y="267.531539" style="fill: #1f77b4; stroke: #1f77b4"/>
     <use xlink:href="#mea004ac0dd" x="402.762853" y="158.712076" style="fill: #1f77b4; stroke: #1f77b4"/>
     <use xlink:href="#mea004ac0dd" x="406.19326" y="235.716863" style="fill: #1f77b4; stroke: #1f77b4"/>
     <use xlink:href="#mea004ac0dd" x="409.623668" y="241.968045" style="fill: #1f77b4; stroke: #1f77b4"/>
     <use xlink:href="#mea004ac0dd" x="413.054075" y="241.793431" style="fill: #1f77b4; stroke: #1f77b4"/>
     <use xlink:href="#mea004ac0dd" x="416.484483" y="249.546294" style="fill: #1f77b4; stroke: #1f77b4"/>
     <use xlink:href="#mea004ac0dd" x="419.91489" y="253.632262" style="fill: #1f77b4; stroke: #1f77b4"/>
     <use xlink:href="#mea004ac0dd" x="423.345298" y="220.141291" style="fill: #1f77b4; stroke: #1f77b4"/>
     <use xlink:href="#mea004ac0dd" x="426.775705" y="210.53752" style="fill: #1f77b4; stroke: #1f77b4"/>
     <use xlink:href="#mea004ac0dd" x="430.206113" y="222.166814" style="fill: #1f77b4; stroke: #1f77b4"/>
     <use xlink:href="#mea004ac0dd" x="433.63652" y="230.932438" style="fill: #1f77b4; stroke: #1f77b4"/>
     <use xlink:href="#mea004ac0dd" x="437.066928" y="237.497926" style="fill: #1f77b4; stroke: #1f77b4"/>
     <use xlink:href="#mea004ac0dd" x="440.497335" y="247.206466" style="fill: #1f77b4; stroke: #1f77b4"/>
     <use xlink:href="#mea004ac0dd" x="443.927743" y="222.166814" style="fill: #1f77b4; stroke: #1f77b4"/>
     <use xlink:href="#mea004ac0dd" x="447.35815" y="218.325306" style="fill: #1f77b4; stroke: #1f77b4"/>
     <use xlink:href="#mea004ac0dd" x="450.788558" y="241.793431" style="fill: #1f77b4; stroke: #1f77b4"/>
     <use xlink:href="#mea004ac0dd" x="454.218966" y="227.789386" style="fill: #1f77b4; stroke: #1f77b4"/>
     <use xlink:href="#mea004ac0dd" x="457.649373" y="249.685985" style="fill: #1f77b4; stroke: #1f77b4"/>
     <use xlink:href="#mea004ac0dd" x="461.079781" y="257.438848" style="fill: #1f77b4; stroke: #1f77b4"/>
     <use xlink:href="#mea004ac0dd" x="464.510188" y="260.581901" style="fill: #1f77b4; stroke: #1f77b4"/>
     <use xlink:href="#mea004ac0dd" x="467.940596" y="238.859915" style="fill: #1f77b4; stroke: #1f77b4"/>
     <use xlink:href="#mea004ac0dd" x="471.371003" y="224.960639" style="fill: #1f77b4; stroke: #1f77b4"/>
     <use xlink:href="#mea004ac0dd" x="474.801411" y="243.050652" style="fill: #1f77b4; stroke: #1f77b4"/>
     <use xlink:href="#mea004ac0dd" x="478.231818" y="256.635624" style="fill: #1f77b4; stroke: #1f77b4"/>
     <use xlink:href="#mea004ac0dd" x="481.662226" y="261.07082" style="fill: #1f77b4; stroke: #1f77b4"/>
     <use xlink:href="#mea004ac0dd" x="485.092633" y="270.150749" style="fill: #1f77b4; stroke: #1f77b4"/>
     <use xlink:href="#mea004ac0dd" x="488.523041" y="276.681314" style="fill: #1f77b4; stroke: #1f77b4"/>
     <use xlink:href="#mea004ac0dd" x="491.953448" y="269.871367" style="fill: #1f77b4; stroke: #1f77b4"/>
     <use xlink:href="#mea004ac0dd" x="495.383856" y="264.877406" style="fill: #1f77b4; stroke: #1f77b4"/>
     <use xlink:href="#mea004ac0dd" x="498.814263" y="268.928451" style="fill: #1f77b4; stroke: #1f77b4"/>
     <use xlink:href="#mea004ac0dd" x="502.244671" y="277.37977" style="fill: #1f77b4; stroke: #1f77b4"/>
     <use xlink:href="#mea004ac0dd" x="505.675078" y="281.745121" style="fill: #1f77b4; stroke: #1f77b4"/>
     <use xlink:href="#mea004ac0dd" x="509.105486" y="291.593352" style="fill: #1f77b4; stroke: #1f77b4"/>
     <use xlink:href="#mea004ac0dd" x="512.535893" y="287.402615" style="fill: #1f77b4; stroke: #1f77b4"/>
     <use xlink:href="#mea004ac0dd" x="515.966301" y="292.291808" style="fill: #1f77b4; stroke: #1f77b4"/>
     <use xlink:href="#mea004ac0dd" x="519.396708" y="279.544984" style="fill: #1f77b4; stroke: #1f77b4"/>
     <use xlink:href="#mea004ac0dd" x="522.827116" y="275.808244" style="fill: #1f77b4; stroke: #1f77b4"/>
     <use xlink:href="#mea004ac0dd" x="526.257524" y="293.06011" style="fill: #1f77b4; stroke: #1f77b4"/>
     <use xlink:href="#mea004ac0dd" x="529.687931" y="296.79685" style="fill: #1f77b4; stroke: #1f77b4"/>
     <use xlink:href="#mea004ac0dd" x="533.118339" y="303.536952" style="fill: #1f77b4; stroke: #1f77b4"/>
     <use xlink:href="#mea004ac0dd" x="536.548746" y="297.285769" style="fill: #1f77b4; stroke: #1f77b4"/>
     <use xlink:href="#mea004ac0dd" x="539.979154" y="288.031226" style="fill: #1f77b4; stroke: #1f77b4"/>
     <use xlink:href="#mea004ac0dd" x="543.409561" y="287.297847" style="fill: #1f77b4; stroke: #1f77b4"/>
     <use xlink:href="#mea004ac0dd" x="546.839969" y="294.282408" style="fill: #1f77b4; stroke: #1f77b4"/>
     <use xlink:href="#mea004ac0dd" x="550.270376" y="293.723643" style="fill: #1f77b4; stroke: #1f77b4"/>
     <use xlink:href="#mea004ac0dd" x="553.700784" y="298.996987" style="fill: #1f77b4; stroke: #1f77b4"/>
     <use xlink:href="#mea004ac0dd" x="557.131191" y="302.384499" style="fill: #1f77b4; stroke: #1f77b4"/>
     <use xlink:href="#mea004ac0dd" x="560.561599" y="291.209201" style="fill: #1f77b4; stroke: #1f77b4"/>
     <use xlink:href="#mea004ac0dd" x="563.992006" y="289.777366" style="fill: #1f77b4; stroke: #1f77b4"/>
     <use xlink:href="#mea004ac0dd" x="567.422414" y="266.029858" style="fill: #1f77b4; stroke: #1f77b4"/>
     <use xlink:href="#mea004ac0dd" x="570.852821" y="288.83445" style="fill: #1f77b4; stroke: #1f77b4"/>
     <use xlink:href="#mea004ac0dd" x="574.283229" y="287.472461" style="fill: #1f77b4; stroke: #1f77b4"/>
     <use xlink:href="#mea004ac0dd" x="577.713636" y="293.68872" style="fill: #1f77b4; stroke: #1f77b4"/>
     <use xlink:href="#mea004ac0dd" x="581.144044" y="299.241447" style="fill: #1f77b4; stroke: #1f77b4"/>
     <use xlink:href="#mea004ac0dd" x="584.574451" y="283.037265" style="fill: #1f77b4; stroke: #1f77b4"/>
     <use xlink:href="#mea004ac0dd" x="588.004859" y="280.662514" style="fill: #1f77b4; stroke: #1f77b4"/>
     <use xlink:href="#mea004ac0dd" x="591.435266" y="282.164195" style="fill: #1f77b4; stroke: #1f77b4"/>
     <use xlink:href="#mea004ac0dd" x="594.865674" y="285.551707" style="fill: #1f77b4; stroke: #1f77b4"/>
     <use xlink:href="#mea004ac0dd" x="598.296082" y="289.637675" style="fill: #1f77b4; stroke: #1f77b4"/>
     <use xlink:href="#mea004ac0dd" x="601.726489" y="295.574552" style="fill: #1f77b4; stroke: #1f77b4"/>
     <use xlink:href="#mea004ac0dd" x="605.156897" y="297.600075" style="fill: #1f77b4; stroke: #1f77b4"/>
     <use xlink:href="#mea004ac0dd" x="608.587304" y="283.840489" style="fill: #1f77b4; stroke: #1f77b4"/>
     <use xlink:href="#mea004ac0dd" x="612.017712" y="283.386493" style="fill: #1f77b4; stroke: #1f77b4"/>
     <use xlink:href="#mea004ac0dd" x="615.448119" y="290.161517" style="fill: #1f77b4; stroke: #1f77b4"/>
     <use xlink:href="#mea004ac0dd" x="618.878527" y="293.444261" style="fill: #1f77b4; stroke: #1f77b4"/>
     <use xlink:href="#mea004ac0dd" x="622.308934" y="297.66992" style="fill: #1f77b4; stroke: #1f77b4"/>
     <use xlink:href="#mea004ac0dd" x="625.739342" y="302.419422" style="fill: #1f77b4; stroke: #1f77b4"/>
     <use xlink:href="#mea004ac0dd" x="629.169749" y="305.667243" style="fill: #1f77b4; stroke: #1f77b4"/>
     <use xlink:href="#mea004ac0dd" x="632.600157" y="296.16824" style="fill: #1f77b4; stroke: #1f77b4"/>
     <use xlink:href="#mea004ac0dd" x="636.030564" y="297.460383" style="fill: #1f77b4; stroke: #1f77b4"/>
     <use xlink:href="#mea004ac0dd" x="639.460972" y="292.396577" style="fill: #1f77b4; stroke: #1f77b4"/>
     <use xlink:href="#mea004ac0dd" x="642.891379" y="301.476506" style="fill: #1f77b4; stroke: #1f77b4"/>
     <use xlink:href="#mea004ac0dd" x="646.321787" y="303.257569" style="fill: #1f77b4; stroke: #1f77b4"/>
     <use xlink:href="#mea004ac0dd" x="649.752194" y="308.880141" style="fill: #1f77b4; stroke: #1f77b4"/>
     <use xlink:href="#mea004ac0dd" x="653.182602" y="301.686043" style="fill: #1f77b4; stroke: #1f77b4"/>
     <use xlink:href="#mea004ac0dd" x="656.613009" y="301.371738" style="fill: #1f77b4; stroke: #1f77b4"/>
     <use xlink:href="#mea004ac0dd" x="660.043417" y="304.479867" style="fill: #1f77b4; stroke: #1f77b4"/>
     <use xlink:href="#mea004ac0dd" x="663.473824" y="305.108478" style="fill: #1f77b4; stroke: #1f77b4"/>
     <use xlink:href="#mea004ac0dd" x="666.904232" y="306.680004" style="fill: #1f77b4; stroke: #1f77b4"/>
     <use xlink:href="#mea004ac0dd" x="670.334639" y="310.067516" style="fill: #1f77b4; stroke: #1f77b4"/>
     <use xlink:href="#mea004ac0dd" x="673.765047" y="313.210569" style="fill: #1f77b4; stroke: #1f77b4"/>
     <use xlink:href="#mea004ac0dd" x="677.195455" y="305.772011" style="fill: #1f77b4; stroke: #1f77b4"/>
    </g>
   </g>
   <g id="line2d_20">
    <path d="M 80.304545 324.80494 
L 83.734953 325.084323 
L 87.165361 325.573242 
L 90.595768 324.141407 
L 94.026176 325.154168 
L 97.456583 324.595404 
L 100.886991 324.455712 
L 107.747806 324.42079 
L 111.178213 322.849263 
L 114.608621 318.518835 
L 118.039028 320.404667 
L 121.469436 315.271014 
L 124.899843 315.655165 
L 128.330251 315.550397 
L 131.760658 308.705527 
L 135.191066 306.540313 
L 138.621473 301.89558 
L 142.051881 305.352938 
L 145.482288 302.663882 
L 148.912696 305.527552 
L 152.343103 306.086317 
L 155.773511 305.00371 
L 159.203918 285.34217 
L 162.634326 261.769276 
L 166.064734 261.350202 
L 169.495141 267.391848 
L 172.925549 264.109104 
L 176.355956 262.293118 
L 179.786364 217.068085 
L 183.216771 190.456907 
L 186.647179 195.066717 
L 190.077586 177.640237 
L 193.507994 215.461636 
L 196.938401 262.886806 
L 200.368809 231.421358 
L 203.799216 221.398512 
L 207.229624 222.23666 
L 210.660031 242.247428 
L 214.090439 221.188976 
L 217.520846 248.952606 
L 220.951254 261.454971 
L 224.381661 266.868006 
L 227.812069 254.295796 
L 231.242476 263.375725 
L 234.672884 244.76187 
L 238.103292 296.028548 
L 241.533699 292.466422 
L 244.964107 285.726321 
L 248.394514 295.819012 
L 251.824922 310.73105 
L 255.255329 302.908341 
L 258.685737 301.197124 
L 262.116144 307.413383 
L 265.546552 311.185046 
L 268.976959 309.892902 
L 272.407367 311.534274 
L 275.837774 314.013793 
L 279.268182 320.893586 
L 282.698589 320.090362 
L 286.128997 317.540997 
L 289.559404 317.471151 
L 292.989812 310.207208 
L 296.420219 310.835818 
L 299.850627 315.480551 
L 303.281034 315.305937 
L 306.711442 319.985593 
L 310.14185 321.801579 
L 313.572257 322.255576 
L 317.002665 317.715611 
L 320.433072 248.009691 
L 323.86348 261.664508 
L 327.293887 286.494622 
L 330.724295 287.053387 
L 334.154702 247.62554 
L 337.58511 249.301834 
L 341.015517 261.629585 
L 344.445925 269.801521 
L 347.876332 271.198434 
L 351.30674 278.671914 
L 354.737147 232.538888 
L 358.167555 225.624172 
L 361.597962 230.19906 
L 365.02837 249.685985 
L 368.458777 235.507326 
L 371.889185 246.333396 
L 375.319592 179.945142 
L 378.75 195.276254 
L 382.180408 188.047233 
L 385.610815 216.614088 
L 389.041223 217.033162 
L 392.47163 209.41999 
L 395.902038 247.695385 
L 399.332445 227.370312 
L 402.762853 27.856323 
L 406.19326 171.912897 
L 409.623668 185.14864 
L 413.054075 181.761128 
L 416.484483 198.105001 
L 419.91489 205.543559 
L 423.345298 137.828238 
L 426.775705 131.12306 
L 430.206113 157.419932 
L 433.63652 180.119756 
L 437.066928 199.746373 
L 440.497335 212.563043 
L 443.927743 156.546862 
L 447.35815 153.78796 
L 450.788558 198.873303 
L 454.218966 194.123801 
L 457.649373 212.493197 
L 461.079781 235.332712 
L 464.510188 237.113775 
L 467.940596 201.632204 
L 471.371003 183.367577 
L 474.801411 215.810864 
L 478.231818 232.783347 
L 481.662226 245.460326 
L 485.092633 256.810238 
L 488.523041 265.086943 
L 491.953448 256.775315 
L 495.383856 248.952606 
L 498.814263 257.96269 
L 502.244671 270.919051 
L 505.675078 279.510061 
L 509.105486 292.396577 
L 512.535893 290.021826 
L 515.966301 292.780728 
L 519.396708 277.833767 
L 522.827116 275.63363 
L 526.257524 289.986903 
L 529.687931 291.034587 
L 533.118339 301.89558 
L 539.979154 287.507384 
L 543.409561 277.589307 
L 546.839969 290.720282 
L 550.270376 291.418738 
L 553.700784 298.612836 
L 557.131191 300.952664 
L 560.561599 286.110472 
L 563.992006 279.824367 
L 567.422414 250.943206 
L 570.852821 286.494622 
L 574.283229 279.160833 
L 577.713636 294.212563 
L 581.144044 296.377777 
L 584.574451 280.033903 
L 588.004859 271.198434 
L 591.435266 274.5161 
L 594.865674 278.986219 
L 598.296082 280.976819 
L 601.726489 291.802889 
L 605.156897 290.371054 
L 608.587304 268.474455 
L 612.017712 268.264918 
L 615.448119 279.61483 
L 618.878527 289.113833 
L 622.308934 290.161517 
L 625.739342 297.809612 
L 629.169749 298.717605 
L 632.600157 284.050026 
L 636.030564 288.520145 
L 639.460972 286.878773 
L 642.891379 293.898257 
L 646.321787 298.647759 
L 649.752194 306.226008 
L 653.182602 293.828412 
L 656.613009 293.129956 
L 660.043417 297.390538 
L 663.473824 302.105117 
L 666.904232 302.873418 
L 670.334639 308.565836 
L 673.765047 311.848579 
L 677.195455 301.860657 
L 677.195455 301.860657 
" clip-path="url(#pd03ebd2aa0)" style="fill: none; stroke: #ff7f0e; stroke-width: 1.5; stroke-linecap: square"/>
    <defs>
     <path id="mf50b09fd2b" d="M 0 3 
C 0.795609 3 1.55874 2.683901 2.12132 2.12132 
C 2.683901 1.55874 3 0.795609 3 0 
C 3 -0.795609 2.683901 -1.55874 2.12132 -2.12132 
C 1.55874 -2.683901 0.795609 -3 0 -3 
C -0.795609 -3 -1.55874 -2.683901 -2.12132 -2.12132 
C -2.683901 -1.55874 -3 -0.795609 -3 0 
C -3 0.795609 -2.683901 1.55874 -2.12132 2.12132 
C -1.55874 2.683901 -0.795609 3 0 3 
z
" style="stroke: #ff7f0e"/>
    </defs>
    <g clip-path="url(#pd03ebd2aa0)">
     <use xlink:href="#mf50b09fd2b" x="80.304545" y="324.80494" style="fill: #ff7f0e; stroke: #ff7f0e"/>
     <use xlink:href="#mf50b09fd2b" x="83.734953" y="325.084323" style="fill: #ff7f0e; stroke: #ff7f0e"/>
     <use xlink:href="#mf50b09fd2b" x="87.165361" y="325.573242" style="fill: #ff7f0e; stroke: #ff7f0e"/>
     <use xlink:href="#mf50b09fd2b" x="90.595768" y="324.141407" style="fill: #ff7f0e; stroke: #ff7f0e"/>
     <use xlink:href="#mf50b09fd2b" x="94.026176" y="325.154168" style="fill: #ff7f0e; stroke: #ff7f0e"/>
     <use xlink:href="#mf50b09fd2b" x="97.456583" y="324.595404" style="fill: #ff7f0e; stroke: #ff7f0e"/>
     <use xlink:href="#mf50b09fd2b" x="100.886991" y="324.455712" style="fill: #ff7f0e; stroke: #ff7f0e"/>
     <use xlink:href="#mf50b09fd2b" x="104.317398" y="324.455712" style="fill: #ff7f0e; stroke: #ff7f0e"/>
     <use xlink:href="#mf50b09fd2b" x="107.747806" y="324.42079" style="fill: #ff7f0e; stroke: #ff7f0e"/>
     <use xlink:href="#mf50b09fd2b" x="111.178213" y="322.849263" style="fill: #ff7f0e; stroke: #ff7f0e"/>
     <use xlink:href="#mf50b09fd2b" x="114.608621" y="318.518835" style="fill: #ff7f0e; stroke: #ff7f0e"/>
     <use xlink:href="#mf50b09fd2b" x="118.039028" y="320.404667" style="fill: #ff7f0e; stroke: #ff7f0e"/>
     <use xlink:href="#mf50b09fd2b" x="121.469436" y="315.271014" style="fill: #ff7f0e; stroke: #ff7f0e"/>
     <use xlink:href="#mf50b09fd2b" x="124.899843" y="315.655165" style="fill: #ff7f0e; stroke: #ff7f0e"/>
     <use xlink:href="#mf50b09fd2b" x="128.330251" y="315.550397" style="fill: #ff7f0e; stroke: #ff7f0e"/>
     <use xlink:href="#mf50b09fd2b" x="131.760658" y="308.705527" style="fill: #ff7f0e; stroke: #ff7f0e"/>
     <use xlink:href="#mf50b09fd2b" x="135.191066" y="306.540313" style="fill: #ff7f0e; stroke: #ff7f0e"/>
     <use xlink:href="#mf50b09fd2b" x="138.621473" y="301.89558" style="fill: #ff7f0e; stroke: #ff7f0e"/>
     <use xlink:href="#mf50b09fd2b" x="142.051881" y="305.352938" style="fill: #ff7f0e; stroke: #ff7f0e"/>
     <use xlink:href="#mf50b09fd2b" x="145.482288" y="302.663882" style="fill: #ff7f0e; stroke: #ff7f0e"/>
     <use xlink:href="#mf50b09fd2b" x="148.912696" y="305.527552" style="fill: #ff7f0e; stroke: #ff7f0e"/>
     <use xlink:href="#mf50b09fd2b" x="152.343103" y="306.086317" style="fill: #ff7f0e; stroke: #ff7f0e"/>
     <use xlink:href="#mf50b09fd2b" x="155.773511" y="305.00371" style="fill: #ff7f0e; stroke: #ff7f0e"/>
     <use xlink:href="#mf50b09fd2b" x="159.203918" y="285.34217" style="fill: #ff7f0e; stroke: #ff7f0e"/>
     <use xlink:href="#mf50b09fd2b" x="162.634326" y="261.769276" style="fill: #ff7f0e; stroke: #ff7f0e"/>
     <use xlink:href="#mf50b09fd2b" x="166.064734" y="261.350202" style="fill: #ff7f0e; stroke: #ff7f0e"/>
     <use xlink:href="#mf50b09fd2b" x="169.495141" y="267.391848" style="fill: #ff7f0e; stroke: #ff7f0e"/>
     <use xlink:href="#mf50b09fd2b" x="172.925549" y="264.109104" style="fill: #ff7f0e; stroke: #ff7f0e"/>
     <use xlink:href="#mf50b09fd2b" x="176.355956" y="262.293118" style="fill: #ff7f0e; stroke: #ff7f0e"/>
     <use xlink:href="#mf50b09fd2b" x="179.786364" y="217.068085" style="fill: #ff7f0e; stroke: #ff7f0e"/>
     <use xlink:href="#mf50b09fd2b" x="183.216771" y="190.456907" style="fill: #ff7f0e; stroke: #ff7f0e"/>
     <use xlink:href="#mf50b09fd2b" x="186.647179" y="195.066717" style="fill: #ff7f0e; stroke: #ff7f0e"/>
     <use xlink:href="#mf50b09fd2b" x="190.077586" y="177.640237" style="fill: #ff7f0e; stroke: #ff7f0e"/>
     <use xlink:href="#mf50b09fd2b" x="193.507994" y="215.461636" style="fill: #ff7f0e; stroke: #ff7f0e"/>
     <use xlink:href="#mf50b09fd2b" x="196.938401" y="262.886806" style="fill: #ff7f0e; stroke: #ff7f0e"/>
     <use xlink:href="#mf50b09fd2b" x="200.368809" y="231.421358" style="fill: #ff7f0e; stroke: #ff7f0e"/>
     <use xlink:href="#mf50b09fd2b" x="203.799216" y="221.398512" style="fill: #ff7f0e; stroke: #ff7f0e"/>
     <use xlink:href="#mf50b09fd2b" x="207.229624" y="222.23666" style="fill: #ff7f0e; stroke: #ff7f0e"/>
     <use xlink:href="#mf50b09fd2b" x="210.660031" y="242.247428" style="fill: #ff7f0e; stroke: #ff7f0e"/>
     <use xlink:href="#mf50b09fd2b" x="214.090439" y="221.188976" style="fill: #ff7f0e; stroke: #ff7f0e"/>
     <use xlink:href="#mf50b09fd2b" x="217.520846" y="248.952606" style="fill: #ff7f0e; stroke: #ff7f0e"/>
     <use xlink:href="#mf50b09fd2b" x="220.951254" y="261.454971" style="fill: #ff7f0e; stroke: #ff7f0e"/>
     <use xlink:href="#mf50b09fd2b" x="224.381661" y="266.868006" style="fill: #ff7f0e; stroke: #ff7f0e"/>
     <use xlink:href="#mf50b09fd2b" x="227.812069" y="254.295796" style="fill: #ff7f0e; stroke: #ff7f0e"/>
     <use xlink:href="#mf50b09fd2b" x="231.242476" y="263.375725" style="fill: #ff7f0e; stroke: #ff7f0e"/>
     <use xlink:href="#mf50b09fd2b" x="234.672884" y="244.76187" style="fill: #ff7f0e; stroke: #ff7f0e"/>
     <use xlink:href="#mf50b09fd2b" x="238.103292" y="296.028548" style="fill: #ff7f0e; stroke: #ff7f0e"/>
     <use xlink:href="#mf50b09fd2b" x="241.533699" y="292.466422" style="fill: #ff7f0e; stroke: #ff7f0e"/>
     <use xlink:href="#mf50b09fd2b" x="244.964107" y="285.726321" style="fill: #ff7f0e; stroke: #ff7f0e"/>
     <use xlink:href="#mf50b09fd2b" x="248.394514" y="295.819012" style="fill: #ff7f0e; stroke: #ff7f0e"/>
     <use xlink:href="#mf50b09fd2b" x="251.824922" y="310.73105" style="fill: #ff7f0e; stroke: #ff7f0e"/>
     <use xlink:href="#mf50b09fd2b" x="255.255329" y="302.908341" style="fill: #ff7f0e; stroke: #ff7f0e"/>
     <use xlink:href="#mf50b09fd2b" x="258.685737" y="301.197124" style="fill: #ff7f0e; stroke: #ff7f0e"/>
     <use xlink:href="#mf50b09fd2b" x="262.116144" y="307.413383" style="fill: #ff7f0e; stroke: #ff7f0e"/>
     <use xlink:href="#mf50b09fd2b" x="265.546552" y="311.185046" style="fill: #ff7f0e; stroke: #ff7f0e"/>
     <use xlink:href="#mf50b09fd2b" x="268.976959" y="309.892902" style="fill: #ff7f0e; stroke: #ff7f0e"/>
     <use xlink:href="#mf50b09fd2b" x="272.407367" y="311.534274" style="fill: #ff7f0e; stroke: #ff7f0e"/>
     <use xlink:href="#mf50b09fd2b" x="275.837774" y="314.013793" style="fill: #ff7f0e; stroke: #ff7f0e"/>
     <use xlink:href="#mf50b09fd2b" x="279.268182" y="320.893586" style="fill: #ff7f0e; stroke: #ff7f0e"/>
     <use xlink:href="#mf50b09fd2b" x="282.698589" y="320.090362" style="fill: #ff7f0e; stroke: #ff7f0e"/>
     <use xlink:href="#mf50b09fd2b" x="286.128997" y="317.540997" style="fill: #ff7f0e; stroke: #ff7f0e"/>
     <use xlink:href="#mf50b09fd2b" x="289.559404" y="317.471151" style="fill: #ff7f0e; stroke: #ff7f0e"/>
     <use xlink:href="#mf50b09fd2b" x="292.989812" y="310.207208" style="fill: #ff7f0e; stroke: #ff7f0e"/>
     <use xlink:href="#mf50b09fd2b" x="296.420219" y="310.835818" style="fill: #ff7f0e; stroke: #ff7f0e"/>
     <use xlink:href="#mf50b09fd2b" x="299.850627" y="315.480551" style="fill: #ff7f0e; stroke: #ff7f0e"/>
     <use xlink:href="#mf50b09fd2b" x="303.281034" y="315.305937" style="fill: #ff7f0e; stroke: #ff7f0e"/>
     <use xlink:href="#mf50b09fd2b" x="306.711442" y="319.985593" style="fill: #ff7f0e; stroke: #ff7f0e"/>
     <use xlink:href="#mf50b09fd2b" x="310.14185" y="321.801579" style="fill: #ff7f0e; stroke: #ff7f0e"/>
     <use xlink:href="#mf50b09fd2b" x="313.572257" y="322.255576" style="fill: #ff7f0e; stroke: #ff7f0e"/>
     <use xlink:href="#mf50b09fd2b" x="317.002665" y="317.715611" style="fill: #ff7f0e; stroke: #ff7f0e"/>
     <use xlink:href="#mf50b09fd2b" x="320.433072" y="248.009691" style="fill: #ff7f0e; stroke: #ff7f0e"/>
     <use xlink:href="#mf50b09fd2b" x="323.86348" y="261.664508" style="fill: #ff7f0e; stroke: #ff7f0e"/>
     <use xlink:href="#mf50b09fd2b" x="327.293887" y="286.494622" style="fill: #ff7f0e; stroke: #ff7f0e"/>
     <use xlink:href="#mf50b09fd2b" x="330.724295" y="287.053387" style="fill: #ff7f0e; stroke: #ff7f0e"/>
     <use xlink:href="#mf50b09fd2b" x="334.154702" y="247.62554" style="fill: #ff7f0e; stroke: #ff7f0e"/>
     <use xlink:href="#mf50b09fd2b" x="337.58511" y="249.301834" style="fill: #ff7f0e; stroke: #ff7f0e"/>
     <use xlink:href="#mf50b09fd2b" x="341.015517" y="261.629585" style="fill: #ff7f0e; stroke: #ff7f0e"/>
     <use xlink:href="#mf50b09fd2b" x="344.445925" y="269.801521" style="fill: #ff7f0e; stroke: #ff7f0e"/>
     <use xlink:href="#mf50b09fd2b" x="347.876332" y="271.198434" style="fill: #ff7f0e; stroke: #ff7f0e"/>
     <use xlink:href="#mf50b09fd2b" x="351.30674" y="278.671914" style="fill: #ff7f0e; stroke: #ff7f0e"/>
     <use xlink:href="#mf50b09fd2b" x="354.737147" y="232.538888" style="fill: #ff7f0e; stroke: #ff7f0e"/>
     <use xlink:href="#mf50b09fd2b" x="358.167555" y="225.624172" style="fill: #ff7f0e; stroke: #ff7f0e"/>
     <use xlink:href="#mf50b09fd2b" x="361.597962" y="230.19906" style="fill: #ff7f0e; stroke: #ff7f0e"/>
     <use xlink:href="#mf50b09fd2b" x="365.02837" y="249.685985" style="fill: #ff7f0e; stroke: #ff7f0e"/>
     <use xlink:href="#mf50b09fd2b" x="368.458777" y="235.507326" style="fill: #ff7f0e; stroke: #ff7f0e"/>
     <use xlink:href="#mf50b09fd2b" x="371.889185" y="246.333396" style="fill: #ff7f0e; stroke: #ff7f0e"/>
     <use xlink:href="#mf50b09fd2b" x="375.319592" y="179.945142" style="fill: #ff7f0e; stroke: #ff7f0e"/>
     <use xlink:href="#mf50b09fd2b" x="378.75" y="195.276254" style="fill: #ff7f0e; stroke: #ff7f0e"/>
     <use xlink:href="#mf50b09fd2b" x="382.180408" y="188.047233" style="fill: #ff7f0e; stroke: #ff7f0e"/>
     <use xlink:href="#mf50b09fd2b" x="385.610815" y="216.614088" style="fill: #ff7f0e; stroke: #ff7f0e"/>
     <use xlink:href="#mf50b09fd2b" x="389.041223" y="217.033162" style="fill: #ff7f0e; stroke: #ff7f0e"/>
     <use xlink:href="#mf50b09fd2b" x="392.47163" y="209.41999" style="fill: #ff7f0e; stroke: #ff7f0e"/>
     <use xlink:href="#mf50b09fd2b" x="395.902038" y="247.695385" style="fill: #ff7f0e; stroke: #ff7f0e"/>
     <use xlink:href="#mf50b09fd2b" x="399.332445" y="227.370312" style="fill: #ff7f0e; stroke: #ff7f0e"/>
     <use xlink:href="#mf50b09fd2b" x="402.762853" y="27.856323" style="fill: #ff7f0e; stroke: #ff7f0e"/>
     <use xlink:href="#mf50b09fd2b" x="406.19326" y="171.912897" style="fill: #ff7f0e; stroke: #ff7f0e"/>
     <use xlink:href="#mf50b09fd2b" x="409.623668" y="185.14864" style="fill: #ff7f0e; stroke: #ff7f0e"/>
     <use xlink:href="#mf50b09fd2b" x="413.054075" y="181.761128" style="fill: #ff7f0e; stroke: #ff7f0e"/>
     <use xlink:href="#mf50b09fd2b" x="416.484483" y="198.105001" style="fill: #ff7f0e; stroke: #ff7f0e"/>
     <use xlink:href="#mf50b09fd2b" x="419.91489" y="205.543559" style="fill: #ff7f0e; stroke: #ff7f0e"/>
     <use xlink:href="#mf50b09fd2b" x="423.345298" y="137.828238" style="fill: #ff7f0e; stroke: #ff7f0e"/>
     <use xlink:href="#mf50b09fd2b" x="426.775705" y="131.12306" style="fill: #ff7f0e; stroke: #ff7f0e"/>
     <use xlink:href="#mf50b09fd2b" x="430.206113" y="157.419932" style="fill: #ff7f0e; stroke: #ff7f0e"/>
     <use xlink:href="#mf50b09fd2b" x="433.63652" y="180.119756" style="fill: #ff7f0e; stroke: #ff7f0e"/>
     <use xlink:href="#mf50b09fd2b" x="437.066928" y="199.746373" style="fill: #ff7f0e; stroke: #ff7f0e"/>
     <use xlink:href="#mf50b09fd2b" x="440.497335" y="212.563043" style="fill: #ff7f0e; stroke: #ff7f0e"/>
     <use xlink:href="#mf50b09fd2b" x="443.927743" y="156.546862" style="fill: #ff7f0e; stroke: #ff7f0e"/>
     <use xlink:href="#mf50b09fd2b" x="447.35815" y="153.78796" style="fill: #ff7f0e; stroke: #ff7f0e"/>
     <use xlink:href="#mf50b09fd2b" x="450.788558" y="198.873303" style="fill: #ff7f0e; stroke: #ff7f0e"/>
     <use xlink:href="#mf50b09fd2b" x="454.218966" y="194.123801" style="fill: #ff7f0e; stroke: #ff7f0e"/>
     <use xlink:href="#mf50b09fd2b" x="457.649373" y="212.493197" style="fill: #ff7f0e; stroke: #ff7f0e"/>
     <use xlink:href="#mf50b09fd2b" x="461.079781" y="235.332712" style="fill: #ff7f0e; stroke: #ff7f0e"/>
     <use xlink:href="#mf50b09fd2b" x="464.510188" y="237.113775" style="fill: #ff7f0e; stroke: #ff7f0e"/>
     <use xlink:href="#mf50b09fd2b" x="467.940596" y="201.632204" style="fill: #ff7f0e; stroke: #ff7f0e"/>
     <use xlink:href="#mf50b09fd2b" x="471.371003" y="183.367577" style="fill: #ff7f0e; stroke: #ff7f0e"/>
     <use xlink:href="#mf50b09fd2b" x="474.801411" y="215.810864" style="fill: #ff7f0e; stroke: #ff7f0e"/>
     <use xlink:href="#mf50b09fd2b" x="478.231818" y="232.783347" style="fill: #ff7f0e; stroke: #ff7f0e"/>
     <use xlink:href="#mf50b09fd2b" x="481.662226" y="245.460326" style="fill: #ff7f0e; stroke: #ff7f0e"/>
     <use xlink:href="#mf50b09fd2b" x="485.092633" y="256.810238" style="fill: #ff7f0e; stroke: #ff7f0e"/>
     <use xlink:href="#mf50b09fd2b" x="488.523041" y="265.086943" style="fill: #ff7f0e; stroke: #ff7f0e"/>
     <use xlink:href="#mf50b09fd2b" x="491.953448" y="256.775315" style="fill: #ff7f0e; stroke: #ff7f0e"/>
     <use xlink:href="#mf50b09fd2b" x="495.383856" y="248.952606" style="fill: #ff7f0e; stroke: #ff7f0e"/>
     <use xlink:href="#mf50b09fd2b" x="498.814263" y="257.96269" style="fill: #ff7f0e; stroke: #ff7f0e"/>
     <use xlink:href="#mf50b09fd2b" x="502.244671" y="270.919051" style="fill: #ff7f0e; stroke: #ff7f0e"/>
     <use xlink:href="#mf50b09fd2b" x="505.675078" y="279.510061" style="fill: #ff7f0e; stroke: #ff7f0e"/>
     <use xlink:href="#mf50b09fd2b" x="509.105486" y="292.396577" style="fill: #ff7f0e; stroke: #ff7f0e"/>
     <use xlink:href="#mf50b09fd2b" x="512.535893" y="290.021826" style="fill: #ff7f0e; stroke: #ff7f0e"/>
     <use xlink:href="#mf50b09fd2b" x="515.966301" y="292.780728" style="fill: #ff7f0e; stroke: #ff7f0e"/>
     <use xlink:href="#mf50b09fd2b" x="519.396708" y="277.833767" style="fill: #ff7f0e; stroke: #ff7f0e"/>
     <use xlink:href="#mf50b09fd2b" x="522.827116" y="275.63363" style="fill: #ff7f0e; stroke: #ff7f0e"/>
     <use xlink:href="#mf50b09fd2b" x="526.257524" y="289.986903" style="fill: #ff7f0e; stroke: #ff7f0e"/>
     <use xlink:href="#mf50b09fd2b" x="529.687931" y="291.034587" style="fill: #ff7f0e; stroke: #ff7f0e"/>
     <use xlink:href="#mf50b09fd2b" x="533.118339" y="301.89558" style="fill: #ff7f0e; stroke: #ff7f0e"/>
     <use xlink:href="#mf50b09fd2b" x="536.548746" y="294.596713" style="fill: #ff7f0e; stroke: #ff7f0e"/>
     <use xlink:href="#mf50b09fd2b" x="539.979154" y="287.507384" style="fill: #ff7f0e; stroke: #ff7f0e"/>
     <use xlink:href="#mf50b09fd2b" x="543.409561" y="277.589307" style="fill: #ff7f0e; stroke: #ff7f0e"/>
     <use xlink:href="#mf50b09fd2b" x="546.839969" y="290.720282" style="fill: #ff7f0e; stroke: #ff7f0e"/>
     <use xlink:href="#mf50b09fd2b" x="550.270376" y="291.418738" style="fill: #ff7f0e; stroke: #ff7f0e"/>
     <use xlink:href="#mf50b09fd2b" x="553.700784" y="298.612836" style="fill: #ff7f0e; stroke: #ff7f0e"/>
     <use xlink:href="#mf50b09fd2b" x="557.131191" y="300.952664" style="fill: #ff7f0e; stroke: #ff7f0e"/>
     <use xlink:href="#mf50b09fd2b" x="560.561599" y="286.110472" style="fill: #ff7f0e; stroke: #ff7f0e"/>
     <use xlink:href="#mf50b09fd2b" x="563.992006" y="279.824367" style="fill: #ff7f0e; stroke: #ff7f0e"/>
     <use xlink:href="#mf50b09fd2b" x="567.422414" y="250.943206" style="fill: #ff7f0e; stroke: #ff7f0e"/>
     <use xlink:href="#mf50b09fd2b" x="570.852821" y="286.494622" style="fill: #ff7f0e; stroke: #ff7f0e"/>
     <use xlink:href="#mf50b09fd2b" x="574.283229" y="279.160833" style="fill: #ff7f0e; stroke: #ff7f0e"/>
     <use xlink:href="#mf50b09fd2b" x="577.713636" y="294.212563" style="fill: #ff7f0e; stroke: #ff7f0e"/>
     <use xlink:href="#mf50b09fd2b" x="581.144044" y="296.377777" style="fill: #ff7f0e; stroke: #ff7f0e"/>
     <use xlink:href="#mf50b09fd2b" x="584.574451" y="280.033903" style="fill: #ff7f0e; stroke: #ff7f0e"/>
     <use xlink:href="#mf50b09fd2b" x="588.004859" y="271.198434" style="fill: #ff7f0e; stroke: #ff7f0e"/>
     <use xlink:href="#mf50b09fd2b" x="591.435266" y="274.5161" style="fill: #ff7f0e; stroke: #ff7f0e"/>
     <use xlink:href="#mf50b09fd2b" x="594.865674" y="278.986219" style="fill: #ff7f0e; stroke: #ff7f0e"/>
     <use xlink:href="#mf50b09fd2b" x="598.296082" y="280.976819" style="fill: #ff7f0e; stroke: #ff7f0e"/>
     <use xlink:href="#mf50b09fd2b" x="601.726489" y="291.802889" style="fill: #ff7f0e; stroke: #ff7f0e"/>
     <use xlink:href="#mf50b09fd2b" x="605.156897" y="290.371054" style="fill: #ff7f0e; stroke: #ff7f0e"/>
     <use xlink:href="#mf50b09fd2b" x="608.587304" y="268.474455" style="fill: #ff7f0e; stroke: #ff7f0e"/>
     <use xlink:href="#mf50b09fd2b" x="612.017712" y="268.264918" style="fill: #ff7f0e; stroke: #ff7f0e"/>
     <use xlink:href="#mf50b09fd2b" x="615.448119" y="279.61483" style="fill: #ff7f0e; stroke: #ff7f0e"/>
     <use xlink:href="#mf50b09fd2b" x="618.878527" y="289.113833" style="fill: #ff7f0e; stroke: #ff7f0e"/>
     <use xlink:href="#mf50b09fd2b" x="622.308934" y="290.161517" style="fill: #ff7f0e; stroke: #ff7f0e"/>
     <use xlink:href="#mf50b09fd2b" x="625.739342" y="297.809612" style="fill: #ff7f0e; stroke: #ff7f0e"/>
     <use xlink:href="#mf50b09fd2b" x="629.169749" y="298.717605" style="fill: #ff7f0e; stroke: #ff7f0e"/>
     <use xlink:href="#mf50b09fd2b" x="632.600157" y="284.050026" style="fill: #ff7f0e; stroke: #ff7f0e"/>
     <use xlink:href="#mf50b09fd2b" x="636.030564" y="288.520145" style="fill: #ff7f0e; stroke: #ff7f0e"/>
     <use xlink:href="#mf50b09fd2b" x="639.460972" y="286.878773" style="fill: #ff7f0e; stroke: #ff7f0e"/>
     <use xlink:href="#mf50b09fd2b" x="642.891379" y="293.898257" style="fill: #ff7f0e; stroke: #ff7f0e"/>
     <use xlink:href="#mf50b09fd2b" x="646.321787" y="298.647759" style="fill: #ff7f0e; stroke: #ff7f0e"/>
     <use xlink:href="#mf50b09fd2b" x="649.752194" y="306.226008" style="fill: #ff7f0e; stroke: #ff7f0e"/>
     <use xlink:href="#mf50b09fd2b" x="653.182602" y="293.828412" style="fill: #ff7f0e; stroke: #ff7f0e"/>
     <use xlink:href="#mf50b09fd2b" x="656.613009" y="293.129956" style="fill: #ff7f0e; stroke: #ff7f0e"/>
     <use xlink:href="#mf50b09fd2b" x="660.043417" y="297.390538" style="fill: #ff7f0e; stroke: #ff7f0e"/>
     <use xlink:href="#mf50b09fd2b" x="663.473824" y="302.105117" style="fill: #ff7f0e; stroke: #ff7f0e"/>
     <use xlink:href="#mf50b09fd2b" x="666.904232" y="302.873418" style="fill: #ff7f0e; stroke: #ff7f0e"/>
     <use xlink:href="#mf50b09fd2b" x="670.334639" y="308.565836" style="fill: #ff7f0e; stroke: #ff7f0e"/>
     <use xlink:href="#mf50b09fd2b" x="673.765047" y="311.848579" style="fill: #ff7f0e; stroke: #ff7f0e"/>
     <use xlink:href="#mf50b09fd2b" x="677.195455" y="301.860657" style="fill: #ff7f0e; stroke: #ff7f0e"/>
    </g>
   </g>
   <g id="patch_3">
    <path d="M 50.46 327.04 
L 50.46 12.96 
" style="fill: none; stroke: #000000; stroke-width: 0.8; stroke-linejoin: miter; stroke-linecap: square"/>
   </g>
   <g id="patch_4">
    <path d="M 50.46 327.04 
L 707.04 327.04 
" style="fill: none; stroke: #000000; stroke-width: 0.8; stroke-linejoin: miter; stroke-linecap: square"/>
   </g>
   <g id="legend_1">
    <g id="patch_5">
     <path d="M 58.86 57.7875 
L 197.86125 57.7875 
Q 200.26125 57.7875 200.26125 55.3875 
L 200.26125 21.36 
Q 200.26125 18.96 197.86125 18.96 
L 58.86 18.96 
Q 56.46 18.96 56.46 21.36 
L 56.46 55.3875 
Q 56.46 57.7875 58.86 57.7875 
z
" style="fill: #ffffff; opacity: 0.8; stroke: #cccccc; stroke-linejoin: miter"/>
    </g>
    <g id="line2d_21">
     <path d="M 61.26 28.678125 
L 73.26 28.678125 
L 85.26 28.678125 
" style="fill: none; stroke: #1f77b4; stroke-width: 1.5; stroke-linecap: square"/>
     <g>
      <use xlink:href="#mea004ac0dd" x="73.26" y="28.678125" style="fill: #1f77b4; stroke: #1f77b4"/>
     </g>
    </g>
    <g id="text_19">
     <!-- Age range 0-9 -->
     <g transform="translate(94.86 32.878125)scale(0.12 -0.12)">
      <defs>
       <path id="DejaVuSans-67" d="M 2906 1791 
Q 2906 2416 2648 2759 
Q 2391 3103 1925 3103 
Q 1463 3103 1205 2759 
Q 947 2416 947 1791 
Q 947 1169 1205 825 
Q 1463 481 1925 481 
Q 2391 481 2648 825 
Q 2906 1169 2906 1791 
z
M 3481 434 
Q 3481 -459 3084 -895 
Q 2688 -1331 1869 -1331 
Q 1566 -1331 1297 -1286 
Q 1028 -1241 775 -1147 
L 775 -588 
Q 1028 -725 1275 -790 
Q 1522 -856 1778 -856 
Q 2344 -856 2625 -561 
Q 2906 -266 2906 331 
L 2906 616 
Q 2728 306 2450 153 
Q 2172 0 1784 0 
Q 1141 0 747 490 
Q 353 981 353 1791 
Q 353 2603 747 3093 
Q 1141 3584 1784 3584 
Q 2172 3584 2450 3431 
Q 2728 3278 2906 2969 
L 2906 3500 
L 3481 3500 
L 3481 434 
z
" transform="scale(0.015625)"/>
       <path id="DejaVuSans-2d" d="M 313 2009 
L 1997 2009 
L 1997 1497 
L 313 1497 
L 313 2009 
z
" transform="scale(0.015625)"/>
       <path id="DejaVuSans-39" d="M 703 97 
L 703 672 
Q 941 559 1184 500 
Q 1428 441 1663 441 
Q 2288 441 2617 861 
Q 2947 1281 2994 2138 
Q 2813 1869 2534 1725 
Q 2256 1581 1919 1581 
Q 1219 1581 811 2004 
Q 403 2428 403 3163 
Q 403 3881 828 4315 
Q 1253 4750 1959 4750 
Q 2769 4750 3195 4129 
Q 3622 3509 3622 2328 
Q 3622 1225 3098 567 
Q 2575 -91 1691 -91 
Q 1453 -91 1209 -44 
Q 966 3 703 97 
z
M 1959 2075 
Q 2384 2075 2632 2365 
Q 2881 2656 2881 3163 
Q 2881 3666 2632 3958 
Q 2384 4250 1959 4250 
Q 1534 4250 1286 3958 
Q 1038 3666 1038 3163 
Q 1038 2656 1286 2365 
Q 1534 2075 1959 2075 
z
" transform="scale(0.015625)"/>
      </defs>
      <use xlink:href="#DejaVuSans-41"/>
      <use xlink:href="#DejaVuSans-67" x="68.408203"/>
      <use xlink:href="#DejaVuSans-65" x="131.884766"/>
      <use xlink:href="#DejaVuSans-20" x="193.408203"/>
      <use xlink:href="#DejaVuSans-72" x="225.195312"/>
      <use xlink:href="#DejaVuSans-61" x="266.308594"/>
      <use xlink:href="#DejaVuSans-6e" x="327.587891"/>
      <use xlink:href="#DejaVuSans-67" x="390.966797"/>
      <use xlink:href="#DejaVuSans-65" x="454.443359"/>
      <use xlink:href="#DejaVuSans-20" x="515.966797"/>
      <use xlink:href="#DejaVuSans-30" x="547.753906"/>
      <use xlink:href="#DejaVuSans-2d" x="611.376953"/>
      <use xlink:href="#DejaVuSans-39" x="647.460938"/>
     </g>
    </g>
    <g id="line2d_22">
     <path d="M 61.26 46.291875 
L 73.26 46.291875 
L 85.26 46.291875 
" style="fill: none; stroke: #ff7f0e; stroke-width: 1.5; stroke-linecap: square"/>
     <g>
      <use xlink:href="#mf50b09fd2b" x="73.26" y="46.291875" style="fill: #ff7f0e; stroke: #ff7f0e"/>
     </g>
    </g>
    <g id="text_20">
     <!-- Age range 10-19 -->
     <g transform="translate(94.86 50.491875)scale(0.12 -0.12)">
      <use xlink:href="#DejaVuSans-41"/>
      <use xlink:href="#DejaVuSans-67" x="68.408203"/>
      <use xlink:href="#DejaVuSans-65" x="131.884766"/>
      <use xlink:href="#DejaVuSans-20" x="193.408203"/>
      <use xlink:href="#DejaVuSans-72" x="225.195312"/>
      <use xlink:href="#DejaVuSans-61" x="266.308594"/>
      <use xlink:href="#DejaVuSans-6e" x="327.587891"/>
      <use xlink:href="#DejaVuSans-67" x="390.966797"/>
      <use xlink:href="#DejaVuSans-65" x="454.443359"/>
      <use xlink:href="#DejaVuSans-20" x="515.966797"/>
      <use xlink:href="#DejaVuSans-31" x="547.753906"/>
      <use xlink:href="#DejaVuSans-30" x="611.376953"/>
      <use xlink:href="#DejaVuSans-2d" x="675"/>
      <use xlink:href="#DejaVuSans-31" x="711.083984"/>
      <use xlink:href="#DejaVuSans-39" x="774.707031"/>
     </g>
    </g>
   </g>
  </g>
 </g>
 <defs>
  <clipPath id="pd03ebd2aa0">
   <rect x="50.46" y="12.96" width="656.58" height="314.08"/>
  </clipPath>
 </defs>
</svg>
