<?xml version="1.0" encoding="utf-8" standalone="no"?>
<!DOCTYPE svg PUBLIC "-//W3C//DTD SVG 1.1//EN"
  "http://www.w3.org/Graphics/SVG/1.1/DTD/svg11.dtd">
<svg xmlns:xlink="http://www.w3.org/1999/xlink" width="720pt" height="360pt" viewBox="0 0 720 360" xmlns="http://www.w3.org/2000/svg" version="1.1">
 <metadata>
  <rdf:RDF xmlns:dc="http://purl.org/dc/elements/1.1/" xmlns:cc="http://creativecommons.org/ns#" xmlns:rdf="http://www.w3.org/1999/02/22-rdf-syntax-ns#">
   <cc:Work>
    <dc:type rdf:resource="http://purl.org/dc/dcmitype/StillImage"/>
    <dc:date>2022-03-25T22:10:52.000916</dc:date>
    <dc:format>image/svg+xml</dc:format>
    <dc:creator>
     <cc:Agent>
      <dc:title>Matplotlib v3.5.1, https://matplotlib.org/</dc:title>
     </cc:Agent>
    </dc:creator>
   </cc:Work>
  </rdf:RDF>
 </metadata>
 <defs>
  <style type="text/css">*{stroke-linejoin: round; stroke-linecap: butt}</style>
 </defs>
 <g id="figure_1">
  <g id="patch_1">
   <path d="M 0 360 
L 720 360 
L 720 0 
L 0 0 
L 0 360 
z
" style="fill: none"/>
  </g>
  <g id="axes_1">
   <g id="patch_2">
    <path d="M 50.46 327.04 
L 707.04 327.04 
L 707.04 12.96 
L 50.46 12.96 
z
" style="fill: #ffffff"/>
   </g>
   <g id="matplotlib.axis_1">
    <g id="xtick_1">
     <g id="line2d_1">
      <defs>
       <path id="m5285663a8c" d="M 0 0 
L 0 3.5 
" style="stroke: #000000; stroke-width: 0.8"/>
      </defs>
      <g>
       <use xlink:href="#m5285663a8c" x="80.304545" y="327.04" style="stroke: #000000; stroke-width: 0.8"/>
      </g>
     </g>
     <g id="text_1">
      <!-- Dec 05 -->
      <g transform="translate(59.151733 343.158125)scale(0.12 -0.12)">
       <defs>
        <path id="DejaVuSans-44" d="M 1259 4147 
L 1259 519 
L 2022 519 
Q 2988 519 3436 956 
Q 3884 1394 3884 2338 
Q 3884 3275 3436 3711 
Q 2988 4147 2022 4147 
L 1259 4147 
z
M 628 4666 
L 1925 4666 
Q 3281 4666 3915 4102 
Q 4550 3538 4550 2338 
Q 4550 1131 3912 565 
Q 3275 0 1925 0 
L 628 0 
L 628 4666 
z
" transform="scale(0.015625)"/>
        <path id="DejaVuSans-65" d="M 3597 1894 
L 3597 1613 
L 953 1613 
Q 991 1019 1311 708 
Q 1631 397 2203 397 
Q 2534 397 2845 478 
Q 3156 559 3463 722 
L 3463 178 
Q 3153 47 2828 -22 
Q 2503 -91 2169 -91 
Q 1331 -91 842 396 
Q 353 884 353 1716 
Q 353 2575 817 3079 
Q 1281 3584 2069 3584 
Q 2775 3584 3186 3129 
Q 3597 2675 3597 1894 
z
M 3022 2063 
Q 3016 2534 2758 2815 
Q 2500 3097 2075 3097 
Q 1594 3097 1305 2825 
Q 1016 2553 972 2059 
L 3022 2063 
z
" transform="scale(0.015625)"/>
        <path id="DejaVuSans-63" d="M 3122 3366 
L 3122 2828 
Q 2878 2963 2633 3030 
Q 2388 3097 2138 3097 
Q 1578 3097 1268 2742 
Q 959 2388 959 1747 
Q 959 1106 1268 751 
Q 1578 397 2138 397 
Q 2388 397 2633 464 
Q 2878 531 3122 666 
L 3122 134 
Q 2881 22 2623 -34 
Q 2366 -91 2075 -91 
Q 1284 -91 818 406 
Q 353 903 353 1747 
Q 353 2603 823 3093 
Q 1294 3584 2113 3584 
Q 2378 3584 2631 3529 
Q 2884 3475 3122 3366 
z
" transform="scale(0.015625)"/>
        <path id="DejaVuSans-20" transform="scale(0.015625)"/>
        <path id="DejaVuSans-30" d="M 2034 4250 
Q 1547 4250 1301 3770 
Q 1056 3291 1056 2328 
Q 1056 1369 1301 889 
Q 1547 409 2034 409 
Q 2525 409 2770 889 
Q 3016 1369 3016 2328 
Q 3016 3291 2770 3770 
Q 2525 4250 2034 4250 
z
M 2034 4750 
Q 2819 4750 3233 4129 
Q 3647 3509 3647 2328 
Q 3647 1150 3233 529 
Q 2819 -91 2034 -91 
Q 1250 -91 836 529 
Q 422 1150 422 2328 
Q 422 3509 836 4129 
Q 1250 4750 2034 4750 
z
" transform="scale(0.015625)"/>
        <path id="DejaVuSans-35" d="M 691 4666 
L 3169 4666 
L 3169 4134 
L 1269 4134 
L 1269 2991 
Q 1406 3038 1543 3061 
Q 1681 3084 1819 3084 
Q 2600 3084 3056 2656 
Q 3513 2228 3513 1497 
Q 3513 744 3044 326 
Q 2575 -91 1722 -91 
Q 1428 -91 1123 -41 
Q 819 9 494 109 
L 494 744 
Q 775 591 1075 516 
Q 1375 441 1709 441 
Q 2250 441 2565 725 
Q 2881 1009 2881 1497 
Q 2881 1984 2565 2268 
Q 2250 2553 1709 2553 
Q 1456 2553 1204 2497 
Q 953 2441 691 2322 
L 691 4666 
z
" transform="scale(0.015625)"/>
       </defs>
       <use xlink:href="#DejaVuSans-44"/>
       <use xlink:href="#DejaVuSans-65" x="77.001953"/>
       <use xlink:href="#DejaVuSans-63" x="138.525391"/>
       <use xlink:href="#DejaVuSans-20" x="193.505859"/>
       <use xlink:href="#DejaVuSans-30" x="225.292969"/>
       <use xlink:href="#DejaVuSans-35" x="288.916016"/>
      </g>
     </g>
    </g>
    <g id="xtick_2">
     <g id="line2d_2">
      <g>
       <use xlink:href="#m5285663a8c" x="155.640291" y="327.04" style="stroke: #000000; stroke-width: 0.8"/>
      </g>
     </g>
     <g id="text_2">
      <!-- Dec 20 -->
      <g transform="translate(134.487479 343.158125)scale(0.12 -0.12)">
       <defs>
        <path id="DejaVuSans-32" d="M 1228 531 
L 3431 531 
L 3431 0 
L 469 0 
L 469 531 
Q 828 903 1448 1529 
Q 2069 2156 2228 2338 
Q 2531 2678 2651 2914 
Q 2772 3150 2772 3378 
Q 2772 3750 2511 3984 
Q 2250 4219 1831 4219 
Q 1534 4219 1204 4116 
Q 875 4013 500 3803 
L 500 4441 
Q 881 4594 1212 4672 
Q 1544 4750 1819 4750 
Q 2544 4750 2975 4387 
Q 3406 4025 3406 3419 
Q 3406 3131 3298 2873 
Q 3191 2616 2906 2266 
Q 2828 2175 2409 1742 
Q 1991 1309 1228 531 
z
" transform="scale(0.015625)"/>
       </defs>
       <use xlink:href="#DejaVuSans-44"/>
       <use xlink:href="#DejaVuSans-65" x="77.001953"/>
       <use xlink:href="#DejaVuSans-63" x="138.525391"/>
       <use xlink:href="#DejaVuSans-20" x="193.505859"/>
       <use xlink:href="#DejaVuSans-32" x="225.292969"/>
       <use xlink:href="#DejaVuSans-30" x="288.916016"/>
      </g>
     </g>
    </g>
    <g id="xtick_3">
     <g id="line2d_3">
      <g>
       <use xlink:href="#m5285663a8c" x="230.976037" y="327.04" style="stroke: #000000; stroke-width: 0.8"/>
      </g>
     </g>
     <g id="text_3">
      <!-- Jan 02 -->
      <g transform="translate(212.184787 343.158125)scale(0.12 -0.12)">
       <defs>
        <path id="DejaVuSans-4a" d="M 628 4666 
L 1259 4666 
L 1259 325 
Q 1259 -519 939 -900 
Q 619 -1281 -91 -1281 
L -331 -1281 
L -331 -750 
L -134 -750 
Q 284 -750 456 -515 
Q 628 -281 628 325 
L 628 4666 
z
" transform="scale(0.015625)"/>
        <path id="DejaVuSans-61" d="M 2194 1759 
Q 1497 1759 1228 1600 
Q 959 1441 959 1056 
Q 959 750 1161 570 
Q 1363 391 1709 391 
Q 2188 391 2477 730 
Q 2766 1069 2766 1631 
L 2766 1759 
L 2194 1759 
z
M 3341 1997 
L 3341 0 
L 2766 0 
L 2766 531 
Q 2569 213 2275 61 
Q 1981 -91 1556 -91 
Q 1019 -91 701 211 
Q 384 513 384 1019 
Q 384 1609 779 1909 
Q 1175 2209 1959 2209 
L 2766 2209 
L 2766 2266 
Q 2766 2663 2505 2880 
Q 2244 3097 1772 3097 
Q 1472 3097 1187 3025 
Q 903 2953 641 2809 
L 641 3341 
Q 956 3463 1253 3523 
Q 1550 3584 1831 3584 
Q 2591 3584 2966 3190 
Q 3341 2797 3341 1997 
z
" transform="scale(0.015625)"/>
        <path id="DejaVuSans-6e" d="M 3513 2113 
L 3513 0 
L 2938 0 
L 2938 2094 
Q 2938 2591 2744 2837 
Q 2550 3084 2163 3084 
Q 1697 3084 1428 2787 
Q 1159 2491 1159 1978 
L 1159 0 
L 581 0 
L 581 3500 
L 1159 3500 
L 1159 2956 
Q 1366 3272 1645 3428 
Q 1925 3584 2291 3584 
Q 2894 3584 3203 3211 
Q 3513 2838 3513 2113 
z
" transform="scale(0.015625)"/>
       </defs>
       <use xlink:href="#DejaVuSans-4a"/>
       <use xlink:href="#DejaVuSans-61" x="29.492188"/>
       <use xlink:href="#DejaVuSans-6e" x="90.771484"/>
       <use xlink:href="#DejaVuSans-20" x="154.150391"/>
       <use xlink:href="#DejaVuSans-30" x="185.9375"/>
       <use xlink:href="#DejaVuSans-32" x="249.560547"/>
      </g>
     </g>
    </g>
    <g id="xtick_4">
     <g id="line2d_4">
      <g>
       <use xlink:href="#m5285663a8c" x="306.311783" y="327.04" style="stroke: #000000; stroke-width: 0.8"/>
      </g>
     </g>
     <g id="text_4">
      <!-- Jan 15 -->
      <g transform="translate(287.520533 343.158125)scale(0.12 -0.12)">
       <defs>
        <path id="DejaVuSans-31" d="M 794 531 
L 1825 531 
L 1825 4091 
L 703 3866 
L 703 4441 
L 1819 4666 
L 2450 4666 
L 2450 531 
L 3481 531 
L 3481 0 
L 794 0 
L 794 531 
z
" transform="scale(0.015625)"/>
       </defs>
       <use xlink:href="#DejaVuSans-4a"/>
       <use xlink:href="#DejaVuSans-61" x="29.492188"/>
       <use xlink:href="#DejaVuSans-6e" x="90.771484"/>
       <use xlink:href="#DejaVuSans-20" x="154.150391"/>
       <use xlink:href="#DejaVuSans-31" x="185.9375"/>
       <use xlink:href="#DejaVuSans-35" x="249.560547"/>
      </g>
     </g>
    </g>
    <g id="xtick_5">
     <g id="line2d_5">
      <g>
       <use xlink:href="#m5285663a8c" x="381.647529" y="327.04" style="stroke: #000000; stroke-width: 0.8"/>
      </g>
     </g>
     <g id="text_5">
      <!-- Jan 30 -->
      <g transform="translate(362.856279 343.158125)scale(0.12 -0.12)">
       <defs>
        <path id="DejaVuSans-33" d="M 2597 2516 
Q 3050 2419 3304 2112 
Q 3559 1806 3559 1356 
Q 3559 666 3084 287 
Q 2609 -91 1734 -91 
Q 1441 -91 1130 -33 
Q 819 25 488 141 
L 488 750 
Q 750 597 1062 519 
Q 1375 441 1716 441 
Q 2309 441 2620 675 
Q 2931 909 2931 1356 
Q 2931 1769 2642 2001 
Q 2353 2234 1838 2234 
L 1294 2234 
L 1294 2753 
L 1863 2753 
Q 2328 2753 2575 2939 
Q 2822 3125 2822 3475 
Q 2822 3834 2567 4026 
Q 2313 4219 1838 4219 
Q 1578 4219 1281 4162 
Q 984 4106 628 3988 
L 628 4550 
Q 988 4650 1302 4700 
Q 1616 4750 1894 4750 
Q 2613 4750 3031 4423 
Q 3450 4097 3450 3541 
Q 3450 3153 3228 2886 
Q 3006 2619 2597 2516 
z
" transform="scale(0.015625)"/>
       </defs>
       <use xlink:href="#DejaVuSans-4a"/>
       <use xlink:href="#DejaVuSans-61" x="29.492188"/>
       <use xlink:href="#DejaVuSans-6e" x="90.771484"/>
       <use xlink:href="#DejaVuSans-20" x="154.150391"/>
       <use xlink:href="#DejaVuSans-33" x="185.9375"/>
       <use xlink:href="#DejaVuSans-30" x="249.560547"/>
      </g>
     </g>
    </g>
    <g id="xtick_6">
     <g id="line2d_6">
      <g>
       <use xlink:href="#m5285663a8c" x="456.983274" y="327.04" style="stroke: #000000; stroke-width: 0.8"/>
      </g>
     </g>
     <g id="text_6">
      <!-- Feb 12 -->
      <g transform="translate(436.819524 343.158125)scale(0.12 -0.12)">
       <defs>
        <path id="DejaVuSans-46" d="M 628 4666 
L 3309 4666 
L 3309 4134 
L 1259 4134 
L 1259 2759 
L 3109 2759 
L 3109 2228 
L 1259 2228 
L 1259 0 
L 628 0 
L 628 4666 
z
" transform="scale(0.015625)"/>
        <path id="DejaVuSans-62" d="M 3116 1747 
Q 3116 2381 2855 2742 
Q 2594 3103 2138 3103 
Q 1681 3103 1420 2742 
Q 1159 2381 1159 1747 
Q 1159 1113 1420 752 
Q 1681 391 2138 391 
Q 2594 391 2855 752 
Q 3116 1113 3116 1747 
z
M 1159 2969 
Q 1341 3281 1617 3432 
Q 1894 3584 2278 3584 
Q 2916 3584 3314 3078 
Q 3713 2572 3713 1747 
Q 3713 922 3314 415 
Q 2916 -91 2278 -91 
Q 1894 -91 1617 61 
Q 1341 213 1159 525 
L 1159 0 
L 581 0 
L 581 4863 
L 1159 4863 
L 1159 2969 
z
" transform="scale(0.015625)"/>
       </defs>
       <use xlink:href="#DejaVuSans-46"/>
       <use xlink:href="#DejaVuSans-65" x="52.019531"/>
       <use xlink:href="#DejaVuSans-62" x="113.542969"/>
       <use xlink:href="#DejaVuSans-20" x="177.019531"/>
       <use xlink:href="#DejaVuSans-31" x="208.806641"/>
       <use xlink:href="#DejaVuSans-32" x="272.429688"/>
      </g>
     </g>
    </g>
    <g id="xtick_7">
     <g id="line2d_7">
      <g>
       <use xlink:href="#m5285663a8c" x="532.31902" y="327.04" style="stroke: #000000; stroke-width: 0.8"/>
      </g>
     </g>
     <g id="text_7">
      <!-- Feb 26 -->
      <g transform="translate(512.15527 343.158125)scale(0.12 -0.12)">
       <defs>
        <path id="DejaVuSans-36" d="M 2113 2584 
Q 1688 2584 1439 2293 
Q 1191 2003 1191 1497 
Q 1191 994 1439 701 
Q 1688 409 2113 409 
Q 2538 409 2786 701 
Q 3034 994 3034 1497 
Q 3034 2003 2786 2293 
Q 2538 2584 2113 2584 
z
M 3366 4563 
L 3366 3988 
Q 3128 4100 2886 4159 
Q 2644 4219 2406 4219 
Q 1781 4219 1451 3797 
Q 1122 3375 1075 2522 
Q 1259 2794 1537 2939 
Q 1816 3084 2150 3084 
Q 2853 3084 3261 2657 
Q 3669 2231 3669 1497 
Q 3669 778 3244 343 
Q 2819 -91 2113 -91 
Q 1303 -91 875 529 
Q 447 1150 447 2328 
Q 447 3434 972 4092 
Q 1497 4750 2381 4750 
Q 2619 4750 2861 4703 
Q 3103 4656 3366 4563 
z
" transform="scale(0.015625)"/>
       </defs>
       <use xlink:href="#DejaVuSans-46"/>
       <use xlink:href="#DejaVuSans-65" x="52.019531"/>
       <use xlink:href="#DejaVuSans-62" x="113.542969"/>
       <use xlink:href="#DejaVuSans-20" x="177.019531"/>
       <use xlink:href="#DejaVuSans-32" x="208.806641"/>
       <use xlink:href="#DejaVuSans-36" x="272.429688"/>
      </g>
     </g>
    </g>
    <g id="xtick_8">
     <g id="line2d_8">
      <g>
       <use xlink:href="#m5285663a8c" x="607.654766" y="327.04" style="stroke: #000000; stroke-width: 0.8"/>
      </g>
     </g>
     <g id="text_8">
      <!-- Mar 13 -->
      <g transform="translate(586.792579 343.158125)scale(0.12 -0.12)">
       <defs>
        <path id="DejaVuSans-4d" d="M 628 4666 
L 1569 4666 
L 2759 1491 
L 3956 4666 
L 4897 4666 
L 4897 0 
L 4281 0 
L 4281 4097 
L 3078 897 
L 2444 897 
L 1241 4097 
L 1241 0 
L 628 0 
L 628 4666 
z
" transform="scale(0.015625)"/>
        <path id="DejaVuSans-72" d="M 2631 2963 
Q 2534 3019 2420 3045 
Q 2306 3072 2169 3072 
Q 1681 3072 1420 2755 
Q 1159 2438 1159 1844 
L 1159 0 
L 581 0 
L 581 3500 
L 1159 3500 
L 1159 2956 
Q 1341 3275 1631 3429 
Q 1922 3584 2338 3584 
Q 2397 3584 2469 3576 
Q 2541 3569 2628 3553 
L 2631 2963 
z
" transform="scale(0.015625)"/>
       </defs>
       <use xlink:href="#DejaVuSans-4d"/>
       <use xlink:href="#DejaVuSans-61" x="86.279297"/>
       <use xlink:href="#DejaVuSans-72" x="147.558594"/>
       <use xlink:href="#DejaVuSans-20" x="188.671875"/>
       <use xlink:href="#DejaVuSans-31" x="220.458984"/>
       <use xlink:href="#DejaVuSans-33" x="284.082031"/>
      </g>
     </g>
    </g>
   </g>
   <g id="matplotlib.axis_2">
    <g id="ytick_1">
     <g id="line2d_9">
      <defs>
       <path id="mcb00aabcef" d="M 0 0 
L -3.5 0 
" style="stroke: #000000; stroke-width: 0.8"/>
      </defs>
      <g>
       <use xlink:href="#mcb00aabcef" x="50.46" y="327.04" style="stroke: #000000; stroke-width: 0.8"/>
      </g>
     </g>
     <g id="text_9">
      <!-- 0 -->
      <g transform="translate(35.825 331.599063)scale(0.12 -0.12)">
       <use xlink:href="#DejaVuSans-30"/>
      </g>
     </g>
    </g>
    <g id="ytick_2">
     <g id="line2d_10">
      <g>
       <use xlink:href="#mcb00aabcef" x="50.46" y="292.117194" style="stroke: #000000; stroke-width: 0.8"/>
      </g>
     </g>
     <g id="text_10">
      <!-- 1000 -->
      <g transform="translate(12.92 296.676257)scale(0.12 -0.12)">
       <use xlink:href="#DejaVuSans-31"/>
       <use xlink:href="#DejaVuSans-30" x="63.623047"/>
       <use xlink:href="#DejaVuSans-30" x="127.246094"/>
       <use xlink:href="#DejaVuSans-30" x="190.869141"/>
      </g>
     </g>
    </g>
    <g id="ytick_3">
     <g id="line2d_11">
      <g>
       <use xlink:href="#mcb00aabcef" x="50.46" y="257.194388" style="stroke: #000000; stroke-width: 0.8"/>
      </g>
     </g>
     <g id="text_11">
      <!-- 2000 -->
      <g transform="translate(12.92 261.753451)scale(0.12 -0.12)">
       <use xlink:href="#DejaVuSans-32"/>
       <use xlink:href="#DejaVuSans-30" x="63.623047"/>
       <use xlink:href="#DejaVuSans-30" x="127.246094"/>
       <use xlink:href="#DejaVuSans-30" x="190.869141"/>
      </g>
     </g>
    </g>
    <g id="ytick_4">
     <g id="line2d_12">
      <g>
       <use xlink:href="#mcb00aabcef" x="50.46" y="222.271583" style="stroke: #000000; stroke-width: 0.8"/>
      </g>
     </g>
     <g id="text_12">
      <!-- 3000 -->
      <g transform="translate(12.92 226.830645)scale(0.12 -0.12)">
       <use xlink:href="#DejaVuSans-33"/>
       <use xlink:href="#DejaVuSans-30" x="63.623047"/>
       <use xlink:href="#DejaVuSans-30" x="127.246094"/>
       <use xlink:href="#DejaVuSans-30" x="190.869141"/>
      </g>
     </g>
    </g>
    <g id="ytick_5">
     <g id="line2d_13">
      <g>
       <use xlink:href="#mcb00aabcef" x="50.46" y="187.348777" style="stroke: #000000; stroke-width: 0.8"/>
      </g>
     </g>
     <g id="text_13">
      <!-- 4000 -->
      <g transform="translate(12.92 191.907839)scale(0.12 -0.12)">
       <defs>
        <path id="DejaVuSans-34" d="M 2419 4116 
L 825 1625 
L 2419 1625 
L 2419 4116 
z
M 2253 4666 
L 3047 4666 
L 3047 1625 
L 3713 1625 
L 3713 1100 
L 3047 1100 
L 3047 0 
L 2419 0 
L 2419 1100 
L 313 1100 
L 313 1709 
L 2253 4666 
z
" transform="scale(0.015625)"/>
       </defs>
       <use xlink:href="#DejaVuSans-34"/>
       <use xlink:href="#DejaVuSans-30" x="63.623047"/>
       <use xlink:href="#DejaVuSans-30" x="127.246094"/>
       <use xlink:href="#DejaVuSans-30" x="190.869141"/>
      </g>
     </g>
    </g>
    <g id="ytick_6">
     <g id="line2d_14">
      <g>
       <use xlink:href="#mcb00aabcef" x="50.46" y="152.425971" style="stroke: #000000; stroke-width: 0.8"/>
      </g>
     </g>
     <g id="text_14">
      <!-- 5000 -->
      <g transform="translate(12.92 156.985034)scale(0.12 -0.12)">
       <use xlink:href="#DejaVuSans-35"/>
       <use xlink:href="#DejaVuSans-30" x="63.623047"/>
       <use xlink:href="#DejaVuSans-30" x="127.246094"/>
       <use xlink:href="#DejaVuSans-30" x="190.869141"/>
      </g>
     </g>
    </g>
    <g id="ytick_7">
     <g id="line2d_15">
      <g>
       <use xlink:href="#mcb00aabcef" x="50.46" y="117.503165" style="stroke: #000000; stroke-width: 0.8"/>
      </g>
     </g>
     <g id="text_15">
      <!-- 6000 -->
      <g transform="translate(12.92 122.062228)scale(0.12 -0.12)">
       <use xlink:href="#DejaVuSans-36"/>
       <use xlink:href="#DejaVuSans-30" x="63.623047"/>
       <use xlink:href="#DejaVuSans-30" x="127.246094"/>
       <use xlink:href="#DejaVuSans-30" x="190.869141"/>
      </g>
     </g>
    </g>
    <g id="ytick_8">
     <g id="line2d_16">
      <g>
       <use xlink:href="#mcb00aabcef" x="50.46" y="82.580359" style="stroke: #000000; stroke-width: 0.8"/>
      </g>
     </g>
     <g id="text_16">
      <!-- 7000 -->
      <g transform="translate(12.92 87.139422)scale(0.12 -0.12)">
       <defs>
        <path id="DejaVuSans-37" d="M 525 4666 
L 3525 4666 
L 3525 4397 
L 1831 0 
L 1172 0 
L 2766 4134 
L 525 4134 
L 525 4666 
z
" transform="scale(0.015625)"/>
       </defs>
       <use xlink:href="#DejaVuSans-37"/>
       <use xlink:href="#DejaVuSans-30" x="63.623047"/>
       <use xlink:href="#DejaVuSans-30" x="127.246094"/>
       <use xlink:href="#DejaVuSans-30" x="190.869141"/>
      </g>
     </g>
    </g>
    <g id="ytick_9">
     <g id="line2d_17">
      <g>
       <use xlink:href="#mcb00aabcef" x="50.46" y="47.657554" style="stroke: #000000; stroke-width: 0.8"/>
      </g>
     </g>
     <g id="text_17">
      <!-- 8000 -->
      <g transform="translate(12.92 52.216616)scale(0.12 -0.12)">
       <defs>
        <path id="DejaVuSans-38" d="M 2034 2216 
Q 1584 2216 1326 1975 
Q 1069 1734 1069 1313 
Q 1069 891 1326 650 
Q 1584 409 2034 409 
Q 2484 409 2743 651 
Q 3003 894 3003 1313 
Q 3003 1734 2745 1975 
Q 2488 2216 2034 2216 
z
M 1403 2484 
Q 997 2584 770 2862 
Q 544 3141 544 3541 
Q 544 4100 942 4425 
Q 1341 4750 2034 4750 
Q 2731 4750 3128 4425 
Q 3525 4100 3525 3541 
Q 3525 3141 3298 2862 
Q 3072 2584 2669 2484 
Q 3125 2378 3379 2068 
Q 3634 1759 3634 1313 
Q 3634 634 3220 271 
Q 2806 -91 2034 -91 
Q 1263 -91 848 271 
Q 434 634 434 1313 
Q 434 1759 690 2068 
Q 947 2378 1403 2484 
z
M 1172 3481 
Q 1172 3119 1398 2916 
Q 1625 2713 2034 2713 
Q 2441 2713 2670 2916 
Q 2900 3119 2900 3481 
Q 2900 3844 2670 4047 
Q 2441 4250 2034 4250 
Q 1625 4250 1398 4047 
Q 1172 3844 1172 3481 
z
" transform="scale(0.015625)"/>
       </defs>
       <use xlink:href="#DejaVuSans-38"/>
       <use xlink:href="#DejaVuSans-30" x="63.623047"/>
       <use xlink:href="#DejaVuSans-30" x="127.246094"/>
       <use xlink:href="#DejaVuSans-30" x="190.869141"/>
      </g>
     </g>
    </g>
   </g>
   <g id="line2d_18">
    <path d="M 80.304545 325.258937 
L 86.099603 325.573242 
L 91.89466 325.782779 
L 97.689718 325.258937 
L 103.484775 324.665249 
L 109.279832 324.350944 
L 115.07489 325.189091 
L 120.869947 324.979554 
L 126.665004 324.770018 
L 132.460062 324.700172 
L 138.255119 323.862025 
L 144.050177 323.373105 
L 149.845234 323.442951 
L 155.640291 323.023877 
L 161.435349 322.011116 
L 167.230406 321.31266 
L 173.025463 319.845902 
L 178.820521 318.623604 
L 184.615578 318.937909 
L 190.410635 319.880825 
L 196.205693 319.252214 
L 202.00075 319.706211 
L 207.795808 318.518835 
L 213.590865 308.530913 
L 219.385922 293.129956 
L 225.18098 293.618875 
L 230.976037 292.885496 
L 236.771094 291.034587 
L 242.566152 284.713559 
L 248.361209 270.919051 
L 254.156267 261.350202 
L 259.951324 268.125227 
L 265.746381 259.010374 
L 271.541439 263.585262 
L 277.336496 287.123233 
L 283.131553 264.702792 
L 288.926611 253.457648 
L 294.721668 243.15542 
L 300.516726 263.655107 
L 306.311783 239.767908 
L 312.10684 258.172227 
L 317.901898 265.645707 
L 323.696955 271.40797 
L 329.492012 259.359602 
L 335.28707 263.899567 
L 341.082127 253.35288 
L 346.877184 292.361654 
L 352.672242 284.015103 
L 358.467299 283.805566 
L 364.262357 291.383815 
L 370.057414 309.194446 
L 375.852471 300.952664 
L 381.647529 300.324054 
L 387.442586 309.334137 
L 393.237643 308.181685 
L 399.032701 310.24213 
L 404.827758 309.124601 
L 410.622816 314.118562 
L 416.417873 319.391906 
L 422.21293 319.810979 
L 428.007988 315.620243 
L 433.803045 315.655165 
L 439.598102 307.273692 
L 445.39316 309.508751 
L 451.188217 314.956709 
L 456.983274 314.782095 
L 462.778332 320.369744 
L 468.573389 321.906348 
L 474.368447 322.220653 
L 480.163504 317.436228 
L 485.958561 255.867322 
L 491.753619 269.626907 
L 497.548676 287.297847 
L 503.343733 289.148756 
L 509.138791 256.565778 
L 514.933848 260.966051 
L 520.728906 272.874728 
L 526.523963 284.084949 
L 532.31902 286.21524 
L 538.114078 288.939219 
L 543.909135 261.350202 
L 549.704192 259.778676 
L 555.49925 267.880767 
L 561.294307 281.570507 
L 567.089365 273.852567 
L 572.884422 278.113149 
L 578.679479 245.600017 
L 584.474537 253.702108 
L 590.269594 249.441526 
L 596.064651 267.636307 
L 601.859709 268.998297 
L 607.654766 259.464371 
L 613.449823 280.24344 
L 619.244881 267.531539 
L 625.039938 158.712076 
L 630.834996 235.716863 
L 636.630053 241.968045 
L 642.42511 241.793431 
L 648.220168 249.546294 
L 654.015225 253.632262 
L 659.810282 220.141291 
L 665.60534 210.53752 
L 671.400397 222.166814 
L 677.195455 230.932438 
" clip-path="url(#p714b40bcfa)" style="fill: none; stroke: #1f77b4; stroke-width: 1.5; stroke-linecap: square"/>
    <defs>
     <path id="mb236a5289d" d="M 0 3 
C 0.795609 3 1.55874 2.683901 2.12132 2.12132 
C 2.683901 1.55874 3 0.795609 3 0 
C 3 -0.795609 2.683901 -1.55874 2.12132 -2.12132 
C 1.55874 -2.683901 0.795609 -3 0 -3 
C -0.795609 -3 -1.55874 -2.683901 -2.12132 -2.12132 
C -2.683901 -1.55874 -3 -0.795609 -3 0 
C -3 0.795609 -2.683901 1.55874 -2.12132 2.12132 
C -1.55874 2.683901 -0.795609 3 0 3 
z
" style="stroke: #1f77b4"/>
    </defs>
    <g clip-path="url(#p714b40bcfa)">
     <use xlink:href="#mb236a5289d" x="80.304545" y="325.258937" style="fill: #1f77b4; stroke: #1f77b4"/>
     <use xlink:href="#mb236a5289d" x="86.099603" y="325.573242" style="fill: #1f77b4; stroke: #1f77b4"/>
     <use xlink:href="#mb236a5289d" x="91.89466" y="325.782779" style="fill: #1f77b4; stroke: #1f77b4"/>
     <use xlink:href="#mb236a5289d" x="97.689718" y="325.258937" style="fill: #1f77b4; stroke: #1f77b4"/>
     <use xlink:href="#mb236a5289d" x="103.484775" y="324.665249" style="fill: #1f77b4; stroke: #1f77b4"/>
     <use xlink:href="#mb236a5289d" x="109.279832" y="324.350944" style="fill: #1f77b4; stroke: #1f77b4"/>
     <use xlink:href="#mb236a5289d" x="115.07489" y="325.189091" style="fill: #1f77b4; stroke: #1f77b4"/>
     <use xlink:href="#mb236a5289d" x="120.869947" y="324.979554" style="fill: #1f77b4; stroke: #1f77b4"/>
     <use xlink:href="#mb236a5289d" x="126.665004" y="324.770018" style="fill: #1f77b4; stroke: #1f77b4"/>
     <use xlink:href="#mb236a5289d" x="132.460062" y="324.700172" style="fill: #1f77b4; stroke: #1f77b4"/>
     <use xlink:href="#mb236a5289d" x="138.255119" y="323.862025" style="fill: #1f77b4; stroke: #1f77b4"/>
     <use xlink:href="#mb236a5289d" x="144.050177" y="323.373105" style="fill: #1f77b4; stroke: #1f77b4"/>
     <use xlink:href="#mb236a5289d" x="149.845234" y="323.442951" style="fill: #1f77b4; stroke: #1f77b4"/>
     <use xlink:href="#mb236a5289d" x="155.640291" y="323.023877" style="fill: #1f77b4; stroke: #1f77b4"/>
     <use xlink:href="#mb236a5289d" x="161.435349" y="322.011116" style="fill: #1f77b4; stroke: #1f77b4"/>
     <use xlink:href="#mb236a5289d" x="167.230406" y="321.31266" style="fill: #1f77b4; stroke: #1f77b4"/>
     <use xlink:href="#mb236a5289d" x="173.025463" y="319.845902" style="fill: #1f77b4; stroke: #1f77b4"/>
     <use xlink:href="#mb236a5289d" x="178.820521" y="318.623604" style="fill: #1f77b4; stroke: #1f77b4"/>
     <use xlink:href="#mb236a5289d" x="184.615578" y="318.937909" style="fill: #1f77b4; stroke: #1f77b4"/>
     <use xlink:href="#mb236a5289d" x="190.410635" y="319.880825" style="fill: #1f77b4; stroke: #1f77b4"/>
     <use xlink:href="#mb236a5289d" x="196.205693" y="319.252214" style="fill: #1f77b4; stroke: #1f77b4"/>
     <use xlink:href="#mb236a5289d" x="202.00075" y="319.706211" style="fill: #1f77b4; stroke: #1f77b4"/>
     <use xlink:href="#mb236a5289d" x="207.795808" y="318.518835" style="fill: #1f77b4; stroke: #1f77b4"/>
     <use xlink:href="#mb236a5289d" x="213.590865" y="308.530913" style="fill: #1f77b4; stroke: #1f77b4"/>
     <use xlink:href="#mb236a5289d" x="219.385922" y="293.129956" style="fill: #1f77b4; stroke: #1f77b4"/>
     <use xlink:href="#mb236a5289d" x="225.18098" y="293.618875" style="fill: #1f77b4; stroke: #1f77b4"/>
     <use xlink:href="#mb236a5289d" x="230.976037" y="292.885496" style="fill: #1f77b4; stroke: #1f77b4"/>
     <use xlink:href="#mb236a5289d" x="236.771094" y="291.034587" style="fill: #1f77b4; stroke: #1f77b4"/>
     <use xlink:href="#mb236a5289d" x="242.566152" y="284.713559" style="fill: #1f77b4; stroke: #1f77b4"/>
     <use xlink:href="#mb236a5289d" x="248.361209" y="270.919051" style="fill: #1f77b4; stroke: #1f77b4"/>
     <use xlink:href="#mb236a5289d" x="254.156267" y="261.350202" style="fill: #1f77b4; stroke: #1f77b4"/>
     <use xlink:href="#mb236a5289d" x="259.951324" y="268.125227" style="fill: #1f77b4; stroke: #1f77b4"/>
     <use xlink:href="#mb236a5289d" x="265.746381" y="259.010374" style="fill: #1f77b4; stroke: #1f77b4"/>
     <use xlink:href="#mb236a5289d" x="271.541439" y="263.585262" style="fill: #1f77b4; stroke: #1f77b4"/>
     <use xlink:href="#mb236a5289d" x="277.336496" y="287.123233" style="fill: #1f77b4; stroke: #1f77b4"/>
     <use xlink:href="#mb236a5289d" x="283.131553" y="264.702792" style="fill: #1f77b4; stroke: #1f77b4"/>
     <use xlink:href="#mb236a5289d" x="288.926611" y="253.457648" style="fill: #1f77b4; stroke: #1f77b4"/>
     <use xlink:href="#mb236a5289d" x="294.721668" y="243.15542" style="fill: #1f77b4; stroke: #1f77b4"/>
     <use xlink:href="#mb236a5289d" x="300.516726" y="263.655107" style="fill: #1f77b4; stroke: #1f77b4"/>
     <use xlink:href="#mb236a5289d" x="306.311783" y="239.767908" style="fill: #1f77b4; stroke: #1f77b4"/>
     <use xlink:href="#mb236a5289d" x="312.10684" y="258.172227" style="fill: #1f77b4; stroke: #1f77b4"/>
     <use xlink:href="#mb236a5289d" x="317.901898" y="265.645707" style="fill: #1f77b4; stroke: #1f77b4"/>
     <use xlink:href="#mb236a5289d" x="323.696955" y="271.40797" style="fill: #1f77b4; stroke: #1f77b4"/>
     <use xlink:href="#mb236a5289d" x="329.492012" y="259.359602" style="fill: #1f77b4; stroke: #1f77b4"/>
     <use xlink:href="#mb236a5289d" x="335.28707" y="263.899567" style="fill: #1f77b4; stroke: #1f77b4"/>
     <use xlink:href="#mb236a5289d" x="341.082127" y="253.35288" style="fill: #1f77b4; stroke: #1f77b4"/>
     <use xlink:href="#mb236a5289d" x="346.877184" y="292.361654" style="fill: #1f77b4; stroke: #1f77b4"/>
     <use xlink:href="#mb236a5289d" x="352.672242" y="284.015103" style="fill: #1f77b4; stroke: #1f77b4"/>
     <use xlink:href="#mb236a5289d" x="358.467299" y="283.805566" style="fill: #1f77b4; stroke: #1f77b4"/>
     <use xlink:href="#mb236a5289d" x="364.262357" y="291.383815" style="fill: #1f77b4; stroke: #1f77b4"/>
     <use xlink:href="#mb236a5289d" x="370.057414" y="309.194446" style="fill: #1f77b4; stroke: #1f77b4"/>
     <use xlink:href="#mb236a5289d" x="375.852471" y="300.952664" style="fill: #1f77b4; stroke: #1f77b4"/>
     <use xlink:href="#mb236a5289d" x="381.647529" y="300.324054" style="fill: #1f77b4; stroke: #1f77b4"/>
     <use xlink:href="#mb236a5289d" x="387.442586" y="309.334137" style="fill: #1f77b4; stroke: #1f77b4"/>
     <use xlink:href="#mb236a5289d" x="393.237643" y="308.181685" style="fill: #1f77b4; stroke: #1f77b4"/>
     <use xlink:href="#mb236a5289d" x="399.032701" y="310.24213" style="fill: #1f77b4; stroke: #1f77b4"/>
     <use xlink:href="#mb236a5289d" x="404.827758" y="309.124601" style="fill: #1f77b4; stroke: #1f77b4"/>
     <use xlink:href="#mb236a5289d" x="410.622816" y="314.118562" style="fill: #1f77b4; stroke: #1f77b4"/>
     <use xlink:href="#mb236a5289d" x="416.417873" y="319.391906" style="fill: #1f77b4; stroke: #1f77b4"/>
     <use xlink:href="#mb236a5289d" x="422.21293" y="319.810979" style="fill: #1f77b4; stroke: #1f77b4"/>
     <use xlink:href="#mb236a5289d" x="428.007988" y="315.620243" style="fill: #1f77b4; stroke: #1f77b4"/>
     <use xlink:href="#mb236a5289d" x="433.803045" y="315.655165" style="fill: #1f77b4; stroke: #1f77b4"/>
     <use xlink:href="#mb236a5289d" x="439.598102" y="307.273692" style="fill: #1f77b4; stroke: #1f77b4"/>
     <use xlink:href="#mb236a5289d" x="445.39316" y="309.508751" style="fill: #1f77b4; stroke: #1f77b4"/>
     <use xlink:href="#mb236a5289d" x="451.188217" y="314.956709" style="fill: #1f77b4; stroke: #1f77b4"/>
     <use xlink:href="#mb236a5289d" x="456.983274" y="314.782095" style="fill: #1f77b4; stroke: #1f77b4"/>
     <use xlink:href="#mb236a5289d" x="462.778332" y="320.369744" style="fill: #1f77b4; stroke: #1f77b4"/>
     <use xlink:href="#mb236a5289d" x="468.573389" y="321.906348" style="fill: #1f77b4; stroke: #1f77b4"/>
     <use xlink:href="#mb236a5289d" x="474.368447" y="322.220653" style="fill: #1f77b4; stroke: #1f77b4"/>
     <use xlink:href="#mb236a5289d" x="480.163504" y="317.436228" style="fill: #1f77b4; stroke: #1f77b4"/>
     <use xlink:href="#mb236a5289d" x="485.958561" y="255.867322" style="fill: #1f77b4; stroke: #1f77b4"/>
     <use xlink:href="#mb236a5289d" x="491.753619" y="269.626907" style="fill: #1f77b4; stroke: #1f77b4"/>
     <use xlink:href="#mb236a5289d" x="497.548676" y="287.297847" style="fill: #1f77b4; stroke: #1f77b4"/>
     <use xlink:href="#mb236a5289d" x="503.343733" y="289.148756" style="fill: #1f77b4; stroke: #1f77b4"/>
     <use xlink:href="#mb236a5289d" x="509.138791" y="256.565778" style="fill: #1f77b4; stroke: #1f77b4"/>
     <use xlink:href="#mb236a5289d" x="514.933848" y="260.966051" style="fill: #1f77b4; stroke: #1f77b4"/>
     <use xlink:href="#mb236a5289d" x="520.728906" y="272.874728" style="fill: #1f77b4; stroke: #1f77b4"/>
     <use xlink:href="#mb236a5289d" x="526.523963" y="284.084949" style="fill: #1f77b4; stroke: #1f77b4"/>
     <use xlink:href="#mb236a5289d" x="532.31902" y="286.21524" style="fill: #1f77b4; stroke: #1f77b4"/>
     <use xlink:href="#mb236a5289d" x="538.114078" y="288.939219" style="fill: #1f77b4; stroke: #1f77b4"/>
     <use xlink:href="#mb236a5289d" x="543.909135" y="261.350202" style="fill: #1f77b4; stroke: #1f77b4"/>
     <use xlink:href="#mb236a5289d" x="549.704192" y="259.778676" style="fill: #1f77b4; stroke: #1f77b4"/>
     <use xlink:href="#mb236a5289d" x="555.49925" y="267.880767" style="fill: #1f77b4; stroke: #1f77b4"/>
     <use xlink:href="#mb236a5289d" x="561.294307" y="281.570507" style="fill: #1f77b4; stroke: #1f77b4"/>
     <use xlink:href="#mb236a5289d" x="567.089365" y="273.852567" style="fill: #1f77b4; stroke: #1f77b4"/>
     <use xlink:href="#mb236a5289d" x="572.884422" y="278.113149" style="fill: #1f77b4; stroke: #1f77b4"/>
     <use xlink:href="#mb236a5289d" x="578.679479" y="245.600017" style="fill: #1f77b4; stroke: #1f77b4"/>
     <use xlink:href="#mb236a5289d" x="584.474537" y="253.702108" style="fill: #1f77b4; stroke: #1f77b4"/>
     <use xlink:href="#mb236a5289d" x="590.269594" y="249.441526" style="fill: #1f77b4; stroke: #1f77b4"/>
     <use xlink:href="#mb236a5289d" x="596.064651" y="267.636307" style="fill: #1f77b4; stroke: #1f77b4"/>
     <use xlink:href="#mb236a5289d" x="601.859709" y="268.998297" style="fill: #1f77b4; stroke: #1f77b4"/>
     <use xlink:href="#mb236a5289d" x="607.654766" y="259.464371" style="fill: #1f77b4; stroke: #1f77b4"/>
     <use xlink:href="#mb236a5289d" x="613.449823" y="280.24344" style="fill: #1f77b4; stroke: #1f77b4"/>
     <use xlink:href="#mb236a5289d" x="619.244881" y="267.531539" style="fill: #1f77b4; stroke: #1f77b4"/>
     <use xlink:href="#mb236a5289d" x="625.039938" y="158.712076" style="fill: #1f77b4; stroke: #1f77b4"/>
     <use xlink:href="#mb236a5289d" x="630.834996" y="235.716863" style="fill: #1f77b4; stroke: #1f77b4"/>
     <use xlink:href="#mb236a5289d" x="636.630053" y="241.968045" style="fill: #1f77b4; stroke: #1f77b4"/>
     <use xlink:href="#mb236a5289d" x="642.42511" y="241.793431" style="fill: #1f77b4; stroke: #1f77b4"/>
     <use xlink:href="#mb236a5289d" x="648.220168" y="249.546294" style="fill: #1f77b4; stroke: #1f77b4"/>
     <use xlink:href="#mb236a5289d" x="654.015225" y="253.632262" style="fill: #1f77b4; stroke: #1f77b4"/>
     <use xlink:href="#mb236a5289d" x="659.810282" y="220.141291" style="fill: #1f77b4; stroke: #1f77b4"/>
     <use xlink:href="#mb236a5289d" x="665.60534" y="210.53752" style="fill: #1f77b4; stroke: #1f77b4"/>
     <use xlink:href="#mb236a5289d" x="671.400397" y="222.166814" style="fill: #1f77b4; stroke: #1f77b4"/>
     <use xlink:href="#mb236a5289d" x="677.195455" y="230.932438" style="fill: #1f77b4; stroke: #1f77b4"/>
    </g>
   </g>
   <g id="line2d_19">
    <path d="M 80.304545 324.80494 
L 86.099603 325.084323 
L 91.89466 325.573242 
L 97.689718 324.141407 
L 103.484775 325.154168 
L 109.279832 324.595404 
L 115.07489 324.455712 
L 120.869947 324.455712 
L 126.665004 324.42079 
L 132.460062 322.849263 
L 138.255119 318.518835 
L 144.050177 320.404667 
L 149.845234 315.271014 
L 155.640291 315.655165 
L 161.435349 315.550397 
L 167.230406 308.705527 
L 173.025463 306.540313 
L 178.820521 301.89558 
L 184.615578 305.352938 
L 190.410635 302.663882 
L 196.205693 305.527552 
L 202.00075 306.086317 
L 207.795808 305.00371 
L 213.590865 285.34217 
L 219.385922 261.769276 
L 225.18098 261.350202 
L 230.976037 267.391848 
L 236.771094 264.109104 
L 242.566152 262.293118 
L 248.361209 217.068085 
L 254.156267 190.456907 
L 259.951324 195.066717 
L 265.746381 177.640237 
L 271.541439 215.461636 
L 277.336496 262.886806 
L 283.131553 231.421358 
L 288.926611 221.398512 
L 294.721668 222.23666 
L 300.516726 242.247428 
L 306.311783 221.188976 
L 312.10684 248.952606 
L 317.901898 261.454971 
L 323.696955 266.868006 
L 329.492012 254.295796 
L 335.28707 263.375725 
L 341.082127 244.76187 
L 346.877184 296.028548 
L 352.672242 292.466422 
L 358.467299 285.726321 
L 364.262357 295.819012 
L 370.057414 310.73105 
L 375.852471 302.908341 
L 381.647529 301.197124 
L 387.442586 307.413383 
L 393.237643 311.185046 
L 399.032701 309.892902 
L 404.827758 311.534274 
L 410.622816 314.013793 
L 416.417873 320.893586 
L 422.21293 320.090362 
L 428.007988 317.540997 
L 433.803045 317.471151 
L 439.598102 310.207208 
L 445.39316 310.835818 
L 451.188217 315.480551 
L 456.983274 315.305937 
L 462.778332 319.985593 
L 468.573389 321.801579 
L 474.368447 322.255576 
L 480.163504 317.715611 
L 485.958561 248.009691 
L 491.753619 261.664508 
L 497.548676 286.494622 
L 503.343733 287.053387 
L 509.138791 247.62554 
L 514.933848 249.301834 
L 520.728906 261.629585 
L 526.523963 269.801521 
L 532.31902 271.198434 
L 538.114078 278.671914 
L 543.909135 232.538888 
L 549.704192 225.624172 
L 555.49925 230.19906 
L 561.294307 249.685985 
L 567.089365 235.507326 
L 572.884422 246.333396 
L 578.679479 179.945142 
L 584.474537 195.276254 
L 590.269594 188.047233 
L 596.064651 216.614088 
L 601.859709 217.033162 
L 607.654766 209.41999 
L 613.449823 247.695385 
L 619.244881 227.370312 
L 625.039938 27.856323 
L 630.834996 171.912897 
L 636.630053 185.14864 
L 642.42511 181.761128 
L 648.220168 198.105001 
L 654.015225 205.543559 
L 659.810282 137.828238 
L 665.60534 131.12306 
L 671.400397 157.419932 
L 677.195455 180.119756 
" clip-path="url(#p714b40bcfa)" style="fill: none; stroke: #ff7f0e; stroke-width: 1.5; stroke-linecap: square"/>
    <defs>
     <path id="m66803a8cf3" d="M 0 3 
C 0.795609 3 1.55874 2.683901 2.12132 2.12132 
C 2.683901 1.55874 3 0.795609 3 0 
C 3 -0.795609 2.683901 -1.55874 2.12132 -2.12132 
C 1.55874 -2.683901 0.795609 -3 0 -3 
C -0.795609 -3 -1.55874 -2.683901 -2.12132 -2.12132 
C -2.683901 -1.55874 -3 -0.795609 -3 0 
C -3 0.795609 -2.683901 1.55874 -2.12132 2.12132 
C -1.55874 2.683901 -0.795609 3 0 3 
z
" style="stroke: #ff7f0e"/>
    </defs>
    <g clip-path="url(#p714b40bcfa)">
     <use xlink:href="#m66803a8cf3" x="80.304545" y="324.80494" style="fill: #ff7f0e; stroke: #ff7f0e"/>
     <use xlink:href="#m66803a8cf3" x="86.099603" y="325.084323" style="fill: #ff7f0e; stroke: #ff7f0e"/>
     <use xlink:href="#m66803a8cf3" x="91.89466" y="325.573242" style="fill: #ff7f0e; stroke: #ff7f0e"/>
     <use xlink:href="#m66803a8cf3" x="97.689718" y="324.141407" style="fill: #ff7f0e; stroke: #ff7f0e"/>
     <use xlink:href="#m66803a8cf3" x="103.484775" y="325.154168" style="fill: #ff7f0e; stroke: #ff7f0e"/>
     <use xlink:href="#m66803a8cf3" x="109.279832" y="324.595404" style="fill: #ff7f0e; stroke: #ff7f0e"/>
     <use xlink:href="#m66803a8cf3" x="115.07489" y="324.455712" style="fill: #ff7f0e; stroke: #ff7f0e"/>
     <use xlink:href="#m66803a8cf3" x="120.869947" y="324.455712" style="fill: #ff7f0e; stroke: #ff7f0e"/>
     <use xlink:href="#m66803a8cf3" x="126.665004" y="324.42079" style="fill: #ff7f0e; stroke: #ff7f0e"/>
     <use xlink:href="#m66803a8cf3" x="132.460062" y="322.849263" style="fill: #ff7f0e; stroke: #ff7f0e"/>
     <use xlink:href="#m66803a8cf3" x="138.255119" y="318.518835" style="fill: #ff7f0e; stroke: #ff7f0e"/>
     <use xlink:href="#m66803a8cf3" x="144.050177" y="320.404667" style="fill: #ff7f0e; stroke: #ff7f0e"/>
     <use xlink:href="#m66803a8cf3" x="149.845234" y="315.271014" style="fill: #ff7f0e; stroke: #ff7f0e"/>
     <use xlink:href="#m66803a8cf3" x="155.640291" y="315.655165" style="fill: #ff7f0e; stroke: #ff7f0e"/>
     <use xlink:href="#m66803a8cf3" x="161.435349" y="315.550397" style="fill: #ff7f0e; stroke: #ff7f0e"/>
     <use xlink:href="#m66803a8cf3" x="167.230406" y="308.705527" style="fill: #ff7f0e; stroke: #ff7f0e"/>
     <use xlink:href="#m66803a8cf3" x="173.025463" y="306.540313" style="fill: #ff7f0e; stroke: #ff7f0e"/>
     <use xlink:href="#m66803a8cf3" x="178.820521" y="301.89558" style="fill: #ff7f0e; stroke: #ff7f0e"/>
     <use xlink:href="#m66803a8cf3" x="184.615578" y="305.352938" style="fill: #ff7f0e; stroke: #ff7f0e"/>
     <use xlink:href="#m66803a8cf3" x="190.410635" y="302.663882" style="fill: #ff7f0e; stroke: #ff7f0e"/>
     <use xlink:href="#m66803a8cf3" x="196.205693" y="305.527552" style="fill: #ff7f0e; stroke: #ff7f0e"/>
     <use xlink:href="#m66803a8cf3" x="202.00075" y="306.086317" style="fill: #ff7f0e; stroke: #ff7f0e"/>
     <use xlink:href="#m66803a8cf3" x="207.795808" y="305.00371" style="fill: #ff7f0e; stroke: #ff7f0e"/>
     <use xlink:href="#m66803a8cf3" x="213.590865" y="285.34217" style="fill: #ff7f0e; stroke: #ff7f0e"/>
     <use xlink:href="#m66803a8cf3" x="219.385922" y="261.769276" style="fill: #ff7f0e; stroke: #ff7f0e"/>
     <use xlink:href="#m66803a8cf3" x="225.18098" y="261.350202" style="fill: #ff7f0e; stroke: #ff7f0e"/>
     <use xlink:href="#m66803a8cf3" x="230.976037" y="267.391848" style="fill: #ff7f0e; stroke: #ff7f0e"/>
     <use xlink:href="#m66803a8cf3" x="236.771094" y="264.109104" style="fill: #ff7f0e; stroke: #ff7f0e"/>
     <use xlink:href="#m66803a8cf3" x="242.566152" y="262.293118" style="fill: #ff7f0e; stroke: #ff7f0e"/>
     <use xlink:href="#m66803a8cf3" x="248.361209" y="217.068085" style="fill: #ff7f0e; stroke: #ff7f0e"/>
     <use xlink:href="#m66803a8cf3" x="254.156267" y="190.456907" style="fill: #ff7f0e; stroke: #ff7f0e"/>
     <use xlink:href="#m66803a8cf3" x="259.951324" y="195.066717" style="fill: #ff7f0e; stroke: #ff7f0e"/>
     <use xlink:href="#m66803a8cf3" x="265.746381" y="177.640237" style="fill: #ff7f0e; stroke: #ff7f0e"/>
     <use xlink:href="#m66803a8cf3" x="271.541439" y="215.461636" style="fill: #ff7f0e; stroke: #ff7f0e"/>
     <use xlink:href="#m66803a8cf3" x="277.336496" y="262.886806" style="fill: #ff7f0e; stroke: #ff7f0e"/>
     <use xlink:href="#m66803a8cf3" x="283.131553" y="231.421358" style="fill: #ff7f0e; stroke: #ff7f0e"/>
     <use xlink:href="#m66803a8cf3" x="288.926611" y="221.398512" style="fill: #ff7f0e; stroke: #ff7f0e"/>
     <use xlink:href="#m66803a8cf3" x="294.721668" y="222.23666" style="fill: #ff7f0e; stroke: #ff7f0e"/>
     <use xlink:href="#m66803a8cf3" x="300.516726" y="242.247428" style="fill: #ff7f0e; stroke: #ff7f0e"/>
     <use xlink:href="#m66803a8cf3" x="306.311783" y="221.188976" style="fill: #ff7f0e; stroke: #ff7f0e"/>
     <use xlink:href="#m66803a8cf3" x="312.10684" y="248.952606" style="fill: #ff7f0e; stroke: #ff7f0e"/>
     <use xlink:href="#m66803a8cf3" x="317.901898" y="261.454971" style="fill: #ff7f0e; stroke: #ff7f0e"/>
     <use xlink:href="#m66803a8cf3" x="323.696955" y="266.868006" style="fill: #ff7f0e; stroke: #ff7f0e"/>
     <use xlink:href="#m66803a8cf3" x="329.492012" y="254.295796" style="fill: #ff7f0e; stroke: #ff7f0e"/>
     <use xlink:href="#m66803a8cf3" x="335.28707" y="263.375725" style="fill: #ff7f0e; stroke: #ff7f0e"/>
     <use xlink:href="#m66803a8cf3" x="341.082127" y="244.76187" style="fill: #ff7f0e; stroke: #ff7f0e"/>
     <use xlink:href="#m66803a8cf3" x="346.877184" y="296.028548" style="fill: #ff7f0e; stroke: #ff7f0e"/>
     <use xlink:href="#m66803a8cf3" x="352.672242" y="292.466422" style="fill: #ff7f0e; stroke: #ff7f0e"/>
     <use xlink:href="#m66803a8cf3" x="358.467299" y="285.726321" style="fill: #ff7f0e; stroke: #ff7f0e"/>
     <use xlink:href="#m66803a8cf3" x="364.262357" y="295.819012" style="fill: #ff7f0e; stroke: #ff7f0e"/>
     <use xlink:href="#m66803a8cf3" x="370.057414" y="310.73105" style="fill: #ff7f0e; stroke: #ff7f0e"/>
     <use xlink:href="#m66803a8cf3" x="375.852471" y="302.908341" style="fill: #ff7f0e; stroke: #ff7f0e"/>
     <use xlink:href="#m66803a8cf3" x="381.647529" y="301.197124" style="fill: #ff7f0e; stroke: #ff7f0e"/>
     <use xlink:href="#m66803a8cf3" x="387.442586" y="307.413383" style="fill: #ff7f0e; stroke: #ff7f0e"/>
     <use xlink:href="#m66803a8cf3" x="393.237643" y="311.185046" style="fill: #ff7f0e; stroke: #ff7f0e"/>
     <use xlink:href="#m66803a8cf3" x="399.032701" y="309.892902" style="fill: #ff7f0e; stroke: #ff7f0e"/>
     <use xlink:href="#m66803a8cf3" x="404.827758" y="311.534274" style="fill: #ff7f0e; stroke: #ff7f0e"/>
     <use xlink:href="#m66803a8cf3" x="410.622816" y="314.013793" style="fill: #ff7f0e; stroke: #ff7f0e"/>
     <use xlink:href="#m66803a8cf3" x="416.417873" y="320.893586" style="fill: #ff7f0e; stroke: #ff7f0e"/>
     <use xlink:href="#m66803a8cf3" x="422.21293" y="320.090362" style="fill: #ff7f0e; stroke: #ff7f0e"/>
     <use xlink:href="#m66803a8cf3" x="428.007988" y="317.540997" style="fill: #ff7f0e; stroke: #ff7f0e"/>
     <use xlink:href="#m66803a8cf3" x="433.803045" y="317.471151" style="fill: #ff7f0e; stroke: #ff7f0e"/>
     <use xlink:href="#m66803a8cf3" x="439.598102" y="310.207208" style="fill: #ff7f0e; stroke: #ff7f0e"/>
     <use xlink:href="#m66803a8cf3" x="445.39316" y="310.835818" style="fill: #ff7f0e; stroke: #ff7f0e"/>
     <use xlink:href="#m66803a8cf3" x="451.188217" y="315.480551" style="fill: #ff7f0e; stroke: #ff7f0e"/>
     <use xlink:href="#m66803a8cf3" x="456.983274" y="315.305937" style="fill: #ff7f0e; stroke: #ff7f0e"/>
     <use xlink:href="#m66803a8cf3" x="462.778332" y="319.985593" style="fill: #ff7f0e; stroke: #ff7f0e"/>
     <use xlink:href="#m66803a8cf3" x="468.573389" y="321.801579" style="fill: #ff7f0e; stroke: #ff7f0e"/>
     <use xlink:href="#m66803a8cf3" x="474.368447" y="322.255576" style="fill: #ff7f0e; stroke: #ff7f0e"/>
     <use xlink:href="#m66803a8cf3" x="480.163504" y="317.715611" style="fill: #ff7f0e; stroke: #ff7f0e"/>
     <use xlink:href="#m66803a8cf3" x="485.958561" y="248.009691" style="fill: #ff7f0e; stroke: #ff7f0e"/>
     <use xlink:href="#m66803a8cf3" x="491.753619" y="261.664508" style="fill: #ff7f0e; stroke: #ff7f0e"/>
     <use xlink:href="#m66803a8cf3" x="497.548676" y="286.494622" style="fill: #ff7f0e; stroke: #ff7f0e"/>
     <use xlink:href="#m66803a8cf3" x="503.343733" y="287.053387" style="fill: #ff7f0e; stroke: #ff7f0e"/>
     <use xlink:href="#m66803a8cf3" x="509.138791" y="247.62554" style="fill: #ff7f0e; stroke: #ff7f0e"/>
     <use xlink:href="#m66803a8cf3" x="514.933848" y="249.301834" style="fill: #ff7f0e; stroke: #ff7f0e"/>
     <use xlink:href="#m66803a8cf3" x="520.728906" y="261.629585" style="fill: #ff7f0e; stroke: #ff7f0e"/>
     <use xlink:href="#m66803a8cf3" x="526.523963" y="269.801521" style="fill: #ff7f0e; stroke: #ff7f0e"/>
     <use xlink:href="#m66803a8cf3" x="532.31902" y="271.198434" style="fill: #ff7f0e; stroke: #ff7f0e"/>
     <use xlink:href="#m66803a8cf3" x="538.114078" y="278.671914" style="fill: #ff7f0e; stroke: #ff7f0e"/>
     <use xlink:href="#m66803a8cf3" x="543.909135" y="232.538888" style="fill: #ff7f0e; stroke: #ff7f0e"/>
     <use xlink:href="#m66803a8cf3" x="549.704192" y="225.624172" style="fill: #ff7f0e; stroke: #ff7f0e"/>
     <use xlink:href="#m66803a8cf3" x="555.49925" y="230.19906" style="fill: #ff7f0e; stroke: #ff7f0e"/>
     <use xlink:href="#m66803a8cf3" x="561.294307" y="249.685985" style="fill: #ff7f0e; stroke: #ff7f0e"/>
     <use xlink:href="#m66803a8cf3" x="567.089365" y="235.507326" style="fill: #ff7f0e; stroke: #ff7f0e"/>
     <use xlink:href="#m66803a8cf3" x="572.884422" y="246.333396" style="fill: #ff7f0e; stroke: #ff7f0e"/>
     <use xlink:href="#m66803a8cf3" x="578.679479" y="179.945142" style="fill: #ff7f0e; stroke: #ff7f0e"/>
     <use xlink:href="#m66803a8cf3" x="584.474537" y="195.276254" style="fill: #ff7f0e; stroke: #ff7f0e"/>
     <use xlink:href="#m66803a8cf3" x="590.269594" y="188.047233" style="fill: #ff7f0e; stroke: #ff7f0e"/>
     <use xlink:href="#m66803a8cf3" x="596.064651" y="216.614088" style="fill: #ff7f0e; stroke: #ff7f0e"/>
     <use xlink:href="#m66803a8cf3" x="601.859709" y="217.033162" style="fill: #ff7f0e; stroke: #ff7f0e"/>
     <use xlink:href="#m66803a8cf3" x="607.654766" y="209.41999" style="fill: #ff7f0e; stroke: #ff7f0e"/>
     <use xlink:href="#m66803a8cf3" x="613.449823" y="247.695385" style="fill: #ff7f0e; stroke: #ff7f0e"/>
     <use xlink:href="#m66803a8cf3" x="619.244881" y="227.370312" style="fill: #ff7f0e; stroke: #ff7f0e"/>
     <use xlink:href="#m66803a8cf3" x="625.039938" y="27.856323" style="fill: #ff7f0e; stroke: #ff7f0e"/>
     <use xlink:href="#m66803a8cf3" x="630.834996" y="171.912897" style="fill: #ff7f0e; stroke: #ff7f0e"/>
     <use xlink:href="#m66803a8cf3" x="636.630053" y="185.14864" style="fill: #ff7f0e; stroke: #ff7f0e"/>
     <use xlink:href="#m66803a8cf3" x="642.42511" y="181.761128" style="fill: #ff7f0e; stroke: #ff7f0e"/>
     <use xlink:href="#m66803a8cf3" x="648.220168" y="198.105001" style="fill: #ff7f0e; stroke: #ff7f0e"/>
     <use xlink:href="#m66803a8cf3" x="654.015225" y="205.543559" style="fill: #ff7f0e; stroke: #ff7f0e"/>
     <use xlink:href="#m66803a8cf3" x="659.810282" y="137.828238" style="fill: #ff7f0e; stroke: #ff7f0e"/>
     <use xlink:href="#m66803a8cf3" x="665.60534" y="131.12306" style="fill: #ff7f0e; stroke: #ff7f0e"/>
     <use xlink:href="#m66803a8cf3" x="671.400397" y="157.419932" style="fill: #ff7f0e; stroke: #ff7f0e"/>
     <use xlink:href="#m66803a8cf3" x="677.195455" y="180.119756" style="fill: #ff7f0e; stroke: #ff7f0e"/>
    </g>
   </g>
   <g id="patch_3">
    <path d="M 50.46 327.04 
L 50.46 12.96 
" style="fill: none; stroke: #000000; stroke-width: 0.8; stroke-linejoin: miter; stroke-linecap: square"/>
   </g>
   <g id="patch_4">
    <path d="M 50.46 327.04 
L 707.04 327.04 
" style="fill: none; stroke: #000000; stroke-width: 0.8; stroke-linejoin: miter; stroke-linecap: square"/>
   </g>
   <g id="legend_1">
    <g id="patch_5">
     <path d="M 58.86 57.7875 
L 197.86125 57.7875 
Q 200.26125 57.7875 200.26125 55.3875 
L 200.26125 21.36 
Q 200.26125 18.96 197.86125 18.96 
L 58.86 18.96 
Q 56.46 18.96 56.46 21.36 
L 56.46 55.3875 
Q 56.46 57.7875 58.86 57.7875 
z
" style="fill: #ffffff; opacity: 0.8; stroke: #cccccc; stroke-linejoin: miter"/>
    </g>
    <g id="line2d_20">
     <path d="M 61.26 28.678125 
L 73.26 28.678125 
L 85.26 28.678125 
" style="fill: none; stroke: #1f77b4; stroke-width: 1.5; stroke-linecap: square"/>
     <g>
      <use xlink:href="#mb236a5289d" x="73.26" y="28.678125" style="fill: #1f77b4; stroke: #1f77b4"/>
     </g>
    </g>
    <g id="text_18">
     <!-- Age range 0-9 -->
     <g transform="translate(94.86 32.878125)scale(0.12 -0.12)">
      <defs>
       <path id="DejaVuSans-41" d="M 2188 4044 
L 1331 1722 
L 3047 1722 
L 2188 4044 
z
M 1831 4666 
L 2547 4666 
L 4325 0 
L 3669 0 
L 3244 1197 
L 1141 1197 
L 716 0 
L 50 0 
L 1831 4666 
z
" transform="scale(0.015625)"/>
       <path id="DejaVuSans-67" d="M 2906 1791 
Q 2906 2416 2648 2759 
Q 2391 3103 1925 3103 
Q 1463 3103 1205 2759 
Q 947 2416 947 1791 
Q 947 1169 1205 825 
Q 1463 481 1925 481 
Q 2391 481 2648 825 
Q 2906 1169 2906 1791 
z
M 3481 434 
Q 3481 -459 3084 -895 
Q 2688 -1331 1869 -1331 
Q 1566 -1331 1297 -1286 
Q 1028 -1241 775 -1147 
L 775 -588 
Q 1028 -725 1275 -790 
Q 1522 -856 1778 -856 
Q 2344 -856 2625 -561 
Q 2906 -266 2906 331 
L 2906 616 
Q 2728 306 2450 153 
Q 2172 0 1784 0 
Q 1141 0 747 490 
Q 353 981 353 1791 
Q 353 2603 747 3093 
Q 1141 3584 1784 3584 
Q 2172 3584 2450 3431 
Q 2728 3278 2906 2969 
L 2906 3500 
L 3481 3500 
L 3481 434 
z
" transform="scale(0.015625)"/>
       <path id="DejaVuSans-2d" d="M 313 2009 
L 1997 2009 
L 1997 1497 
L 313 1497 
L 313 2009 
z
" transform="scale(0.015625)"/>
       <path id="DejaVuSans-39" d="M 703 97 
L 703 672 
Q 941 559 1184 500 
Q 1428 441 1663 441 
Q 2288 441 2617 861 
Q 2947 1281 2994 2138 
Q 2813 1869 2534 1725 
Q 2256 1581 1919 1581 
Q 1219 1581 811 2004 
Q 403 2428 403 3163 
Q 403 3881 828 4315 
Q 1253 4750 1959 4750 
Q 2769 4750 3195 4129 
Q 3622 3509 3622 2328 
Q 3622 1225 3098 567 
Q 2575 -91 1691 -91 
Q 1453 -91 1209 -44 
Q 966 3 703 97 
z
M 1959 2075 
Q 2384 2075 2632 2365 
Q 2881 2656 2881 3163 
Q 2881 3666 2632 3958 
Q 2384 4250 1959 4250 
Q 1534 4250 1286 3958 
Q 1038 3666 1038 3163 
Q 1038 2656 1286 2365 
Q 1534 2075 1959 2075 
z
" transform="scale(0.015625)"/>
      </defs>
      <use xlink:href="#DejaVuSans-41"/>
      <use xlink:href="#DejaVuSans-67" x="68.408203"/>
      <use xlink:href="#DejaVuSans-65" x="131.884766"/>
      <use xlink:href="#DejaVuSans-20" x="193.408203"/>
      <use xlink:href="#DejaVuSans-72" x="225.195312"/>
      <use xlink:href="#DejaVuSans-61" x="266.308594"/>
      <use xlink:href="#DejaVuSans-6e" x="327.587891"/>
      <use xlink:href="#DejaVuSans-67" x="390.966797"/>
      <use xlink:href="#DejaVuSans-65" x="454.443359"/>
      <use xlink:href="#DejaVuSans-20" x="515.966797"/>
      <use xlink:href="#DejaVuSans-30" x="547.753906"/>
      <use xlink:href="#DejaVuSans-2d" x="611.376953"/>
      <use xlink:href="#DejaVuSans-39" x="647.460938"/>
     </g>
    </g>
    <g id="line2d_21">
     <path d="M 61.26 46.291875 
L 73.26 46.291875 
L 85.26 46.291875 
" style="fill: none; stroke: #ff7f0e; stroke-width: 1.5; stroke-linecap: square"/>
     <g>
      <use xlink:href="#m66803a8cf3" x="73.26" y="46.291875" style="fill: #ff7f0e; stroke: #ff7f0e"/>
     </g>
    </g>
    <g id="text_19">
     <!-- Age range 10-19 -->
     <g transform="translate(94.86 50.491875)scale(0.12 -0.12)">
      <use xlink:href="#DejaVuSans-41"/>
      <use xlink:href="#DejaVuSans-67" x="68.408203"/>
      <use xlink:href="#DejaVuSans-65" x="131.884766"/>
      <use xlink:href="#DejaVuSans-20" x="193.408203"/>
      <use xlink:href="#DejaVuSans-72" x="225.195312"/>
      <use xlink:href="#DejaVuSans-61" x="266.308594"/>
      <use xlink:href="#DejaVuSans-6e" x="327.587891"/>
      <use xlink:href="#DejaVuSans-67" x="390.966797"/>
      <use xlink:href="#DejaVuSans-65" x="454.443359"/>
      <use xlink:href="#DejaVuSans-20" x="515.966797"/>
      <use xlink:href="#DejaVuSans-31" x="547.753906"/>
      <use xlink:href="#DejaVuSans-30" x="611.376953"/>
      <use xlink:href="#DejaVuSans-2d" x="675"/>
      <use xlink:href="#DejaVuSans-31" x="711.083984"/>
      <use xlink:href="#DejaVuSans-39" x="774.707031"/>
     </g>
    </g>
   </g>
  </g>
 </g>
 <defs>
  <clipPath id="p714b40bcfa">
   <rect x="50.46" y="12.96" width="656.58" height="314.08"/>
  </clipPath>
 </defs>
</svg>
