<?xml version="1.0" encoding="utf-8" standalone="no"?>
<!DOCTYPE svg PUBLIC "-//W3C//DTD SVG 1.1//EN"
  "http://www.w3.org/Graphics/SVG/1.1/DTD/svg11.dtd">
<svg xmlns:xlink="http://www.w3.org/1999/xlink" width="720pt" height="360pt" viewBox="0 0 720 360" xmlns="http://www.w3.org/2000/svg" version="1.1">
 <metadata>
  <rdf:RDF xmlns:dc="http://purl.org/dc/elements/1.1/" xmlns:cc="http://creativecommons.org/ns#" xmlns:rdf="http://www.w3.org/1999/02/22-rdf-syntax-ns#">
   <cc:Work>
    <dc:type rdf:resource="http://purl.org/dc/dcmitype/StillImage"/>
    <dc:date>2022-01-17T11:46:26.694839</dc:date>
    <dc:format>image/svg+xml</dc:format>
    <dc:creator>
     <cc:Agent>
      <dc:title>Matplotlib v3.5.1, https://matplotlib.org/</dc:title>
     </cc:Agent>
    </dc:creator>
   </cc:Work>
  </rdf:RDF>
 </metadata>
 <defs>
  <style type="text/css">*{stroke-linejoin: round; stroke-linecap: butt}</style>
 </defs>
 <g id="figure_1">
  <g id="patch_1">
   <path d="M 0 360 
L 720 360 
L 720 0 
L 0 0 
L 0 360 
z
" style="fill: none"/>
  </g>
  <g id="axes_1">
   <g id="patch_2">
    <path d="M 43.3 332.2 
L 709.2 332.2 
L 709.2 10.8 
L 43.3 10.8 
z
" style="fill: #ffffff"/>
   </g>
   <g id="matplotlib.axis_1">
    <g id="xtick_1">
     <g id="line2d_1">
      <defs>
       <path id="m668625d720" d="M 0 0 
L 0 3.5 
" style="stroke: #000000; stroke-width: 0.8"/>
      </defs>
      <g>
       <use xlink:href="#m668625d720" x="73.568182" y="332.2" style="stroke: #000000; stroke-width: 0.8"/>
      </g>
     </g>
     <g id="text_1">
      <!-- Dec 05 -->
      <g transform="translate(55.940838 346.798438)scale(0.1 -0.1)">
       <defs>
        <path id="DejaVuSans-44" d="M 1259 4147 
L 1259 519 
L 2022 519 
Q 2988 519 3436 956 
Q 3884 1394 3884 2338 
Q 3884 3275 3436 3711 
Q 2988 4147 2022 4147 
L 1259 4147 
z
M 628 4666 
L 1925 4666 
Q 3281 4666 3915 4102 
Q 4550 3538 4550 2338 
Q 4550 1131 3912 565 
Q 3275 0 1925 0 
L 628 0 
L 628 4666 
z
" transform="scale(0.015625)"/>
        <path id="DejaVuSans-65" d="M 3597 1894 
L 3597 1613 
L 953 1613 
Q 991 1019 1311 708 
Q 1631 397 2203 397 
Q 2534 397 2845 478 
Q 3156 559 3463 722 
L 3463 178 
Q 3153 47 2828 -22 
Q 2503 -91 2169 -91 
Q 1331 -91 842 396 
Q 353 884 353 1716 
Q 353 2575 817 3079 
Q 1281 3584 2069 3584 
Q 2775 3584 3186 3129 
Q 3597 2675 3597 1894 
z
M 3022 2063 
Q 3016 2534 2758 2815 
Q 2500 3097 2075 3097 
Q 1594 3097 1305 2825 
Q 1016 2553 972 2059 
L 3022 2063 
z
" transform="scale(0.015625)"/>
        <path id="DejaVuSans-63" d="M 3122 3366 
L 3122 2828 
Q 2878 2963 2633 3030 
Q 2388 3097 2138 3097 
Q 1578 3097 1268 2742 
Q 959 2388 959 1747 
Q 959 1106 1268 751 
Q 1578 397 2138 397 
Q 2388 397 2633 464 
Q 2878 531 3122 666 
L 3122 134 
Q 2881 22 2623 -34 
Q 2366 -91 2075 -91 
Q 1284 -91 818 406 
Q 353 903 353 1747 
Q 353 2603 823 3093 
Q 1294 3584 2113 3584 
Q 2378 3584 2631 3529 
Q 2884 3475 3122 3366 
z
" transform="scale(0.015625)"/>
        <path id="DejaVuSans-20" transform="scale(0.015625)"/>
        <path id="DejaVuSans-30" d="M 2034 4250 
Q 1547 4250 1301 3770 
Q 1056 3291 1056 2328 
Q 1056 1369 1301 889 
Q 1547 409 2034 409 
Q 2525 409 2770 889 
Q 3016 1369 3016 2328 
Q 3016 3291 2770 3770 
Q 2525 4250 2034 4250 
z
M 2034 4750 
Q 2819 4750 3233 4129 
Q 3647 3509 3647 2328 
Q 3647 1150 3233 529 
Q 2819 -91 2034 -91 
Q 1250 -91 836 529 
Q 422 1150 422 2328 
Q 422 3509 836 4129 
Q 1250 4750 2034 4750 
z
" transform="scale(0.015625)"/>
        <path id="DejaVuSans-35" d="M 691 4666 
L 3169 4666 
L 3169 4134 
L 1269 4134 
L 1269 2991 
Q 1406 3038 1543 3061 
Q 1681 3084 1819 3084 
Q 2600 3084 3056 2656 
Q 3513 2228 3513 1497 
Q 3513 744 3044 326 
Q 2575 -91 1722 -91 
Q 1428 -91 1123 -41 
Q 819 9 494 109 
L 494 744 
Q 775 591 1075 516 
Q 1375 441 1709 441 
Q 2250 441 2565 725 
Q 2881 1009 2881 1497 
Q 2881 1984 2565 2268 
Q 2250 2553 1709 2553 
Q 1456 2553 1204 2497 
Q 953 2441 691 2322 
L 691 4666 
z
" transform="scale(0.015625)"/>
       </defs>
       <use xlink:href="#DejaVuSans-44"/>
       <use xlink:href="#DejaVuSans-65" x="77.001953"/>
       <use xlink:href="#DejaVuSans-63" x="138.525391"/>
       <use xlink:href="#DejaVuSans-20" x="193.505859"/>
       <use xlink:href="#DejaVuSans-30" x="225.292969"/>
       <use xlink:href="#DejaVuSans-35" x="288.916016"/>
      </g>
     </g>
    </g>
    <g id="xtick_2">
     <g id="line2d_2">
      <g>
       <use xlink:href="#m668625d720" x="134.104545" y="332.2" style="stroke: #000000; stroke-width: 0.8"/>
      </g>
     </g>
     <g id="text_2">
      <!-- Dec 10 -->
      <g transform="translate(116.477202 346.798438)scale(0.1 -0.1)">
       <defs>
        <path id="DejaVuSans-31" d="M 794 531 
L 1825 531 
L 1825 4091 
L 703 3866 
L 703 4441 
L 1819 4666 
L 2450 4666 
L 2450 531 
L 3481 531 
L 3481 0 
L 794 0 
L 794 531 
z
" transform="scale(0.015625)"/>
       </defs>
       <use xlink:href="#DejaVuSans-44"/>
       <use xlink:href="#DejaVuSans-65" x="77.001953"/>
       <use xlink:href="#DejaVuSans-63" x="138.525391"/>
       <use xlink:href="#DejaVuSans-20" x="193.505859"/>
       <use xlink:href="#DejaVuSans-31" x="225.292969"/>
       <use xlink:href="#DejaVuSans-30" x="288.916016"/>
      </g>
     </g>
    </g>
    <g id="xtick_3">
     <g id="line2d_3">
      <g>
       <use xlink:href="#m668625d720" x="194.640909" y="332.2" style="stroke: #000000; stroke-width: 0.8"/>
      </g>
     </g>
     <g id="text_3">
      <!-- Dec 14 -->
      <g transform="translate(177.013565 346.798438)scale(0.1 -0.1)">
       <defs>
        <path id="DejaVuSans-34" d="M 2419 4116 
L 825 1625 
L 2419 1625 
L 2419 4116 
z
M 2253 4666 
L 3047 4666 
L 3047 1625 
L 3713 1625 
L 3713 1100 
L 3047 1100 
L 3047 0 
L 2419 0 
L 2419 1100 
L 313 1100 
L 313 1709 
L 2253 4666 
z
" transform="scale(0.015625)"/>
       </defs>
       <use xlink:href="#DejaVuSans-44"/>
       <use xlink:href="#DejaVuSans-65" x="77.001953"/>
       <use xlink:href="#DejaVuSans-63" x="138.525391"/>
       <use xlink:href="#DejaVuSans-20" x="193.505859"/>
       <use xlink:href="#DejaVuSans-31" x="225.292969"/>
       <use xlink:href="#DejaVuSans-34" x="288.916016"/>
      </g>
     </g>
    </g>
    <g id="xtick_4">
     <g id="line2d_4">
      <g>
       <use xlink:href="#m668625d720" x="255.177273" y="332.2" style="stroke: #000000; stroke-width: 0.8"/>
      </g>
     </g>
     <g id="text_4">
      <!-- Dec 19 -->
      <g transform="translate(237.549929 346.798438)scale(0.1 -0.1)">
       <defs>
        <path id="DejaVuSans-39" d="M 703 97 
L 703 672 
Q 941 559 1184 500 
Q 1428 441 1663 441 
Q 2288 441 2617 861 
Q 2947 1281 2994 2138 
Q 2813 1869 2534 1725 
Q 2256 1581 1919 1581 
Q 1219 1581 811 2004 
Q 403 2428 403 3163 
Q 403 3881 828 4315 
Q 1253 4750 1959 4750 
Q 2769 4750 3195 4129 
Q 3622 3509 3622 2328 
Q 3622 1225 3098 567 
Q 2575 -91 1691 -91 
Q 1453 -91 1209 -44 
Q 966 3 703 97 
z
M 1959 2075 
Q 2384 2075 2632 2365 
Q 2881 2656 2881 3163 
Q 2881 3666 2632 3958 
Q 2384 4250 1959 4250 
Q 1534 4250 1286 3958 
Q 1038 3666 1038 3163 
Q 1038 2656 1286 2365 
Q 1534 2075 1959 2075 
z
" transform="scale(0.015625)"/>
       </defs>
       <use xlink:href="#DejaVuSans-44"/>
       <use xlink:href="#DejaVuSans-65" x="77.001953"/>
       <use xlink:href="#DejaVuSans-63" x="138.525391"/>
       <use xlink:href="#DejaVuSans-20" x="193.505859"/>
       <use xlink:href="#DejaVuSans-31" x="225.292969"/>
       <use xlink:href="#DejaVuSans-39" x="288.916016"/>
      </g>
     </g>
    </g>
    <g id="xtick_5">
     <g id="line2d_5">
      <g>
       <use xlink:href="#m668625d720" x="315.713636" y="332.2" style="stroke: #000000; stroke-width: 0.8"/>
      </g>
     </g>
     <g id="text_5">
      <!-- Dec 23 -->
      <g transform="translate(298.086293 346.798438)scale(0.1 -0.1)">
       <defs>
        <path id="DejaVuSans-32" d="M 1228 531 
L 3431 531 
L 3431 0 
L 469 0 
L 469 531 
Q 828 903 1448 1529 
Q 2069 2156 2228 2338 
Q 2531 2678 2651 2914 
Q 2772 3150 2772 3378 
Q 2772 3750 2511 3984 
Q 2250 4219 1831 4219 
Q 1534 4219 1204 4116 
Q 875 4013 500 3803 
L 500 4441 
Q 881 4594 1212 4672 
Q 1544 4750 1819 4750 
Q 2544 4750 2975 4387 
Q 3406 4025 3406 3419 
Q 3406 3131 3298 2873 
Q 3191 2616 2906 2266 
Q 2828 2175 2409 1742 
Q 1991 1309 1228 531 
z
" transform="scale(0.015625)"/>
        <path id="DejaVuSans-33" d="M 2597 2516 
Q 3050 2419 3304 2112 
Q 3559 1806 3559 1356 
Q 3559 666 3084 287 
Q 2609 -91 1734 -91 
Q 1441 -91 1130 -33 
Q 819 25 488 141 
L 488 750 
Q 750 597 1062 519 
Q 1375 441 1716 441 
Q 2309 441 2620 675 
Q 2931 909 2931 1356 
Q 2931 1769 2642 2001 
Q 2353 2234 1838 2234 
L 1294 2234 
L 1294 2753 
L 1863 2753 
Q 2328 2753 2575 2939 
Q 2822 3125 2822 3475 
Q 2822 3834 2567 4026 
Q 2313 4219 1838 4219 
Q 1578 4219 1281 4162 
Q 984 4106 628 3988 
L 628 4550 
Q 988 4650 1302 4700 
Q 1616 4750 1894 4750 
Q 2613 4750 3031 4423 
Q 3450 4097 3450 3541 
Q 3450 3153 3228 2886 
Q 3006 2619 2597 2516 
z
" transform="scale(0.015625)"/>
       </defs>
       <use xlink:href="#DejaVuSans-44"/>
       <use xlink:href="#DejaVuSans-65" x="77.001953"/>
       <use xlink:href="#DejaVuSans-63" x="138.525391"/>
       <use xlink:href="#DejaVuSans-20" x="193.505859"/>
       <use xlink:href="#DejaVuSans-32" x="225.292969"/>
       <use xlink:href="#DejaVuSans-33" x="288.916016"/>
      </g>
     </g>
    </g>
    <g id="xtick_6">
     <g id="line2d_6">
      <g>
       <use xlink:href="#m668625d720" x="376.25" y="332.2" style="stroke: #000000; stroke-width: 0.8"/>
      </g>
     </g>
     <g id="text_6">
      <!-- Dec 27 -->
      <g transform="translate(358.622656 346.798438)scale(0.1 -0.1)">
       <defs>
        <path id="DejaVuSans-37" d="M 525 4666 
L 3525 4666 
L 3525 4397 
L 1831 0 
L 1172 0 
L 2766 4134 
L 525 4134 
L 525 4666 
z
" transform="scale(0.015625)"/>
       </defs>
       <use xlink:href="#DejaVuSans-44"/>
       <use xlink:href="#DejaVuSans-65" x="77.001953"/>
       <use xlink:href="#DejaVuSans-63" x="138.525391"/>
       <use xlink:href="#DejaVuSans-20" x="193.505859"/>
       <use xlink:href="#DejaVuSans-32" x="225.292969"/>
       <use xlink:href="#DejaVuSans-37" x="288.916016"/>
      </g>
     </g>
    </g>
    <g id="xtick_7">
     <g id="line2d_7">
      <g>
       <use xlink:href="#m668625d720" x="436.786364" y="332.2" style="stroke: #000000; stroke-width: 0.8"/>
      </g>
     </g>
     <g id="text_7">
      <!-- Dec 31 -->
      <g transform="translate(419.15902 346.798438)scale(0.1 -0.1)">
       <use xlink:href="#DejaVuSans-44"/>
       <use xlink:href="#DejaVuSans-65" x="77.001953"/>
       <use xlink:href="#DejaVuSans-63" x="138.525391"/>
       <use xlink:href="#DejaVuSans-20" x="193.505859"/>
       <use xlink:href="#DejaVuSans-33" x="225.292969"/>
       <use xlink:href="#DejaVuSans-31" x="288.916016"/>
      </g>
     </g>
    </g>
    <g id="xtick_8">
     <g id="line2d_8">
      <g>
       <use xlink:href="#m668625d720" x="497.322727" y="332.2" style="stroke: #000000; stroke-width: 0.8"/>
      </g>
     </g>
     <g id="text_8">
      <!-- Jan 04 -->
      <g transform="translate(481.663352 346.798438)scale(0.1 -0.1)">
       <defs>
        <path id="DejaVuSans-4a" d="M 628 4666 
L 1259 4666 
L 1259 325 
Q 1259 -519 939 -900 
Q 619 -1281 -91 -1281 
L -331 -1281 
L -331 -750 
L -134 -750 
Q 284 -750 456 -515 
Q 628 -281 628 325 
L 628 4666 
z
" transform="scale(0.015625)"/>
        <path id="DejaVuSans-61" d="M 2194 1759 
Q 1497 1759 1228 1600 
Q 959 1441 959 1056 
Q 959 750 1161 570 
Q 1363 391 1709 391 
Q 2188 391 2477 730 
Q 2766 1069 2766 1631 
L 2766 1759 
L 2194 1759 
z
M 3341 1997 
L 3341 0 
L 2766 0 
L 2766 531 
Q 2569 213 2275 61 
Q 1981 -91 1556 -91 
Q 1019 -91 701 211 
Q 384 513 384 1019 
Q 384 1609 779 1909 
Q 1175 2209 1959 2209 
L 2766 2209 
L 2766 2266 
Q 2766 2663 2505 2880 
Q 2244 3097 1772 3097 
Q 1472 3097 1187 3025 
Q 903 2953 641 2809 
L 641 3341 
Q 956 3463 1253 3523 
Q 1550 3584 1831 3584 
Q 2591 3584 2966 3190 
Q 3341 2797 3341 1997 
z
" transform="scale(0.015625)"/>
        <path id="DejaVuSans-6e" d="M 3513 2113 
L 3513 0 
L 2938 0 
L 2938 2094 
Q 2938 2591 2744 2837 
Q 2550 3084 2163 3084 
Q 1697 3084 1428 2787 
Q 1159 2491 1159 1978 
L 1159 0 
L 581 0 
L 581 3500 
L 1159 3500 
L 1159 2956 
Q 1366 3272 1645 3428 
Q 1925 3584 2291 3584 
Q 2894 3584 3203 3211 
Q 3513 2838 3513 2113 
z
" transform="scale(0.015625)"/>
       </defs>
       <use xlink:href="#DejaVuSans-4a"/>
       <use xlink:href="#DejaVuSans-61" x="29.492188"/>
       <use xlink:href="#DejaVuSans-6e" x="90.771484"/>
       <use xlink:href="#DejaVuSans-20" x="154.150391"/>
       <use xlink:href="#DejaVuSans-30" x="185.9375"/>
       <use xlink:href="#DejaVuSans-34" x="249.560547"/>
      </g>
     </g>
    </g>
    <g id="xtick_9">
     <g id="line2d_9">
      <g>
       <use xlink:href="#m668625d720" x="557.859091" y="332.2" style="stroke: #000000; stroke-width: 0.8"/>
      </g>
     </g>
     <g id="text_9">
      <!-- Jan 08 -->
      <g transform="translate(542.199716 346.798438)scale(0.1 -0.1)">
       <defs>
        <path id="DejaVuSans-38" d="M 2034 2216 
Q 1584 2216 1326 1975 
Q 1069 1734 1069 1313 
Q 1069 891 1326 650 
Q 1584 409 2034 409 
Q 2484 409 2743 651 
Q 3003 894 3003 1313 
Q 3003 1734 2745 1975 
Q 2488 2216 2034 2216 
z
M 1403 2484 
Q 997 2584 770 2862 
Q 544 3141 544 3541 
Q 544 4100 942 4425 
Q 1341 4750 2034 4750 
Q 2731 4750 3128 4425 
Q 3525 4100 3525 3541 
Q 3525 3141 3298 2862 
Q 3072 2584 2669 2484 
Q 3125 2378 3379 2068 
Q 3634 1759 3634 1313 
Q 3634 634 3220 271 
Q 2806 -91 2034 -91 
Q 1263 -91 848 271 
Q 434 634 434 1313 
Q 434 1759 690 2068 
Q 947 2378 1403 2484 
z
M 1172 3481 
Q 1172 3119 1398 2916 
Q 1625 2713 2034 2713 
Q 2441 2713 2670 2916 
Q 2900 3119 2900 3481 
Q 2900 3844 2670 4047 
Q 2441 4250 2034 4250 
Q 1625 4250 1398 4047 
Q 1172 3844 1172 3481 
z
" transform="scale(0.015625)"/>
       </defs>
       <use xlink:href="#DejaVuSans-4a"/>
       <use xlink:href="#DejaVuSans-61" x="29.492188"/>
       <use xlink:href="#DejaVuSans-6e" x="90.771484"/>
       <use xlink:href="#DejaVuSans-20" x="154.150391"/>
       <use xlink:href="#DejaVuSans-30" x="185.9375"/>
       <use xlink:href="#DejaVuSans-38" x="249.560547"/>
      </g>
     </g>
    </g>
    <g id="xtick_10">
     <g id="line2d_10">
      <g>
       <use xlink:href="#m668625d720" x="618.395455" y="332.2" style="stroke: #000000; stroke-width: 0.8"/>
      </g>
     </g>
     <g id="text_10">
      <!-- Jan 12 -->
      <g transform="translate(602.73608 346.798438)scale(0.1 -0.1)">
       <use xlink:href="#DejaVuSans-4a"/>
       <use xlink:href="#DejaVuSans-61" x="29.492188"/>
       <use xlink:href="#DejaVuSans-6e" x="90.771484"/>
       <use xlink:href="#DejaVuSans-20" x="154.150391"/>
       <use xlink:href="#DejaVuSans-31" x="185.9375"/>
       <use xlink:href="#DejaVuSans-32" x="249.560547"/>
      </g>
     </g>
    </g>
    <g id="xtick_11">
     <g id="line2d_11">
      <g>
       <use xlink:href="#m668625d720" x="678.931818" y="332.2" style="stroke: #000000; stroke-width: 0.8"/>
      </g>
     </g>
     <g id="text_11">
      <!-- Jan 16 -->
      <g transform="translate(663.272443 346.798438)scale(0.1 -0.1)">
       <defs>
        <path id="DejaVuSans-36" d="M 2113 2584 
Q 1688 2584 1439 2293 
Q 1191 2003 1191 1497 
Q 1191 994 1439 701 
Q 1688 409 2113 409 
Q 2538 409 2786 701 
Q 3034 994 3034 1497 
Q 3034 2003 2786 2293 
Q 2538 2584 2113 2584 
z
M 3366 4563 
L 3366 3988 
Q 3128 4100 2886 4159 
Q 2644 4219 2406 4219 
Q 1781 4219 1451 3797 
Q 1122 3375 1075 2522 
Q 1259 2794 1537 2939 
Q 1816 3084 2150 3084 
Q 2853 3084 3261 2657 
Q 3669 2231 3669 1497 
Q 3669 778 3244 343 
Q 2819 -91 2113 -91 
Q 1303 -91 875 529 
Q 447 1150 447 2328 
Q 447 3434 972 4092 
Q 1497 4750 2381 4750 
Q 2619 4750 2861 4703 
Q 3103 4656 3366 4563 
z
" transform="scale(0.015625)"/>
       </defs>
       <use xlink:href="#DejaVuSans-4a"/>
       <use xlink:href="#DejaVuSans-61" x="29.492188"/>
       <use xlink:href="#DejaVuSans-6e" x="90.771484"/>
       <use xlink:href="#DejaVuSans-20" x="154.150391"/>
       <use xlink:href="#DejaVuSans-31" x="185.9375"/>
       <use xlink:href="#DejaVuSans-36" x="249.560547"/>
      </g>
     </g>
    </g>
   </g>
   <g id="matplotlib.axis_2">
    <g id="ytick_1">
     <g id="line2d_12">
      <defs>
       <path id="m895e866e63" d="M 0 0 
L -3.5 0 
" style="stroke: #000000; stroke-width: 0.8"/>
      </defs>
      <g>
       <use xlink:href="#m895e866e63" x="43.3" y="332.2" style="stroke: #000000; stroke-width: 0.8"/>
      </g>
     </g>
     <g id="text_12">
      <!-- 0 -->
      <g transform="translate(29.9375 335.999219)scale(0.1 -0.1)">
       <use xlink:href="#DejaVuSans-30"/>
      </g>
     </g>
    </g>
    <g id="ytick_2">
     <g id="line2d_13">
      <g>
       <use xlink:href="#m895e866e63" x="43.3" y="296.410151" style="stroke: #000000; stroke-width: 0.8"/>
      </g>
     </g>
     <g id="text_13">
      <!-- 500 -->
      <g transform="translate(17.2125 300.20937)scale(0.1 -0.1)">
       <use xlink:href="#DejaVuSans-35"/>
       <use xlink:href="#DejaVuSans-30" x="63.623047"/>
       <use xlink:href="#DejaVuSans-30" x="127.246094"/>
      </g>
     </g>
    </g>
    <g id="ytick_3">
     <g id="line2d_14">
      <g>
       <use xlink:href="#m895e866e63" x="43.3" y="260.620302" style="stroke: #000000; stroke-width: 0.8"/>
      </g>
     </g>
     <g id="text_14">
      <!-- 1000 -->
      <g transform="translate(10.85 264.419521)scale(0.1 -0.1)">
       <use xlink:href="#DejaVuSans-31"/>
       <use xlink:href="#DejaVuSans-30" x="63.623047"/>
       <use xlink:href="#DejaVuSans-30" x="127.246094"/>
       <use xlink:href="#DejaVuSans-30" x="190.869141"/>
      </g>
     </g>
    </g>
    <g id="ytick_4">
     <g id="line2d_15">
      <g>
       <use xlink:href="#m895e866e63" x="43.3" y="224.830454" style="stroke: #000000; stroke-width: 0.8"/>
      </g>
     </g>
     <g id="text_15">
      <!-- 1500 -->
      <g transform="translate(10.85 228.629672)scale(0.1 -0.1)">
       <use xlink:href="#DejaVuSans-31"/>
       <use xlink:href="#DejaVuSans-35" x="63.623047"/>
       <use xlink:href="#DejaVuSans-30" x="127.246094"/>
       <use xlink:href="#DejaVuSans-30" x="190.869141"/>
      </g>
     </g>
    </g>
    <g id="ytick_5">
     <g id="line2d_16">
      <g>
       <use xlink:href="#m895e866e63" x="43.3" y="189.040605" style="stroke: #000000; stroke-width: 0.8"/>
      </g>
     </g>
     <g id="text_16">
      <!-- 2000 -->
      <g transform="translate(10.85 192.839824)scale(0.1 -0.1)">
       <use xlink:href="#DejaVuSans-32"/>
       <use xlink:href="#DejaVuSans-30" x="63.623047"/>
       <use xlink:href="#DejaVuSans-30" x="127.246094"/>
       <use xlink:href="#DejaVuSans-30" x="190.869141"/>
      </g>
     </g>
    </g>
    <g id="ytick_6">
     <g id="line2d_17">
      <g>
       <use xlink:href="#m895e866e63" x="43.3" y="153.250756" style="stroke: #000000; stroke-width: 0.8"/>
      </g>
     </g>
     <g id="text_17">
      <!-- 2500 -->
      <g transform="translate(10.85 157.049975)scale(0.1 -0.1)">
       <use xlink:href="#DejaVuSans-32"/>
       <use xlink:href="#DejaVuSans-35" x="63.623047"/>
       <use xlink:href="#DejaVuSans-30" x="127.246094"/>
       <use xlink:href="#DejaVuSans-30" x="190.869141"/>
      </g>
     </g>
    </g>
    <g id="ytick_7">
     <g id="line2d_18">
      <g>
       <use xlink:href="#m895e866e63" x="43.3" y="117.460907" style="stroke: #000000; stroke-width: 0.8"/>
      </g>
     </g>
     <g id="text_18">
      <!-- 3000 -->
      <g transform="translate(10.85 121.260126)scale(0.1 -0.1)">
       <use xlink:href="#DejaVuSans-33"/>
       <use xlink:href="#DejaVuSans-30" x="63.623047"/>
       <use xlink:href="#DejaVuSans-30" x="127.246094"/>
       <use xlink:href="#DejaVuSans-30" x="190.869141"/>
      </g>
     </g>
    </g>
    <g id="ytick_8">
     <g id="line2d_19">
      <g>
       <use xlink:href="#m895e866e63" x="43.3" y="81.671059" style="stroke: #000000; stroke-width: 0.8"/>
      </g>
     </g>
     <g id="text_19">
      <!-- 3500 -->
      <g transform="translate(10.85 85.470277)scale(0.1 -0.1)">
       <use xlink:href="#DejaVuSans-33"/>
       <use xlink:href="#DejaVuSans-35" x="63.623047"/>
       <use xlink:href="#DejaVuSans-30" x="127.246094"/>
       <use xlink:href="#DejaVuSans-30" x="190.869141"/>
      </g>
     </g>
    </g>
    <g id="ytick_9">
     <g id="line2d_20">
      <g>
       <use xlink:href="#m895e866e63" x="43.3" y="45.88121" style="stroke: #000000; stroke-width: 0.8"/>
      </g>
     </g>
     <g id="text_20">
      <!-- 4000 -->
      <g transform="translate(10.85 49.680429)scale(0.1 -0.1)">
       <use xlink:href="#DejaVuSans-34"/>
       <use xlink:href="#DejaVuSans-30" x="63.623047"/>
       <use xlink:href="#DejaVuSans-30" x="127.246094"/>
       <use xlink:href="#DejaVuSans-30" x="190.869141"/>
      </g>
     </g>
    </g>
   </g>
   <g id="line2d_21">
    <path d="M 73.568182 328.549435 
L 88.702273 329.193653 
L 103.836364 329.623131 
L 118.970455 328.549435 
L 134.104545 327.332581 
L 149.238636 326.688363 
L 164.372727 328.406276 
L 179.506818 327.976798 
L 194.640909 327.54732 
L 209.775 327.40416 
L 224.909091 325.686248 
L 240.043182 324.684132 
L 255.177273 324.827291 
L 270.311364 323.968335 
L 285.445455 321.892524 
L 300.579545 320.46093 
L 315.713636 317.454582 
L 330.847727 314.949293 
L 345.981818 315.59351 
L 361.115909 317.526162 
L 376.25 316.237727 
L 391.384091 317.168264 
L 406.518182 314.734554 
L 421.652273 294.26276 
L 436.786364 262.696114 
L 451.920455 263.698229 
L 467.054545 262.195056 
L 482.188636 258.401332 
L 497.322727 245.445407 
L 512.456818 217.171426 
L 527.590909 197.558589 
L 542.725 211.44505 
L 557.859091 192.762749 
L 572.993182 202.13969 
L 588.127273 250.384406 
L 603.261364 204.43024 
L 618.395455 181.381577 
L 633.529545 160.265566 
L 648.663636 202.282849 
L 663.797727 153.322336 
L 678.931818 191.044836 
" clip-path="url(#p3ed2912b17)" style="fill: none; stroke: #1f77b4; stroke-width: 1.5; stroke-linecap: square"/>
    <defs>
     <path id="m23d473a414" d="M 0 3 
C 0.795609 3 1.55874 2.683901 2.12132 2.12132 
C 2.683901 1.55874 3 0.795609 3 0 
C 3 -0.795609 2.683901 -1.55874 2.12132 -2.12132 
C 1.55874 -2.683901 0.795609 -3 0 -3 
C -0.795609 -3 -1.55874 -2.683901 -2.12132 -2.12132 
C -2.683901 -1.55874 -3 -0.795609 -3 0 
C -3 0.795609 -2.683901 1.55874 -2.12132 2.12132 
C -1.55874 2.683901 -0.795609 3 0 3 
z
" style="stroke: #1f77b4"/>
    </defs>
    <g clip-path="url(#p3ed2912b17)">
     <use xlink:href="#m23d473a414" x="73.568182" y="328.549435" style="fill: #1f77b4; stroke: #1f77b4"/>
     <use xlink:href="#m23d473a414" x="88.702273" y="329.193653" style="fill: #1f77b4; stroke: #1f77b4"/>
     <use xlink:href="#m23d473a414" x="103.836364" y="329.623131" style="fill: #1f77b4; stroke: #1f77b4"/>
     <use xlink:href="#m23d473a414" x="118.970455" y="328.549435" style="fill: #1f77b4; stroke: #1f77b4"/>
     <use xlink:href="#m23d473a414" x="134.104545" y="327.332581" style="fill: #1f77b4; stroke: #1f77b4"/>
     <use xlink:href="#m23d473a414" x="149.238636" y="326.688363" style="fill: #1f77b4; stroke: #1f77b4"/>
     <use xlink:href="#m23d473a414" x="164.372727" y="328.406276" style="fill: #1f77b4; stroke: #1f77b4"/>
     <use xlink:href="#m23d473a414" x="179.506818" y="327.976798" style="fill: #1f77b4; stroke: #1f77b4"/>
     <use xlink:href="#m23d473a414" x="194.640909" y="327.54732" style="fill: #1f77b4; stroke: #1f77b4"/>
     <use xlink:href="#m23d473a414" x="209.775" y="327.40416" style="fill: #1f77b4; stroke: #1f77b4"/>
     <use xlink:href="#m23d473a414" x="224.909091" y="325.686248" style="fill: #1f77b4; stroke: #1f77b4"/>
     <use xlink:href="#m23d473a414" x="240.043182" y="324.684132" style="fill: #1f77b4; stroke: #1f77b4"/>
     <use xlink:href="#m23d473a414" x="255.177273" y="324.827291" style="fill: #1f77b4; stroke: #1f77b4"/>
     <use xlink:href="#m23d473a414" x="270.311364" y="323.968335" style="fill: #1f77b4; stroke: #1f77b4"/>
     <use xlink:href="#m23d473a414" x="285.445455" y="321.892524" style="fill: #1f77b4; stroke: #1f77b4"/>
     <use xlink:href="#m23d473a414" x="300.579545" y="320.46093" style="fill: #1f77b4; stroke: #1f77b4"/>
     <use xlink:href="#m23d473a414" x="315.713636" y="317.454582" style="fill: #1f77b4; stroke: #1f77b4"/>
     <use xlink:href="#m23d473a414" x="330.847727" y="314.949293" style="fill: #1f77b4; stroke: #1f77b4"/>
     <use xlink:href="#m23d473a414" x="345.981818" y="315.59351" style="fill: #1f77b4; stroke: #1f77b4"/>
     <use xlink:href="#m23d473a414" x="361.115909" y="317.526162" style="fill: #1f77b4; stroke: #1f77b4"/>
     <use xlink:href="#m23d473a414" x="376.25" y="316.237727" style="fill: #1f77b4; stroke: #1f77b4"/>
     <use xlink:href="#m23d473a414" x="391.384091" y="317.168264" style="fill: #1f77b4; stroke: #1f77b4"/>
     <use xlink:href="#m23d473a414" x="406.518182" y="314.734554" style="fill: #1f77b4; stroke: #1f77b4"/>
     <use xlink:href="#m23d473a414" x="421.652273" y="294.26276" style="fill: #1f77b4; stroke: #1f77b4"/>
     <use xlink:href="#m23d473a414" x="436.786364" y="262.696114" style="fill: #1f77b4; stroke: #1f77b4"/>
     <use xlink:href="#m23d473a414" x="451.920455" y="263.698229" style="fill: #1f77b4; stroke: #1f77b4"/>
     <use xlink:href="#m23d473a414" x="467.054545" y="262.195056" style="fill: #1f77b4; stroke: #1f77b4"/>
     <use xlink:href="#m23d473a414" x="482.188636" y="258.401332" style="fill: #1f77b4; stroke: #1f77b4"/>
     <use xlink:href="#m23d473a414" x="497.322727" y="245.445407" style="fill: #1f77b4; stroke: #1f77b4"/>
     <use xlink:href="#m23d473a414" x="512.456818" y="217.171426" style="fill: #1f77b4; stroke: #1f77b4"/>
     <use xlink:href="#m23d473a414" x="527.590909" y="197.558589" style="fill: #1f77b4; stroke: #1f77b4"/>
     <use xlink:href="#m23d473a414" x="542.725" y="211.44505" style="fill: #1f77b4; stroke: #1f77b4"/>
     <use xlink:href="#m23d473a414" x="557.859091" y="192.762749" style="fill: #1f77b4; stroke: #1f77b4"/>
     <use xlink:href="#m23d473a414" x="572.993182" y="202.13969" style="fill: #1f77b4; stroke: #1f77b4"/>
     <use xlink:href="#m23d473a414" x="588.127273" y="250.384406" style="fill: #1f77b4; stroke: #1f77b4"/>
     <use xlink:href="#m23d473a414" x="603.261364" y="204.43024" style="fill: #1f77b4; stroke: #1f77b4"/>
     <use xlink:href="#m23d473a414" x="618.395455" y="181.381577" style="fill: #1f77b4; stroke: #1f77b4"/>
     <use xlink:href="#m23d473a414" x="633.529545" y="160.265566" style="fill: #1f77b4; stroke: #1f77b4"/>
     <use xlink:href="#m23d473a414" x="648.663636" y="202.282849" style="fill: #1f77b4; stroke: #1f77b4"/>
     <use xlink:href="#m23d473a414" x="663.797727" y="153.322336" style="fill: #1f77b4; stroke: #1f77b4"/>
     <use xlink:href="#m23d473a414" x="678.931818" y="191.044836" style="fill: #1f77b4; stroke: #1f77b4"/>
    </g>
   </g>
   <g id="line2d_22">
    <path d="M 73.568182 327.618899 
L 88.702273 328.191537 
L 103.836364 329.193653 
L 118.970455 326.258885 
L 134.104545 328.334696 
L 149.238636 327.189421 
L 164.372727 326.903102 
L 179.506818 326.903102 
L 194.640909 326.831523 
L 209.775 323.610436 
L 224.909091 314.734554 
L 240.043182 318.599857 
L 255.177273 308.077642 
L 270.311364 308.865019 
L 285.445455 308.65028 
L 300.579545 294.620659 
L 315.713636 290.182718 
L 330.847727 280.662618 
L 345.981818 287.749008 
L 361.115909 282.237371 
L 376.25 288.106906 
L 391.384091 289.252181 
L 406.518182 287.033211 
L 421.652273 246.733841 
L 436.786364 198.417545 
L 451.920455 197.558589 
L 467.054545 209.941877 
L 482.188636 203.213385 
L 497.322727 199.491241 
L 512.456818 106.795532 
L 527.590909 52.251803 
L 542.725 61.700323 
L 557.859091 25.982054 
L 572.993182 103.502866 
L 588.127273 200.708096 
L 603.261364 136.214788 
L 618.395455 115.671415 
L 633.529545 117.389328 
L 648.663636 158.404494 
L 663.797727 115.241937 
L 678.931818 172.147796 
" clip-path="url(#p3ed2912b17)" style="fill: none; stroke: #ff7f0e; stroke-width: 1.5; stroke-linecap: square"/>
    <defs>
     <path id="m542436b778" d="M 0 3 
C 0.795609 3 1.55874 2.683901 2.12132 2.12132 
C 2.683901 1.55874 3 0.795609 3 0 
C 3 -0.795609 2.683901 -1.55874 2.12132 -2.12132 
C 1.55874 -2.683901 0.795609 -3 0 -3 
C -0.795609 -3 -1.55874 -2.683901 -2.12132 -2.12132 
C -2.683901 -1.55874 -3 -0.795609 -3 0 
C -3 0.795609 -2.683901 1.55874 -2.12132 2.12132 
C -1.55874 2.683901 -0.795609 3 0 3 
z
" style="stroke: #ff7f0e"/>
    </defs>
    <g clip-path="url(#p3ed2912b17)">
     <use xlink:href="#m542436b778" x="73.568182" y="327.618899" style="fill: #ff7f0e; stroke: #ff7f0e"/>
     <use xlink:href="#m542436b778" x="88.702273" y="328.191537" style="fill: #ff7f0e; stroke: #ff7f0e"/>
     <use xlink:href="#m542436b778" x="103.836364" y="329.193653" style="fill: #ff7f0e; stroke: #ff7f0e"/>
     <use xlink:href="#m542436b778" x="118.970455" y="326.258885" style="fill: #ff7f0e; stroke: #ff7f0e"/>
     <use xlink:href="#m542436b778" x="134.104545" y="328.334696" style="fill: #ff7f0e; stroke: #ff7f0e"/>
     <use xlink:href="#m542436b778" x="149.238636" y="327.189421" style="fill: #ff7f0e; stroke: #ff7f0e"/>
     <use xlink:href="#m542436b778" x="164.372727" y="326.903102" style="fill: #ff7f0e; stroke: #ff7f0e"/>
     <use xlink:href="#m542436b778" x="179.506818" y="326.903102" style="fill: #ff7f0e; stroke: #ff7f0e"/>
     <use xlink:href="#m542436b778" x="194.640909" y="326.831523" style="fill: #ff7f0e; stroke: #ff7f0e"/>
     <use xlink:href="#m542436b778" x="209.775" y="323.610436" style="fill: #ff7f0e; stroke: #ff7f0e"/>
     <use xlink:href="#m542436b778" x="224.909091" y="314.734554" style="fill: #ff7f0e; stroke: #ff7f0e"/>
     <use xlink:href="#m542436b778" x="240.043182" y="318.599857" style="fill: #ff7f0e; stroke: #ff7f0e"/>
     <use xlink:href="#m542436b778" x="255.177273" y="308.077642" style="fill: #ff7f0e; stroke: #ff7f0e"/>
     <use xlink:href="#m542436b778" x="270.311364" y="308.865019" style="fill: #ff7f0e; stroke: #ff7f0e"/>
     <use xlink:href="#m542436b778" x="285.445455" y="308.65028" style="fill: #ff7f0e; stroke: #ff7f0e"/>
     <use xlink:href="#m542436b778" x="300.579545" y="294.620659" style="fill: #ff7f0e; stroke: #ff7f0e"/>
     <use xlink:href="#m542436b778" x="315.713636" y="290.182718" style="fill: #ff7f0e; stroke: #ff7f0e"/>
     <use xlink:href="#m542436b778" x="330.847727" y="280.662618" style="fill: #ff7f0e; stroke: #ff7f0e"/>
     <use xlink:href="#m542436b778" x="345.981818" y="287.749008" style="fill: #ff7f0e; stroke: #ff7f0e"/>
     <use xlink:href="#m542436b778" x="361.115909" y="282.237371" style="fill: #ff7f0e; stroke: #ff7f0e"/>
     <use xlink:href="#m542436b778" x="376.25" y="288.106906" style="fill: #ff7f0e; stroke: #ff7f0e"/>
     <use xlink:href="#m542436b778" x="391.384091" y="289.252181" style="fill: #ff7f0e; stroke: #ff7f0e"/>
     <use xlink:href="#m542436b778" x="406.518182" y="287.033211" style="fill: #ff7f0e; stroke: #ff7f0e"/>
     <use xlink:href="#m542436b778" x="421.652273" y="246.733841" style="fill: #ff7f0e; stroke: #ff7f0e"/>
     <use xlink:href="#m542436b778" x="436.786364" y="198.417545" style="fill: #ff7f0e; stroke: #ff7f0e"/>
     <use xlink:href="#m542436b778" x="451.920455" y="197.558589" style="fill: #ff7f0e; stroke: #ff7f0e"/>
     <use xlink:href="#m542436b778" x="467.054545" y="209.941877" style="fill: #ff7f0e; stroke: #ff7f0e"/>
     <use xlink:href="#m542436b778" x="482.188636" y="203.213385" style="fill: #ff7f0e; stroke: #ff7f0e"/>
     <use xlink:href="#m542436b778" x="497.322727" y="199.491241" style="fill: #ff7f0e; stroke: #ff7f0e"/>
     <use xlink:href="#m542436b778" x="512.456818" y="106.795532" style="fill: #ff7f0e; stroke: #ff7f0e"/>
     <use xlink:href="#m542436b778" x="527.590909" y="52.251803" style="fill: #ff7f0e; stroke: #ff7f0e"/>
     <use xlink:href="#m542436b778" x="542.725" y="61.700323" style="fill: #ff7f0e; stroke: #ff7f0e"/>
     <use xlink:href="#m542436b778" x="557.859091" y="25.982054" style="fill: #ff7f0e; stroke: #ff7f0e"/>
     <use xlink:href="#m542436b778" x="572.993182" y="103.502866" style="fill: #ff7f0e; stroke: #ff7f0e"/>
     <use xlink:href="#m542436b778" x="588.127273" y="200.708096" style="fill: #ff7f0e; stroke: #ff7f0e"/>
     <use xlink:href="#m542436b778" x="603.261364" y="136.214788" style="fill: #ff7f0e; stroke: #ff7f0e"/>
     <use xlink:href="#m542436b778" x="618.395455" y="115.671415" style="fill: #ff7f0e; stroke: #ff7f0e"/>
     <use xlink:href="#m542436b778" x="633.529545" y="117.389328" style="fill: #ff7f0e; stroke: #ff7f0e"/>
     <use xlink:href="#m542436b778" x="648.663636" y="158.404494" style="fill: #ff7f0e; stroke: #ff7f0e"/>
     <use xlink:href="#m542436b778" x="663.797727" y="115.241937" style="fill: #ff7f0e; stroke: #ff7f0e"/>
     <use xlink:href="#m542436b778" x="678.931818" y="172.147796" style="fill: #ff7f0e; stroke: #ff7f0e"/>
    </g>
   </g>
   <g id="patch_3">
    <path d="M 43.3 332.2 
L 43.3 10.8 
" style="fill: none; stroke: #000000; stroke-width: 0.8; stroke-linejoin: miter; stroke-linecap: square"/>
   </g>
   <g id="patch_4">
    <path d="M 709.2 332.2 
L 709.2 10.8 
" style="fill: none; stroke: #000000; stroke-width: 0.8; stroke-linejoin: miter; stroke-linecap: square"/>
   </g>
   <g id="patch_5">
    <path d="M 43.3 332.2 
L 709.2 332.2 
" style="fill: none; stroke: #000000; stroke-width: 0.8; stroke-linejoin: miter; stroke-linecap: square"/>
   </g>
   <g id="patch_6">
    <path d="M 43.3 10.8 
L 709.2 10.8 
" style="fill: none; stroke: #000000; stroke-width: 0.8; stroke-linejoin: miter; stroke-linecap: square"/>
   </g>
   <g id="legend_1">
    <g id="patch_7">
     <path d="M 50.3 48.15625 
L 166.134375 48.15625 
Q 168.134375 48.15625 168.134375 46.15625 
L 168.134375 17.8 
Q 168.134375 15.8 166.134375 15.8 
L 50.3 15.8 
Q 48.3 15.8 48.3 17.8 
L 48.3 46.15625 
Q 48.3 48.15625 50.3 48.15625 
z
" style="fill: #ffffff; opacity: 0.8; stroke: #cccccc; stroke-linejoin: miter"/>
    </g>
    <g id="line2d_23">
     <path d="M 52.3 23.898438 
L 62.3 23.898438 
L 72.3 23.898438 
" style="fill: none; stroke: #1f77b4; stroke-width: 1.5; stroke-linecap: square"/>
     <g>
      <use xlink:href="#m23d473a414" x="62.3" y="23.898438" style="fill: #1f77b4; stroke: #1f77b4"/>
     </g>
    </g>
    <g id="text_21">
     <!-- Age range 0-9 -->
     <g transform="translate(80.3 27.398438)scale(0.1 -0.1)">
      <defs>
       <path id="DejaVuSans-41" d="M 2188 4044 
L 1331 1722 
L 3047 1722 
L 2188 4044 
z
M 1831 4666 
L 2547 4666 
L 4325 0 
L 3669 0 
L 3244 1197 
L 1141 1197 
L 716 0 
L 50 0 
L 1831 4666 
z
" transform="scale(0.015625)"/>
       <path id="DejaVuSans-67" d="M 2906 1791 
Q 2906 2416 2648 2759 
Q 2391 3103 1925 3103 
Q 1463 3103 1205 2759 
Q 947 2416 947 1791 
Q 947 1169 1205 825 
Q 1463 481 1925 481 
Q 2391 481 2648 825 
Q 2906 1169 2906 1791 
z
M 3481 434 
Q 3481 -459 3084 -895 
Q 2688 -1331 1869 -1331 
Q 1566 -1331 1297 -1286 
Q 1028 -1241 775 -1147 
L 775 -588 
Q 1028 -725 1275 -790 
Q 1522 -856 1778 -856 
Q 2344 -856 2625 -561 
Q 2906 -266 2906 331 
L 2906 616 
Q 2728 306 2450 153 
Q 2172 0 1784 0 
Q 1141 0 747 490 
Q 353 981 353 1791 
Q 353 2603 747 3093 
Q 1141 3584 1784 3584 
Q 2172 3584 2450 3431 
Q 2728 3278 2906 2969 
L 2906 3500 
L 3481 3500 
L 3481 434 
z
" transform="scale(0.015625)"/>
       <path id="DejaVuSans-72" d="M 2631 2963 
Q 2534 3019 2420 3045 
Q 2306 3072 2169 3072 
Q 1681 3072 1420 2755 
Q 1159 2438 1159 1844 
L 1159 0 
L 581 0 
L 581 3500 
L 1159 3500 
L 1159 2956 
Q 1341 3275 1631 3429 
Q 1922 3584 2338 3584 
Q 2397 3584 2469 3576 
Q 2541 3569 2628 3553 
L 2631 2963 
z
" transform="scale(0.015625)"/>
       <path id="DejaVuSans-2d" d="M 313 2009 
L 1997 2009 
L 1997 1497 
L 313 1497 
L 313 2009 
z
" transform="scale(0.015625)"/>
      </defs>
      <use xlink:href="#DejaVuSans-41"/>
      <use xlink:href="#DejaVuSans-67" x="68.408203"/>
      <use xlink:href="#DejaVuSans-65" x="131.884766"/>
      <use xlink:href="#DejaVuSans-20" x="193.408203"/>
      <use xlink:href="#DejaVuSans-72" x="225.195312"/>
      <use xlink:href="#DejaVuSans-61" x="266.308594"/>
      <use xlink:href="#DejaVuSans-6e" x="327.587891"/>
      <use xlink:href="#DejaVuSans-67" x="390.966797"/>
      <use xlink:href="#DejaVuSans-65" x="454.443359"/>
      <use xlink:href="#DejaVuSans-20" x="515.966797"/>
      <use xlink:href="#DejaVuSans-30" x="547.753906"/>
      <use xlink:href="#DejaVuSans-2d" x="611.376953"/>
      <use xlink:href="#DejaVuSans-39" x="647.460938"/>
     </g>
    </g>
    <g id="line2d_24">
     <path d="M 52.3 38.576563 
L 62.3 38.576563 
L 72.3 38.576563 
" style="fill: none; stroke: #ff7f0e; stroke-width: 1.5; stroke-linecap: square"/>
     <g>
      <use xlink:href="#m542436b778" x="62.3" y="38.576563" style="fill: #ff7f0e; stroke: #ff7f0e"/>
     </g>
    </g>
    <g id="text_22">
     <!-- Age range 10-19 -->
     <g transform="translate(80.3 42.076563)scale(0.1 -0.1)">
      <use xlink:href="#DejaVuSans-41"/>
      <use xlink:href="#DejaVuSans-67" x="68.408203"/>
      <use xlink:href="#DejaVuSans-65" x="131.884766"/>
      <use xlink:href="#DejaVuSans-20" x="193.408203"/>
      <use xlink:href="#DejaVuSans-72" x="225.195312"/>
      <use xlink:href="#DejaVuSans-61" x="266.308594"/>
      <use xlink:href="#DejaVuSans-6e" x="327.587891"/>
      <use xlink:href="#DejaVuSans-67" x="390.966797"/>
      <use xlink:href="#DejaVuSans-65" x="454.443359"/>
      <use xlink:href="#DejaVuSans-20" x="515.966797"/>
      <use xlink:href="#DejaVuSans-31" x="547.753906"/>
      <use xlink:href="#DejaVuSans-30" x="611.376953"/>
      <use xlink:href="#DejaVuSans-2d" x="675"/>
      <use xlink:href="#DejaVuSans-31" x="711.083984"/>
      <use xlink:href="#DejaVuSans-39" x="774.707031"/>
     </g>
    </g>
   </g>
  </g>
 </g>
 <defs>
  <clipPath id="p3ed2912b17">
   <rect x="43.3" y="10.8" width="665.9" height="321.4"/>
  </clipPath>
 </defs>
</svg>
